G04*
G04 #@! TF.GenerationSoftware,Altium Limited,Altium Designer,23.1.1 (15)*
G04*
G04 Layer_Color=8388736*
%FSLAX44Y44*%
%MOMM*%
G71*
G04*
G04 #@! TF.SameCoordinates,32E53F4C-9CDF-4151-867A-B185B0D7BA91*
G04*
G04*
G04 #@! TF.FilePolarity,Negative*
G04*
G01*
G75*
%ADD34R,1.8542X1.3716*%
%ADD36R,1.3208X2.0066*%
%ADD37O,2.4032X0.8128*%
%ADD38R,1.4031X1.6030*%
%ADD39R,1.0508X0.7508*%
%ADD40R,2.0066X1.3208*%
%ADD41R,1.7532X0.8032*%
G04:AMPARAMS|DCode=42|XSize=1.8132mm|YSize=0.7932mm|CornerRadius=0.1754mm|HoleSize=0mm|Usage=FLASHONLY|Rotation=0.000|XOffset=0mm|YOffset=0mm|HoleType=Round|Shape=RoundedRectangle|*
%AMROUNDEDRECTD42*
21,1,1.8132,0.4425,0,0,0.0*
21,1,1.4625,0.7932,0,0,0.0*
1,1,0.3507,0.7313,-0.2213*
1,1,0.3507,-0.7313,-0.2213*
1,1,0.3507,-0.7313,0.2213*
1,1,0.3507,0.7313,0.2213*
%
%ADD42ROUNDEDRECTD42*%
G04:AMPARAMS|DCode=43|XSize=1.4132mm|YSize=0.7932mm|CornerRadius=0.2491mm|HoleSize=0mm|Usage=FLASHONLY|Rotation=180.000|XOffset=0mm|YOffset=0mm|HoleType=Round|Shape=RoundedRectangle|*
%AMROUNDEDRECTD43*
21,1,1.4132,0.2950,0,0,180.0*
21,1,0.9150,0.7932,0,0,180.0*
1,1,0.4982,-0.4575,0.1475*
1,1,0.4982,0.4575,0.1475*
1,1,0.4982,0.4575,-0.1475*
1,1,0.4982,-0.4575,-0.1475*
%
%ADD43ROUNDEDRECTD43*%
%ADD44R,1.6008X0.5588*%
%ADD45R,0.5588X1.6008*%
%ADD46R,1.5208X0.3508*%
%ADD47R,1.5008X0.3508*%
%ADD48R,1.7032X1.4032*%
%ADD49R,1.4097X1.8532*%
%ADD50O,2.6032X1.4032*%
%ADD51C,1.4032*%
%ADD52C,1.9812*%
%ADD53O,2.0032X3.5032*%
%ADD54O,4.0032X2.2032*%
%ADD55C,1.8032*%
%ADD56C,1.8532*%
%ADD57O,2.2032X4.0032*%
%ADD58O,3.5032X2.0032*%
%ADD59C,2.2032*%
%ADD60C,0.8382*%
D34*
X730250Y74168D02*
D03*
Y105410D02*
D03*
D36*
X578358Y296164D02*
D03*
X548386D02*
D03*
X498094Y295910D02*
D03*
X468122D02*
D03*
X429006Y296672D02*
D03*
X399034D02*
D03*
X318262Y297688D02*
D03*
X348234D02*
D03*
X119634Y17780D02*
D03*
X149606D02*
D03*
X155956Y256540D02*
D03*
X125984D02*
D03*
X123444Y226060D02*
D03*
X153416D02*
D03*
X129540Y324612D02*
D03*
X99568D02*
D03*
X119126Y294132D02*
D03*
X149098D02*
D03*
X134366Y383540D02*
D03*
X104394D02*
D03*
X653542Y220726D02*
D03*
X683514D02*
D03*
X696722Y320040D02*
D03*
X666750D02*
D03*
X665988Y398272D02*
D03*
X636016D02*
D03*
X805180Y59690D02*
D03*
X835152D02*
D03*
X834390Y100330D02*
D03*
X804418D02*
D03*
X855472Y403098D02*
D03*
X885444D02*
D03*
X702818Y541782D02*
D03*
X732790D02*
D03*
X758698Y541020D02*
D03*
X788670D02*
D03*
X108712Y452628D02*
D03*
X78740D02*
D03*
X77978Y483870D02*
D03*
X107950D02*
D03*
X86106Y516890D02*
D03*
X116078D02*
D03*
X53594Y516636D02*
D03*
X23622D02*
D03*
X51816Y454152D02*
D03*
X21844D02*
D03*
X255270Y458470D02*
D03*
X225298D02*
D03*
X255270Y504698D02*
D03*
X225298D02*
D03*
D37*
X132334Y492760D02*
D03*
Y480060D02*
D03*
Y467360D02*
D03*
Y454660D02*
D03*
Y441960D02*
D03*
Y429260D02*
D03*
Y416560D02*
D03*
Y403860D02*
D03*
X191770D02*
D03*
Y416560D02*
D03*
Y429260D02*
D03*
Y441960D02*
D03*
Y454660D02*
D03*
Y467360D02*
D03*
Y480060D02*
D03*
Y492760D02*
D03*
D38*
X69959Y362381D02*
D03*
Y384381D02*
D03*
X52959Y362381D02*
D03*
Y384382D02*
D03*
X666260Y274732D02*
D03*
Y252730D02*
D03*
X683260Y274730D02*
D03*
Y252730D02*
D03*
D39*
X162052Y546862D02*
D03*
Y537362D02*
D03*
Y527862D02*
D03*
X185677D02*
D03*
Y537362D02*
D03*
Y546862D02*
D03*
D40*
X584708Y540512D02*
D03*
Y570484D02*
D03*
X627380Y273812D02*
D03*
Y243840D02*
D03*
X629920Y507492D02*
D03*
Y477520D02*
D03*
X754380Y275082D02*
D03*
Y245110D02*
D03*
X727710Y275082D02*
D03*
Y245110D02*
D03*
X858520Y507492D02*
D03*
Y477520D02*
D03*
X774700Y507492D02*
D03*
Y477520D02*
D03*
X815340D02*
D03*
Y507492D02*
D03*
X671830Y477520D02*
D03*
Y507492D02*
D03*
X725170D02*
D03*
Y477520D02*
D03*
X190500Y65532D02*
D03*
Y35560D02*
D03*
X191770Y103124D02*
D03*
Y133096D02*
D03*
X283210Y132842D02*
D03*
Y102870D02*
D03*
X237490D02*
D03*
Y132842D02*
D03*
X765810Y75184D02*
D03*
Y105156D02*
D03*
X902970Y477520D02*
D03*
Y507492D02*
D03*
D41*
X616890Y579628D02*
D03*
Y566928D02*
D03*
Y554228D02*
D03*
Y541528D02*
D03*
X670890Y579628D02*
D03*
Y566928D02*
D03*
Y554228D02*
D03*
Y541528D02*
D03*
D42*
X705612Y410820D02*
D03*
Y401320D02*
D03*
Y391820D02*
D03*
X728512D02*
D03*
Y401320D02*
D03*
Y410820D02*
D03*
D43*
X584558Y491642D02*
D03*
X559458Y501142D02*
D03*
X584558Y510642D02*
D03*
D44*
X792570Y204960D02*
D03*
Y197086D02*
D03*
Y188958D02*
D03*
Y181084D02*
D03*
Y172956D02*
D03*
Y165082D02*
D03*
Y156954D02*
D03*
Y149080D02*
D03*
X708570D02*
D03*
Y156954D02*
D03*
Y165082D02*
D03*
Y172956D02*
D03*
Y181084D02*
D03*
Y188958D02*
D03*
Y197086D02*
D03*
Y204960D02*
D03*
D45*
X778510Y134530D02*
D03*
X770636D02*
D03*
X762508D02*
D03*
X754634D02*
D03*
X746506D02*
D03*
X738632D02*
D03*
X730504D02*
D03*
X722630D02*
D03*
Y218530D02*
D03*
X730504D02*
D03*
X738632D02*
D03*
X746506D02*
D03*
X754634D02*
D03*
X762508D02*
D03*
X770636D02*
D03*
X778510D02*
D03*
D46*
X812448Y410558D02*
D03*
Y405558D02*
D03*
Y400558D02*
D03*
Y395558D02*
D03*
Y390558D02*
D03*
X768448D02*
D03*
Y395558D02*
D03*
Y400558D02*
D03*
Y405558D02*
D03*
D47*
Y410558D02*
D03*
D48*
X218968Y39864D02*
D03*
X284968Y69864D02*
D03*
Y39864D02*
D03*
X218968Y69864D02*
D03*
D49*
X547243Y239360D02*
D03*
Y187360D02*
D03*
X579501Y239360D02*
D03*
Y187360D02*
D03*
X315595Y240630D02*
D03*
Y188630D02*
D03*
X347853Y240630D02*
D03*
Y188630D02*
D03*
X467487Y240122D02*
D03*
Y188122D02*
D03*
X499745Y240122D02*
D03*
Y188122D02*
D03*
X392811Y241138D02*
D03*
Y189138D02*
D03*
X425069Y241138D02*
D03*
Y189138D02*
D03*
D50*
X25082Y292470D02*
D03*
X72582D02*
D03*
Y218070D02*
D03*
X25082D02*
D03*
D51*
X81599Y239071D02*
D03*
Y255071D02*
D03*
X69562Y247072D02*
D03*
Y263072D02*
D03*
X81599Y271070D02*
D03*
D52*
X232664Y600202D02*
D03*
X258064D02*
D03*
X181864D02*
D03*
X207264D02*
D03*
X359918Y530860D02*
D03*
Y505460D02*
D03*
Y581660D02*
D03*
Y556260D02*
D03*
X401320D02*
D03*
Y581660D02*
D03*
Y505460D02*
D03*
Y530860D02*
D03*
X454660Y556260D02*
D03*
Y581660D02*
D03*
Y505460D02*
D03*
Y530860D02*
D03*
X513588Y556260D02*
D03*
Y581660D02*
D03*
Y505460D02*
D03*
Y530860D02*
D03*
X104394Y600202D02*
D03*
X129794D02*
D03*
X53594D02*
D03*
X78994D02*
D03*
X334010Y59690D02*
D03*
Y34290D02*
D03*
Y110490D02*
D03*
Y85090D02*
D03*
X505460Y431800D02*
D03*
X530860D02*
D03*
X454660D02*
D03*
X480060D02*
D03*
X146050Y81280D02*
D03*
Y55880D02*
D03*
Y132080D02*
D03*
Y106680D02*
D03*
X904240Y45720D02*
D03*
X878840D02*
D03*
X955040D02*
D03*
X929640D02*
D03*
X905510Y259080D02*
D03*
X880110D02*
D03*
X956310D02*
D03*
X930910D02*
D03*
X209550Y281940D02*
D03*
Y256540D02*
D03*
Y332740D02*
D03*
Y307340D02*
D03*
X657352Y61214D02*
D03*
Y35814D02*
D03*
X631952Y61214D02*
D03*
Y35814D02*
D03*
X606552Y61214D02*
D03*
Y35814D02*
D03*
X904240Y114300D02*
D03*
X878840D02*
D03*
X955040D02*
D03*
X929640D02*
D03*
X904240Y184150D02*
D03*
X878840D02*
D03*
X955040D02*
D03*
X929640D02*
D03*
D53*
X99215Y117494D02*
D03*
D54*
X52715Y82494D02*
D03*
Y142494D02*
D03*
D55*
X510020Y76708D02*
D03*
X445020D02*
D03*
D56*
X955040Y452120D02*
D03*
Y477520D02*
D03*
Y502920D02*
D03*
X99060Y190500D02*
D03*
X124460D02*
D03*
X149860D02*
D03*
X748030Y608330D02*
D03*
X722630D02*
D03*
X697230D02*
D03*
D57*
X835350Y576580D02*
D03*
X895350D02*
D03*
D58*
X860350Y623080D02*
D03*
D59*
X935990Y368580D02*
D03*
Y403580D02*
D03*
D60*
X840740Y154940D02*
D03*
X937260Y429260D02*
D03*
X829310Y209550D02*
D03*
X819150Y232410D02*
D03*
X778410Y201752D02*
D03*
X773430Y163830D02*
D03*
X755650Y189230D02*
D03*
X772160Y241300D02*
D03*
X754380Y295910D02*
D03*
X748030Y179070D02*
D03*
X753988Y155163D02*
D03*
X562610Y568960D02*
D03*
X654050Y604520D02*
D03*
X542290Y500380D02*
D03*
X598170Y477520D02*
D03*
X571500Y430530D02*
D03*
X689610Y426720D02*
D03*
X741680Y492760D02*
D03*
X744220Y520700D02*
D03*
X833120Y491490D02*
D03*
X834390Y429260D02*
D03*
X740410Y356870D02*
D03*
X617220Y187960D02*
D03*
X728980Y182880D02*
D03*
Y165100D02*
D03*
X829310Y125730D02*
D03*
X678180Y46990D02*
D03*
X718820Y34290D02*
D03*
X572770Y78740D02*
D03*
X447040Y115570D02*
D03*
X300990Y116840D02*
D03*
X237490Y436880D02*
D03*
X161290Y421640D02*
D03*
X25400Y416560D02*
D03*
X92710Y467360D02*
D03*
X168148Y481838D02*
D03*
X163830Y468630D02*
D03*
X123190Y547370D02*
D03*
X560578Y206248D02*
D03*
X414782Y296672D02*
D03*
X325374Y206756D02*
D03*
X282194Y117856D02*
D03*
X133350Y539750D02*
D03*
X151337Y544867D02*
D03*
X111760Y499110D02*
D03*
X93345Y483997D02*
D03*
X141351Y256540D02*
D03*
X119380Y383540D02*
D03*
X29210Y431800D02*
D03*
X69850Y402590D02*
D03*
X133350Y294640D02*
D03*
X556260Y431800D02*
D03*
X53340Y342900D02*
D03*
X134366Y18034D02*
D03*
X788527Y391779D02*
D03*
X823976Y420370D02*
D03*
X789432Y405892D02*
D03*
X815086Y491236D02*
D03*
X774954Y465328D02*
D03*
X584708Y555752D02*
D03*
X559816Y557022D02*
D03*
X750570Y398272D02*
D03*
X725170Y493522D02*
D03*
X630428Y493268D02*
D03*
X542544Y515366D02*
D03*
X584200Y480060D02*
D03*
X240284Y504190D02*
D03*
X771398Y173990D02*
D03*
X771219Y192024D02*
D03*
X814832Y221234D02*
D03*
X713232Y260096D02*
D03*
X695960Y251460D02*
D03*
X735422Y263779D02*
D03*
X727456Y357124D02*
D03*
X683324Y401511D02*
D03*
X874395Y403098D02*
D03*
X697738Y274652D02*
D03*
X766064Y90170D02*
D03*
X668782Y219710D02*
D03*
X728218Y194818D02*
D03*
X840994Y209550D02*
D03*
X602234Y187706D02*
D03*
X571500Y60960D02*
D03*
X705612Y34036D02*
D03*
X687324Y35052D02*
D03*
X838962Y169418D02*
D03*
X817880Y117856D02*
D03*
X722884Y155702D02*
D03*
X464312Y113792D02*
D03*
X161036Y436118D02*
D03*
X757428Y520954D02*
D03*
X768604Y382016D02*
D03*
X756782Y390312D02*
D03*
X705104Y421386D02*
D03*
X668528Y592328D02*
D03*
X253746Y437642D02*
D03*
X644144Y576326D02*
D03*
X241300Y35052D02*
D03*
X563118Y296672D02*
D03*
X509778Y102870D02*
D03*
X93726Y452120D02*
D03*
X657860Y84836D02*
D03*
X334010Y298196D02*
D03*
X285496Y55372D02*
D03*
X238252Y118618D02*
D03*
X192278Y118364D02*
D03*
X902970Y492506D02*
D03*
X671576Y492760D02*
D03*
X651256Y398526D02*
D03*
X681990Y320548D02*
D03*
X819658Y58928D02*
D03*
X651002Y252730D02*
D03*
X482346Y204978D02*
D03*
X407416Y207264D02*
D03*
X482600Y295402D02*
D03*
M02*
