G04*
G04 #@! TF.GenerationSoftware,Altium Limited,Altium Designer,23.1.1 (15)*
G04*
G04 Layer_Color=2752767*
%FSLAX44Y44*%
%MOMM*%
G71*
G04*
G04 #@! TF.SameCoordinates,32E53F4C-9CDF-4151-867A-B185B0D7BA91*
G04*
G04*
G04 #@! TF.FilePolarity,Positive*
G04*
G01*
G75*
%ADD19C,0.1270*%
%ADD73C,0.1693*%
%ADD74C,0.1016*%
D19*
X22541Y289930D02*
Y287390D01*
X27622D01*
Y289930D01*
X30161D01*
Y295010D01*
X27622D01*
Y297550D01*
X22541D01*
Y295010D01*
X20001D01*
Y289930D01*
X22541D01*
X70041D02*
Y287390D01*
X75121D01*
Y289930D01*
X77661D01*
Y295010D01*
X75121D01*
Y297550D01*
X70041D01*
Y295010D01*
X67502D01*
Y289930D01*
X70041D01*
Y215530D02*
Y212990D01*
X75121D01*
Y215530D01*
X77661D01*
Y220610D01*
X75121D01*
Y223150D01*
X70041D01*
Y220610D01*
X67502D01*
Y215530D01*
X70041D01*
X76519Y233991D02*
X79058D01*
X81599Y236531D01*
X84138Y233991D01*
X86678D01*
Y236531D01*
X84138Y239071D01*
X86678Y241611D01*
Y244151D01*
X84138D01*
X81599Y241611D01*
X79058Y244151D01*
X76519D01*
Y241611D01*
X79058Y239071D01*
X76519Y236531D01*
Y233991D01*
Y249991D02*
X79058D01*
X81599Y252531D01*
X84138Y249991D01*
X86678D01*
Y252531D01*
X84138Y255071D01*
X86678Y257611D01*
Y260151D01*
X84138D01*
X81599Y257611D01*
X79058Y260151D01*
X76519D01*
Y257611D01*
X79058Y255071D01*
X76519Y252531D01*
Y249991D01*
X64482Y241992D02*
X67021D01*
X69562Y244532D01*
X72101Y241992D01*
X74641D01*
Y244532D01*
X72101Y247072D01*
X74641Y249612D01*
Y252152D01*
X72101D01*
X69562Y249612D01*
X67021Y252152D01*
X64482D01*
Y249612D01*
X67021Y247072D01*
X64482Y244532D01*
Y241992D01*
Y257992D02*
X67021D01*
X69562Y260532D01*
X72101Y257992D01*
X74641D01*
Y260532D01*
X72101Y263072D01*
X74641Y265612D01*
Y268152D01*
X72101D01*
X69562Y265612D01*
X67021Y268152D01*
X64482D01*
Y265612D01*
X67021Y263072D01*
X64482Y260532D01*
Y257992D01*
X76519Y265990D02*
X79058D01*
X81599Y268530D01*
X84138Y265990D01*
X86678D01*
Y268530D01*
X84138Y271070D01*
X86678Y273610D01*
Y276150D01*
X84138D01*
X81599Y273610D01*
X79058Y276150D01*
X76519D01*
Y273610D01*
X79058Y271070D01*
X76519Y268530D01*
Y265990D01*
X22541Y215530D02*
Y212990D01*
X27622D01*
Y215530D01*
X30161D01*
Y220610D01*
X27622D01*
Y223150D01*
X22541D01*
Y220610D01*
X20001D01*
Y215530D01*
X22541D01*
X94135Y112414D02*
X96675Y117494D01*
X94135Y122574D01*
X99215Y120034D01*
X104295Y122574D01*
X101755Y117494D01*
X104295Y112414D01*
X99215Y114954D01*
X94135Y112414D01*
X52715Y77414D02*
X55255Y79954D01*
X57795D01*
X55255Y82494D01*
X57795Y85034D01*
X55255D01*
X52715Y87574D01*
X50175Y85034D01*
X47635D01*
X50175Y82494D01*
X47635Y79954D01*
X50175D01*
X52715Y77414D01*
Y137414D02*
X55255Y139954D01*
X57795D01*
X55255Y142494D01*
X57795Y145034D01*
X55255D01*
X52715Y147574D01*
X50175Y145034D01*
X47635D01*
X50175Y142494D01*
X47635Y139954D01*
X50175D01*
X52715Y137414D01*
X504940Y76708D02*
X510020Y81788D01*
X515100Y76708D01*
X510020Y71628D01*
X504940Y76708D01*
X439940D02*
X445020Y81788D01*
X450100Y76708D01*
X445020Y71628D01*
X439940Y76708D01*
X955040Y447040D02*
X949960Y457200D01*
X960120D01*
X955040Y447040D01*
Y472440D02*
X949960Y482600D01*
X960120D01*
X955040Y472440D01*
Y497840D02*
X949960Y508000D01*
X960120D01*
X955040Y497840D01*
X99060Y185420D02*
X93980Y195580D01*
X104140D01*
X99060Y185420D01*
X124460D02*
X119380Y195580D01*
X129540D01*
X124460Y185420D01*
X149860D02*
X144780Y195580D01*
X154940D01*
X149860Y185420D01*
X748030Y603250D02*
X742950Y613410D01*
X753110D01*
X748030Y603250D01*
X722630D02*
X717550Y613410D01*
X727710D01*
X722630Y603250D01*
X697230D02*
X692150Y613410D01*
X702310D01*
X697230Y603250D01*
X835350Y571500D02*
X837890Y574040D01*
X840430D01*
X837890Y576580D01*
X840430Y579120D01*
X837890D01*
X835350Y581660D01*
X832810Y579120D01*
X830270D01*
X832810Y576580D01*
X830270Y574040D01*
X832810D01*
X835350Y571500D01*
X895350D02*
X897890Y574040D01*
X900430D01*
X897890Y576580D01*
X900430Y579120D01*
X897890D01*
X895350Y581660D01*
X892810Y579120D01*
X890270D01*
X892810Y576580D01*
X890270Y574040D01*
X892810D01*
X895350Y571500D01*
X855270Y618000D02*
X857810Y623080D01*
X855270Y628160D01*
X860350Y625620D01*
X865430Y628160D01*
X862890Y623080D01*
X865430Y618000D01*
X860350Y620540D01*
X855270Y618000D01*
X657352Y56134D02*
X652272Y66294D01*
X662432D01*
X657352Y56134D01*
Y30734D02*
X652272Y40894D01*
X662432D01*
X657352Y30734D01*
X631952Y56134D02*
X626872Y66294D01*
X637032D01*
X631952Y56134D01*
Y30734D02*
X626872Y40894D01*
X637032D01*
X631952Y30734D01*
X606552Y56134D02*
X601472Y66294D01*
X611632D01*
X606552Y56134D01*
Y30734D02*
X601472Y40894D01*
X611632D01*
X606552Y30734D01*
X930910Y363500D02*
Y373660D01*
X941070D01*
Y363500D01*
X930910D01*
Y398500D02*
Y408660D01*
X941070D01*
Y398500D01*
X930910D01*
D73*
X237744Y600202D02*
G03*
X237744Y600202I-5080J0D01*
G01*
X263144D02*
G03*
X263144Y600202I-5080J0D01*
G01*
X186944D02*
G03*
X186944Y600202I-5080J0D01*
G01*
X212344D02*
G03*
X212344Y600202I-5080J0D01*
G01*
X364998Y530860D02*
G03*
X364998Y530860I-5080J0D01*
G01*
Y505460D02*
G03*
X364998Y505460I-5080J0D01*
G01*
Y581660D02*
G03*
X364998Y581660I-5080J0D01*
G01*
Y556260D02*
G03*
X364998Y556260I-5080J0D01*
G01*
X406400D02*
G03*
X406400Y556260I-5080J0D01*
G01*
Y581660D02*
G03*
X406400Y581660I-5080J0D01*
G01*
Y505460D02*
G03*
X406400Y505460I-5080J0D01*
G01*
Y530860D02*
G03*
X406400Y530860I-5080J0D01*
G01*
X459740Y556260D02*
G03*
X459740Y556260I-5080J0D01*
G01*
Y581660D02*
G03*
X459740Y581660I-5080J0D01*
G01*
Y505460D02*
G03*
X459740Y505460I-5080J0D01*
G01*
Y530860D02*
G03*
X459740Y530860I-5080J0D01*
G01*
X518668Y556260D02*
G03*
X518668Y556260I-5080J0D01*
G01*
Y581660D02*
G03*
X518668Y581660I-5080J0D01*
G01*
Y505460D02*
G03*
X518668Y505460I-5080J0D01*
G01*
Y530860D02*
G03*
X518668Y530860I-5080J0D01*
G01*
X109474Y600202D02*
G03*
X109474Y600202I-5080J0D01*
G01*
X134874D02*
G03*
X134874Y600202I-5080J0D01*
G01*
X58674D02*
G03*
X58674Y600202I-5080J0D01*
G01*
X84074D02*
G03*
X84074Y600202I-5080J0D01*
G01*
X339090Y59690D02*
G03*
X339090Y59690I-5080J0D01*
G01*
Y34290D02*
G03*
X339090Y34290I-5080J0D01*
G01*
Y110490D02*
G03*
X339090Y110490I-5080J0D01*
G01*
Y85090D02*
G03*
X339090Y85090I-5080J0D01*
G01*
X510540Y431800D02*
G03*
X510540Y431800I-5080J0D01*
G01*
X535940D02*
G03*
X535940Y431800I-5080J0D01*
G01*
X459740D02*
G03*
X459740Y431800I-5080J0D01*
G01*
X485140D02*
G03*
X485140Y431800I-5080J0D01*
G01*
X151130Y81280D02*
G03*
X151130Y81280I-5080J0D01*
G01*
Y55880D02*
G03*
X151130Y55880I-5080J0D01*
G01*
Y132080D02*
G03*
X151130Y132080I-5080J0D01*
G01*
Y106680D02*
G03*
X151130Y106680I-5080J0D01*
G01*
X909320Y45720D02*
G03*
X909320Y45720I-5080J0D01*
G01*
X883920D02*
G03*
X883920Y45720I-5080J0D01*
G01*
X960120D02*
G03*
X960120Y45720I-5080J0D01*
G01*
X934720D02*
G03*
X934720Y45720I-5080J0D01*
G01*
X910590Y259080D02*
G03*
X910590Y259080I-5080J0D01*
G01*
X885190D02*
G03*
X885190Y259080I-5080J0D01*
G01*
X961390D02*
G03*
X961390Y259080I-5080J0D01*
G01*
X935990D02*
G03*
X935990Y259080I-5080J0D01*
G01*
X214630Y281940D02*
G03*
X214630Y281940I-5080J0D01*
G01*
Y256540D02*
G03*
X214630Y256540I-5080J0D01*
G01*
Y332740D02*
G03*
X214630Y332740I-5080J0D01*
G01*
Y307340D02*
G03*
X214630Y307340I-5080J0D01*
G01*
X909320Y114300D02*
G03*
X909320Y114300I-5080J0D01*
G01*
X883920D02*
G03*
X883920Y114300I-5080J0D01*
G01*
X960120D02*
G03*
X960120Y114300I-5080J0D01*
G01*
X934720D02*
G03*
X934720Y114300I-5080J0D01*
G01*
X909320Y184150D02*
G03*
X909320Y184150I-5080J0D01*
G01*
X883920D02*
G03*
X883920Y184150I-5080J0D01*
G01*
X960120D02*
G03*
X960120Y184150I-5080J0D01*
G01*
X934720D02*
G03*
X934720Y184150I-5080J0D01*
G01*
X845820Y154940D02*
G03*
X845820Y154940I-5080J0D01*
G01*
X942340Y429260D02*
G03*
X942340Y429260I-5080J0D01*
G01*
X834390Y209550D02*
G03*
X834390Y209550I-5080J0D01*
G01*
X824230Y232410D02*
G03*
X824230Y232410I-5080J0D01*
G01*
X783490Y201752D02*
G03*
X783490Y201752I-5080J0D01*
G01*
X778510Y163830D02*
G03*
X778510Y163830I-5080J0D01*
G01*
X760730Y189230D02*
G03*
X760730Y189230I-5080J0D01*
G01*
X777240Y241300D02*
G03*
X777240Y241300I-5080J0D01*
G01*
X759460Y295910D02*
G03*
X759460Y295910I-5080J0D01*
G01*
X753110Y179070D02*
G03*
X753110Y179070I-5080J0D01*
G01*
X759069Y155163D02*
G03*
X759069Y155163I-5080J0D01*
G01*
X567690Y568960D02*
G03*
X567690Y568960I-5080J0D01*
G01*
X659130Y604520D02*
G03*
X659130Y604520I-5080J0D01*
G01*
X547370Y500380D02*
G03*
X547370Y500380I-5080J0D01*
G01*
X603250Y477520D02*
G03*
X603250Y477520I-5080J0D01*
G01*
X576580Y430530D02*
G03*
X576580Y430530I-5080J0D01*
G01*
X694690Y426720D02*
G03*
X694690Y426720I-5080J0D01*
G01*
X746760Y492760D02*
G03*
X746760Y492760I-5080J0D01*
G01*
X749300Y520700D02*
G03*
X749300Y520700I-5080J0D01*
G01*
X838200Y491490D02*
G03*
X838200Y491490I-5080J0D01*
G01*
X839470Y429260D02*
G03*
X839470Y429260I-5080J0D01*
G01*
X745490Y356870D02*
G03*
X745490Y356870I-5080J0D01*
G01*
X622300Y187960D02*
G03*
X622300Y187960I-5080J0D01*
G01*
X734060Y182880D02*
G03*
X734060Y182880I-5080J0D01*
G01*
Y165100D02*
G03*
X734060Y165100I-5080J0D01*
G01*
X834390Y125730D02*
G03*
X834390Y125730I-5080J0D01*
G01*
X683260Y46990D02*
G03*
X683260Y46990I-5080J0D01*
G01*
X723900Y34290D02*
G03*
X723900Y34290I-5080J0D01*
G01*
X577850Y78740D02*
G03*
X577850Y78740I-5080J0D01*
G01*
X452120Y115570D02*
G03*
X452120Y115570I-5080J0D01*
G01*
X306070Y116840D02*
G03*
X306070Y116840I-5080J0D01*
G01*
X242570Y436880D02*
G03*
X242570Y436880I-5080J0D01*
G01*
X166370Y421640D02*
G03*
X166370Y421640I-5080J0D01*
G01*
X30480Y416560D02*
G03*
X30480Y416560I-5080J0D01*
G01*
X97790Y467360D02*
G03*
X97790Y467360I-5080J0D01*
G01*
X173228Y481838D02*
G03*
X173228Y481838I-5080J0D01*
G01*
X168910Y468630D02*
G03*
X168910Y468630I-5080J0D01*
G01*
X128270Y547370D02*
G03*
X128270Y547370I-5080J0D01*
G01*
X565658Y206248D02*
G03*
X565658Y206248I-5080J0D01*
G01*
X419862Y296672D02*
G03*
X419862Y296672I-5080J0D01*
G01*
X330454Y206756D02*
G03*
X330454Y206756I-5080J0D01*
G01*
X287274Y117856D02*
G03*
X287274Y117856I-5080J0D01*
G01*
X138430Y539750D02*
G03*
X138430Y539750I-5080J0D01*
G01*
X156417Y544867D02*
G03*
X156417Y544867I-5080J0D01*
G01*
X116840Y499110D02*
G03*
X116840Y499110I-5080J0D01*
G01*
X98425Y483997D02*
G03*
X98425Y483997I-5080J0D01*
G01*
X146431Y256540D02*
G03*
X146431Y256540I-5080J0D01*
G01*
X124460Y383540D02*
G03*
X124460Y383540I-5080J0D01*
G01*
X34290Y431800D02*
G03*
X34290Y431800I-5080J0D01*
G01*
X74930Y402590D02*
G03*
X74930Y402590I-5080J0D01*
G01*
X138430Y294640D02*
G03*
X138430Y294640I-5080J0D01*
G01*
X561340Y431800D02*
G03*
X561340Y431800I-5080J0D01*
G01*
X58420Y342900D02*
G03*
X58420Y342900I-5080J0D01*
G01*
X139446Y18034D02*
G03*
X139446Y18034I-5080J0D01*
G01*
X793607Y391779D02*
G03*
X793607Y391779I-5080J0D01*
G01*
X829056Y420370D02*
G03*
X829056Y420370I-5080J0D01*
G01*
X794512Y405892D02*
G03*
X794512Y405892I-5080J0D01*
G01*
X820166Y491236D02*
G03*
X820166Y491236I-5080J0D01*
G01*
X780034Y465328D02*
G03*
X780034Y465328I-5080J0D01*
G01*
X589788Y555752D02*
G03*
X589788Y555752I-5080J0D01*
G01*
X564896Y557022D02*
G03*
X564896Y557022I-5080J0D01*
G01*
X755650Y398272D02*
G03*
X755650Y398272I-5080J0D01*
G01*
X730250Y493522D02*
G03*
X730250Y493522I-5080J0D01*
G01*
X635508Y493268D02*
G03*
X635508Y493268I-5080J0D01*
G01*
X547624Y515366D02*
G03*
X547624Y515366I-5080J0D01*
G01*
X589280Y480060D02*
G03*
X589280Y480060I-5080J0D01*
G01*
X245364Y504190D02*
G03*
X245364Y504190I-5080J0D01*
G01*
X776478Y173990D02*
G03*
X776478Y173990I-5080J0D01*
G01*
X776299Y192024D02*
G03*
X776299Y192024I-5080J0D01*
G01*
X819912Y221234D02*
G03*
X819912Y221234I-5080J0D01*
G01*
X718312Y260096D02*
G03*
X718312Y260096I-5080J0D01*
G01*
X701040Y251460D02*
G03*
X701040Y251460I-5080J0D01*
G01*
X740502Y263779D02*
G03*
X740502Y263779I-5080J0D01*
G01*
X732536Y357124D02*
G03*
X732536Y357124I-5080J0D01*
G01*
X688403Y401511D02*
G03*
X688403Y401511I-5080J0D01*
G01*
X879475Y403098D02*
G03*
X879475Y403098I-5080J0D01*
G01*
X702818Y274652D02*
G03*
X702818Y274652I-5080J0D01*
G01*
X771144Y90170D02*
G03*
X771144Y90170I-5080J0D01*
G01*
X673862Y219710D02*
G03*
X673862Y219710I-5080J0D01*
G01*
X733298Y194818D02*
G03*
X733298Y194818I-5080J0D01*
G01*
X846074Y209550D02*
G03*
X846074Y209550I-5080J0D01*
G01*
X607314Y187706D02*
G03*
X607314Y187706I-5080J0D01*
G01*
X576580Y60960D02*
G03*
X576580Y60960I-5080J0D01*
G01*
X710692Y34036D02*
G03*
X710692Y34036I-5080J0D01*
G01*
X692404Y35052D02*
G03*
X692404Y35052I-5080J0D01*
G01*
X844042Y169418D02*
G03*
X844042Y169418I-5080J0D01*
G01*
X822960Y117856D02*
G03*
X822960Y117856I-5080J0D01*
G01*
X727964Y155702D02*
G03*
X727964Y155702I-5080J0D01*
G01*
X469392Y113792D02*
G03*
X469392Y113792I-5080J0D01*
G01*
X166116Y436118D02*
G03*
X166116Y436118I-5080J0D01*
G01*
X762508Y520954D02*
G03*
X762508Y520954I-5080J0D01*
G01*
X773684Y382016D02*
G03*
X773684Y382016I-5080J0D01*
G01*
X761862Y390312D02*
G03*
X761862Y390312I-5080J0D01*
G01*
X710184Y421386D02*
G03*
X710184Y421386I-5080J0D01*
G01*
X673608Y592328D02*
G03*
X673608Y592328I-5080J0D01*
G01*
X258826Y437642D02*
G03*
X258826Y437642I-5080J0D01*
G01*
X649224Y576326D02*
G03*
X649224Y576326I-5080J0D01*
G01*
X246380Y35052D02*
G03*
X246380Y35052I-5080J0D01*
G01*
X568198Y296672D02*
G03*
X568198Y296672I-5080J0D01*
G01*
X514858Y102870D02*
G03*
X514858Y102870I-5080J0D01*
G01*
X98806Y452120D02*
G03*
X98806Y452120I-5080J0D01*
G01*
X662940Y84836D02*
G03*
X662940Y84836I-5080J0D01*
G01*
X339090Y298196D02*
G03*
X339090Y298196I-5080J0D01*
G01*
X290576Y55372D02*
G03*
X290576Y55372I-5080J0D01*
G01*
X243332Y118618D02*
G03*
X243332Y118618I-5080J0D01*
G01*
X197358Y118364D02*
G03*
X197358Y118364I-5080J0D01*
G01*
X908050Y492506D02*
G03*
X908050Y492506I-5080J0D01*
G01*
X676656Y492760D02*
G03*
X676656Y492760I-5080J0D01*
G01*
X656336Y398526D02*
G03*
X656336Y398526I-5080J0D01*
G01*
X687070Y320548D02*
G03*
X687070Y320548I-5080J0D01*
G01*
X824738Y58928D02*
G03*
X824738Y58928I-5080J0D01*
G01*
X656082Y252730D02*
G03*
X656082Y252730I-5080J0D01*
G01*
X487426Y204978D02*
G03*
X487426Y204978I-5080J0D01*
G01*
X412496Y207264D02*
G03*
X412496Y207264I-5080J0D01*
G01*
X487680Y295402D02*
G03*
X487680Y295402I-5080J0D01*
G01*
D74*
X843788Y154940D02*
G03*
X843788Y154940I-3048J0D01*
G01*
X940308Y429260D02*
G03*
X940308Y429260I-3048J0D01*
G01*
X832358Y209550D02*
G03*
X832358Y209550I-3048J0D01*
G01*
X822198Y232410D02*
G03*
X822198Y232410I-3048J0D01*
G01*
X781458Y201752D02*
G03*
X781458Y201752I-3048J0D01*
G01*
X776478Y163830D02*
G03*
X776478Y163830I-3048J0D01*
G01*
X758698Y189230D02*
G03*
X758698Y189230I-3048J0D01*
G01*
X775208Y241300D02*
G03*
X775208Y241300I-3048J0D01*
G01*
X757428Y295910D02*
G03*
X757428Y295910I-3048J0D01*
G01*
X751078Y179070D02*
G03*
X751078Y179070I-3048J0D01*
G01*
X757037Y155163D02*
G03*
X757037Y155163I-3048J0D01*
G01*
X565658Y568960D02*
G03*
X565658Y568960I-3048J0D01*
G01*
X657098Y604520D02*
G03*
X657098Y604520I-3048J0D01*
G01*
X545338Y500380D02*
G03*
X545338Y500380I-3048J0D01*
G01*
X601218Y477520D02*
G03*
X601218Y477520I-3048J0D01*
G01*
X574548Y430530D02*
G03*
X574548Y430530I-3048J0D01*
G01*
X692658Y426720D02*
G03*
X692658Y426720I-3048J0D01*
G01*
X744728Y492760D02*
G03*
X744728Y492760I-3048J0D01*
G01*
X747268Y520700D02*
G03*
X747268Y520700I-3048J0D01*
G01*
X836168Y491490D02*
G03*
X836168Y491490I-3048J0D01*
G01*
X837438Y429260D02*
G03*
X837438Y429260I-3048J0D01*
G01*
X743458Y356870D02*
G03*
X743458Y356870I-3048J0D01*
G01*
X620268Y187960D02*
G03*
X620268Y187960I-3048J0D01*
G01*
X732028Y182880D02*
G03*
X732028Y182880I-3048J0D01*
G01*
Y165100D02*
G03*
X732028Y165100I-3048J0D01*
G01*
X832358Y125730D02*
G03*
X832358Y125730I-3048J0D01*
G01*
X681228Y46990D02*
G03*
X681228Y46990I-3048J0D01*
G01*
X721868Y34290D02*
G03*
X721868Y34290I-3048J0D01*
G01*
X575818Y78740D02*
G03*
X575818Y78740I-3048J0D01*
G01*
X450088Y115570D02*
G03*
X450088Y115570I-3048J0D01*
G01*
X304038Y116840D02*
G03*
X304038Y116840I-3048J0D01*
G01*
X240538Y436880D02*
G03*
X240538Y436880I-3048J0D01*
G01*
X164338Y421640D02*
G03*
X164338Y421640I-3048J0D01*
G01*
X28448Y416560D02*
G03*
X28448Y416560I-3048J0D01*
G01*
X95758Y467360D02*
G03*
X95758Y467360I-3048J0D01*
G01*
X171196Y481838D02*
G03*
X171196Y481838I-3048J0D01*
G01*
X166878Y468630D02*
G03*
X166878Y468630I-3048J0D01*
G01*
X126238Y547370D02*
G03*
X126238Y547370I-3048J0D01*
G01*
X563626Y206248D02*
G03*
X563626Y206248I-3048J0D01*
G01*
X417830Y296672D02*
G03*
X417830Y296672I-3048J0D01*
G01*
X328422Y206756D02*
G03*
X328422Y206756I-3048J0D01*
G01*
X285242Y117856D02*
G03*
X285242Y117856I-3048J0D01*
G01*
X136398Y539750D02*
G03*
X136398Y539750I-3048J0D01*
G01*
X154385Y544867D02*
G03*
X154385Y544867I-3048J0D01*
G01*
X114808Y499110D02*
G03*
X114808Y499110I-3048J0D01*
G01*
X96393Y483997D02*
G03*
X96393Y483997I-3048J0D01*
G01*
X144399Y256540D02*
G03*
X144399Y256540I-3048J0D01*
G01*
X122428Y383540D02*
G03*
X122428Y383540I-3048J0D01*
G01*
X32258Y431800D02*
G03*
X32258Y431800I-3048J0D01*
G01*
X72898Y402590D02*
G03*
X72898Y402590I-3048J0D01*
G01*
X136398Y294640D02*
G03*
X136398Y294640I-3048J0D01*
G01*
X559308Y431800D02*
G03*
X559308Y431800I-3048J0D01*
G01*
X56388Y342900D02*
G03*
X56388Y342900I-3048J0D01*
G01*
X137414Y18034D02*
G03*
X137414Y18034I-3048J0D01*
G01*
X791575Y391779D02*
G03*
X791575Y391779I-3048J0D01*
G01*
X827024Y420370D02*
G03*
X827024Y420370I-3048J0D01*
G01*
X792480Y405892D02*
G03*
X792480Y405892I-3048J0D01*
G01*
X818134Y491236D02*
G03*
X818134Y491236I-3048J0D01*
G01*
X778002Y465328D02*
G03*
X778002Y465328I-3048J0D01*
G01*
X587756Y555752D02*
G03*
X587756Y555752I-3048J0D01*
G01*
X562864Y557022D02*
G03*
X562864Y557022I-3048J0D01*
G01*
X753618Y398272D02*
G03*
X753618Y398272I-3048J0D01*
G01*
X728218Y493522D02*
G03*
X728218Y493522I-3048J0D01*
G01*
X633476Y493268D02*
G03*
X633476Y493268I-3048J0D01*
G01*
X545592Y515366D02*
G03*
X545592Y515366I-3048J0D01*
G01*
X587248Y480060D02*
G03*
X587248Y480060I-3048J0D01*
G01*
X243332Y504190D02*
G03*
X243332Y504190I-3048J0D01*
G01*
X774446Y173990D02*
G03*
X774446Y173990I-3048J0D01*
G01*
X774267Y192024D02*
G03*
X774267Y192024I-3048J0D01*
G01*
X817880Y221234D02*
G03*
X817880Y221234I-3048J0D01*
G01*
X716280Y260096D02*
G03*
X716280Y260096I-3048J0D01*
G01*
X699008Y251460D02*
G03*
X699008Y251460I-3048J0D01*
G01*
X738470Y263779D02*
G03*
X738470Y263779I-3048J0D01*
G01*
X730504Y357124D02*
G03*
X730504Y357124I-3048J0D01*
G01*
X686372Y401511D02*
G03*
X686372Y401511I-3048J0D01*
G01*
X877443Y403098D02*
G03*
X877443Y403098I-3048J0D01*
G01*
X700786Y274652D02*
G03*
X700786Y274652I-3048J0D01*
G01*
X769112Y90170D02*
G03*
X769112Y90170I-3048J0D01*
G01*
X671830Y219710D02*
G03*
X671830Y219710I-3048J0D01*
G01*
X731266Y194818D02*
G03*
X731266Y194818I-3048J0D01*
G01*
X844042Y209550D02*
G03*
X844042Y209550I-3048J0D01*
G01*
X605282Y187706D02*
G03*
X605282Y187706I-3048J0D01*
G01*
X574548Y60960D02*
G03*
X574548Y60960I-3048J0D01*
G01*
X708660Y34036D02*
G03*
X708660Y34036I-3048J0D01*
G01*
X690372Y35052D02*
G03*
X690372Y35052I-3048J0D01*
G01*
X842010Y169418D02*
G03*
X842010Y169418I-3048J0D01*
G01*
X820928Y117856D02*
G03*
X820928Y117856I-3048J0D01*
G01*
X725932Y155702D02*
G03*
X725932Y155702I-3048J0D01*
G01*
X467360Y113792D02*
G03*
X467360Y113792I-3048J0D01*
G01*
X164084Y436118D02*
G03*
X164084Y436118I-3048J0D01*
G01*
X760476Y520954D02*
G03*
X760476Y520954I-3048J0D01*
G01*
X771652Y382016D02*
G03*
X771652Y382016I-3048J0D01*
G01*
X759830Y390312D02*
G03*
X759830Y390312I-3048J0D01*
G01*
X708152Y421386D02*
G03*
X708152Y421386I-3048J0D01*
G01*
X671576Y592328D02*
G03*
X671576Y592328I-3048J0D01*
G01*
X256794Y437642D02*
G03*
X256794Y437642I-3048J0D01*
G01*
X647192Y576326D02*
G03*
X647192Y576326I-3048J0D01*
G01*
X244348Y35052D02*
G03*
X244348Y35052I-3048J0D01*
G01*
X566166Y296672D02*
G03*
X566166Y296672I-3048J0D01*
G01*
X512826Y102870D02*
G03*
X512826Y102870I-3048J0D01*
G01*
X96774Y452120D02*
G03*
X96774Y452120I-3048J0D01*
G01*
X660908Y84836D02*
G03*
X660908Y84836I-3048J0D01*
G01*
X337058Y298196D02*
G03*
X337058Y298196I-3048J0D01*
G01*
X288544Y55372D02*
G03*
X288544Y55372I-3048J0D01*
G01*
X241300Y118618D02*
G03*
X241300Y118618I-3048J0D01*
G01*
X195326Y118364D02*
G03*
X195326Y118364I-3048J0D01*
G01*
X906018Y492506D02*
G03*
X906018Y492506I-3048J0D01*
G01*
X674624Y492760D02*
G03*
X674624Y492760I-3048J0D01*
G01*
X654304Y398526D02*
G03*
X654304Y398526I-3048J0D01*
G01*
X685038Y320548D02*
G03*
X685038Y320548I-3048J0D01*
G01*
X822706Y58928D02*
G03*
X822706Y58928I-3048J0D01*
G01*
X654050Y252730D02*
G03*
X654050Y252730I-3048J0D01*
G01*
X485394Y204978D02*
G03*
X485394Y204978I-3048J0D01*
G01*
X410464Y207264D02*
G03*
X410464Y207264I-3048J0D01*
G01*
X485648Y295402D02*
G03*
X485648Y295402I-3048J0D01*
G01*
M02*
