G04*
G04 #@! TF.GenerationSoftware,Altium Limited,Altium Designer,23.1.1 (15)*
G04*
G04 Layer_Physical_Order=4*
G04 Layer_Color=16711680*
%FSLAX44Y44*%
%MOMM*%
G71*
G04*
G04 #@! TF.SameCoordinates,32E53F4C-9CDF-4151-867A-B185B0D7BA91*
G04*
G04*
G04 #@! TF.FilePolarity,Positive*
G04*
G01*
G75*
%ADD13C,0.1524*%
%ADD61C,0.5080*%
%ADD62O,2.4000X1.2000*%
%ADD63C,1.2000*%
%ADD64C,1.7780*%
%ADD65O,1.8000X3.3000*%
%ADD66O,3.8000X2.0000*%
%ADD67C,1.6000*%
%ADD68C,1.6500*%
%ADD69O,2.0000X3.8000*%
%ADD70O,3.3000X1.8000*%
%ADD71C,2.0000*%
%ADD72C,0.6350*%
D13*
X773675Y143836D02*
G03*
X777825Y143850I2041J10342D01*
G01*
X774180Y206657D02*
G03*
X774161Y206640I4229J-4905D01*
G01*
X764742Y192122D02*
G03*
X765192Y189650I6476J-98D01*
G01*
X771646Y149140D02*
G03*
X780362Y149666I4070J5038D01*
G01*
X848360Y128778D02*
Y180971D01*
X743487Y149857D02*
X773675Y143836D01*
X829056Y109474D02*
X848360Y128778D01*
X847467Y181864D02*
X848360Y180971D01*
X777825Y143850D02*
X807223Y149871D01*
X839216Y181864D02*
X847467D01*
X772096Y204261D02*
X772136Y204828D01*
X835504Y257905D02*
X865378Y228031D01*
X833858Y258352D02*
X835057D01*
X774180Y206657D02*
X833858Y258352D01*
X771219Y192024D02*
X772096Y204261D01*
X772577Y205268D02*
X774161Y206640D01*
X835057Y258352D02*
X835504Y257905D01*
X772136Y204828D02*
X772577Y205268D01*
X764759Y193120D02*
X767907Y213487D01*
Y216003D01*
X764742Y192122D02*
X764759Y193120D01*
X765192Y189650D02*
X771398Y173990D01*
X865378Y112014D02*
Y228031D01*
X839470Y86106D02*
X865378Y112014D01*
X748030Y253510D02*
X782050Y287530D01*
X748030Y179070D02*
Y253510D01*
X740972Y174113D02*
X771646Y149140D01*
X740410Y174675D02*
X740972Y174113D01*
X780362Y149666D02*
X789406Y158978D01*
X740410Y175295D02*
Y244217D01*
X705108Y245110D02*
X739517D01*
X740410Y244217D01*
Y175295D02*
X740410Y174675D01*
X704215Y246003D02*
Y277335D01*
Y246003D02*
X705108Y245110D01*
X93726Y484378D02*
Y530606D01*
X93345Y483997D02*
X93726Y484378D01*
X839978Y209550D02*
X840994D01*
X789406Y158978D02*
X839978Y209550D01*
X592716Y388833D02*
X704215Y277335D01*
X446095Y388833D02*
X592716D01*
X334518Y500410D02*
X446095Y388833D01*
X334518Y500410D02*
Y503144D01*
X293594Y544068D02*
X334518Y503144D01*
X284510Y544068D02*
X293594D01*
X275732Y552846D02*
X284510Y544068D01*
X275732Y552846D02*
Y553832D01*
X263144Y566420D02*
X275732Y553832D01*
X129540Y566420D02*
X263144D01*
X93726Y530606D02*
X129540Y566420D01*
X254000Y146050D02*
Y437388D01*
Y146050D02*
X282194Y117856D01*
X253746Y437642D02*
X254000Y437388D01*
X133350Y463804D02*
X161036Y436118D01*
X133350Y463804D02*
Y539750D01*
X782050Y287530D02*
Y398510D01*
X788527Y316485D02*
Y391779D01*
X782050Y398510D02*
X789432Y405892D01*
X822670Y420370D02*
X823976D01*
X820384Y422656D02*
X822670Y420370D01*
X819658Y422910D02*
Y425450D01*
X819912Y422656D02*
X820384D01*
X796290Y448818D02*
X819658Y425450D01*
Y422910D02*
X819912Y422656D01*
X788527Y316485D02*
X791464Y313548D01*
Y239560D02*
Y313548D01*
X767907Y216003D02*
X791464Y239560D01*
X796290Y448818D02*
Y490343D01*
X757428Y493268D02*
X759460Y491236D01*
X795397D01*
X757428Y493268D02*
Y520954D01*
X795397Y491236D02*
X796290Y490343D01*
X725170Y406400D02*
Y493522D01*
X774446Y465836D02*
X774954Y465328D01*
X757940Y465836D02*
X774446D01*
X757047Y395589D02*
Y464943D01*
X757940Y465836D01*
X668528Y525254D02*
X705104Y488678D01*
X668528Y525254D02*
Y592328D01*
X688993Y406400D02*
X725170D01*
X580027Y515366D02*
X688993Y406400D01*
X542544Y515366D02*
X580027D01*
X705104Y421386D02*
Y488678D01*
X725170Y406400D02*
X751840Y379730D01*
X743419Y149925D02*
X743487Y149857D01*
X737642Y155702D02*
X743419Y149925D01*
X807223Y149871D02*
X807277Y149925D01*
X839216Y181864D01*
X689995Y83693D02*
X800219D01*
X689102Y35945D02*
Y82800D01*
X689995Y83693D01*
X800219D02*
X802632Y86106D01*
X687324Y35052D02*
X688209D01*
X689102Y35945D01*
X802632Y86106D02*
X839470D01*
X820959Y110967D02*
Y113471D01*
X817880Y116550D02*
Y117856D01*
Y116550D02*
X820959Y113471D01*
X722884Y155702D02*
X737642D01*
X820959Y110967D02*
X822452Y109474D01*
X829056D01*
X767711Y381123D02*
X768604Y382016D01*
X767711Y379730D02*
Y381123D01*
X751840Y379730D02*
X767711D01*
X756782Y395324D02*
X757047Y395589D01*
X756782Y390312D02*
Y395324D01*
D61*
X696203Y226833D02*
Y251217D01*
Y226833D02*
X728218Y194818D01*
X168148Y481838D02*
X250952D01*
X566166Y166624D01*
X124460Y222250D02*
X209550Y307340D01*
X124460Y190500D02*
Y222250D01*
X566166Y166624D02*
X687650D01*
X39370Y313690D02*
X49530Y303530D01*
Y283103D02*
X69562Y263072D01*
X49530Y283103D02*
Y303530D01*
X39370Y313690D02*
Y421640D01*
X29210Y431800D02*
X39370Y421640D01*
X81599Y271070D02*
X82159Y270510D01*
X96084D01*
X99060Y273486D01*
Y356626D01*
X55245Y400441D02*
X99060Y356626D01*
X55245Y400441D02*
Y598551D01*
X53594Y600202D02*
X55245Y598551D01*
X556260Y431800D02*
X584200Y459740D01*
Y480060D01*
X815086Y491236D02*
Y491998D01*
X815340Y492252D01*
Y535504D01*
X748229Y538480D02*
X812364D01*
X815340Y535504D01*
X686126Y600583D02*
X748229Y538480D01*
X665109Y600583D02*
X686126D01*
X656336Y591810D02*
X665109Y600583D01*
X656336Y576844D02*
Y591810D01*
X585353Y568071D02*
X647563D01*
X656336Y576844D01*
X574304Y557022D02*
X585353Y568071D01*
X559816Y557022D02*
X574304D01*
X816102Y222504D02*
X852750D01*
X855726Y219528D01*
X814832Y221234D02*
X816102Y222504D01*
X855726Y120904D02*
Y219528D01*
X711454Y261874D02*
X713232Y260096D01*
X711454Y261874D02*
Y292182D01*
X695960Y251460D02*
X696203Y251217D01*
X727456Y308184D02*
Y357124D01*
X711454Y292182D02*
X727456Y308184D01*
X571257Y61203D02*
X571500Y60960D01*
X567049Y61203D02*
X571257D01*
X566983Y61269D02*
X567049Y61203D01*
X558292Y52578D02*
X566983Y61269D01*
X558292Y11358D02*
X561268Y8382D01*
X558292Y11358D02*
Y52578D01*
X561268Y8382D02*
X679958D01*
X705612Y34036D01*
X834644Y99822D02*
X855726Y120904D01*
X656635Y99822D02*
X834644D01*
X642665Y113792D02*
X656635Y99822D01*
X790448Y120904D02*
X838962Y169418D01*
X693602Y120904D02*
X790448D01*
X690626Y123880D02*
X693602Y120904D01*
X690626Y123880D02*
Y163648D01*
X687650Y166624D02*
X690626Y163648D01*
X464312Y113792D02*
X642665D01*
D62*
X25082Y292470D02*
D03*
X72582D02*
D03*
Y218070D02*
D03*
X25082D02*
D03*
D63*
X81599Y239071D02*
D03*
Y255071D02*
D03*
X69562Y247072D02*
D03*
Y263072D02*
D03*
X81599Y271070D02*
D03*
D64*
X232664Y600202D02*
D03*
X258064D02*
D03*
X181864D02*
D03*
X207264D02*
D03*
X359918Y530860D02*
D03*
Y505460D02*
D03*
Y581660D02*
D03*
Y556260D02*
D03*
X401320D02*
D03*
Y581660D02*
D03*
Y505460D02*
D03*
Y530860D02*
D03*
X454660Y556260D02*
D03*
Y581660D02*
D03*
Y505460D02*
D03*
Y530860D02*
D03*
X513588Y556260D02*
D03*
Y581660D02*
D03*
Y505460D02*
D03*
Y530860D02*
D03*
X104394Y600202D02*
D03*
X129794D02*
D03*
X53594D02*
D03*
X78994D02*
D03*
X334010Y59690D02*
D03*
Y34290D02*
D03*
Y110490D02*
D03*
Y85090D02*
D03*
X505460Y431800D02*
D03*
X530860D02*
D03*
X454660D02*
D03*
X480060D02*
D03*
X146050Y81280D02*
D03*
Y55880D02*
D03*
Y132080D02*
D03*
Y106680D02*
D03*
X904240Y45720D02*
D03*
X878840D02*
D03*
X955040D02*
D03*
X929640D02*
D03*
X905510Y259080D02*
D03*
X880110D02*
D03*
X956310D02*
D03*
X930910D02*
D03*
X209550Y281940D02*
D03*
Y256540D02*
D03*
Y332740D02*
D03*
Y307340D02*
D03*
X657352Y61214D02*
D03*
Y35814D02*
D03*
X631952Y61214D02*
D03*
Y35814D02*
D03*
X606552Y61214D02*
D03*
Y35814D02*
D03*
X904240Y114300D02*
D03*
X878840D02*
D03*
X955040D02*
D03*
X929640D02*
D03*
X904240Y184150D02*
D03*
X878840D02*
D03*
X955040D02*
D03*
X929640D02*
D03*
D65*
X99215Y117494D02*
D03*
D66*
X52715Y82494D02*
D03*
Y142494D02*
D03*
D67*
X510020Y76708D02*
D03*
X445020D02*
D03*
D68*
X955040Y452120D02*
D03*
Y477520D02*
D03*
Y502920D02*
D03*
X99060Y190500D02*
D03*
X124460D02*
D03*
X149860D02*
D03*
X748030Y608330D02*
D03*
X722630D02*
D03*
X697230D02*
D03*
D69*
X835350Y576580D02*
D03*
X895350D02*
D03*
D70*
X860350Y623080D02*
D03*
D71*
X935990Y368580D02*
D03*
Y403580D02*
D03*
D72*
X840740Y154940D02*
D03*
X937260Y429260D02*
D03*
X829310Y209550D02*
D03*
X819150Y232410D02*
D03*
X778410Y201752D02*
D03*
X773430Y163830D02*
D03*
X755650Y189230D02*
D03*
X772160Y241300D02*
D03*
X754380Y295910D02*
D03*
X748030Y179070D02*
D03*
X753988Y155163D02*
D03*
X562610Y568960D02*
D03*
X654050Y604520D02*
D03*
X542290Y500380D02*
D03*
X598170Y477520D02*
D03*
X571500Y430530D02*
D03*
X689610Y426720D02*
D03*
X741680Y492760D02*
D03*
X744220Y520700D02*
D03*
X833120Y491490D02*
D03*
X834390Y429260D02*
D03*
X740410Y356870D02*
D03*
X617220Y187960D02*
D03*
X728980Y182880D02*
D03*
Y165100D02*
D03*
X829310Y125730D02*
D03*
X678180Y46990D02*
D03*
X718820Y34290D02*
D03*
X572770Y78740D02*
D03*
X447040Y115570D02*
D03*
X300990Y116840D02*
D03*
X237490Y436880D02*
D03*
X161290Y421640D02*
D03*
X25400Y416560D02*
D03*
X92710Y467360D02*
D03*
X168148Y481838D02*
D03*
X163830Y468630D02*
D03*
X123190Y547370D02*
D03*
X560578Y206248D02*
D03*
X414782Y296672D02*
D03*
X325374Y206756D02*
D03*
X282194Y117856D02*
D03*
X133350Y539750D02*
D03*
X151337Y544867D02*
D03*
X111760Y499110D02*
D03*
X93345Y483997D02*
D03*
X141351Y256540D02*
D03*
X119380Y383540D02*
D03*
X29210Y431800D02*
D03*
X69850Y402590D02*
D03*
X133350Y294640D02*
D03*
X556260Y431800D02*
D03*
X53340Y342900D02*
D03*
X134366Y18034D02*
D03*
X788527Y391779D02*
D03*
X823976Y420370D02*
D03*
X789432Y405892D02*
D03*
X815086Y491236D02*
D03*
X774954Y465328D02*
D03*
X584708Y555752D02*
D03*
X559816Y557022D02*
D03*
X750570Y398272D02*
D03*
X725170Y493522D02*
D03*
X630428Y493268D02*
D03*
X542544Y515366D02*
D03*
X584200Y480060D02*
D03*
X240284Y504190D02*
D03*
X771398Y173990D02*
D03*
X771219Y192024D02*
D03*
X814832Y221234D02*
D03*
X713232Y260096D02*
D03*
X695960Y251460D02*
D03*
X735422Y263779D02*
D03*
X727456Y357124D02*
D03*
X683324Y401511D02*
D03*
X874395Y403098D02*
D03*
X697738Y274652D02*
D03*
X766064Y90170D02*
D03*
X668782Y219710D02*
D03*
X728218Y194818D02*
D03*
X840994Y209550D02*
D03*
X602234Y187706D02*
D03*
X571500Y60960D02*
D03*
X705612Y34036D02*
D03*
X687324Y35052D02*
D03*
X838962Y169418D02*
D03*
X817880Y117856D02*
D03*
X722884Y155702D02*
D03*
X464312Y113792D02*
D03*
X161036Y436118D02*
D03*
X757428Y520954D02*
D03*
X768604Y382016D02*
D03*
X756782Y390312D02*
D03*
X705104Y421386D02*
D03*
X668528Y592328D02*
D03*
X253746Y437642D02*
D03*
X644144Y576326D02*
D03*
X241300Y35052D02*
D03*
X563118Y296672D02*
D03*
X509778Y102870D02*
D03*
X93726Y452120D02*
D03*
X657860Y84836D02*
D03*
X334010Y298196D02*
D03*
X285496Y55372D02*
D03*
X238252Y118618D02*
D03*
X192278Y118364D02*
D03*
X902970Y492506D02*
D03*
X671576Y492760D02*
D03*
X651256Y398526D02*
D03*
X681990Y320548D02*
D03*
X819658Y58928D02*
D03*
X651002Y252730D02*
D03*
X482346Y204978D02*
D03*
X407416Y207264D02*
D03*
X482600Y295402D02*
D03*
M02*
