M48
;Layer_Color=9474304
;FILE_FORMAT=4:4
METRIC,LZ
;TYPE=PLATED
T3F00S00C0.8000
T6F00S00C1.0000
T9F00S00C1.2000
%
G90
G05
T03
G00X00048362Y004454
M15
G01X00037361
M16
G00X00095862Y004454
M15
G01X00084861
M16
G00X00095862Y005198
M15
G01X00084861
M16
G00X00048362Y005198
M15
G01X00037361
M16
T06
G00X0011005Y0001827
M15
G01X0012505
M16
G00X0098469Y0062308
M15
G01X0096969
M16
T09
G00X0008255Y0007377
M15
G01Y0005577
M16
G00X0014255Y0007377
M15
G01Y0005577
M16
G00X0095219Y0056758
M15
G01Y0058558
M16
G00X0101219Y0056758
M15
G01Y0058558
M16
M17
M30
