G04*
G04 #@! TF.GenerationSoftware,Altium Limited,Altium Designer,23.1.1 (15)*
G04*
G04 Layer_Physical_Order=1*
G04 Layer_Color=255*
%FSLAX44Y44*%
%MOMM*%
G71*
G04*
G04 #@! TF.SameCoordinates,32E53F4C-9CDF-4151-867A-B185B0D7BA91*
G04*
G04*
G04 #@! TF.FilePolarity,Positive*
G04*
G01*
G75*
%ADD13C,0.1524*%
%ADD21R,1.1176X1.8034*%
%ADD22O,2.2000X0.6096*%
%ADD23R,1.1999X1.3998*%
%ADD24R,1.0000X0.7000*%
%ADD25R,1.8034X1.1176*%
%ADD26R,1.5500X0.6000*%
G04:AMPARAMS|DCode=27|XSize=1.61mm|YSize=0.59mm|CornerRadius=0.0738mm|HoleSize=0mm|Usage=FLASHONLY|Rotation=0.000|XOffset=0mm|YOffset=0mm|HoleType=Round|Shape=RoundedRectangle|*
%AMROUNDEDRECTD27*
21,1,1.6100,0.4425,0,0,0.0*
21,1,1.4625,0.5900,0,0,0.0*
1,1,0.1475,0.7313,-0.2213*
1,1,0.1475,-0.7313,-0.2213*
1,1,0.1475,-0.7313,0.2213*
1,1,0.1475,0.7313,0.2213*
%
%ADD27ROUNDEDRECTD27*%
G04:AMPARAMS|DCode=28|XSize=1.21mm|YSize=0.59mm|CornerRadius=0.1475mm|HoleSize=0mm|Usage=FLASHONLY|Rotation=180.000|XOffset=0mm|YOffset=0mm|HoleType=Round|Shape=RoundedRectangle|*
%AMROUNDEDRECTD28*
21,1,1.2100,0.2950,0,0,180.0*
21,1,0.9150,0.5900,0,0,180.0*
1,1,0.2950,-0.4575,0.1475*
1,1,0.2950,0.4575,0.1475*
1,1,0.2950,0.4575,-0.1475*
1,1,0.2950,-0.4575,-0.1475*
%
%ADD28ROUNDEDRECTD28*%
%ADD29R,1.5500X0.5080*%
%ADD30R,0.5080X1.5500*%
%ADD31R,1.4700X0.3000*%
%ADD32R,1.4500X0.3000*%
%ADD33R,1.5000X1.2000*%
%ADD34R,1.8542X1.3716*%
%ADD35R,1.2065X1.6500*%
%ADD61C,0.5080*%
%ADD62O,2.4000X1.2000*%
%ADD63C,1.2000*%
%ADD64C,1.7780*%
%ADD65O,1.8000X3.3000*%
%ADD66O,3.8000X2.0000*%
%ADD67C,1.6000*%
%ADD68C,1.6500*%
%ADD69O,2.0000X3.8000*%
%ADD70O,3.3000X1.8000*%
%ADD71C,2.0000*%
%ADD72C,0.6350*%
D13*
X629072Y49367D02*
G03*
X637367Y50290I2880J11847D01*
G01*
X637816Y71966D02*
X637817Y71966D01*
X637367Y50290D02*
G03*
X637958Y71824I-5415J10924D01*
G01*
X628895Y49367D02*
X628894D01*
X483154Y546654D02*
X504952Y568452D01*
X550686D01*
X561608Y579374D01*
X483154Y533954D02*
Y546654D01*
X177375Y551730D02*
X207305Y581660D01*
X359918D01*
X813290Y204960D02*
X844550Y236220D01*
X792570Y204960D02*
X813290D01*
X844550Y236220D02*
Y332232D01*
X787360Y165082D02*
X792570D01*
X785074Y162796D02*
X787360Y165082D01*
X783452Y162796D02*
X785074D01*
X774834Y154178D02*
X783452Y162796D01*
X772922Y154178D02*
X774834D01*
X748030Y179070D02*
X772922Y154178D01*
X12954Y347856D02*
Y439420D01*
Y347856D02*
X45720Y315090D01*
X12954Y439420D02*
X114779D01*
X191770Y454660D02*
X221488D01*
X137414Y399034D02*
Y401748D01*
X134366Y383540D02*
Y386969D01*
X132334Y403860D02*
X135302D01*
X137414Y401748D01*
X129858Y391478D02*
X137414Y399034D01*
X129858Y391478D02*
X134366Y386969D01*
X147144Y436118D02*
X161036D01*
X140286Y429260D02*
X147144Y436118D01*
X132334Y429260D02*
X140286D01*
X102465Y416560D02*
X132334D01*
X114779Y439420D02*
X117319Y441960D01*
X132334D01*
X95099Y423926D02*
X102465Y416560D01*
X83582Y423926D02*
X95099D01*
X58845Y405661D02*
X83582Y423926D01*
X58753Y405593D02*
X58845Y405661D01*
X52959Y394371D02*
X58500Y405340D01*
X52959Y384382D02*
Y394371D01*
X221488Y454660D02*
X225298Y458470D01*
X282956Y116840D02*
X283210Y116586D01*
X282956Y116840D02*
Y117094D01*
X282194Y117856D02*
X282956Y117094D01*
X218968Y69864D02*
X220468D01*
X283210Y102870D02*
Y116586D01*
X155733Y556225D02*
X160203Y551755D01*
X42290Y554578D02*
X155080Y556225D01*
X160203Y548711D02*
X162052Y546862D01*
X155080Y556225D02*
X155733D01*
X160203Y548711D02*
Y551755D01*
X12954Y525243D02*
X42290Y554578D01*
X142540Y530560D02*
X159354D01*
X162052Y527862D01*
X133350Y539750D02*
X142540Y530560D01*
X166290Y580564D02*
X181864Y596138D01*
X166290Y549600D02*
Y580564D01*
X163552Y546862D02*
X166290Y549600D01*
X162052Y546862D02*
X163552D01*
X177375Y528755D02*
Y551730D01*
X176482Y527862D02*
X177375Y528755D01*
X162052Y527862D02*
X176482D01*
X12954Y439420D02*
Y525243D01*
X81599Y255071D02*
X94179D01*
X96520Y252730D01*
Y212090D02*
Y252730D01*
X80641Y196211D02*
X96520Y212090D01*
X45720Y198120D02*
X47629Y196211D01*
X80641D01*
X45720Y198120D02*
Y315090D01*
X107823Y483997D02*
X107950Y483870D01*
X93345Y483997D02*
X107823D01*
X191770Y66802D02*
Y103124D01*
X190500Y65532D02*
X191770Y66802D01*
X795004Y379337D02*
Y394462D01*
X792099Y397367D02*
X795004Y394462D01*
X812250Y405558D02*
X812448Y405360D01*
X791206Y375539D02*
X795004Y379337D01*
X788527Y391779D02*
Y393085D01*
X785667Y395946D02*
X788527Y393085D01*
X785667Y395946D02*
Y397719D01*
X795399Y412369D02*
X797177Y410591D01*
X741934Y418969D02*
X742827Y419862D01*
X812161D02*
X813054Y418969D01*
X801243Y452263D02*
X844550Y408956D01*
X741934Y403098D02*
Y418969D01*
X844550Y391485D02*
Y408956D01*
X812448Y410558D02*
X813054Y411164D01*
Y418969D01*
X789432Y405892D02*
X795258D01*
X742827Y419862D02*
X812161D01*
X786749Y412369D02*
X795399D01*
X812482Y390592D02*
X843657D01*
X823976Y420370D02*
X840232Y404114D01*
X782955Y408575D02*
X786749Y412369D01*
X843657Y390592D02*
X844550Y391485D01*
X840232Y396649D02*
Y404114D01*
X801243Y452263D02*
Y486553D01*
X812403Y497713D01*
X839339Y395756D02*
X840232Y396649D01*
X812646Y395756D02*
X839339D01*
X812448Y395558D02*
X812646Y395756D01*
X792099Y402733D02*
X795258Y405892D01*
X802228Y405558D02*
X812250D01*
X797177Y410591D02*
X802942D01*
X801259Y406527D02*
X802228Y405558D01*
X802942Y410591D02*
X802975Y410558D01*
X792099Y397367D02*
Y402733D01*
X795258Y405892D02*
X795893Y406527D01*
X801259D01*
X802975Y410558D02*
X812448D01*
X782955Y400431D02*
X785667Y397719D01*
X750066Y375539D02*
X791206D01*
X782955Y400431D02*
Y408575D01*
X812403Y497713D02*
X827350D01*
X829437Y499800D01*
Y515184D01*
X821270Y523351D02*
X829437Y515184D01*
X774954Y465328D02*
Y477266D01*
X774700Y477520D02*
X774954Y477266D01*
X750914Y398272D02*
X753200Y400558D01*
X538480Y515366D02*
X542544D01*
X526542Y503428D02*
X538480Y515366D01*
X513588Y503428D02*
X526542D01*
X791536Y173990D02*
X792570Y172956D01*
X771398Y173990D02*
X791536D01*
X771219Y192024D02*
X772450D01*
X775562Y189130D02*
X776639Y188053D01*
X772450Y192024D02*
X775344Y189130D01*
X775562D01*
X776639Y183548D02*
Y188053D01*
Y183548D02*
X779103Y181084D01*
X792570D01*
X669319Y341884D02*
X834898D01*
X615061Y287626D02*
X669319Y341884D01*
X834898D02*
X844550Y332232D01*
X615061Y200533D02*
Y287626D01*
X674751Y61371D02*
Y81441D01*
X722630Y129320D01*
Y134530D02*
Y155448D01*
Y129320D02*
Y134530D01*
X602234Y187706D02*
X615061Y200533D01*
X792570Y197086D02*
X828530D01*
X840994Y209550D01*
X579501Y187360D02*
X601888D01*
X657733Y35433D02*
X686943D01*
X687324Y35052D01*
X657352Y35814D02*
X657733Y35433D01*
X805434Y117856D02*
X817880D01*
X722630Y155448D02*
X722884Y155702D01*
X802386Y102362D02*
X804418Y100330D01*
X802386Y102362D02*
Y114808D01*
X805434Y117856D01*
X757428Y520954D02*
Y539750D01*
X758698Y541020D01*
X784550Y523351D02*
X821270D01*
X776383Y531518D02*
Y545124D01*
X722630Y564824D02*
Y608330D01*
Y564824D02*
X728971Y558483D01*
X763025D01*
X776383Y545124D01*
Y531518D02*
X784550Y523351D01*
X741782Y391820D02*
X743712Y389890D01*
Y381893D02*
X750066Y375539D01*
X743712Y381893D02*
Y389890D01*
X740156Y401320D02*
X741934Y403098D01*
X779100Y387690D02*
Y393426D01*
X769243Y382655D02*
X774065D01*
X768448Y395558D02*
X768646Y395360D01*
X777166D01*
X779100Y393426D01*
X774065Y382655D02*
X779100Y387690D01*
X768604Y382016D02*
X769243Y382655D01*
X728512Y401320D02*
X740156D01*
X728512Y391820D02*
X741782D01*
X757080Y390558D02*
X768448D01*
X756834Y390312D02*
X757080Y390558D01*
X756782Y390312D02*
X756834D01*
X753200Y400558D02*
X768448D01*
X705104Y411328D02*
X705612Y410820D01*
X705104Y411328D02*
Y421386D01*
X673989Y591949D02*
X681942Y583996D01*
X668907Y591949D02*
X673989D01*
X681942Y575260D02*
Y583996D01*
X670890Y566928D02*
Y572214D01*
X672002Y573326D01*
X668528Y592328D02*
X668907Y591949D01*
X672002Y573326D02*
X680008D01*
X681942Y575260D01*
X253746Y437642D02*
Y455422D01*
X637370Y72412D02*
X637816Y71966D01*
X698980Y149080D02*
X708570D01*
X637817Y71966D02*
X637958Y71824D01*
X637370Y72412D02*
Y87470D01*
X698980Y149080D01*
X372872Y240245D02*
X373765Y241138D01*
X372872Y199136D02*
Y240245D01*
X373765Y241138D02*
X392811D01*
X362366Y188630D02*
X372872Y199136D01*
X347853Y188630D02*
X362366D01*
X601724Y579374D02*
X607868Y573230D01*
X630072Y569166D02*
X668652D01*
X670890Y566928D01*
X607868Y573230D02*
X626008D01*
X630072Y569166D01*
X561608Y579374D02*
X601724D01*
X454660Y505460D02*
X483154Y533954D01*
X858520Y507492D02*
X902970D01*
X218968Y69864D02*
Y80538D01*
X283210Y71622D02*
Y102870D01*
Y71622D02*
X284968Y69864D01*
X617728Y38832D02*
X628263Y49367D01*
X628895D02*
X629072D01*
X628263D02*
X628894D01*
X609570Y38832D02*
X617728D01*
X631952Y61214D02*
Y89059D01*
X698069Y155176D01*
X706792D01*
X662402Y49022D02*
X674751Y61371D01*
X653318Y49022D02*
X662402D01*
X606552Y35814D02*
X609570Y38832D01*
X706792Y155176D02*
X708570Y156954D01*
X643128Y38832D02*
X653318Y49022D01*
X634970Y38832D02*
X643128D01*
X631952Y35814D02*
X634970Y38832D01*
X85852Y516636D02*
X86106Y516890D01*
X53594Y516636D02*
X85852D01*
X236220Y85344D02*
X237490Y86614D01*
Y102870D01*
X283210D01*
X223774Y85344D02*
X236220D01*
X218968Y80538D02*
X223774Y85344D01*
D21*
X578358Y296164D02*
D03*
X548386D02*
D03*
X498094Y295910D02*
D03*
X468122D02*
D03*
X429006Y296672D02*
D03*
X399034D02*
D03*
X318262Y297688D02*
D03*
X348234D02*
D03*
X119634Y17780D02*
D03*
X149606D02*
D03*
X155956Y256540D02*
D03*
X125984D02*
D03*
X123444Y226060D02*
D03*
X153416D02*
D03*
X129540Y324612D02*
D03*
X99568D02*
D03*
X119126Y294132D02*
D03*
X149098D02*
D03*
X134366Y383540D02*
D03*
X104394D02*
D03*
X653542Y220726D02*
D03*
X683514D02*
D03*
X696722Y320040D02*
D03*
X666750D02*
D03*
X665988Y398272D02*
D03*
X636016D02*
D03*
X805180Y59690D02*
D03*
X835152D02*
D03*
X834390Y100330D02*
D03*
X804418D02*
D03*
X855472Y403098D02*
D03*
X885444D02*
D03*
X702818Y541782D02*
D03*
X732790D02*
D03*
X758698Y541020D02*
D03*
X788670D02*
D03*
X108712Y452628D02*
D03*
X78740D02*
D03*
X77978Y483870D02*
D03*
X107950D02*
D03*
X86106Y516890D02*
D03*
X116078D02*
D03*
X53594Y516636D02*
D03*
X23622D02*
D03*
X51816Y454152D02*
D03*
X21844D02*
D03*
X255270Y458470D02*
D03*
X225298D02*
D03*
X255270Y504698D02*
D03*
X225298D02*
D03*
D22*
X132334Y492760D02*
D03*
Y480060D02*
D03*
Y467360D02*
D03*
Y454660D02*
D03*
Y441960D02*
D03*
Y429260D02*
D03*
Y416560D02*
D03*
Y403860D02*
D03*
X191770D02*
D03*
Y416560D02*
D03*
Y429260D02*
D03*
Y441960D02*
D03*
Y454660D02*
D03*
Y467360D02*
D03*
Y480060D02*
D03*
Y492760D02*
D03*
D23*
X69959Y362381D02*
D03*
Y384381D02*
D03*
X52959Y362381D02*
D03*
Y384382D02*
D03*
X666260Y274732D02*
D03*
Y252730D02*
D03*
X683260Y274730D02*
D03*
Y252730D02*
D03*
D24*
X162052Y546862D02*
D03*
Y537362D02*
D03*
Y527862D02*
D03*
X185677D02*
D03*
Y537362D02*
D03*
Y546862D02*
D03*
D25*
X584708Y540512D02*
D03*
Y570484D02*
D03*
X627380Y273812D02*
D03*
Y243840D02*
D03*
X629920Y507492D02*
D03*
Y477520D02*
D03*
X754380Y275082D02*
D03*
Y245110D02*
D03*
X727710Y275082D02*
D03*
Y245110D02*
D03*
X858520Y507492D02*
D03*
Y477520D02*
D03*
X774700Y507492D02*
D03*
Y477520D02*
D03*
X815340D02*
D03*
Y507492D02*
D03*
X671830Y477520D02*
D03*
Y507492D02*
D03*
X725170D02*
D03*
Y477520D02*
D03*
X190500Y65532D02*
D03*
Y35560D02*
D03*
X191770Y103124D02*
D03*
Y133096D02*
D03*
X283210Y132842D02*
D03*
Y102870D02*
D03*
X237490D02*
D03*
Y132842D02*
D03*
X765810Y75184D02*
D03*
Y105156D02*
D03*
X902970Y477520D02*
D03*
Y507492D02*
D03*
D26*
X616890Y579628D02*
D03*
Y566928D02*
D03*
Y554228D02*
D03*
Y541528D02*
D03*
X670890Y579628D02*
D03*
Y566928D02*
D03*
Y554228D02*
D03*
Y541528D02*
D03*
D27*
X705612Y410820D02*
D03*
Y401320D02*
D03*
Y391820D02*
D03*
X728512D02*
D03*
Y401320D02*
D03*
Y410820D02*
D03*
D28*
X584558Y491642D02*
D03*
X559458Y501142D02*
D03*
X584558Y510642D02*
D03*
D29*
X792570Y204960D02*
D03*
Y197086D02*
D03*
Y188958D02*
D03*
Y181084D02*
D03*
Y172956D02*
D03*
Y165082D02*
D03*
Y156954D02*
D03*
Y149080D02*
D03*
X708570D02*
D03*
Y156954D02*
D03*
Y165082D02*
D03*
Y172956D02*
D03*
Y181084D02*
D03*
Y188958D02*
D03*
Y197086D02*
D03*
Y204960D02*
D03*
D30*
X778510Y134530D02*
D03*
X770636D02*
D03*
X762508D02*
D03*
X754634D02*
D03*
X746506D02*
D03*
X738632D02*
D03*
X730504D02*
D03*
X722630D02*
D03*
Y218530D02*
D03*
X730504D02*
D03*
X738632D02*
D03*
X746506D02*
D03*
X754634D02*
D03*
X762508D02*
D03*
X770636D02*
D03*
X778510D02*
D03*
D31*
X812448Y410558D02*
D03*
Y405558D02*
D03*
Y400558D02*
D03*
Y395558D02*
D03*
Y390558D02*
D03*
X768448D02*
D03*
Y395558D02*
D03*
Y400558D02*
D03*
Y405558D02*
D03*
D32*
Y410558D02*
D03*
D33*
X218968Y39864D02*
D03*
X284968Y69864D02*
D03*
Y39864D02*
D03*
X218968Y69864D02*
D03*
D34*
X730250Y74168D02*
D03*
Y105410D02*
D03*
D35*
X547243Y239360D02*
D03*
Y187360D02*
D03*
X579501Y239360D02*
D03*
Y187360D02*
D03*
X315595Y240630D02*
D03*
Y188630D02*
D03*
X347853Y240630D02*
D03*
Y188630D02*
D03*
X467487Y240122D02*
D03*
Y188122D02*
D03*
X499745Y240122D02*
D03*
Y188122D02*
D03*
X392811Y241138D02*
D03*
Y189138D02*
D03*
X425069Y241138D02*
D03*
Y189138D02*
D03*
D61*
X837321Y144145D02*
X848995D01*
X808510Y172956D02*
X837321Y144145D01*
X848995D02*
X878840Y114300D01*
X792570Y172956D02*
X808510D01*
X69650Y162560D02*
X96084D01*
X63831Y156741D02*
X69650Y162560D01*
X63831Y153610D02*
Y156741D01*
X52715Y142494D02*
X63831Y153610D01*
X935990Y427646D02*
X937260Y428916D01*
Y429260D01*
X935990Y403580D02*
Y427646D01*
Y368580D02*
X955040Y387630D01*
Y452120D01*
X762508Y231449D02*
X772160Y241101D01*
Y241300D01*
X762508Y218530D02*
Y231449D01*
X754380Y275082D02*
Y295910D01*
X759278Y205700D02*
X762254Y208676D01*
X762508Y211832D02*
Y218530D01*
X762254Y211578D02*
X762508Y211832D01*
X762254Y208676D02*
Y211578D01*
X749990Y205700D02*
X759278D01*
X746506Y209184D02*
X749990Y205700D01*
X746506Y209184D02*
Y218530D01*
X753988Y154819D02*
X754634Y154174D01*
Y134530D02*
Y154174D01*
X753988Y154819D02*
Y155163D01*
X114590Y470753D02*
X117789Y467554D01*
X114590Y470753D02*
Y473801D01*
X107950Y480441D02*
X114590Y473801D01*
X107950Y480441D02*
Y483870D01*
X117789Y467554D02*
X132140D01*
X132334Y467360D01*
X75438Y473837D02*
Y481330D01*
X77978Y483870D01*
X68072Y473837D02*
X75438D01*
X51816Y457581D02*
X68072Y473837D01*
X51816Y454152D02*
Y457581D01*
X428117Y318135D02*
X495118D01*
X713795Y369697D02*
X729488D01*
X167804Y481838D02*
X168148D01*
X148414Y480060D02*
X166026D01*
X167804Y481838D01*
X118000Y498867D02*
X124107Y492760D01*
X98027Y429260D02*
X132334D01*
X73197Y431038D02*
X96249D01*
X98027Y429260D01*
X110744Y454660D02*
X132334D01*
X108712Y452628D02*
X110744Y454660D01*
X132334Y480060D02*
X148414D01*
X191770Y492760D02*
X215447D01*
X217606Y490601D01*
X224790D01*
X189230Y493229D02*
Y513334D01*
X124107Y492760D02*
X132334D01*
X189699D02*
X191770D01*
X189230Y493229D02*
X189699Y492760D01*
X72435Y431800D02*
X73197Y431038D01*
X29210Y431800D02*
X72435D01*
X112003Y498867D02*
X118000D01*
X111760Y499110D02*
X112003Y498867D01*
X560335Y206005D02*
X560578Y206248D01*
X547243Y189578D02*
X560335Y202670D01*
Y206005D01*
X399034Y296672D02*
X414782D01*
X315595Y190847D02*
X325131Y200383D01*
Y206513D01*
X325374Y206756D01*
X138354Y202006D02*
Y240742D01*
Y202006D02*
X149860Y190500D01*
X125984Y253111D02*
X138354Y240742D01*
X125984Y253111D02*
Y256540D01*
X151337Y544523D02*
Y544867D01*
Y544523D02*
X151972Y543888D01*
Y541258D02*
X154948Y538282D01*
X151972Y541258D02*
Y543888D01*
X154948Y538282D02*
X161132D01*
X162052Y537362D01*
X148844Y18034D02*
X149352Y17526D01*
X189230Y513334D02*
X201719D01*
X157988D02*
X189230D01*
X276733Y270510D02*
Y458796D01*
Y135890D02*
Y270510D01*
X278003Y271780D01*
X322381D01*
X326707Y238442D02*
Y267453D01*
X322381Y271780D02*
X326707Y267453D01*
X224790Y490601D02*
X235966D01*
X224790Y504190D02*
X225298Y504698D01*
X224790Y490601D02*
Y504190D01*
X148414Y480060D02*
Y496127D01*
X134128Y510413D02*
X148414Y496127D01*
X119126Y510413D02*
X134128D01*
X116078Y513461D02*
X119126Y510413D01*
X116078Y513461D02*
Y516890D01*
X151892Y519430D02*
X157988Y513334D01*
X125603Y530987D02*
X137160Y519430D01*
X34544Y530987D02*
X125603D01*
X137160Y519430D02*
X151892D01*
X23622Y520065D02*
X34544Y530987D01*
X141351Y256540D02*
X155956D01*
X125984D02*
Y259969D01*
X114883Y271070D02*
X125984Y259969D01*
X81599Y271070D02*
X114883D01*
X104394Y383540D02*
X119380D01*
X69905Y384435D02*
X69959Y384381D01*
X69905Y384435D02*
Y402535D01*
X69850Y402590D02*
X69905Y402535D01*
X148844Y294386D02*
X149098Y294132D01*
X119126D02*
Y297561D01*
X116078Y300609D02*
X119126Y297561D01*
X106553Y300609D02*
X116078D01*
X99187Y307975D02*
X106553Y300609D01*
X99187Y307975D02*
Y324231D01*
X204470Y231140D02*
X209550Y236220D01*
X199390Y226060D02*
X204470Y231140D01*
Y208153D02*
Y231140D01*
X209550Y307340D02*
Y332740D01*
Y256540D02*
Y281940D01*
Y236220D02*
Y256540D01*
X153416Y226060D02*
X199390D01*
X123952Y191008D02*
Y225552D01*
X123444Y226060D02*
X123952Y225552D01*
Y191008D02*
X124460Y190500D01*
X119126Y45466D02*
Y159584D01*
X116150Y162560D02*
X119126Y159584D01*
X96084Y162560D02*
X116150D01*
X99060Y165536D02*
Y190500D01*
X96084Y162560D02*
X99060Y165536D01*
X171450Y38536D02*
Y52904D01*
X174426Y35560D02*
X190500D01*
X171450Y38536D02*
X174426Y35560D01*
X146050Y55880D02*
X168474D01*
X171450Y52904D01*
X119126Y18288D02*
Y45466D01*
X129540Y55880D02*
X146050D01*
X119126Y45466D02*
X129540Y55880D01*
X530860Y431800D02*
X556260D01*
X559054Y500738D02*
X559458Y501142D01*
X543052Y478536D02*
X559054Y494538D01*
X401320Y505460D02*
X428244Y478536D01*
X543052D01*
X559054Y494538D02*
Y500738D01*
X39577Y370001D02*
X52959Y383383D01*
X35928Y370001D02*
X39577D01*
X32952Y367025D02*
X35928Y370001D01*
X32952Y336119D02*
Y367025D01*
Y336119D02*
X44841Y324231D01*
X99187D01*
X80274Y237747D02*
X81599Y239071D01*
X69959Y346492D02*
X75756Y340695D01*
X69959Y346492D02*
Y362381D01*
X129540Y324612D02*
Y328041D01*
X116886Y340695D02*
X129540Y328041D01*
X75756Y340695D02*
X116886D01*
X134366Y364236D02*
Y383540D01*
X125143Y355013D02*
X134366Y364236D01*
X75057Y355013D02*
X125143D01*
X68824Y361246D02*
X75057Y355013D01*
X99187Y324231D02*
X99568Y324612D01*
X52959Y383383D02*
Y384382D01*
X53150Y343090D02*
Y362190D01*
Y343090D02*
X53340Y342900D01*
X52959Y362381D02*
X53150Y362190D01*
X133858Y294386D02*
X148844D01*
X149352Y17526D02*
X149606Y17780D01*
X134366Y18034D02*
X148844D01*
X334010Y110490D02*
X356616D01*
X362712Y79684D02*
Y104394D01*
X365688Y76708D02*
X445020D01*
X362712Y79684D02*
X365688Y76708D01*
X356616Y110490D02*
X362712Y104394D01*
X283210Y132842D02*
X609091D01*
X612066Y70165D02*
Y129866D01*
X609091Y132842D02*
X612066Y129866D01*
X204470Y208153D02*
X276733Y135890D01*
X220468Y69864D02*
X244626Y45706D01*
X253760D02*
X285242Y14224D01*
X244626Y45706D02*
X253760D01*
X837438Y376356D02*
X837683D01*
X852424Y391097D02*
Y400050D01*
X855472Y403098D01*
X837683Y376356D02*
X852424Y391097D01*
X830779Y369697D02*
X837438Y376356D01*
X729488Y369697D02*
X830779D01*
X815086Y477774D02*
Y491236D01*
Y477774D02*
X815340Y477520D01*
X584708Y555752D02*
Y570484D01*
X559816Y554736D02*
Y557022D01*
X559458Y554378D02*
X559816Y554736D01*
X559458Y501142D02*
Y554378D01*
X750570Y398272D02*
X750914D01*
X725170Y493522D02*
Y507492D01*
X629920Y477520D02*
X630428Y478028D01*
Y493268D01*
X584454Y481584D02*
X584558Y481688D01*
X583366Y460502D02*
X663012D01*
X571500Y472368D02*
X583366Y460502D01*
X571500Y472368D02*
Y527304D01*
X584454Y480314D02*
Y481584D01*
X584558Y481688D02*
Y491642D01*
X584200Y480060D02*
X584454Y480314D01*
X584708Y540512D02*
X601345D01*
X578231Y534035D02*
Y537464D01*
X581279Y540512D02*
X584708D01*
X571500Y527304D02*
X578231Y534035D01*
X627682Y533448D02*
X648462Y554228D01*
X646538Y541528D02*
X670890D01*
X717359Y522923D02*
X732790Y538353D01*
X633349Y507492D02*
X648780Y522923D01*
X648462Y554228D02*
X670890D01*
X648780Y522923D02*
X717359D01*
X623170Y518160D02*
X646538Y541528D01*
X610464Y533448D02*
X627682D01*
X587658Y510642D02*
X610464Y533448D01*
X614176Y518160D02*
X623170D01*
X584558Y510642D02*
X587658D01*
X326707Y238442D02*
X340669Y224481D01*
X344877D01*
X347853Y227457D01*
Y240630D01*
X242661Y483906D02*
X251623D01*
X276733Y458796D01*
X235966Y490601D02*
X242661Y483906D01*
X240284Y504190D02*
X254762D01*
X255270Y504698D01*
X616430Y541068D02*
X616890Y541528D01*
X601345Y540512D02*
X601901Y541068D01*
X616430D01*
X811784Y218530D02*
X814488Y221234D01*
X814832D01*
X778510Y218530D02*
X811784D01*
X713475Y255916D02*
Y259853D01*
X724281Y245110D02*
X727710D01*
X713475Y255916D02*
X724281Y245110D01*
X713232Y260096D02*
X713475Y259853D01*
X698701Y286809D02*
X705993Y279517D01*
X704977Y241393D02*
Y267589D01*
X705993Y268605D01*
Y279517D01*
X704977Y241393D02*
X722630Y223740D01*
X694944Y252476D02*
X695960Y251460D01*
X683387Y252603D02*
X683514Y252476D01*
X694944D01*
X734187Y265357D02*
Y272034D01*
Y265357D02*
X735422Y264123D01*
Y263779D02*
Y264123D01*
X731139Y275082D02*
X734187Y272034D01*
X727710Y275082D02*
X731139D01*
X727456Y357124D02*
Y367665D01*
X729488Y369697D01*
X705517Y401415D02*
X705612Y401320D01*
X668716Y385779D02*
X671692Y382803D01*
X683793D01*
X692810Y391820D01*
X597154Y296164D02*
X683793Y382803D01*
X683419Y401415D02*
X705517D01*
X683324Y401511D02*
X683419Y401415D01*
X665988Y398272D02*
X668716Y395544D01*
X692810Y391820D02*
X705612D01*
X665988Y398272D02*
Y457526D01*
X668716Y385779D02*
Y395544D01*
X705866Y377626D02*
X713795Y369697D01*
X705866Y377626D02*
Y391566D01*
X705612Y391820D02*
X705866Y391566D01*
X874395Y403098D02*
X885444D01*
X683299Y274691D02*
X697699D01*
X683260Y274730D02*
X683299Y274691D01*
X697699D02*
X697738Y274652D01*
X754380Y223994D02*
X754634Y223740D01*
Y218530D02*
Y223740D01*
X754380Y223994D02*
Y245110D01*
X766064Y75438D02*
Y90170D01*
X730250Y105410D02*
X730504Y105664D01*
Y134530D01*
X627380Y215646D02*
Y243840D01*
X637286Y205740D02*
X680030D01*
X627380Y215646D02*
X637286Y205740D01*
X654558Y219710D02*
X668782D01*
X653542Y220726D02*
X654558Y219710D01*
X680030Y205740D02*
X680466Y206176D01*
Y217678D01*
X683514Y220726D01*
X683260Y252730D02*
X683387Y252603D01*
X730504Y197448D02*
Y218530D01*
X728218Y195162D02*
X730504Y197448D01*
X728218Y194818D02*
Y195162D01*
X722630Y218530D02*
Y223740D01*
X631269Y274272D02*
X665800D01*
X631269D02*
X663702Y306705D01*
X630809Y273812D02*
X631269Y274272D01*
X627380Y273812D02*
X630809D01*
X663702Y306705D02*
Y316992D01*
X666750Y320040D01*
X93382Y452120D02*
X93726D01*
X78740Y452628D02*
X92874D01*
X93382Y452120D01*
X828530Y197086D02*
X852660D01*
X601888Y187360D02*
X602234Y187706D01*
X705104Y74168D02*
X707318D01*
X571500Y60960D02*
X571627Y61087D01*
X606425D02*
X606552Y61214D01*
X571627Y61087D02*
X606425D01*
X704342Y53421D02*
X705612Y52151D01*
X704342Y53421D02*
Y71192D01*
X707318Y74168D01*
X730250D01*
X705612Y34036D02*
Y52151D01*
X819422Y188958D02*
X838962Y169418D01*
X792570Y188958D02*
X819422D01*
X445020Y94500D02*
X464312Y113792D01*
X445020Y76708D02*
Y94500D01*
X819422Y188958D02*
X870595D01*
X805198Y165082D02*
X880364Y89916D01*
Y47244D02*
Y89916D01*
X201719Y513334D02*
X206756Y518371D01*
X185677Y537362D02*
X203780D01*
X206756Y518371D02*
Y534386D01*
X203780Y537362D02*
X206756Y534386D01*
X680260Y558848D02*
X680744D01*
X670890Y554228D02*
X671350Y554688D01*
X683900Y619758D02*
X690760Y626618D01*
X683900Y594765D02*
X687784Y590881D01*
X683900Y594765D02*
Y619758D01*
X680744Y558848D02*
X687784Y565888D01*
Y590881D01*
X690760Y626618D02*
X719654D01*
X671350Y554688D02*
X676100D01*
X680260Y558848D01*
X657352Y83984D02*
X657860Y84492D01*
X657352Y61214D02*
Y83984D01*
X657860Y84492D02*
Y84836D01*
X578358Y296164D02*
X597154D01*
X719654Y626618D02*
X722630Y623642D01*
Y608330D02*
Y623642D01*
X495118Y318135D02*
X575128D01*
X578104Y296418D02*
X578358Y296164D01*
X578104Y296418D02*
Y315159D01*
X575128Y318135D02*
X578104Y315159D01*
X428117Y318135D02*
X430022Y316230D01*
X426212Y320040D02*
X428117Y318135D01*
X498094Y295910D02*
Y315159D01*
X495118Y318135D02*
X498094Y315159D01*
X429006Y296672D02*
X430022Y297688D01*
Y316230D01*
X348234Y297688D02*
Y317064D01*
X351210Y320040D01*
X426212D01*
X348044Y240821D02*
Y297498D01*
X347853Y240630D02*
X348044Y240821D01*
Y297498D02*
X348234Y297688D01*
X644144Y576326D02*
X644488D01*
X647790Y579628D02*
X670890D01*
X644488Y576326D02*
X647790Y579628D01*
X697230Y550799D02*
Y608330D01*
X702818Y541782D02*
Y545211D01*
X697230Y550799D02*
X702818Y545211D01*
X23622Y516636D02*
Y520065D01*
X635762Y14224D02*
X657352Y35814D01*
X240956Y35052D02*
X241300D01*
X236144Y39864D02*
X240956Y35052D01*
X218968Y39864D02*
X236144D01*
X285242Y14224D02*
X635762D01*
X276733Y135890D02*
X279781Y132842D01*
X283210D01*
X578929Y239932D02*
Y295592D01*
Y239932D02*
X579501Y239360D01*
X548894Y296672D02*
X563118D01*
X548386Y296164D02*
X548894Y296672D01*
X606552Y61214D02*
Y64651D01*
X612066Y70165D01*
X509778Y102870D02*
X509899Y102749D01*
Y76829D02*
Y102749D01*
Y76829D02*
X510020Y76708D01*
X792570Y165082D02*
X805198D01*
X518160Y237744D02*
X545627D01*
X547243Y239360D01*
X511810Y231394D02*
X518160Y237744D01*
X511810Y191098D02*
Y231394D01*
X499745Y188122D02*
X508834D01*
X511810Y191098D01*
X438150Y234442D02*
X443830Y240122D01*
X467487D01*
X438150Y192114D02*
Y234442D01*
X425069Y189138D02*
X435174D01*
X438150Y192114D01*
X425069Y243356D02*
X429006Y247292D01*
Y296672D01*
X425069Y241138D02*
Y243356D01*
X498919Y240947D02*
Y295084D01*
Y240947D02*
X499745Y240122D01*
X498094Y295910D02*
X498919Y295084D01*
X578358Y296164D02*
X578929Y295592D01*
X318770Y298196D02*
X334010D01*
X318262Y297688D02*
X318770Y298196D01*
X468122Y295910D02*
X468630Y295402D01*
X482600D01*
X663012Y460502D02*
X665988Y457526D01*
X578231Y537464D02*
X581279Y540512D01*
X587658Y491642D02*
X614176Y518160D01*
X584558Y491642D02*
X587658D01*
X872617Y466852D02*
X943264D01*
X953932Y477520D01*
X858520D02*
X861949D01*
X872617Y466852D01*
X953932Y477520D02*
X955040D01*
X841810Y570120D02*
X862131D01*
X835350Y576580D02*
X841810Y570120D01*
X862131D02*
X929331Y502920D01*
X955040D01*
X732790Y538353D02*
Y541782D01*
X629920Y507492D02*
X633349D01*
X782828Y608330D02*
X788670Y602488D01*
Y541020D02*
Y602488D01*
X748030Y608330D02*
X782828D01*
X671830Y477520D02*
X725170D01*
X774700D01*
X815340D02*
X858520D01*
X774700Y507492D02*
X815340D01*
X725170D02*
X774700D01*
X732790Y541782D02*
X757936D01*
X758698Y541020D01*
X880110Y224536D02*
Y259080D01*
X852660Y197086D02*
X880110Y224536D01*
X878840Y45720D02*
X880364Y47244D01*
X870595Y188958D02*
X875403Y184150D01*
X878840D01*
X731139Y245110D02*
X738632Y237617D01*
Y218530D02*
Y237617D01*
X727710Y245110D02*
X731139D01*
X675156Y286809D02*
X698701D01*
X672180Y283833D02*
X675156Y286809D01*
X666260Y275731D02*
X672180Y281651D01*
Y283833D01*
X666260Y274732D02*
Y275731D01*
X665800Y274272D02*
X666260Y274732D01*
X683387Y220853D02*
Y252603D01*
Y220853D02*
X683514Y220726D01*
X834771Y60071D02*
Y99949D01*
X834390Y100330D02*
X834771Y99949D01*
Y60071D02*
X835152Y59690D01*
X765683Y105283D02*
X765810Y105156D01*
X730250Y105410D02*
X730377Y105283D01*
X765683D01*
X284968Y54500D02*
X285496Y55028D01*
X284968Y39864D02*
Y54500D01*
X285496Y55028D02*
Y55372D01*
X238252Y118618D02*
Y132080D01*
X237490Y132842D02*
X238252Y132080D01*
X192278Y118364D02*
Y132588D01*
X191770Y133096D02*
X192278Y132588D01*
X895350Y576580D02*
X898205Y579435D01*
X902970Y477520D02*
Y492506D01*
X636270Y398526D02*
X651256D01*
X636016Y398272D02*
X636270Y398526D01*
X671576Y507238D02*
X671830Y507492D01*
X671576Y492760D02*
Y507238D01*
X696214Y320548D02*
X696722Y320040D01*
X681990Y320548D02*
X696214D01*
X819314Y58928D02*
X819658D01*
X805180Y59690D02*
X818552D01*
X819314Y58928D01*
X765810Y75184D02*
X766064Y75438D01*
X651002Y252730D02*
X666260D01*
X547243Y187360D02*
Y189578D01*
X482126Y204978D02*
X482346D01*
X467487Y188122D02*
Y190340D01*
X482126Y204978D01*
X392811Y191355D02*
X407173Y205718D01*
X392811Y189138D02*
Y191355D01*
X407173Y205718D02*
Y207021D01*
X407416Y207264D01*
X315595Y188630D02*
Y190847D01*
X22733Y455041D02*
Y515747D01*
X21844Y454152D02*
X22733Y455041D01*
Y515747D02*
X23622Y516636D01*
X191262Y103632D02*
X191770Y103124D01*
X189992Y66040D02*
X190500Y65532D01*
Y35560D02*
X191008Y36068D01*
X119126Y18288D02*
X119634Y17780D01*
D62*
X25082Y292470D02*
D03*
X72582D02*
D03*
Y218070D02*
D03*
X25082D02*
D03*
D63*
X81599Y239071D02*
D03*
Y255071D02*
D03*
X69562Y247072D02*
D03*
Y263072D02*
D03*
X81599Y271070D02*
D03*
D64*
X232664Y600202D02*
D03*
X258064D02*
D03*
X181864D02*
D03*
X207264D02*
D03*
X359918Y530860D02*
D03*
Y505460D02*
D03*
Y581660D02*
D03*
Y556260D02*
D03*
X401320D02*
D03*
Y581660D02*
D03*
Y505460D02*
D03*
Y530860D02*
D03*
X454660Y556260D02*
D03*
Y581660D02*
D03*
Y505460D02*
D03*
Y530860D02*
D03*
X513588Y556260D02*
D03*
Y581660D02*
D03*
Y505460D02*
D03*
Y530860D02*
D03*
X104394Y600202D02*
D03*
X129794D02*
D03*
X53594D02*
D03*
X78994D02*
D03*
X334010Y59690D02*
D03*
Y34290D02*
D03*
Y110490D02*
D03*
Y85090D02*
D03*
X505460Y431800D02*
D03*
X530860D02*
D03*
X454660D02*
D03*
X480060D02*
D03*
X146050Y81280D02*
D03*
Y55880D02*
D03*
Y132080D02*
D03*
Y106680D02*
D03*
X904240Y45720D02*
D03*
X878840D02*
D03*
X955040D02*
D03*
X929640D02*
D03*
X905510Y259080D02*
D03*
X880110D02*
D03*
X956310D02*
D03*
X930910D02*
D03*
X209550Y281940D02*
D03*
Y256540D02*
D03*
Y332740D02*
D03*
Y307340D02*
D03*
X657352Y61214D02*
D03*
Y35814D02*
D03*
X631952Y61214D02*
D03*
Y35814D02*
D03*
X606552Y61214D02*
D03*
Y35814D02*
D03*
X904240Y114300D02*
D03*
X878840D02*
D03*
X955040D02*
D03*
X929640D02*
D03*
X904240Y184150D02*
D03*
X878840D02*
D03*
X955040D02*
D03*
X929640D02*
D03*
D65*
X99215Y117494D02*
D03*
D66*
X52715Y82494D02*
D03*
Y142494D02*
D03*
D67*
X510020Y76708D02*
D03*
X445020D02*
D03*
D68*
X955040Y452120D02*
D03*
Y477520D02*
D03*
Y502920D02*
D03*
X99060Y190500D02*
D03*
X124460D02*
D03*
X149860D02*
D03*
X748030Y608330D02*
D03*
X722630D02*
D03*
X697230D02*
D03*
D69*
X835350Y576580D02*
D03*
X895350D02*
D03*
D70*
X860350Y623080D02*
D03*
D71*
X935990Y368580D02*
D03*
Y403580D02*
D03*
D72*
X840740Y154940D02*
D03*
X937260Y429260D02*
D03*
X829310Y209550D02*
D03*
X819150Y232410D02*
D03*
X778410Y201752D02*
D03*
X773430Y163830D02*
D03*
X755650Y189230D02*
D03*
X772160Y241300D02*
D03*
X754380Y295910D02*
D03*
X748030Y179070D02*
D03*
X753988Y155163D02*
D03*
X562610Y568960D02*
D03*
X654050Y604520D02*
D03*
X542290Y500380D02*
D03*
X598170Y477520D02*
D03*
X571500Y430530D02*
D03*
X689610Y426720D02*
D03*
X741680Y492760D02*
D03*
X744220Y520700D02*
D03*
X833120Y491490D02*
D03*
X834390Y429260D02*
D03*
X740410Y356870D02*
D03*
X617220Y187960D02*
D03*
X728980Y182880D02*
D03*
Y165100D02*
D03*
X829310Y125730D02*
D03*
X678180Y46990D02*
D03*
X718820Y34290D02*
D03*
X572770Y78740D02*
D03*
X447040Y115570D02*
D03*
X300990Y116840D02*
D03*
X237490Y436880D02*
D03*
X161290Y421640D02*
D03*
X25400Y416560D02*
D03*
X92710Y467360D02*
D03*
X168148Y481838D02*
D03*
X163830Y468630D02*
D03*
X123190Y547370D02*
D03*
X560578Y206248D02*
D03*
X414782Y296672D02*
D03*
X325374Y206756D02*
D03*
X282194Y117856D02*
D03*
X133350Y539750D02*
D03*
X151337Y544867D02*
D03*
X111760Y499110D02*
D03*
X93345Y483997D02*
D03*
X141351Y256540D02*
D03*
X119380Y383540D02*
D03*
X29210Y431800D02*
D03*
X69850Y402590D02*
D03*
X133350Y294640D02*
D03*
X556260Y431800D02*
D03*
X53340Y342900D02*
D03*
X134366Y18034D02*
D03*
X788527Y391779D02*
D03*
X823976Y420370D02*
D03*
X789432Y405892D02*
D03*
X815086Y491236D02*
D03*
X774954Y465328D02*
D03*
X584708Y555752D02*
D03*
X559816Y557022D02*
D03*
X750570Y398272D02*
D03*
X725170Y493522D02*
D03*
X630428Y493268D02*
D03*
X542544Y515366D02*
D03*
X584200Y480060D02*
D03*
X240284Y504190D02*
D03*
X771398Y173990D02*
D03*
X771219Y192024D02*
D03*
X814832Y221234D02*
D03*
X713232Y260096D02*
D03*
X695960Y251460D02*
D03*
X735422Y263779D02*
D03*
X727456Y357124D02*
D03*
X683324Y401511D02*
D03*
X874395Y403098D02*
D03*
X697738Y274652D02*
D03*
X766064Y90170D02*
D03*
X668782Y219710D02*
D03*
X728218Y194818D02*
D03*
X840994Y209550D02*
D03*
X602234Y187706D02*
D03*
X571500Y60960D02*
D03*
X705612Y34036D02*
D03*
X687324Y35052D02*
D03*
X838962Y169418D02*
D03*
X817880Y117856D02*
D03*
X722884Y155702D02*
D03*
X464312Y113792D02*
D03*
X161036Y436118D02*
D03*
X757428Y520954D02*
D03*
X768604Y382016D02*
D03*
X756782Y390312D02*
D03*
X705104Y421386D02*
D03*
X668528Y592328D02*
D03*
X253746Y437642D02*
D03*
X644144Y576326D02*
D03*
X241300Y35052D02*
D03*
X563118Y296672D02*
D03*
X509778Y102870D02*
D03*
X93726Y452120D02*
D03*
X657860Y84836D02*
D03*
X334010Y298196D02*
D03*
X285496Y55372D02*
D03*
X238252Y118618D02*
D03*
X192278Y118364D02*
D03*
X902970Y492506D02*
D03*
X671576Y492760D02*
D03*
X651256Y398526D02*
D03*
X681990Y320548D02*
D03*
X819658Y58928D02*
D03*
X651002Y252730D02*
D03*
X482346Y204978D02*
D03*
X407416Y207264D02*
D03*
X482600Y295402D02*
D03*
M02*
