G04*
G04 #@! TF.GenerationSoftware,Altium Limited,Altium Designer,23.1.1 (15)*
G04*
G04 Layer_Color=128*
%FSLAX44Y44*%
%MOMM*%
G71*
G04*
G04 #@! TF.SameCoordinates,32E53F4C-9CDF-4151-867A-B185B0D7BA91*
G04*
G04*
G04 #@! TF.FilePolarity,Positive*
G04*
G01*
G75*
%ADD19C,0.1270*%
D19*
X21082Y292470D02*
X29081D01*
X25082Y288470D02*
Y296470D01*
X68582Y292470D02*
X76582D01*
X72582Y288470D02*
Y296470D01*
X68582Y218070D02*
X76582D01*
X72582Y214070D02*
Y222070D01*
X77599Y239071D02*
X85598D01*
X81599Y235071D02*
Y243071D01*
X77599Y255071D02*
X85598D01*
X81599Y251071D02*
Y259071D01*
X65561Y247072D02*
X73561D01*
X69562Y243072D02*
Y251072D01*
X65561Y263072D02*
X73561D01*
X69562Y259072D02*
Y267072D01*
X77599Y271070D02*
X85598D01*
X81599Y267070D02*
Y275070D01*
X21082Y218070D02*
X29081D01*
X25082Y214070D02*
Y222070D01*
X227584Y600202D02*
X237744D01*
X232664Y595122D02*
Y605282D01*
X252984Y600202D02*
X263144D01*
X258064Y595122D02*
Y605282D01*
X176784Y600202D02*
X186944D01*
X181864Y595122D02*
Y605282D01*
X202184Y600202D02*
X212344D01*
X207264Y595122D02*
Y605282D01*
X354838Y530860D02*
X364998D01*
X359918Y525780D02*
Y535940D01*
X354838Y505460D02*
X364998D01*
X359918Y500380D02*
Y510540D01*
X354838Y581660D02*
X364998D01*
X359918Y576580D02*
Y586740D01*
X354838Y556260D02*
X364998D01*
X359918Y551180D02*
Y561340D01*
X396240Y556260D02*
X406400D01*
X401320Y551180D02*
Y561340D01*
X396240Y581660D02*
X406400D01*
X401320Y576580D02*
Y586740D01*
X396240Y505460D02*
X406400D01*
X401320Y500380D02*
Y510540D01*
X396240Y530860D02*
X406400D01*
X401320Y525780D02*
Y535940D01*
X449580Y556260D02*
X459740D01*
X454660Y551180D02*
Y561340D01*
X449580Y581660D02*
X459740D01*
X454660Y576580D02*
Y586740D01*
X449580Y505460D02*
X459740D01*
X454660Y500380D02*
Y510540D01*
X449580Y530860D02*
X459740D01*
X454660Y525780D02*
Y535940D01*
X508508Y556260D02*
X518668D01*
X513588Y551180D02*
Y561340D01*
X508508Y581660D02*
X518668D01*
X513588Y576580D02*
Y586740D01*
X508508Y505460D02*
X518668D01*
X513588Y500380D02*
Y510540D01*
X508508Y530860D02*
X518668D01*
X513588Y525780D02*
Y535940D01*
X99314Y600202D02*
X109474D01*
X104394Y595122D02*
Y605282D01*
X124714Y600202D02*
X134874D01*
X129794Y595122D02*
Y605282D01*
X48514Y600202D02*
X58674D01*
X53594Y595122D02*
Y605282D01*
X73914Y600202D02*
X84074D01*
X78994Y595122D02*
Y605282D01*
X94215Y117494D02*
X104215D01*
X99215Y112494D02*
Y122494D01*
X46715Y82494D02*
X58715D01*
X52715Y76494D02*
Y88494D01*
X46715Y142494D02*
X58715D01*
X52715Y136494D02*
Y148494D01*
X328930Y59690D02*
X339090D01*
X334010Y54610D02*
Y64770D01*
X328930Y34290D02*
X339090D01*
X334010Y29210D02*
Y39370D01*
X328930Y110490D02*
X339090D01*
X334010Y105410D02*
Y115570D01*
X328930Y85090D02*
X339090D01*
X334010Y80010D02*
Y90170D01*
X505520Y76708D02*
X514520D01*
X510020Y72208D02*
Y81208D01*
X440520Y76708D02*
X449520D01*
X445020Y72208D02*
Y81208D01*
X500380Y431800D02*
X510540D01*
X505460Y426720D02*
Y436880D01*
X525780Y431800D02*
X535940D01*
X530860Y426720D02*
Y436880D01*
X449580Y431800D02*
X459740D01*
X454660Y426720D02*
Y436880D01*
X474980Y431800D02*
X485140D01*
X480060Y426720D02*
Y436880D01*
X140970Y81280D02*
X151130D01*
X146050Y76200D02*
Y86360D01*
X140970Y55880D02*
X151130D01*
X146050Y50800D02*
Y60960D01*
X140970Y132080D02*
X151130D01*
X146050Y127000D02*
Y137160D01*
X140970Y106680D02*
X151130D01*
X146050Y101600D02*
Y111760D01*
X899160Y45720D02*
X909320D01*
X904240Y40640D02*
Y50800D01*
X873760Y45720D02*
X883920D01*
X878840Y40640D02*
Y50800D01*
X949960Y45720D02*
X960120D01*
X955040Y40640D02*
Y50800D01*
X924560Y45720D02*
X934720D01*
X929640Y40640D02*
Y50800D01*
X949540Y452120D02*
X960540D01*
X955040Y446620D02*
Y457620D01*
X949540Y477520D02*
X960540D01*
X955040Y472020D02*
Y483020D01*
X949540Y502920D02*
X960540D01*
X955040Y497420D02*
Y508420D01*
X93560Y190500D02*
X104560D01*
X99060Y185000D02*
Y196000D01*
X118960Y190500D02*
X129960D01*
X124460Y185000D02*
Y196000D01*
X144360Y190500D02*
X155360D01*
X149860Y185000D02*
Y196000D01*
X900430Y259080D02*
X910590D01*
X905510Y254000D02*
Y264160D01*
X875030Y259080D02*
X885190D01*
X880110Y254000D02*
Y264160D01*
X951230Y259080D02*
X961390D01*
X956310Y254000D02*
Y264160D01*
X925830Y259080D02*
X935990D01*
X930910Y254000D02*
Y264160D01*
X204470Y281940D02*
X214630D01*
X209550Y276860D02*
Y287020D01*
X204470Y256540D02*
X214630D01*
X209550Y251460D02*
Y261620D01*
X204470Y332740D02*
X214630D01*
X209550Y327660D02*
Y337820D01*
X204470Y307340D02*
X214630D01*
X209550Y302260D02*
Y312420D01*
X742530Y608330D02*
X753530D01*
X748030Y602830D02*
Y613830D01*
X717130Y608330D02*
X728130D01*
X722630Y602830D02*
Y613830D01*
X691730Y608330D02*
X702730D01*
X697230Y602830D02*
Y613830D01*
X829350Y576580D02*
X841350D01*
X835350Y570580D02*
Y582580D01*
X889350Y576580D02*
X901350D01*
X895350Y570580D02*
Y582580D01*
X855350Y623080D02*
X865350D01*
X860350Y618080D02*
Y628080D01*
X651852Y61214D02*
X662852D01*
X657352Y55714D02*
Y66714D01*
X651852Y35814D02*
X662852D01*
X657352Y30314D02*
Y41314D01*
X626452Y61214D02*
X637452D01*
X631952Y55714D02*
Y66714D01*
X626452Y35814D02*
X637452D01*
X631952Y30314D02*
Y41314D01*
X601052Y61214D02*
X612052D01*
X606552Y55714D02*
Y66714D01*
X601052Y35814D02*
X612052D01*
X606552Y30314D02*
Y41314D01*
X899160Y114300D02*
X909320D01*
X904240Y109220D02*
Y119380D01*
X873760Y114300D02*
X883920D01*
X878840Y109220D02*
Y119380D01*
X949960Y114300D02*
X960120D01*
X955040Y109220D02*
Y119380D01*
X924560Y114300D02*
X934720D01*
X929640Y109220D02*
Y119380D01*
X899160Y184150D02*
X909320D01*
X904240Y179070D02*
Y189230D01*
X873760Y184150D02*
X883920D01*
X878840Y179070D02*
Y189230D01*
X949960Y184150D02*
X960120D01*
X955040Y179070D02*
Y189230D01*
X924560Y184150D02*
X934720D01*
X929640Y179070D02*
Y189230D01*
X930990Y368580D02*
X940990D01*
X935990Y363580D02*
Y373580D01*
X930990Y403580D02*
X940990D01*
X935990Y398580D02*
Y408580D01*
X839089Y154940D02*
X842391D01*
X840740Y153289D02*
Y156591D01*
X935609Y429260D02*
X938911D01*
X937260Y427609D02*
Y430911D01*
X827659Y209550D02*
X830961D01*
X829310Y207899D02*
Y211201D01*
X817499Y232410D02*
X820801D01*
X819150Y230759D02*
Y234061D01*
X776758Y201752D02*
X780061D01*
X778410Y200101D02*
Y203403D01*
X771779Y163830D02*
X775081D01*
X773430Y162179D02*
Y165481D01*
X753999Y189230D02*
X757301D01*
X755650Y187579D02*
Y190881D01*
X770509Y241300D02*
X773811D01*
X772160Y239649D02*
Y242951D01*
X752729Y295910D02*
X756031D01*
X754380Y294259D02*
Y297561D01*
X746379Y179070D02*
X749681D01*
X748030Y177419D02*
Y180721D01*
X752337Y155163D02*
X755639D01*
X753988Y153512D02*
Y156814D01*
X560959Y568960D02*
X564261D01*
X562610Y567309D02*
Y570611D01*
X652399Y604520D02*
X655701D01*
X654050Y602869D02*
Y606171D01*
X540639Y500380D02*
X543941D01*
X542290Y498729D02*
Y502031D01*
X596519Y477520D02*
X599821D01*
X598170Y475869D02*
Y479171D01*
X569849Y430530D02*
X573151D01*
X571500Y428879D02*
Y432181D01*
X687959Y426720D02*
X691261D01*
X689610Y425069D02*
Y428371D01*
X740029Y492760D02*
X743331D01*
X741680Y491109D02*
Y494411D01*
X742569Y520700D02*
X745871D01*
X744220Y519049D02*
Y522351D01*
X831469Y491490D02*
X834771D01*
X833120Y489839D02*
Y493141D01*
X832739Y429260D02*
X836041D01*
X834390Y427609D02*
Y430911D01*
X738759Y356870D02*
X742061D01*
X740410Y355219D02*
Y358521D01*
X615569Y187960D02*
X618871D01*
X617220Y186309D02*
Y189611D01*
X727329Y182880D02*
X730631D01*
X728980Y181229D02*
Y184531D01*
X727329Y165100D02*
X730631D01*
X728980Y163449D02*
Y166751D01*
X827659Y125730D02*
X830961D01*
X829310Y124079D02*
Y127381D01*
X676529Y46990D02*
X679831D01*
X678180Y45339D02*
Y48641D01*
X717169Y34290D02*
X720471D01*
X718820Y32639D02*
Y35941D01*
X571119Y78740D02*
X574421D01*
X572770Y77089D02*
Y80391D01*
X445389Y115570D02*
X448691D01*
X447040Y113919D02*
Y117221D01*
X299339Y116840D02*
X302641D01*
X300990Y115189D02*
Y118491D01*
X235839Y436880D02*
X239141D01*
X237490Y435229D02*
Y438531D01*
X159639Y421640D02*
X162941D01*
X161290Y419989D02*
Y423291D01*
X23749Y416560D02*
X27051D01*
X25400Y414909D02*
Y418211D01*
X91059Y467360D02*
X94361D01*
X92710Y465709D02*
Y469011D01*
X166497Y481838D02*
X169799D01*
X168148Y480187D02*
Y483489D01*
X162179Y468630D02*
X165481D01*
X163830Y466979D02*
Y470281D01*
X121539Y547370D02*
X124841D01*
X123190Y545719D02*
Y549021D01*
X558927Y206248D02*
X562229D01*
X560578Y204597D02*
Y207899D01*
X413131Y296672D02*
X416433D01*
X414782Y295021D02*
Y298323D01*
X323723Y206756D02*
X327025D01*
X325374Y205105D02*
Y208407D01*
X280543Y117856D02*
X283845D01*
X282194Y116205D02*
Y119507D01*
X131699Y539750D02*
X135001D01*
X133350Y538099D02*
Y541401D01*
X149686Y544867D02*
X152988D01*
X151337Y543216D02*
Y546518D01*
X110109Y499110D02*
X113411D01*
X111760Y497459D02*
Y500761D01*
X91694Y483997D02*
X94996D01*
X93345Y482346D02*
Y485648D01*
X139700Y256540D02*
X143002D01*
X141351Y254889D02*
Y258191D01*
X117729Y383540D02*
X121031D01*
X119380Y381889D02*
Y385191D01*
X27559Y431800D02*
X30861D01*
X29210Y430149D02*
Y433451D01*
X68199Y402590D02*
X71501D01*
X69850Y400939D02*
Y404241D01*
X131699Y294640D02*
X135001D01*
X133350Y292989D02*
Y296291D01*
X554609Y431800D02*
X557911D01*
X556260Y430149D02*
Y433451D01*
X51689Y342900D02*
X54991D01*
X53340Y341249D02*
Y344551D01*
X132715Y18034D02*
X136017D01*
X134366Y16383D02*
Y19685D01*
X786876Y391779D02*
X790178D01*
X788527Y390128D02*
Y393430D01*
X822325Y420370D02*
X825627D01*
X823976Y418719D02*
Y422021D01*
X787781Y405892D02*
X791083D01*
X789432Y404241D02*
Y407543D01*
X813435Y491236D02*
X816737D01*
X815086Y489585D02*
Y492887D01*
X773303Y465328D02*
X776605D01*
X774954Y463677D02*
Y466979D01*
X583057Y555752D02*
X586359D01*
X584708Y554101D02*
Y557403D01*
X558165Y557022D02*
X561467D01*
X559816Y555371D02*
Y558673D01*
X748919Y398272D02*
X752221D01*
X750570Y396621D02*
Y399923D01*
X723519Y493522D02*
X726821D01*
X725170Y491871D02*
Y495173D01*
X628777Y493268D02*
X632079D01*
X630428Y491617D02*
Y494919D01*
X540893Y515366D02*
X544195D01*
X542544Y513715D02*
Y517017D01*
X582549Y480060D02*
X585851D01*
X584200Y478409D02*
Y481711D01*
X238633Y504190D02*
X241935D01*
X240284Y502539D02*
Y505841D01*
X769747Y173990D02*
X773049D01*
X771398Y172339D02*
Y175641D01*
X769568Y192024D02*
X772870D01*
X771219Y190373D02*
Y193675D01*
X813181Y221234D02*
X816483D01*
X814832Y219583D02*
Y222885D01*
X711581Y260096D02*
X714883D01*
X713232Y258445D02*
Y261747D01*
X694309Y251460D02*
X697611D01*
X695960Y249809D02*
Y253111D01*
X733771Y263779D02*
X737073D01*
X735422Y262128D02*
Y265430D01*
X725805Y357124D02*
X729107D01*
X727456Y355473D02*
Y358775D01*
X681673Y401511D02*
X684975D01*
X683324Y399860D02*
Y403162D01*
X872744Y403098D02*
X876046D01*
X874395Y401447D02*
Y404749D01*
X696087Y274652D02*
X699389D01*
X697738Y273001D02*
Y276303D01*
X764413Y90170D02*
X767715D01*
X766064Y88519D02*
Y91821D01*
X667131Y219710D02*
X670433D01*
X668782Y218059D02*
Y221361D01*
X726567Y194818D02*
X729869D01*
X728218Y193167D02*
Y196469D01*
X839343Y209550D02*
X842645D01*
X840994Y207899D02*
Y211201D01*
X600583Y187706D02*
X603885D01*
X602234Y186055D02*
Y189357D01*
X569849Y60960D02*
X573151D01*
X571500Y59309D02*
Y62611D01*
X703961Y34036D02*
X707263D01*
X705612Y32385D02*
Y35687D01*
X685673Y35052D02*
X688975D01*
X687324Y33401D02*
Y36703D01*
X837311Y169418D02*
X840613D01*
X838962Y167767D02*
Y171069D01*
X816229Y117856D02*
X819531D01*
X817880Y116205D02*
Y119507D01*
X721233Y155702D02*
X724535D01*
X722884Y154051D02*
Y157353D01*
X462661Y113792D02*
X465963D01*
X464312Y112141D02*
Y115443D01*
X159385Y436118D02*
X162687D01*
X161036Y434467D02*
Y437769D01*
X755777Y520954D02*
X759079D01*
X757428Y519303D02*
Y522605D01*
X766953Y382016D02*
X770255D01*
X768604Y380365D02*
Y383667D01*
X755131Y390312D02*
X758433D01*
X756782Y388661D02*
Y391963D01*
X703453Y421386D02*
X706755D01*
X705104Y419735D02*
Y423037D01*
X666877Y592328D02*
X670179D01*
X668528Y590677D02*
Y593979D01*
X252095Y437642D02*
X255397D01*
X253746Y435991D02*
Y439293D01*
X642493Y576326D02*
X645795D01*
X644144Y574675D02*
Y577977D01*
X239649Y35052D02*
X242951D01*
X241300Y33401D02*
Y36703D01*
X561467Y296672D02*
X564769D01*
X563118Y295021D02*
Y298323D01*
X508127Y102870D02*
X511429D01*
X509778Y101219D02*
Y104521D01*
X92075Y452120D02*
X95377D01*
X93726Y450469D02*
Y453771D01*
X656209Y84836D02*
X659511D01*
X657860Y83185D02*
Y86487D01*
X332359Y298196D02*
X335661D01*
X334010Y296545D02*
Y299847D01*
X283845Y55372D02*
X287147D01*
X285496Y53721D02*
Y57023D01*
X236601Y118618D02*
X239903D01*
X238252Y116967D02*
Y120269D01*
X190627Y118364D02*
X193929D01*
X192278Y116713D02*
Y120015D01*
X901319Y492506D02*
X904621D01*
X902970Y490855D02*
Y494157D01*
X669925Y492760D02*
X673227D01*
X671576Y491109D02*
Y494411D01*
X649605Y398526D02*
X652907D01*
X651256Y396875D02*
Y400177D01*
X680339Y320548D02*
X683641D01*
X681990Y318897D02*
Y322199D01*
X818007Y58928D02*
X821309D01*
X819658Y57277D02*
Y60579D01*
X649351Y252730D02*
X652653D01*
X651002Y251079D02*
Y254381D01*
X480695Y204978D02*
X483997D01*
X482346Y203327D02*
Y206629D01*
X405765Y207264D02*
X409067D01*
X407416Y205613D02*
Y208915D01*
X480949Y295402D02*
X484251D01*
X482600Y293751D02*
Y297053D01*
M02*
