G04*
G04 #@! TF.GenerationSoftware,Altium Limited,Altium Designer,23.1.1 (15)*
G04*
G04 Layer_Color=65535*
%FSLAX44Y44*%
%MOMM*%
G71*
G04*
G04 #@! TF.SameCoordinates,32E53F4C-9CDF-4151-867A-B185B0D7BA91*
G04*
G04*
G04 #@! TF.FilePolarity,Positive*
G04*
G01*
G75*
%ADD10C,0.2540*%
%ADD11C,0.1000*%
%ADD12C,0.4000*%
%ADD13C,0.1524*%
%ADD14C,0.6000*%
%ADD15C,0.2500*%
%ADD16C,0.2000*%
%ADD17C,0.3810*%
%ADD18C,0.2286*%
%ADD19C,0.1270*%
%ADD20C,0.2032*%
G36*
X371839Y484248D02*
X371918Y484222D01*
X373821Y484196D01*
X373912Y484105D01*
X373938Y483922D01*
X373912Y476935D01*
X373873Y476870D01*
X373743Y476818D01*
X373391Y476831D01*
X373247Y476818D01*
X373169Y476844D01*
X372478Y476831D01*
X371787Y476844D01*
X371709Y476818D01*
X371540Y476753D01*
X371488Y476700D01*
X371514Y476466D01*
X371540Y476387D01*
X371514Y476049D01*
X371527Y474915D01*
X371488Y474771D01*
X371514Y474641D01*
X371553Y474602D01*
X371683Y474549D01*
X371787Y474523D01*
X372791Y474510D01*
X373795Y474523D01*
X373912Y474432D01*
X373938Y474250D01*
X373951Y471812D01*
X373925Y465086D01*
X373912Y464994D01*
X373938Y464916D01*
X373964Y464864D01*
X374030Y464799D01*
X374212Y464773D01*
X374316Y464799D01*
X375281Y464773D01*
X376545Y464786D01*
X377627Y464773D01*
X377706Y464799D01*
X378201Y464773D01*
X378462Y464799D01*
X378722Y464773D01*
X379179Y464786D01*
X380417Y464773D01*
X380495Y464799D01*
X380860Y464773D01*
X380938Y464799D01*
X381173Y464747D01*
X381238Y464682D01*
X381212Y464186D01*
X381238Y464108D01*
X381212Y463847D01*
X381225Y463156D01*
X381212Y463143D01*
X381238Y463117D01*
X381212Y463039D01*
X381238Y462544D01*
X381356Y462400D01*
X381408Y462348D01*
X381590Y462322D01*
X383559Y462335D01*
X383663Y462231D01*
X383676Y462035D01*
X383650Y459924D01*
X383598Y459845D01*
X383493Y459819D01*
X378931Y459793D01*
X378814Y459676D01*
X378787Y459519D01*
X378814Y459441D01*
X378840Y458894D01*
X378814Y458815D01*
X378827Y457890D01*
X378814Y457694D01*
X378905Y457551D01*
X379035Y457499D01*
X381147Y457473D01*
X381238Y457382D01*
X381212Y456730D01*
X381225Y456065D01*
X381212Y455791D01*
X381238Y455713D01*
X381212Y455296D01*
X381186Y455035D01*
X381069Y454996D01*
X378957Y454970D01*
X378866Y454879D01*
X378840Y454618D01*
X378827Y453484D01*
X378840Y453210D01*
X378814Y453132D01*
X378840Y452793D01*
X378970Y452611D01*
X379113Y452571D01*
X379531Y452597D01*
X381199Y452623D01*
X381251Y452650D01*
X381329Y452623D01*
X381747Y452597D01*
X383493Y452623D01*
X383585Y452689D01*
X383611Y452949D01*
X383624Y453197D01*
X383611Y453627D01*
X383637Y453705D01*
X383611Y453810D01*
X383624Y454475D01*
X383598Y454709D01*
X383585Y455113D01*
X383611Y455191D01*
X383624Y456560D01*
X383611Y457069D01*
X383637Y457147D01*
X383611Y457225D01*
X383637Y457434D01*
X383676Y457473D01*
X383780Y457499D01*
X386074Y457473D01*
X386114Y457434D01*
X386140Y457251D01*
X386114Y456208D01*
X386127Y455413D01*
X386114Y455165D01*
X386179Y455074D01*
X386283Y455048D01*
X388225Y455035D01*
X388356Y455061D01*
X388434Y455139D01*
X388460Y455322D01*
X388434Y455426D01*
X388447Y458646D01*
X388434Y459493D01*
X388460Y459571D01*
X388421Y459715D01*
X388369Y459793D01*
X388265Y459819D01*
X386127Y459845D01*
X386035Y459911D01*
X386009Y460015D01*
X386022Y460289D01*
X386009Y464264D01*
X386035Y464343D01*
X386009Y464525D01*
X386035Y464682D01*
X386101Y464747D01*
X386205Y464773D01*
X386387Y464799D01*
X387587Y464773D01*
X388160Y464799D01*
X388343Y464773D01*
X392892Y464786D01*
X393062Y464773D01*
X393140Y464799D01*
X393322Y464773D01*
X393414Y464682D01*
X393387Y459884D01*
X393322Y459819D01*
X393192Y459793D01*
X393114Y459819D01*
X391054Y459793D01*
X390963Y459702D01*
X390937Y459598D01*
X390950Y457942D01*
X390937Y457642D01*
X391002Y457551D01*
X391184Y457499D01*
X393231Y457512D01*
X393361Y457460D01*
X393414Y457277D01*
X393400Y455465D01*
X393414Y455139D01*
X393322Y455022D01*
X393218Y454996D01*
X391054Y454970D01*
X390989Y454905D01*
X390963Y454722D01*
X390937Y454305D01*
X390963Y452767D01*
X391054Y452650D01*
X391158Y452623D01*
X391732Y452597D01*
X393205Y452611D01*
X393309Y452584D01*
X393387Y452506D01*
X393414Y452402D01*
X393387Y450186D01*
X393296Y450095D01*
X393127Y450081D01*
X388786Y450095D01*
X388551Y449964D01*
X388512Y449847D01*
X388525Y449521D01*
X388512Y448152D01*
X388538Y448074D01*
X388564Y447892D01*
X388486Y447761D01*
X388447Y447722D01*
X388265Y447696D01*
X387965Y447709D01*
X386296Y447683D01*
X386166Y447579D01*
X386114Y447266D01*
X386127Y446132D01*
X386114Y445571D01*
X386140Y445493D01*
X386218Y445363D01*
X386257Y445323D01*
X386440Y445298D01*
X387704Y445311D01*
X387743Y445298D01*
X387821Y445323D01*
X389503Y445311D01*
X389933Y445323D01*
X390011Y445298D01*
X390832Y445311D01*
X390911Y445258D01*
X390963Y445076D01*
X390937Y444659D01*
X390963Y443068D01*
X391080Y442925D01*
X391184Y442899D01*
X391367Y442873D01*
X391445Y442899D01*
X393231Y442912D01*
X393322Y442873D01*
X393361Y442834D01*
X393414Y442703D01*
X393387Y440513D01*
X393296Y440396D01*
X393114Y440370D01*
X392931Y440396D01*
X390702Y440383D01*
X388838Y440396D01*
X388760Y440370D01*
X388473Y440344D01*
X388395Y440370D01*
X387430Y440396D01*
X386231Y440370D01*
X386192Y440331D01*
X386140Y440201D01*
X386114Y440096D01*
X386140Y435768D01*
X386257Y435599D01*
X386426Y435586D01*
X387091Y435599D01*
X387169Y435573D01*
X387508Y435599D01*
X388056Y435573D01*
X388134Y435599D01*
X388317Y435625D01*
X388382Y435690D01*
X388434Y435821D01*
X388460Y436003D01*
X388434Y436264D01*
X388460Y437932D01*
X388525Y437998D01*
X388629Y438024D01*
X393348Y437998D01*
X393387Y437958D01*
X393414Y437854D01*
X393400Y433070D01*
X393414Y430841D01*
X393296Y430698D01*
X393114Y430672D01*
X392931Y430698D01*
X392318Y430685D01*
X391393Y430698D01*
X391315Y430672D01*
X389920Y430685D01*
X389698Y430672D01*
X389620Y430698D01*
X389281Y430672D01*
X389177Y430698D01*
X388708Y430672D01*
X388656Y430619D01*
X388603Y430593D01*
X388538Y430450D01*
X388512Y430189D01*
X388538Y429850D01*
X388512Y429668D01*
X388538Y428886D01*
X388512Y428807D01*
X388538Y428442D01*
X388629Y428351D01*
X388812Y428299D01*
X391093Y428312D01*
X393283Y428286D01*
X393374Y428221D01*
X393414Y428103D01*
X393400Y421416D01*
X393414Y421116D01*
X393322Y420999D01*
X393218Y420973D01*
X390976Y420999D01*
X390911Y421064D01*
X390885Y421247D01*
X390911Y421325D01*
X390898Y423893D01*
X390911Y425601D01*
X390832Y425731D01*
X390715Y425770D01*
X390611Y425796D01*
X388564Y425783D01*
X388473Y425848D01*
X388434Y425966D01*
X388408Y428208D01*
X388238Y428273D01*
X387900Y428247D01*
X386009Y428260D01*
X385084Y428247D01*
X385058Y428273D01*
X384980Y428247D01*
X383871Y428260D01*
X383767Y428234D01*
X383689Y428156D01*
X383663Y427973D01*
X383637Y425861D01*
X383598Y425822D01*
X383415Y425770D01*
X383311Y425796D01*
X381316Y425783D01*
X381225Y425822D01*
X381160Y425966D01*
X381134Y428182D01*
X381069Y428247D01*
X380886Y428273D01*
X380704Y428247D01*
X379726Y428260D01*
X378905Y428247D01*
X378827Y428273D01*
X378774Y428299D01*
X378735Y428338D01*
X378709Y428442D01*
X378722Y429212D01*
X378696Y430489D01*
X378605Y430632D01*
X378566Y430672D01*
X378383Y430698D01*
X377406Y430685D01*
X376897Y430698D01*
X376819Y430672D01*
X376637Y430698D01*
X376506Y430672D01*
X376441Y430606D01*
X376415Y430502D01*
X376389Y430241D01*
X376402Y428429D01*
X376363Y428338D01*
X376298Y428273D01*
X376193Y428247D01*
X371631Y428221D01*
X371514Y428130D01*
X371488Y428025D01*
X371514Y427921D01*
X371488Y425887D01*
X371422Y425822D01*
X371318Y425796D01*
X369298Y425783D01*
X369167Y425809D01*
X369076Y425874D01*
X369011Y425939D01*
X369037Y428182D01*
X369128Y428273D01*
X369232Y428299D01*
X371344Y428325D01*
X371383Y428364D01*
X371422Y428534D01*
X371435Y430424D01*
X371409Y430502D01*
X371383Y430606D01*
X371318Y430672D01*
X371214Y430698D01*
X370914Y430685D01*
X369493Y430698D01*
X369415Y430672D01*
X369128Y430698D01*
X369037Y430789D01*
X369011Y430893D01*
X369024Y432418D01*
X368998Y432575D01*
X368985Y432640D01*
X369011Y432718D01*
X368985Y432953D01*
X368893Y433044D01*
X368711Y433096D01*
X368294Y433070D01*
X368033Y433096D01*
X367381Y433070D01*
X367303Y433096D01*
X366769Y433083D01*
X366677Y433148D01*
X366638Y433187D01*
X366612Y433292D01*
X366586Y433448D01*
X366612Y433526D01*
X366599Y434478D01*
X366612Y435247D01*
X366586Y435325D01*
X366612Y435508D01*
X366677Y435573D01*
X366860Y435625D01*
X367042Y435599D01*
X367147Y435573D01*
X368854Y435612D01*
X369232Y435625D01*
X369311Y435599D01*
X371422Y435573D01*
X371514Y435482D01*
X371527Y433670D01*
X371501Y433539D01*
X371488Y433422D01*
X371553Y433305D01*
X371605Y433279D01*
X371787Y433200D01*
X373769Y433226D01*
X373860Y433292D01*
X373886Y433474D01*
X373860Y437932D01*
X373821Y437971D01*
X373599Y437985D01*
X371579Y437971D01*
X371435Y438089D01*
X371422Y438284D01*
X371435Y440148D01*
X371305Y440383D01*
X369258Y440396D01*
X369141Y440279D01*
X369115Y440096D01*
X369089Y438089D01*
X369024Y438024D01*
X368919Y437998D01*
X368737Y437971D01*
X368163Y437998D01*
X368085Y437971D01*
X366703Y437998D01*
X366612Y438089D01*
X366599Y438310D01*
X366612Y440148D01*
X366586Y440227D01*
X366612Y440905D01*
X366586Y440983D01*
X366612Y441478D01*
X366586Y442703D01*
X366521Y442769D01*
X366339Y442795D01*
X365648Y442808D01*
X365113Y442795D01*
X365035Y442821D01*
X364852Y442795D01*
X364514Y442821D01*
X364435Y442795D01*
X364266Y442729D01*
X364214Y442677D01*
X364188Y442443D01*
X364214Y442364D01*
X364227Y440161D01*
X364214Y438010D01*
X364240Y437932D01*
X364214Y437202D01*
X364188Y435612D01*
X364148Y435573D01*
X364018Y435521D01*
X361906Y435495D01*
X361841Y435456D01*
X361789Y435325D01*
X361815Y434986D01*
X361789Y433135D01*
X361750Y433096D01*
X361567Y433070D01*
X360681Y433096D01*
X359781Y433083D01*
X359534Y433096D01*
X359417Y433005D01*
X359390Y432901D01*
X359377Y430932D01*
X359403Y430828D01*
X359456Y430776D01*
X359560Y430750D01*
X361698Y430724D01*
X361815Y430632D01*
X361841Y430528D01*
X361815Y430345D01*
X361828Y428847D01*
X361815Y428521D01*
X361919Y428338D01*
X362037Y428299D01*
X364070Y428325D01*
X364109Y428364D01*
X364135Y428468D01*
X364161Y428912D01*
X364135Y428990D01*
X364148Y430437D01*
X364135Y430632D01*
X364201Y430724D01*
X364409Y430776D01*
X364514Y430750D01*
X366599Y430724D01*
X366638Y430685D01*
X366664Y430580D01*
X366651Y430280D01*
X366664Y428859D01*
X366638Y428781D01*
X366664Y428390D01*
X366547Y428247D01*
X364305Y428221D01*
X364240Y428182D01*
X364214Y428077D01*
X364240Y426044D01*
X364331Y425952D01*
X364461Y425900D01*
X364566Y425874D01*
X365191Y425900D01*
X365270Y425874D01*
X365934Y425887D01*
X366260Y425874D01*
X366391Y425927D01*
X366547Y425900D01*
X366586Y425861D01*
X366638Y425731D01*
X366664Y425548D01*
X366651Y425249D01*
X366664Y423567D01*
X366638Y423489D01*
X366664Y422837D01*
X366638Y418587D01*
X366573Y418522D01*
X366391Y418496D01*
X366312Y418522D01*
X365869Y418496D01*
X365791Y418522D01*
X365217Y418496D01*
X365139Y418522D01*
X364683Y418509D01*
X364514Y418522D01*
X364435Y418496D01*
X364331Y418470D01*
X364214Y418379D01*
X364201Y417193D01*
X364240Y416345D01*
X364279Y416280D01*
X364331Y416254D01*
X364461Y416202D01*
X364566Y416176D01*
X365569Y416189D01*
X365830Y416163D01*
X366039Y416189D01*
X366182Y416202D01*
X366234Y416176D01*
X366312Y416202D01*
X366521Y416176D01*
X366586Y416137D01*
X366638Y416006D01*
X366664Y415746D01*
X366651Y413881D01*
X366690Y413790D01*
X366730Y413751D01*
X366912Y413725D01*
X367251Y413751D01*
X367642Y413725D01*
X367720Y413751D01*
X368176Y413738D01*
X368528Y413751D01*
X368607Y413725D01*
X368867Y413751D01*
X368985Y413842D01*
X369011Y413947D01*
X368985Y415980D01*
X368959Y416059D01*
X368933Y416215D01*
X368959Y416293D01*
X369011Y416736D01*
X368998Y418314D01*
X369024Y418444D01*
X369089Y418535D01*
X369128Y418574D01*
X369311Y418600D01*
X369728Y418574D01*
X371318Y418600D01*
X371383Y418666D01*
X371409Y418770D01*
X371435Y419031D01*
X371409Y420830D01*
X371344Y420947D01*
X371240Y420973D01*
X369128Y420999D01*
X368985Y421116D01*
X369011Y421690D01*
X368998Y422329D01*
X369024Y423372D01*
X369102Y423450D01*
X369285Y423476D01*
X371396Y423450D01*
X371514Y423332D01*
X371540Y423150D01*
X371514Y422889D01*
X371527Y421338D01*
X371501Y421234D01*
X371488Y421168D01*
X371579Y421051D01*
X371944Y420999D01*
X372126Y421025D01*
X375998Y421012D01*
X376154Y421038D01*
X376246Y421077D01*
X376311Y421142D01*
X376337Y421403D01*
X376311Y421507D01*
X376324Y422563D01*
X376311Y423332D01*
X376376Y423424D01*
X376558Y423476D01*
X386048Y423450D01*
X386114Y423385D01*
X386140Y423202D01*
X386114Y422368D01*
X386140Y422290D01*
X386114Y422211D01*
X386127Y421208D01*
X386101Y421103D01*
X386048Y421025D01*
X385918Y420973D01*
X384080Y420960D01*
X383780Y420973D01*
X383715Y420908D01*
X383663Y420725D01*
X383689Y418718D01*
X383780Y418600D01*
X383885Y418574D01*
X384419Y418587D01*
X384823Y418574D01*
X384901Y418600D01*
X385553Y418574D01*
X385631Y418600D01*
X385996Y418574D01*
X386087Y418483D01*
X386140Y418301D01*
X386114Y417883D01*
X386140Y416319D01*
X386257Y416176D01*
X386374Y416163D01*
X386505Y416189D01*
X386674Y416202D01*
X386752Y416176D01*
X387652Y416189D01*
X388186Y416176D01*
X388265Y416202D01*
X389451Y416189D01*
X389568Y416202D01*
X389646Y416176D01*
X390650Y416189D01*
X390806Y416163D01*
X390898Y416098D01*
X390937Y416059D01*
X390950Y414168D01*
X390937Y413868D01*
X391028Y413751D01*
X391198Y413738D01*
X391471Y413751D01*
X391549Y413725D01*
X391810Y413751D01*
X392149Y413725D01*
X392253Y413751D01*
X392827Y413725D01*
X393009Y413751D01*
X393322Y413725D01*
X393414Y413634D01*
X393387Y411314D01*
X393322Y411248D01*
X393140Y411222D01*
X392931Y411248D01*
X392853Y411222D01*
X392436Y411248D01*
X392253Y411222D01*
X391523Y411248D01*
X391445Y411222D01*
X388721Y411235D01*
X388708Y411222D01*
X388629Y411248D01*
X388499Y411274D01*
X388460Y411314D01*
X388434Y411418D01*
X388447Y411718D01*
X388421Y413517D01*
X388382Y413608D01*
X388317Y413673D01*
X386231Y413647D01*
X386192Y413608D01*
X386140Y413477D01*
X386114Y413139D01*
X386127Y411926D01*
X386114Y409984D01*
X386140Y409906D01*
X386114Y409645D01*
X386140Y408420D01*
X386114Y408341D01*
X386127Y406868D01*
X386114Y406595D01*
X386179Y406503D01*
X386361Y406451D01*
X388369Y406477D01*
X388408Y406516D01*
X388460Y406725D01*
X388434Y407064D01*
X388460Y407325D01*
X388434Y407820D01*
X388447Y408250D01*
X388434Y408680D01*
X388538Y408863D01*
X388682Y408902D01*
X388864Y408876D01*
X391302Y408889D01*
X393036Y408876D01*
X393114Y408902D01*
X393296Y408876D01*
X393387Y408785D01*
X393414Y408602D01*
X393387Y406490D01*
X393322Y406399D01*
X393140Y406347D01*
X392957Y406373D01*
X390650Y406360D01*
X388760Y406373D01*
X388590Y406256D01*
X388564Y406203D01*
X388538Y406125D01*
X388512Y406021D01*
X388538Y405578D01*
X388512Y405500D01*
X388525Y404835D01*
X388512Y404457D01*
X388538Y404379D01*
X388512Y404274D01*
X388538Y404118D01*
X388629Y404026D01*
X388812Y404001D01*
X390989Y404013D01*
X393283Y403987D01*
X393374Y403922D01*
X393414Y403805D01*
X393387Y401563D01*
X393322Y401498D01*
X393179Y401485D01*
X388760Y401498D01*
X388682Y401472D01*
X388512Y401380D01*
X388525Y400898D01*
X388512Y400807D01*
X388538Y400728D01*
X388512Y400233D01*
X388525Y399177D01*
X388473Y399099D01*
X388369Y399073D01*
X386505Y399060D01*
X386309Y399073D01*
X386166Y398956D01*
X386114Y398773D01*
X386140Y396792D01*
X386179Y396753D01*
X386283Y396727D01*
X393348Y396701D01*
X393387Y396661D01*
X393414Y396557D01*
X393387Y391838D01*
X393296Y391747D01*
X392645Y391773D01*
X391106Y391747D01*
X390963Y391630D01*
X390937Y391369D01*
X390950Y390470D01*
X390937Y388006D01*
X390963Y387928D01*
X390937Y387510D01*
X390950Y387106D01*
X390911Y387015D01*
X390845Y386950D01*
X390663Y386924D01*
X390480Y386950D01*
X389555Y386937D01*
X388108Y386950D01*
X388030Y386924D01*
X387326Y386950D01*
X387248Y386924D01*
X387143Y386950D01*
X386218Y386937D01*
X385866Y386950D01*
X385788Y386924D01*
X385292Y386950D01*
X383754Y386924D01*
X383715Y386885D01*
X383663Y386702D01*
X383637Y384564D01*
X383572Y384499D01*
X383467Y384473D01*
X373977Y384499D01*
X373912Y384564D01*
X373886Y384669D01*
X373860Y386859D01*
X373795Y386924D01*
X373612Y386950D01*
X371657Y386924D01*
X371527Y386846D01*
X371514Y386624D01*
X371540Y386546D01*
X371514Y386363D01*
X371527Y385333D01*
X371514Y384955D01*
X371540Y384877D01*
X371514Y384642D01*
X371422Y384525D01*
X371240Y384473D01*
X365022Y384486D01*
X364618Y384473D01*
X364539Y384499D01*
X364435Y384473D01*
X364227Y384499D01*
X364161Y384564D01*
X364135Y384747D01*
X364161Y385164D01*
X364135Y385425D01*
X364161Y385607D01*
X364148Y386846D01*
X364214Y386937D01*
X364253Y386976D01*
X364422Y386989D01*
X365504Y386976D01*
X365582Y387002D01*
X365687Y386976D01*
X367068Y387002D01*
X367147Y386976D01*
X368776Y386989D01*
X371292Y386976D01*
X371383Y387041D01*
X371409Y387145D01*
X371435Y387328D01*
X371409Y389179D01*
X371279Y389361D01*
X371031Y389375D01*
X370953Y389348D01*
X370536Y389375D01*
X369793Y389361D01*
X369545Y389375D01*
X369467Y389348D01*
X369102Y389375D01*
X369037Y389440D01*
X368985Y389622D01*
X369011Y389961D01*
X368998Y391330D01*
X369011Y391577D01*
X368893Y391721D01*
X368711Y391773D01*
X367890Y391760D01*
X366808Y391773D01*
X366664Y391656D01*
X366638Y391395D01*
X366664Y390430D01*
X366651Y389844D01*
X366664Y389570D01*
X366560Y389388D01*
X366521Y389348D01*
X366417Y389322D01*
X366339Y389348D01*
X366156Y389375D01*
X366013Y389361D01*
X364957Y389375D01*
X364879Y389348D01*
X364214Y389335D01*
X363666Y389361D01*
X362532Y389375D01*
X362454Y389348D01*
X362076Y389361D01*
X361972Y389335D01*
X361867Y389257D01*
X361815Y389075D01*
X361828Y387132D01*
X361789Y387041D01*
X361750Y387002D01*
X361619Y386950D01*
X358869Y386937D01*
X357214Y386950D01*
X357135Y386924D01*
X357005Y386898D01*
X356966Y386859D01*
X356940Y386754D01*
X356914Y386024D01*
X356927Y384682D01*
X356875Y384551D01*
X356822Y384499D01*
X356718Y384473D01*
X356366Y384486D01*
X356197Y384473D01*
X356119Y384499D01*
X355545Y384473D01*
X354502Y384499D01*
X354437Y384538D01*
X354411Y384642D01*
X354385Y386859D01*
X354320Y386924D01*
X354215Y386950D01*
X352768Y386937D01*
X352260Y386950D01*
X352143Y386885D01*
X352090Y386754D01*
X352104Y386507D01*
X352090Y385764D01*
X352117Y385685D01*
X352090Y385268D01*
X352104Y384968D01*
X352090Y384877D01*
X352117Y384799D01*
X352090Y384564D01*
X352025Y384499D01*
X351843Y384473D01*
X342431Y384499D01*
X342340Y384564D01*
X342314Y384669D01*
X342288Y386806D01*
X342379Y386950D01*
X342483Y386976D01*
X344595Y387002D01*
X344660Y387067D01*
X344686Y387171D01*
X344699Y390131D01*
X344686Y390691D01*
X344712Y390769D01*
X344686Y391317D01*
X344712Y391395D01*
X344686Y391604D01*
X344569Y391747D01*
X344465Y391773D01*
X344126Y391747D01*
X344048Y391773D01*
X342783Y391760D01*
X342483Y391773D01*
X342418Y391734D01*
X342366Y391551D01*
X342340Y389466D01*
X342301Y389400D01*
X342248Y389375D01*
X342170Y389348D01*
X341753Y389375D01*
X341010Y389361D01*
X340424Y389375D01*
X340345Y389348D01*
X339498Y389361D01*
X339016Y389348D01*
X338937Y389375D01*
X338247Y389361D01*
X338103Y389375D01*
X338025Y389348D01*
X337660Y389322D01*
X337582Y389296D01*
X337347Y389322D01*
X337217Y389375D01*
X336787Y389361D01*
X335731Y389375D01*
X335653Y389348D01*
X335261Y389375D01*
X335118Y389257D01*
X335092Y388996D01*
X335079Y388045D01*
X335092Y387197D01*
X335066Y387145D01*
X335144Y387015D01*
X335261Y386976D01*
X337960Y386989D01*
X339537Y386976D01*
X339615Y387002D01*
X339798Y386976D01*
X339915Y386859D01*
X339889Y384590D01*
X339850Y384525D01*
X339668Y384473D01*
X330204Y384499D01*
X330138Y384564D01*
X330112Y384669D01*
X330138Y385164D01*
X330112Y385242D01*
X330125Y389035D01*
X330112Y389309D01*
X330204Y389427D01*
X330308Y389453D01*
X332498Y389479D01*
X332563Y389544D01*
X332589Y389648D01*
X332576Y389974D01*
X332589Y391630D01*
X332524Y391721D01*
X332341Y391747D01*
X331481Y391773D01*
X331403Y391747D01*
X330829Y391773D01*
X330660Y391760D01*
X330464Y391773D01*
X330386Y391747D01*
X330230Y391773D01*
X330138Y391864D01*
X330112Y392203D01*
X330138Y394159D01*
X330230Y394276D01*
X330373Y394289D01*
X331963Y394263D01*
X332055Y394250D01*
X332133Y394276D01*
X332446Y394302D01*
X332511Y394341D01*
X332563Y394471D01*
X332589Y394576D01*
X332576Y396779D01*
X332589Y398825D01*
X332563Y398904D01*
X332537Y398956D01*
X332472Y399021D01*
X332289Y399073D01*
X331911Y399060D01*
X331455Y399073D01*
X331377Y399047D01*
X330881Y399073D01*
X330699Y399047D01*
X329773Y399060D01*
X329682Y399047D01*
X329604Y399073D01*
X328809Y399060D01*
X328353Y399073D01*
X328274Y399047D01*
X327779Y399073D01*
X327714Y399138D01*
X327688Y399243D01*
X327714Y401485D01*
X327779Y401550D01*
X327883Y401576D01*
X329017Y401563D01*
X329708Y401576D01*
X329786Y401550D01*
X330021Y401576D01*
X330086Y401641D01*
X330112Y401745D01*
X330125Y406529D01*
X330112Y408185D01*
X330138Y408263D01*
X330112Y408446D01*
X330138Y408759D01*
X330256Y408902D01*
X330673Y408876D01*
X331494Y408863D01*
X332355Y408889D01*
X332446Y408902D01*
X332563Y408837D01*
X332615Y408706D01*
X332641Y408524D01*
X332615Y408263D01*
X332641Y408081D01*
X332615Y407820D01*
X332641Y407403D01*
X332615Y407142D01*
X332628Y406868D01*
X332615Y406621D01*
X332693Y406490D01*
X332811Y406451D01*
X333306Y406477D01*
X333567Y406451D01*
X334571Y406464D01*
X334740Y406451D01*
X334818Y406477D01*
X334949Y406555D01*
X335014Y406725D01*
X334988Y407064D01*
X335014Y407403D01*
X334988Y407481D01*
X335001Y408328D01*
X334975Y408589D01*
X334962Y409306D01*
X334988Y409384D01*
X335014Y410114D01*
X334988Y410192D01*
X335001Y410909D01*
X334975Y411066D01*
X334910Y411157D01*
X334870Y411196D01*
X334662Y411248D01*
X333880Y411222D01*
X333801Y411248D01*
X332746Y411235D01*
X332654Y411274D01*
X332589Y411339D01*
X332563Y411444D01*
X332589Y412017D01*
X332563Y412096D01*
X332589Y412356D01*
X332563Y413503D01*
X332446Y413647D01*
X332133Y413699D01*
X331872Y413673D01*
X330204Y413699D01*
X330164Y413738D01*
X330112Y413947D01*
X330125Y416254D01*
X330112Y418118D01*
X330138Y418196D01*
X330112Y418405D01*
X330047Y418496D01*
X329943Y418522D01*
X329291Y418496D01*
X328261Y418509D01*
X328014Y418496D01*
X327935Y418522D01*
X327779Y418548D01*
X327688Y418639D01*
X327662Y418796D01*
X327688Y418874D01*
X327662Y420830D01*
X327570Y420947D01*
X327388Y420973D01*
X325433Y420947D01*
X325393Y420908D01*
X325367Y420803D01*
X325341Y420673D01*
X325367Y420595D01*
X325341Y420360D01*
X325367Y420282D01*
X325341Y420099D01*
X325354Y419330D01*
X325341Y419057D01*
X325367Y418979D01*
X325341Y418561D01*
X325367Y418196D01*
X325341Y418118D01*
X325354Y417166D01*
X325341Y416736D01*
X325367Y416658D01*
X325341Y416554D01*
X325367Y416293D01*
X325433Y416202D01*
X325537Y416176D01*
X327740Y416189D01*
X327792Y416137D01*
X327818Y416032D01*
X327792Y415772D01*
X327805Y413673D01*
X327792Y409462D01*
X327818Y409384D01*
X327792Y406855D01*
X327766Y406464D01*
X327675Y406373D01*
X327570Y406347D01*
X326919Y406373D01*
X325524Y406386D01*
X325420Y406334D01*
X325367Y406203D01*
X325341Y406021D01*
X325354Y401915D01*
X325341Y401224D01*
X325367Y401198D01*
X325341Y401120D01*
X325354Y400455D01*
X325341Y399633D01*
X325367Y399555D01*
X325341Y399138D01*
X325354Y398552D01*
X325341Y398226D01*
X325367Y398148D01*
X325341Y397808D01*
X325354Y396831D01*
X325315Y396740D01*
X325250Y396674D01*
X325146Y396648D01*
X324807Y396674D01*
X321652Y396648D01*
X321574Y396674D01*
X320883Y396661D01*
X320818Y396674D01*
X320740Y396648D01*
X320388Y396635D01*
X319918Y396661D01*
X319645Y396674D01*
X319566Y396648D01*
X319188Y396661D01*
X318863Y396648D01*
X318784Y396674D01*
X318341Y396648D01*
X318263Y396674D01*
X318080Y396648D01*
X317976Y396622D01*
X317403Y396674D01*
X315734Y396648D01*
X315669Y396583D01*
X315617Y396401D01*
X315604Y396257D01*
X315630Y394484D01*
X315682Y394354D01*
X315734Y394302D01*
X315917Y394276D01*
X316216Y394263D01*
X317950Y394276D01*
X318041Y394211D01*
X318093Y394002D01*
X318067Y393820D01*
X318093Y391995D01*
X318211Y391877D01*
X318393Y391851D01*
X318472Y391877D01*
X319267Y391864D01*
X319645Y391877D01*
X319723Y391851D01*
X320453Y391877D01*
X320518Y391812D01*
X320544Y391656D01*
X320518Y391577D01*
X320492Y391239D01*
X320479Y390704D01*
X320505Y389635D01*
X320518Y388996D01*
X320492Y388918D01*
X320505Y387836D01*
X320479Y387628D01*
X320466Y387458D01*
X320492Y387380D01*
X320518Y387093D01*
X320583Y387028D01*
X320766Y386976D01*
X321352Y386989D01*
X322669Y386976D01*
X322799Y387054D01*
X322838Y387093D01*
X322864Y387328D01*
X322838Y387406D01*
X322864Y388657D01*
X322838Y388736D01*
X322864Y389231D01*
X322891Y389388D01*
X322930Y389427D01*
X323034Y389453D01*
X325198Y389479D01*
X325315Y389570D01*
X325289Y390144D01*
X325302Y391617D01*
X325250Y391695D01*
X325120Y391747D01*
X325015Y391773D01*
X324898Y391786D01*
X324742Y391760D01*
X324546Y391747D01*
X324468Y391773D01*
X322995Y391760D01*
X322917Y391812D01*
X322864Y391942D01*
X322838Y392281D01*
X322851Y393833D01*
X322838Y394080D01*
X322943Y394263D01*
X323086Y394302D01*
X323164Y394276D01*
X323360Y394263D01*
X324833Y394276D01*
X324911Y394250D01*
X325015Y394276D01*
X325276Y394250D01*
X325341Y394185D01*
X325367Y394002D01*
X325341Y393585D01*
X325367Y391995D01*
X325459Y391877D01*
X325563Y391851D01*
X325980Y391877D01*
X327662Y391890D01*
X327766Y391838D01*
X327792Y391734D01*
X327805Y391356D01*
X327792Y390769D01*
X327818Y390691D01*
X327792Y390274D01*
X327766Y389466D01*
X327649Y389348D01*
X326984Y389361D01*
X326814Y389348D01*
X326736Y389375D01*
X325732Y389361D01*
X325485Y389375D01*
X325420Y389309D01*
X325367Y389179D01*
X325341Y388918D01*
X325354Y387628D01*
X325341Y387510D01*
X325367Y387432D01*
X325341Y387171D01*
X325367Y387093D01*
X325393Y387041D01*
X325433Y387002D01*
X325537Y386976D01*
X327701Y386950D01*
X327792Y386859D01*
X327818Y386728D01*
X327792Y386650D01*
X327805Y386115D01*
X327792Y385138D01*
X327818Y385060D01*
X327792Y384981D01*
X327805Y384630D01*
X327753Y384525D01*
X327570Y384473D01*
X320453Y384499D01*
X320388Y384564D01*
X320375Y384734D01*
X320401Y385151D01*
X320414Y385477D01*
X320388Y385555D01*
X320401Y386142D01*
X320375Y386741D01*
X320349Y386846D01*
X320270Y386924D01*
X320166Y386950D01*
X318250Y386937D01*
X318120Y386963D01*
X317989Y387041D01*
X317963Y387145D01*
X317989Y387484D01*
X318002Y388149D01*
X317976Y388723D01*
X317963Y388788D01*
X317989Y388866D01*
X317963Y389153D01*
X317846Y389296D01*
X317715Y389348D01*
X317546Y389361D01*
X317272Y389348D01*
X317194Y389375D01*
X315239Y389348D01*
X315160Y389375D01*
X314782Y389361D01*
X313492Y389375D01*
X313414Y389348D01*
X313205Y389375D01*
X313140Y389440D01*
X313114Y389622D01*
X313101Y396622D01*
X313127Y396674D01*
X313257Y396727D01*
X315499Y396753D01*
X315564Y396818D01*
X315578Y396961D01*
X315564Y399008D01*
X315656Y399151D01*
X315760Y399177D01*
X316242Y399164D01*
X316829Y399177D01*
X316907Y399151D01*
X317012Y399177D01*
X320257Y399164D01*
X320336Y399216D01*
X320388Y399347D01*
X320362Y401432D01*
X320322Y401472D01*
X320218Y401498D01*
X318080Y401524D01*
X317963Y401641D01*
X317989Y402058D01*
X317976Y403818D01*
X318015Y403909D01*
X318054Y403948D01*
X318237Y404001D01*
X320375Y403974D01*
X320466Y403909D01*
X320518Y403727D01*
X320492Y403648D01*
X320518Y401745D01*
X320635Y401602D01*
X320818Y401550D01*
X321391Y401576D01*
X321952Y401563D01*
X322734Y401589D01*
X322812Y401667D01*
X322838Y401771D01*
X322864Y402032D01*
X322838Y402110D01*
X322851Y406112D01*
X322825Y406217D01*
X322773Y406321D01*
X322643Y406373D01*
X321222Y406360D01*
X320792Y406373D01*
X320714Y406347D01*
X320531Y406373D01*
X320440Y406438D01*
X320388Y406568D01*
X320401Y407259D01*
X320388Y408055D01*
X320414Y408133D01*
X320388Y408550D01*
X320414Y408785D01*
X320479Y408876D01*
X320583Y408902D01*
X321079Y408876D01*
X322369Y408889D01*
X322799Y408850D01*
X322864Y408785D01*
X322891Y408680D01*
X322917Y408498D01*
X322891Y408159D01*
X322904Y407207D01*
X322891Y406621D01*
X322982Y406503D01*
X323086Y406477D01*
X323503Y406451D01*
X325146Y406477D01*
X325276Y406555D01*
X325315Y406673D01*
X325289Y407012D01*
X325302Y408302D01*
X325276Y408615D01*
X325263Y409097D01*
X325289Y409176D01*
X325276Y410857D01*
X325302Y410961D01*
X325315Y411105D01*
X325224Y411196D01*
X325120Y411222D01*
X324859Y411248D01*
X324598Y411222D01*
X323855Y411235D01*
X323529Y411222D01*
X323451Y411248D01*
X323269Y411222D01*
X321066Y411235D01*
X320687Y411222D01*
X320609Y411248D01*
X320049Y411235D01*
X319801Y411248D01*
X319723Y411222D01*
X318680Y411248D01*
X318250Y411235D01*
X318120Y411261D01*
X318028Y411326D01*
X317989Y411366D01*
X317963Y411522D01*
X317989Y411600D01*
X317963Y413451D01*
X317846Y413621D01*
X317663Y413673D01*
X315408Y413660D01*
X313414Y413673D01*
X313361Y413621D01*
X313322Y413608D01*
X313296Y413556D01*
X313192Y413321D01*
X313166Y412904D01*
X313192Y412826D01*
X313205Y411222D01*
X313179Y409814D01*
X313166Y409567D01*
X313192Y409488D01*
X313179Y409058D01*
X313231Y408980D01*
X313283Y408954D01*
X313466Y408876D01*
X315434Y408889D01*
X315525Y408850D01*
X315564Y408811D01*
X315617Y408628D01*
X315591Y401563D01*
X315551Y401524D01*
X315447Y401498D01*
X315356Y401485D01*
X313414Y401498D01*
X313335Y401472D01*
X313179Y401498D01*
X313114Y401563D01*
X313088Y401745D01*
X313114Y401850D01*
X313088Y408706D01*
X313023Y408772D01*
X312840Y408798D01*
X312762Y408772D01*
X308408Y408745D01*
X308369Y408706D01*
X308343Y408602D01*
X308369Y406516D01*
X308434Y406451D01*
X308916Y406464D01*
X309633Y406451D01*
X309711Y406477D01*
X310050Y406451D01*
X310298Y406464D01*
X310663Y406438D01*
X310754Y406373D01*
X310793Y406256D01*
X310767Y404066D01*
X310702Y404001D01*
X310494Y403948D01*
X298631Y403974D01*
X298592Y404013D01*
X298540Y404196D01*
X298566Y404457D01*
X298553Y406269D01*
X298579Y406373D01*
X298631Y406425D01*
X298840Y406477D01*
X298918Y406451D01*
X301304Y406464D01*
X303220Y406451D01*
X303363Y406568D01*
X303389Y406751D01*
X303376Y408172D01*
X303389Y408550D01*
X303363Y408628D01*
X303298Y408745D01*
X303116Y408798D01*
X302933Y408772D01*
X301082Y408798D01*
X300965Y408889D01*
X300991Y409541D01*
X300965Y409619D01*
X300978Y410179D01*
X300965Y410479D01*
X300991Y410557D01*
X300951Y411040D01*
X300899Y411170D01*
X300769Y411222D01*
X300586Y411248D01*
X299857Y411222D01*
X299127Y411248D01*
X298709Y411222D01*
X298566Y411339D01*
X298540Y411522D01*
X298566Y411783D01*
X298553Y412760D01*
X298566Y413425D01*
X298540Y413503D01*
X298579Y413647D01*
X298657Y413725D01*
X298918Y413751D01*
X299505Y413738D01*
X299857Y413751D01*
X299935Y413725D01*
X300834Y413764D01*
X300938Y413816D01*
X300991Y413947D01*
X300965Y414442D01*
X300978Y415863D01*
X300951Y415967D01*
X300912Y416111D01*
X300938Y416423D01*
X300965Y416502D01*
X300991Y416919D01*
X300978Y417896D01*
X300991Y418170D01*
X300965Y418248D01*
X300991Y418457D01*
X301056Y418548D01*
X301186Y418600D01*
X301760Y418574D01*
X303272Y418600D01*
X303311Y418639D01*
X303363Y418822D01*
X303389Y419239D01*
X303376Y423372D01*
X303428Y423450D01*
X303533Y423476D01*
X308147Y423502D01*
X308265Y423593D01*
X308291Y423697D01*
X308278Y425170D01*
X308291Y425627D01*
X308225Y425718D01*
X308095Y425770D01*
X307913Y425796D01*
X303467Y425783D01*
X303376Y425848D01*
X303363Y426096D01*
X303389Y426174D01*
X303363Y428156D01*
X303272Y428247D01*
X301304Y428260D01*
X301147Y428234D01*
X301069Y428156D01*
X301043Y428051D01*
X301069Y427712D01*
X301043Y421090D01*
X300978Y420999D01*
X300873Y420973D01*
X298748Y420960D01*
X298644Y420986D01*
X298592Y421038D01*
X298540Y421247D01*
X298566Y421429D01*
X298553Y422720D01*
X298566Y423124D01*
X298540Y423202D01*
X298475Y423319D01*
X298344Y423372D01*
X296454Y423385D01*
X296246Y423254D01*
X296220Y423202D01*
X296168Y423072D01*
X296194Y420074D01*
X296168Y419995D01*
X296194Y419604D01*
X296168Y419526D01*
X296194Y418796D01*
X296246Y418744D01*
X296272Y418692D01*
X296363Y418600D01*
X296467Y418574D01*
X297002Y418587D01*
X298240Y418574D01*
X298318Y418600D01*
X298475Y418574D01*
X298566Y418509D01*
X298618Y418301D01*
X298592Y418040D01*
X298605Y417219D01*
X298592Y416554D01*
X298618Y416476D01*
X298592Y416189D01*
X298501Y416072D01*
X298397Y416045D01*
X298240Y416072D01*
X298162Y416098D01*
X297745Y416072D01*
X296220Y416059D01*
X296141Y416111D01*
X296089Y416293D01*
X296102Y418340D01*
X296076Y418444D01*
X296024Y418496D01*
X295842Y418522D01*
X295555Y418496D01*
X295477Y418522D01*
X294903Y418496D01*
X294251Y418522D01*
X294173Y418496D01*
X293834Y418522D01*
X293704Y418600D01*
X293665Y418639D01*
X293691Y423385D01*
X293756Y423450D01*
X293938Y423476D01*
X295933Y423463D01*
X296024Y423502D01*
X296089Y423567D01*
X296115Y423802D01*
X296089Y423880D01*
X296102Y428090D01*
X296050Y428221D01*
X295868Y428273D01*
X295685Y428247D01*
X293782Y428273D01*
X293665Y428364D01*
X293652Y428507D01*
X293678Y429029D01*
X293691Y429198D01*
X293665Y429277D01*
X293691Y430658D01*
X293730Y430698D01*
X293912Y430750D01*
X303350Y430724D01*
X303467Y430606D01*
X303520Y430398D01*
X303467Y430085D01*
X303493Y429746D01*
X303467Y429668D01*
X303493Y429172D01*
X303467Y428990D01*
X303493Y428573D01*
X303520Y428364D01*
X303559Y428325D01*
X303741Y428299D01*
X305749Y428325D01*
X305788Y428364D01*
X305840Y428547D01*
X305814Y432953D01*
X305723Y433070D01*
X305540Y433096D01*
X304328Y433083D01*
X303924Y433096D01*
X303846Y433070D01*
X303376Y433044D01*
X303298Y433070D01*
X303037Y433096D01*
X302829Y433070D01*
X302750Y433096D01*
X300626Y433083D01*
X300274Y433096D01*
X300196Y433070D01*
X299413Y433096D01*
X299335Y433070D01*
X298957Y433083D01*
X298709Y433070D01*
X298618Y433135D01*
X298566Y433266D01*
X298553Y433591D01*
X298566Y435377D01*
X298475Y435495D01*
X298136Y435521D01*
X296259Y435495D01*
X296168Y435403D01*
X296141Y435247D01*
X296168Y435169D01*
X296194Y434752D01*
X296168Y434673D01*
X296180Y433774D01*
X296168Y433552D01*
X296194Y433474D01*
X296168Y433187D01*
X296076Y433096D01*
X295894Y433070D01*
X295320Y433096D01*
X293821Y433083D01*
X293730Y433148D01*
X293691Y433187D01*
X293665Y433292D01*
X293691Y440383D01*
X293756Y440448D01*
X293860Y440474D01*
X294095Y440500D01*
X294173Y440474D01*
X294851Y440500D01*
X294929Y440474D01*
X295424Y440500D01*
X295959Y440487D01*
X296050Y440552D01*
X296089Y440670D01*
X296102Y442638D01*
X296063Y442729D01*
X295998Y442795D01*
X295894Y442821D01*
X295398Y442795D01*
X294981Y442821D01*
X294799Y442795D01*
X294147Y442821D01*
X294043Y442795D01*
X293782Y442821D01*
X293665Y442912D01*
X293652Y443003D01*
X293678Y443655D01*
X293691Y443694D01*
X293665Y443772D01*
X293691Y445180D01*
X293782Y445271D01*
X293964Y445323D01*
X294382Y445298D01*
X295098Y445311D01*
X295268Y445298D01*
X295346Y445323D01*
X295933Y445311D01*
X296024Y445350D01*
X296063Y445389D01*
X296089Y445493D01*
X296102Y449860D01*
X296076Y449990D01*
X295998Y450069D01*
X295894Y450095D01*
X294264Y450108D01*
X294056Y450081D01*
X293860Y450069D01*
X293691Y450160D01*
X293665Y450264D01*
X293691Y454957D01*
X293730Y454996D01*
X293938Y455048D01*
X296076Y455022D01*
X296128Y454970D01*
X296168Y454957D01*
X296220Y454827D01*
X296194Y454722D01*
X296168Y454462D01*
X296194Y454201D01*
X296168Y453862D01*
X296194Y453497D01*
X296168Y453419D01*
X296194Y452845D01*
X296272Y452715D01*
X296337Y452650D01*
X296519Y452623D01*
X296624Y452597D01*
X297914Y452611D01*
X298344Y452597D01*
X298475Y452676D01*
X298514Y452715D01*
X298566Y453028D01*
X298553Y454214D01*
X298566Y454696D01*
X298540Y454774D01*
X298566Y454957D01*
X298631Y455022D01*
X298736Y455048D01*
X303298Y455074D01*
X303363Y455139D01*
X303389Y455322D01*
X303376Y457395D01*
X303441Y457486D01*
X305501Y457512D01*
X305618Y457525D01*
X305697Y457499D01*
X305801Y457473D01*
X305866Y457408D01*
X305892Y457303D01*
X305918Y455139D01*
X305983Y455074D01*
X306166Y455048D01*
X310598Y455074D01*
X310689Y455165D01*
X310676Y455596D01*
X310689Y457147D01*
X310585Y457329D01*
X310520Y457395D01*
X310415Y457421D01*
X310077Y457395D01*
X309360Y457408D01*
X308434Y457395D01*
X308317Y457486D01*
X308265Y457694D01*
X308278Y458072D01*
X308265Y458111D01*
X308291Y458190D01*
X308265Y459154D01*
X308291Y459233D01*
X308265Y459702D01*
X308225Y459741D01*
X308095Y459793D01*
X307991Y459819D01*
X307847Y459832D01*
X305931Y459819D01*
X305866Y459884D01*
X305840Y459989D01*
X305814Y462231D01*
X305775Y462270D01*
X305514Y462296D01*
X305436Y462270D01*
X304641Y462283D01*
X304158Y462270D01*
X304080Y462296D01*
X303507Y462270D01*
X301225Y462283D01*
X301134Y462244D01*
X301069Y462179D01*
X301043Y462022D01*
X301069Y461944D01*
X301043Y457538D01*
X300926Y457395D01*
X300078Y457408D01*
X298853Y457382D01*
X298762Y457369D01*
X298631Y457447D01*
X298592Y457486D01*
X298566Y457590D01*
X298540Y457773D01*
X298566Y457877D01*
X298553Y459402D01*
X298566Y459676D01*
X298475Y459793D01*
X298292Y459819D01*
X296337Y459793D01*
X296194Y459676D01*
X296168Y459598D01*
X296180Y458933D01*
X296168Y457799D01*
X296194Y457720D01*
X296168Y457486D01*
X296128Y457447D01*
X295946Y457395D01*
X294916Y457408D01*
X294030Y457382D01*
X293886Y457369D01*
X293808Y457395D01*
X293756Y457421D01*
X293691Y457486D01*
X293665Y457590D01*
X293638Y459650D01*
Y459676D01*
X293626Y459897D01*
X293678Y460236D01*
X293691Y460275D01*
X293665Y460354D01*
X293691Y462205D01*
X293730Y462270D01*
X293860Y462322D01*
X298423Y462348D01*
X298514Y462439D01*
X298540Y462544D01*
X298566Y462804D01*
X298553Y464616D01*
X298592Y464708D01*
X298657Y464773D01*
X298840Y464799D01*
X299335Y464773D01*
X299505Y464786D01*
X300117Y464773D01*
X300196Y464799D01*
X301004Y464773D01*
X304041Y464786D01*
X305462Y464773D01*
X305540Y464799D01*
X305749Y464773D01*
X305866Y464682D01*
X305892Y464499D01*
X305879Y462609D01*
X305905Y462478D01*
X305931Y462400D01*
X306061Y462348D01*
X306244Y462322D01*
X308147Y462348D01*
X308265Y462439D01*
X308291Y462622D01*
X308265Y463039D01*
X308291Y463117D01*
X308278Y463965D01*
X308291Y464421D01*
X308265Y464499D01*
X308291Y464682D01*
X308356Y464747D01*
X308564Y464799D01*
X309985Y464786D01*
X310337Y464799D01*
X310415Y464773D01*
X310728Y464747D01*
X310793Y464682D01*
X310780Y463756D01*
X310793Y463195D01*
X310767Y463117D01*
X310780Y462426D01*
X310676Y462296D01*
X309164Y462270D01*
X308499Y462283D01*
X308369Y462231D01*
X308343Y462048D01*
X308369Y460041D01*
X308460Y459924D01*
X308564Y459897D01*
X309073Y459911D01*
X309373Y459897D01*
X309451Y459924D01*
X309868Y459897D01*
X310181Y459924D01*
X310259Y459897D01*
X310546Y459924D01*
X310676Y459976D01*
X310741Y459989D01*
X310846Y459963D01*
X311015Y459897D01*
X311328Y459924D01*
X311406Y459897D01*
X312162Y459924D01*
X312240Y459897D01*
X312423Y459924D01*
X312527Y459897D01*
X312970Y459924D01*
X313023Y459949D01*
X313166Y459884D01*
X313218Y459754D01*
X313179Y459506D01*
X313166Y459311D01*
X313192Y459233D01*
X313166Y458581D01*
X313192Y458503D01*
X313179Y457864D01*
X313205Y457655D01*
X313231Y457499D01*
X313244Y457329D01*
X313218Y457251D01*
X313166Y456938D01*
X313192Y456599D01*
X313166Y456339D01*
X313192Y456234D01*
X313218Y455165D01*
X313309Y455074D01*
X313414Y455048D01*
X315551Y455022D01*
X315617Y454957D01*
X315643Y454800D01*
X315617Y454722D01*
X315604Y454553D01*
X315630Y452780D01*
X315643Y452689D01*
X315525Y452545D01*
X315356Y452532D01*
X313388Y452545D01*
X313205Y452441D01*
X313179Y452337D01*
X313166Y452245D01*
X313192Y452167D01*
X313179Y451059D01*
X313192Y450681D01*
X313166Y450603D01*
X313205Y450381D01*
X313270Y450290D01*
X313388Y450225D01*
X313492Y450199D01*
X315408Y450212D01*
X315512Y450186D01*
X315591Y450108D01*
X315617Y449925D01*
X315643Y447813D01*
X315760Y447774D01*
X322799Y447748D01*
X322891Y447657D01*
X322917Y447553D01*
X322891Y447136D01*
X322904Y445897D01*
X322891Y445545D01*
X322969Y445415D01*
X323034Y445350D01*
X323347Y445298D01*
X323529Y445323D01*
X323607Y445298D01*
X324142Y445311D01*
X324494Y445298D01*
X324572Y445323D01*
X325224Y445350D01*
X325289Y445415D01*
X325302Y447201D01*
X325276Y447409D01*
X325263Y447865D01*
X325289Y447944D01*
X325315Y450108D01*
X325380Y450173D01*
X325485Y450199D01*
X327544Y450225D01*
X327662Y450342D01*
X327688Y450447D01*
X327714Y450525D01*
X327688Y450603D01*
X327662Y450968D01*
X327688Y451046D01*
X327701Y456326D01*
X327675Y457186D01*
X327636Y457277D01*
X327544Y457369D01*
X327440Y457395D01*
X327284Y457421D01*
X327205Y457395D01*
X325524Y457408D01*
X325315Y457382D01*
X325015Y457369D01*
X324937Y457395D01*
X323256Y457408D01*
X323151Y457382D01*
X323021Y457329D01*
X322943Y457277D01*
X322891Y457095D01*
X322904Y456169D01*
X322891Y455348D01*
X322917Y455270D01*
X322891Y453288D01*
X322904Y452676D01*
X322851Y452597D01*
X322721Y452545D01*
X318080Y452571D01*
X317989Y452663D01*
X317963Y452767D01*
X317989Y452871D01*
X318002Y454318D01*
X317976Y454735D01*
X317963Y454879D01*
X318054Y454996D01*
X318237Y455048D01*
X320322Y455074D01*
X320362Y455113D01*
X320414Y455270D01*
X320388Y455348D01*
X320401Y456951D01*
X320388Y457408D01*
X320453Y457499D01*
X320635Y457525D01*
X320740Y457499D01*
X322773Y457525D01*
X322812Y457564D01*
X322864Y457773D01*
X322838Y458737D01*
X322864Y458842D01*
X322838Y459702D01*
X322864Y459780D01*
X322838Y460745D01*
X322851Y462035D01*
X322825Y462192D01*
X322747Y462270D01*
X322643Y462296D01*
X322304Y462270D01*
X320701Y462283D01*
X320570Y462231D01*
X320492Y462048D01*
X320466Y459911D01*
X320401Y459845D01*
X320218Y459819D01*
X318302Y459832D01*
X318198Y459806D01*
X318159Y459767D01*
X318120Y459754D01*
X318067Y459624D01*
X318041Y457512D01*
X317924Y457395D01*
X317337Y457408D01*
X316151Y457395D01*
X316073Y457421D01*
X315812Y457395D01*
X315656Y457421D01*
X315617Y457460D01*
X315564Y457642D01*
X315551Y459976D01*
X315564Y462153D01*
X315499Y462244D01*
X315395Y462270D01*
X313205Y462296D01*
X313114Y462387D01*
X313088Y462570D01*
X313114Y462674D01*
X313101Y471864D01*
X313127Y471968D01*
X313205Y472047D01*
X313466Y472073D01*
X313570Y472047D01*
X313648Y472073D01*
X315356Y472060D01*
X315486Y472086D01*
X315564Y472164D01*
X315591Y472346D01*
X315564Y472425D01*
X315591Y474432D01*
X315656Y474497D01*
X315760Y474523D01*
X316112Y474510D01*
X316255Y474523D01*
X316334Y474497D01*
X317142Y474523D01*
X320205Y474510D01*
X320297Y474549D01*
X320362Y474615D01*
X320388Y474719D01*
X320401Y476661D01*
X320362Y476753D01*
X320297Y476818D01*
X320192Y476844D01*
X319866Y476831D01*
X319671Y476844D01*
X319593Y476818D01*
X318967Y476844D01*
X318889Y476818D01*
X318432Y476831D01*
X318263Y476818D01*
X318185Y476844D01*
X318080Y476870D01*
X318015Y476909D01*
X317963Y477039D01*
X317989Y477144D01*
X318002Y478773D01*
X317976Y479008D01*
X317950Y479164D01*
X317898Y479242D01*
X317768Y479295D01*
X315734Y479268D01*
X315669Y479203D01*
X315617Y479021D01*
X315591Y476909D01*
X315525Y476844D01*
X315343Y476818D01*
X315082Y476844D01*
X313218Y476831D01*
X313114Y476909D01*
X313088Y477013D01*
X313114Y477196D01*
X313140Y484131D01*
X313231Y484222D01*
X313335Y484248D01*
X313518Y484222D01*
X315903Y484235D01*
X317611Y484222D01*
X317689Y484248D01*
X318041Y484261D01*
X318302Y484235D01*
X319384Y484222D01*
X319436Y484248D01*
X319514Y484222D01*
X320453Y484196D01*
X320492Y484157D01*
X320505Y481875D01*
X320427Y481745D01*
X320322Y481719D01*
X320231Y481706D01*
X318211Y481719D01*
X318120Y481628D01*
X318093Y481524D01*
X318067Y481263D01*
X318093Y479464D01*
X318185Y479347D01*
X319006Y479334D01*
X322252Y479347D01*
X322330Y479321D01*
X322747Y479347D01*
X322891Y479229D01*
X322917Y479125D01*
X322891Y478551D01*
X322917Y477118D01*
X323034Y476974D01*
X323164Y476922D01*
X325067Y476948D01*
X325250Y477078D01*
X325289Y477196D01*
X325276Y479555D01*
X325289Y481550D01*
X325198Y481667D01*
X325015Y481719D01*
X323229Y481732D01*
X323125Y481706D01*
X323008Y481693D01*
X322891Y481784D01*
X322838Y481993D01*
X322851Y482319D01*
X322838Y483948D01*
X322864Y484026D01*
X322891Y484131D01*
X322982Y484222D01*
X325211Y484235D01*
X325302Y484170D01*
X325341Y484026D01*
X325354Y483753D01*
X325341Y481967D01*
X325406Y481823D01*
X325511Y481797D01*
X330099Y481771D01*
X330164Y481732D01*
X330217Y481602D01*
X330191Y481419D01*
X330204Y479894D01*
X330191Y479568D01*
X330217Y479490D01*
X330243Y479438D01*
X330308Y479373D01*
X330477Y479334D01*
X330647Y479321D01*
X330725Y479347D01*
X332198Y479334D01*
X332524Y479347D01*
X332615Y479255D01*
X332641Y479151D01*
X332615Y478734D01*
X332641Y478656D01*
X332628Y477965D01*
X332641Y477848D01*
X332615Y477769D01*
X332641Y477065D01*
X332733Y476948D01*
X332837Y476922D01*
X334910Y476935D01*
X335001Y476896D01*
X335040Y476857D01*
X335092Y476648D01*
X335079Y474706D01*
X335131Y474576D01*
X335183Y474523D01*
X335288Y474497D01*
X335783Y474523D01*
X337230Y474510D01*
X337321Y474549D01*
X337360Y474589D01*
X337412Y474797D01*
X337399Y476713D01*
X337451Y476844D01*
X337530Y476922D01*
X339798Y476896D01*
X339889Y476805D01*
X339915Y476700D01*
X339902Y474732D01*
X339928Y474628D01*
X340006Y474549D01*
X340189Y474523D01*
X344504Y474510D01*
X344647Y474602D01*
X344686Y474719D01*
X344712Y474823D01*
X344686Y475084D01*
X344712Y475579D01*
X344699Y476453D01*
X344712Y476700D01*
X344595Y476818D01*
X344334Y476844D01*
X344165Y476831D01*
X343291Y476844D01*
X343213Y476818D01*
X343109Y476844D01*
X342574Y476831D01*
X342444Y476857D01*
X342353Y476922D01*
X342314Y476961D01*
X342288Y477065D01*
X342301Y478304D01*
X342288Y478760D01*
X342314Y478838D01*
X342288Y479203D01*
X342248Y479242D01*
X342040Y479295D01*
X339928Y479321D01*
X339889Y479360D01*
X339863Y479464D01*
X339889Y484105D01*
X339980Y484196D01*
X340085Y484222D01*
X340775Y484235D01*
X340906Y484209D01*
X341075Y484196D01*
X341153Y484222D01*
X341258Y484248D01*
X341675Y484222D01*
X342235Y484235D01*
X342314Y484183D01*
X342366Y484000D01*
X342392Y479464D01*
X342483Y479347D01*
X345807Y479334D01*
X346707Y479347D01*
X346785Y479321D01*
X347020Y479347D01*
X347085Y479386D01*
X347111Y479490D01*
X347137Y479673D01*
X347163Y481732D01*
X347228Y481797D01*
X347372Y481810D01*
X349535Y481784D01*
X349614Y481732D01*
X349640Y481628D01*
X349653Y479451D01*
X349614Y479360D01*
X349548Y479295D01*
X349444Y479268D01*
X349184Y479295D01*
X347306Y479268D01*
X347215Y479203D01*
X347189Y479021D01*
X347215Y478917D01*
X347189Y478734D01*
X347215Y478395D01*
X347189Y478213D01*
X347215Y477639D01*
X347189Y477561D01*
X347215Y477144D01*
X347241Y477065D01*
X347267Y476961D01*
X347241Y476726D01*
X347215Y476648D01*
X347189Y476544D01*
X347215Y475944D01*
X347189Y475866D01*
X347215Y475266D01*
X347189Y475188D01*
X347215Y474719D01*
X347241Y474641D01*
X347215Y474563D01*
X347189Y474510D01*
X347124Y474445D01*
X346941Y474419D01*
X346837Y474393D01*
X346407Y474406D01*
X345664Y474393D01*
X345586Y474419D01*
X344960Y474393D01*
X344843Y474276D01*
X344790Y474145D01*
X344817Y473572D01*
X344804Y472464D01*
X344817Y472190D01*
X344751Y472073D01*
X344621Y472021D01*
X344256Y471995D01*
X344178Y472021D01*
X342757Y472007D01*
X342601Y472034D01*
X342561Y472047D01*
X342418Y471982D01*
X342366Y471799D01*
X342392Y469791D01*
X342470Y469661D01*
X342509Y469622D01*
X343070Y469609D01*
X344595Y469622D01*
X344777Y469518D01*
X344817Y469400D01*
X344790Y468853D01*
X344817Y468775D01*
X344830Y467328D01*
X344804Y467197D01*
X344725Y467119D01*
X344621Y467093D01*
X344034Y467106D01*
X343839Y467093D01*
X343761Y467119D01*
X342718Y467093D01*
X342640Y467119D01*
X342457Y467093D01*
X342392Y467028D01*
X342366Y466924D01*
X342392Y464864D01*
X342457Y464799D01*
X342561Y464773D01*
X342966Y464786D01*
X343370Y464773D01*
X343448Y464799D01*
X343708Y464773D01*
X344439Y464799D01*
X344517Y464773D01*
X344725Y464747D01*
X344817Y464655D01*
X344804Y462739D01*
X344817Y462439D01*
X344699Y462296D01*
X343031Y462270D01*
X342509Y462296D01*
X342392Y462205D01*
X342366Y461866D01*
X342340Y457512D01*
X342248Y457395D01*
X342131Y457382D01*
X340906Y457408D01*
X340658Y457421D01*
X340580Y457395D01*
X337803Y457408D01*
X337673Y457355D01*
X337582Y457290D01*
X337517Y457225D01*
X337491Y457121D01*
X337504Y456352D01*
X337491Y455583D01*
X337517Y455504D01*
X337491Y455270D01*
X337464Y455191D01*
X337530Y455100D01*
X337712Y455048D01*
X339824Y455022D01*
X339889Y454983D01*
X339928Y454840D01*
X339889Y454566D01*
X339915Y454488D01*
X339889Y450212D01*
X339798Y450095D01*
X339694Y450069D01*
X339381Y450121D01*
X339302Y450095D01*
X337386Y450081D01*
X335118Y450108D01*
X335014Y450160D01*
X334962Y450342D01*
X334988Y450447D01*
X335001Y451946D01*
X334975Y452441D01*
X334962Y452715D01*
X334988Y452793D01*
X334975Y456300D01*
X335001Y456456D01*
X335014Y456938D01*
X334988Y457016D01*
X334935Y457460D01*
X334962Y457564D01*
X335001Y457812D01*
X335014Y458059D01*
X334988Y458138D01*
X335001Y458672D01*
X334988Y459102D01*
X335014Y459180D01*
X334988Y459363D01*
X335014Y459650D01*
X334949Y459741D01*
X334896Y459767D01*
X334766Y459819D01*
X332706Y459793D01*
X332641Y459728D01*
X332615Y459546D01*
X332628Y458829D01*
X332615Y458737D01*
X332641Y458659D01*
X332628Y457864D01*
X332641Y457668D01*
X332615Y457590D01*
X332589Y457486D01*
X332498Y457395D01*
X332394Y457369D01*
X332055Y457395D01*
X330360Y457369D01*
X330269Y457303D01*
X330243Y457251D01*
X330217Y457173D01*
X330191Y457069D01*
X330217Y455165D01*
X330308Y455074D01*
X330490Y455048D01*
X332550Y455022D01*
X332641Y454931D01*
X332615Y454409D01*
X332641Y454331D01*
X332628Y453797D01*
X332641Y453575D01*
X332615Y453497D01*
X332641Y453080D01*
X332615Y453002D01*
X332641Y452663D01*
X332576Y452571D01*
X332368Y452519D01*
X332289Y452545D01*
X330308Y452519D01*
X330217Y452454D01*
X330191Y452350D01*
X330217Y450394D01*
X330269Y450342D01*
X330282Y450303D01*
X330334Y450277D01*
X330516Y450199D01*
X330816Y450212D01*
X331220Y450199D01*
X331299Y450225D01*
X331924Y450199D01*
X332002Y450225D01*
X332472Y450199D01*
X332589Y450108D01*
X332615Y450003D01*
X332641Y449821D01*
X332628Y448191D01*
X332641Y447918D01*
X332615Y447839D01*
X332550Y447722D01*
X332420Y447670D01*
X332159Y447696D01*
X330412Y447670D01*
X330269Y447553D01*
X330217Y447422D01*
X330191Y447318D01*
X330217Y445441D01*
X330308Y445350D01*
X330490Y445298D01*
X331220Y445323D01*
X332224Y445311D01*
X332498Y445323D01*
X332589Y445258D01*
X332641Y445076D01*
X332615Y444737D01*
X332641Y444633D01*
X332628Y443916D01*
X332641Y443824D01*
X332615Y443746D01*
X332641Y443042D01*
X332759Y442899D01*
X332941Y442873D01*
X333019Y442899D01*
X334127Y442886D01*
X334701Y442912D01*
X334805Y442938D01*
X334896Y443003D01*
X334935Y443042D01*
X334988Y443225D01*
X335014Y444346D01*
X334988Y444685D01*
X335014Y444945D01*
X334988Y445050D01*
X334975Y445115D01*
X335001Y445219D01*
X335053Y445271D01*
X335235Y445323D01*
X335965Y445298D01*
X337204Y445311D01*
X337360Y445284D01*
X337451Y445219D01*
X337491Y445102D01*
X337517Y444919D01*
X337491Y444502D01*
X337504Y443838D01*
X337491Y443173D01*
X337595Y442990D01*
X337634Y442951D01*
X337686Y442925D01*
X337764Y442899D01*
X337869Y442873D01*
X337973Y442899D01*
X339680Y442886D01*
X339785Y442938D01*
X339811Y442990D01*
X339837Y443068D01*
X339863Y443173D01*
X339889Y447683D01*
X339954Y447748D01*
X340059Y447774D01*
X342223Y447800D01*
X342314Y447892D01*
X342301Y448400D01*
X342314Y449638D01*
X342288Y449717D01*
X342314Y449899D01*
X342288Y449977D01*
X342327Y450121D01*
X342379Y450173D01*
X342744Y450225D01*
X342822Y450199D01*
X344295Y450212D01*
X344517Y450199D01*
X344647Y450251D01*
X344777Y450277D01*
X344856Y450251D01*
X345025Y450212D01*
X346941Y450199D01*
X347020Y450225D01*
X347293Y450238D01*
X347450Y450212D01*
X349314Y450199D01*
X349392Y450225D01*
X349522Y450303D01*
X349588Y450368D01*
X349614Y450551D01*
X349588Y451046D01*
X349614Y451255D01*
X349588Y451333D01*
X349614Y452532D01*
X349679Y452597D01*
X349783Y452623D01*
X350279Y452597D01*
X351413Y452611D01*
X351791Y452597D01*
X351869Y452623D01*
X351973Y452650D01*
X352182Y452623D01*
X352260Y452597D01*
X354450Y452623D01*
X354528Y452650D01*
X354632Y452623D01*
X354893Y452597D01*
X356783Y452611D01*
X356888Y452532D01*
X356940Y452350D01*
X356914Y452011D01*
X356927Y451372D01*
X356914Y450994D01*
X356940Y450916D01*
X356914Y450655D01*
X356888Y450186D01*
X356822Y450095D01*
X356718Y450069D01*
X356457Y450095D01*
X356379Y450121D01*
X355962Y450095D01*
X354659Y450069D01*
X354606Y450016D01*
X354554Y449990D01*
X354489Y449821D01*
X354515Y449560D01*
X354528Y447853D01*
X354398Y447696D01*
X353889Y447709D01*
X352938Y447696D01*
X352860Y447722D01*
X352273Y447683D01*
X351765Y447670D01*
X351686Y447696D01*
X349431Y447683D01*
X347658Y447709D01*
X347567Y447722D01*
X347489Y447696D01*
X347332Y447670D01*
X347254Y447644D01*
X346968Y447670D01*
X346889Y447696D01*
X345807Y447709D01*
X344517Y447670D01*
X344439Y447696D01*
X343839Y447722D01*
X343761Y447696D01*
X342992Y447709D01*
X342522Y447683D01*
X342431Y447618D01*
X342392Y447500D01*
X342366Y447396D01*
X342340Y440487D01*
X342248Y440396D01*
X342144Y440370D01*
X341884Y440396D01*
X341623Y440370D01*
X341284Y440396D01*
X340085Y440370D01*
X339941Y440253D01*
X339915Y440148D01*
X339941Y438115D01*
X340006Y438050D01*
X340267Y438024D01*
X342301Y437998D01*
X342366Y437932D01*
X342392Y435768D01*
X342470Y435638D01*
X342509Y435599D01*
X342679Y435586D01*
X342822Y435599D01*
X342900Y435573D01*
X343317Y435599D01*
X344217Y435586D01*
X344504Y435612D01*
X344660Y435638D01*
X344804Y435651D01*
X344882Y435625D01*
X345143Y435599D01*
X347098Y435625D01*
X347176Y435651D01*
X347385Y435625D01*
X347463Y435599D01*
X347645Y435573D01*
X347750Y435599D01*
X349223Y435586D01*
X349353Y435612D01*
X349496Y435625D01*
X349588Y435560D01*
X349640Y435377D01*
X349666Y433318D01*
X349731Y433226D01*
X349940Y433174D01*
X350018Y433200D01*
X351869Y433226D01*
X351986Y433318D01*
X352012Y433422D01*
X351999Y433800D01*
X352012Y434491D01*
X351986Y434569D01*
X351999Y434947D01*
X351986Y435403D01*
X352064Y435534D01*
X352104Y435573D01*
X352208Y435599D01*
X353342Y435586D01*
X354320Y435599D01*
X354489Y435508D01*
X354541Y435377D01*
X354502Y435051D01*
X354489Y434700D01*
X354515Y434621D01*
X354502Y433852D01*
X354528Y433357D01*
X354593Y433266D01*
X354763Y433200D01*
X356796Y433226D01*
X356836Y433266D01*
X356888Y433474D01*
X356875Y434712D01*
X356888Y435117D01*
X356861Y435195D01*
X356888Y435456D01*
X357005Y435599D01*
X357735Y435573D01*
X357813Y435599D01*
X359117Y435625D01*
X359169Y435677D01*
X359221Y435703D01*
X359260Y435742D01*
X359312Y435951D01*
X359286Y437776D01*
X359260Y437854D01*
X359299Y438102D01*
X359312Y440018D01*
X359286Y440096D01*
X359325Y440318D01*
X359403Y440448D01*
X359586Y440500D01*
X360003Y440474D01*
X361567Y440500D01*
X361711Y440592D01*
X361737Y440696D01*
X361698Y440891D01*
X361685Y441035D01*
X361711Y441113D01*
X361698Y442247D01*
X361711Y442469D01*
X361685Y442547D01*
X361724Y442769D01*
X361789Y442860D01*
X361906Y442899D01*
X362389Y442886D01*
X364044Y442925D01*
X364109Y442990D01*
X364161Y443199D01*
X364135Y444398D01*
X364161Y444972D01*
X364135Y445154D01*
X364109Y445206D01*
X364070Y445245D01*
X363888Y445271D01*
X361802Y445298D01*
X361737Y445363D01*
X361685Y445571D01*
X361711Y445649D01*
X361698Y446783D01*
X361711Y447500D01*
X361685Y447579D01*
X361763Y447709D01*
X361932Y447774D01*
X364122Y447748D01*
X364214Y447657D01*
X364240Y445415D01*
X364305Y445350D01*
X364514Y445298D01*
X365087Y445323D01*
X365191Y445298D01*
X366091Y445311D01*
X366339Y445298D01*
X366417Y445323D01*
X366521Y445350D01*
X366560Y445389D01*
X366586Y445493D01*
X366612Y445754D01*
X366599Y446888D01*
X366612Y447344D01*
X366586Y447422D01*
X366612Y448778D01*
X366599Y450486D01*
X366612Y451203D01*
X366586Y451281D01*
X366612Y451620D01*
X366586Y452454D01*
X366547Y452493D01*
X366339Y452545D01*
X364383Y452519D01*
X364253Y452441D01*
X364214Y452402D01*
X364188Y450212D01*
X364122Y450121D01*
X364018Y450095D01*
X363953Y450081D01*
X363744Y450108D01*
X363705Y450121D01*
X363627Y450095D01*
X363223Y450108D01*
X361945Y450081D01*
X361594Y450069D01*
X361515Y450095D01*
X359377Y450121D01*
X359312Y450186D01*
X359286Y450290D01*
X359312Y450394D01*
X359338Y452532D01*
X359377Y452571D01*
X359482Y452597D01*
X361646Y452623D01*
X361724Y452650D01*
X361959Y452623D01*
X362037Y452597D01*
X362571Y452611D01*
X363575Y452597D01*
X363653Y452623D01*
X363979Y452584D01*
X364070Y452623D01*
X364109Y452663D01*
X364161Y453028D01*
X364135Y454879D01*
X364044Y454996D01*
X363862Y455022D01*
X363679Y454996D01*
X361424Y454983D01*
X359403Y454996D01*
X359325Y454970D01*
X358361Y454996D01*
X356953Y455022D01*
X356914Y455061D01*
X356861Y455191D01*
X356888Y455687D01*
X356861Y457251D01*
X356770Y457369D01*
X356588Y457395D01*
X356158Y457408D01*
X354554Y457395D01*
X354463Y457460D01*
X354411Y457642D01*
X354424Y459637D01*
X354372Y459767D01*
X354241Y459819D01*
X349705Y459793D01*
X349666Y459754D01*
X349640Y459571D01*
X349614Y455087D01*
X349522Y454996D01*
X349405Y454983D01*
X347437Y454996D01*
X347293Y454879D01*
X347215Y454696D01*
X347189Y454409D01*
X347215Y454331D01*
X347202Y453849D01*
X347215Y453601D01*
X347189Y453523D01*
X347215Y453054D01*
X347189Y452976D01*
X347215Y452767D01*
X347241Y452715D01*
X347176Y452597D01*
X347046Y452545D01*
X342405Y452571D01*
X342314Y452663D01*
X342288Y452819D01*
X342314Y452897D01*
X342288Y454879D01*
X342405Y455022D01*
X342588Y455048D01*
X344621Y455074D01*
X344686Y455139D01*
X344712Y455296D01*
X344686Y455374D01*
X344699Y457030D01*
X344660Y457564D01*
X344686Y457642D01*
X344712Y458164D01*
X344686Y458242D01*
X344699Y459402D01*
X344686Y459754D01*
X344764Y459884D01*
X344804Y459924D01*
X344960Y459949D01*
X345038Y459924D01*
X345377Y459897D01*
X345899Y459924D01*
X345977Y459897D01*
X346524Y459924D01*
X346603Y459897D01*
X346798Y459884D01*
X346928Y459911D01*
X347020Y459949D01*
X347111Y460041D01*
X347137Y460145D01*
X347124Y464642D01*
X347163Y464734D01*
X347202Y464773D01*
X347385Y464799D01*
X347645Y464773D01*
X349444Y464799D01*
X349588Y464890D01*
X349614Y464994D01*
X349588Y465411D01*
X349601Y466858D01*
X349575Y466963D01*
X349522Y467041D01*
X349392Y467093D01*
X349001Y467119D01*
X348923Y467093D01*
X348584Y467119D01*
X347267Y467106D01*
X347189Y467158D01*
X347137Y467341D01*
X347163Y471982D01*
X347228Y472047D01*
X347411Y472073D01*
X347632Y472060D01*
X351321Y472073D01*
X351400Y472047D01*
X351647Y472060D01*
X351986Y472034D01*
X352077Y471968D01*
X352117Y471851D01*
X352090Y471512D01*
X352117Y469791D01*
X352195Y469661D01*
X352234Y469622D01*
X352416Y469596D01*
X353303Y469622D01*
X353590Y469596D01*
X353668Y469622D01*
X354398Y469596D01*
X354489Y469505D01*
X354515Y469400D01*
X354541Y469322D01*
X354515Y469244D01*
X354502Y467458D01*
X354554Y467328D01*
X354606Y467276D01*
X354737Y467223D01*
X354919Y467197D01*
X355336Y467223D01*
X356679Y467210D01*
X356770Y467249D01*
X356836Y467315D01*
X356861Y467419D01*
X356888Y467680D01*
X356875Y468423D01*
X356888Y468723D01*
X356861Y468801D01*
X356875Y471291D01*
X356861Y472112D01*
X356888Y472190D01*
X356914Y474432D01*
X356979Y474497D01*
X357083Y474523D01*
X358999Y474510D01*
X359247Y474523D01*
X359364Y474432D01*
X359390Y474250D01*
X359377Y472203D01*
X359417Y472112D01*
X359456Y472073D01*
X359638Y472047D01*
X359977Y472073D01*
X361528Y472060D01*
X361633Y472086D01*
X361711Y472164D01*
X361698Y474706D01*
X361711Y476127D01*
X361685Y476205D01*
X361698Y476479D01*
X361685Y476492D01*
X361711Y476570D01*
X361737Y476831D01*
X361828Y476922D01*
X361998Y476935D01*
X363992Y476922D01*
X364109Y477013D01*
X364148Y477183D01*
X364161Y477639D01*
X364135Y477717D01*
X364161Y478447D01*
X364135Y479203D01*
X364044Y479295D01*
X363914Y479321D01*
X363836Y479295D01*
X359456Y479268D01*
X359417Y479229D01*
X359390Y479047D01*
X359364Y478786D01*
X359390Y478708D01*
X359364Y476909D01*
X359299Y476844D01*
X359117Y476818D01*
X358856Y476844D01*
X356992Y476831D01*
X356888Y476935D01*
X356875Y477808D01*
X356888Y478343D01*
X356861Y478421D01*
X356888Y478995D01*
X356861Y479073D01*
X356888Y479255D01*
X356953Y479321D01*
X357057Y479347D01*
X357357Y479334D01*
X358439Y479347D01*
X358517Y479321D01*
X358621Y479347D01*
X358973Y479334D01*
X359221Y479373D01*
X359312Y479438D01*
X359299Y481537D01*
X359325Y481667D01*
X359364Y481706D01*
X359390Y481758D01*
X359508Y481797D01*
X361619Y481823D01*
X361711Y481915D01*
X361737Y482097D01*
X361711Y482175D01*
X361737Y484157D01*
X361828Y484248D01*
X362636Y484222D01*
X364605Y484235D01*
X365270Y484222D01*
X365348Y484248D01*
X365661Y484222D01*
X365739Y484196D01*
X365999Y484222D01*
X366078Y484248D01*
X366339Y484222D01*
X366521Y484196D01*
X366612Y484131D01*
X366664Y483922D01*
X366651Y481589D01*
X366677Y479477D01*
X366743Y479386D01*
X366782Y479347D01*
X368541Y479334D01*
X368919Y479347D01*
X369063Y479282D01*
X369115Y479151D01*
X369141Y477065D01*
X369232Y476922D01*
X369415Y476896D01*
X369519Y476922D01*
X371253Y476909D01*
X371344Y476974D01*
X371409Y477118D01*
X371435Y477222D01*
X371409Y481576D01*
X371344Y481693D01*
X371162Y481745D01*
X371057Y481719D01*
X369102Y481745D01*
X369037Y481810D01*
X369011Y481915D01*
X368998Y484170D01*
X369024Y484222D01*
X369128Y484248D01*
X369389Y484222D01*
X371396Y484248D01*
X371474Y484274D01*
X371839Y484248D01*
D02*
G37*
G36*
X310520Y484222D02*
X310598Y484196D01*
X310663Y484131D01*
X310689Y484026D01*
X310676Y467771D01*
X310689Y467341D01*
X310624Y467249D01*
X310494Y467197D01*
X309881Y467210D01*
X309659Y467197D01*
X309581Y467223D01*
X294577Y467210D01*
X294173Y467223D01*
X294147D01*
X294043Y467197D01*
X293808Y467223D01*
X293717Y467289D01*
X293691Y467341D01*
X293665Y467419D01*
X293691Y484183D01*
X293756Y484248D01*
X294642Y484222D01*
X309855Y484235D01*
X310337Y484222D01*
X310415Y484248D01*
X310520Y484222D01*
D02*
G37*
G36*
X352964D02*
X353524Y484235D01*
X353733Y484209D01*
X353824Y484196D01*
X353902Y484222D01*
X354450Y484196D01*
X354515Y484131D01*
X354541Y481784D01*
X354567Y481706D01*
X354541Y481602D01*
X354515Y481028D01*
X354489Y479907D01*
X354515Y479829D01*
X354528Y479581D01*
X354541Y479568D01*
X354515Y479438D01*
X354450Y479347D01*
X354320Y479295D01*
X352104Y479321D01*
X352012Y479386D01*
X351986Y479490D01*
X352012Y479881D01*
X351986Y479959D01*
X352012Y480742D01*
X351986Y480820D01*
X351999Y481380D01*
X351973Y481589D01*
X351960Y481810D01*
X351986Y481889D01*
X352012Y482462D01*
X351999Y484144D01*
X352051Y484222D01*
X352208Y484248D01*
X352286Y484222D01*
X352508Y484209D01*
X352860Y484248D01*
X352964Y484222D01*
D02*
G37*
G36*
X335470D02*
X335496D01*
X337451Y484196D01*
X337491Y484157D01*
X337517Y484053D01*
X337491Y483974D01*
X337517Y481889D01*
X337543Y481810D01*
X337517Y481341D01*
X337491Y481263D01*
X337517Y480585D01*
X337491Y480507D01*
X337504Y479555D01*
X337477Y479451D01*
X337425Y479347D01*
X337295Y479295D01*
X335079Y479321D01*
X334962Y479438D01*
X334988Y480011D01*
X335001Y480415D01*
X334962Y481915D01*
X334988Y481993D01*
X335014Y484131D01*
X335079Y484196D01*
X335183Y484222D01*
X335327Y484235D01*
X335470Y484222D01*
D02*
G37*
G36*
X354450Y476896D02*
X354515Y476831D01*
X354541Y476648D01*
X354489Y476335D01*
X354515Y476075D01*
X354502Y474941D01*
X354528Y474784D01*
X354541Y474589D01*
X354463Y474458D01*
X354424Y474419D01*
X354241Y474393D01*
X353981Y474419D01*
X353720D01*
X353094Y474393D01*
X353016Y474419D01*
X352156Y474393D01*
X352025Y474471D01*
X351986Y474510D01*
X351999Y475149D01*
X351986Y475527D01*
X352012Y475605D01*
X351999Y476766D01*
X352064Y476857D01*
X352104Y476896D01*
X352208Y476922D01*
X354450Y476896D01*
D02*
G37*
G36*
X393361Y484183D02*
X393335Y483766D01*
X393322Y467641D01*
X393348Y467536D01*
X393361Y467367D01*
X393270Y467249D01*
X393166Y467223D01*
X392905Y467197D01*
X392827Y467223D01*
X391693Y467210D01*
X377419Y467223D01*
X377341Y467197D01*
X377002Y467223D01*
X376819Y467197D01*
X376402Y467223D01*
X376311Y467315D01*
X376285Y467471D01*
X376311Y467549D01*
X376337Y467888D01*
X376311Y468305D01*
X376337Y484079D01*
Y484105D01*
X376363Y484157D01*
X376402Y484196D01*
X376506Y484222D01*
X393309Y484235D01*
X393361Y484183D01*
D02*
G37*
G36*
X353668Y445298D02*
X354306Y445311D01*
X354437Y445258D01*
X354515Y445180D01*
X354541Y444998D01*
X354515Y444919D01*
X354541Y443068D01*
X354685Y442925D01*
X354867Y442899D01*
X355154Y442925D01*
X355232Y442899D01*
X356822Y442873D01*
X356888Y442808D01*
X356940Y442625D01*
X356914Y441973D01*
X356927Y441778D01*
X356914Y441296D01*
X356940Y441217D01*
X356914Y440800D01*
X356940Y440540D01*
X356914Y439262D01*
X356927Y438180D01*
X356901Y438076D01*
X356822Y437998D01*
X356718Y437971D01*
X356053Y437985D01*
X354685Y437971D01*
X354672Y437985D01*
X354659Y437998D01*
X354502Y438024D01*
X354437Y438089D01*
X354411Y438193D01*
X354385Y440279D01*
X354320Y440370D01*
X354215Y440396D01*
X353915Y440383D01*
X353329Y440396D01*
X353251Y440370D01*
X352834Y440396D01*
X352117Y440383D01*
X352025Y440448D01*
X351986Y440487D01*
X351999Y441074D01*
X351986Y441478D01*
X352012Y441556D01*
X351986Y442677D01*
X351895Y442769D01*
X351791Y442795D01*
X351530Y442821D01*
X351452Y442795D01*
X350995Y442808D01*
X350435Y442795D01*
X350357Y442821D01*
X349757Y442795D01*
X349614Y442886D01*
X349588Y443068D01*
X349614Y443173D01*
X349588Y443433D01*
X349614Y445232D01*
X349679Y445298D01*
X349783Y445323D01*
X350435Y445298D01*
X351465Y445311D01*
X351556Y445298D01*
X351634Y445323D01*
X353003Y445311D01*
X353590Y445323D01*
X353668Y445298D01*
D02*
G37*
G36*
X359299Y447748D02*
X359364Y447683D01*
X359390Y447579D01*
Y447266D01*
Y447240D01*
X359364Y445337D01*
X359325Y445298D01*
X359221Y445271D01*
X357044Y445258D01*
X356914Y445311D01*
X356861Y445441D01*
X356888Y445858D01*
X356875Y446497D01*
X356888Y447422D01*
X356861Y447500D01*
X356901Y447670D01*
X356979Y447748D01*
X357083Y447774D01*
X359299Y447748D01*
D02*
G37*
G36*
X345116Y442899D02*
X345416Y442886D01*
X347098Y442899D01*
X347215Y442782D01*
X347241Y442651D01*
X347215Y442573D01*
X347189Y442391D01*
X347215Y441973D01*
X347189Y441895D01*
X347215Y441817D01*
X347189Y441269D01*
X347215Y441191D01*
X347189Y440774D01*
X347215Y440696D01*
X347293Y440565D01*
X347332Y440526D01*
X347541Y440474D01*
X349483Y440487D01*
X349575Y440448D01*
X349640Y440305D01*
X349614Y438063D01*
X349548Y437998D01*
X349366Y437971D01*
X347254Y437998D01*
X347163Y438063D01*
X347137Y438167D01*
X347111Y440279D01*
X347046Y440370D01*
X346941Y440396D01*
X346172Y440409D01*
X345260Y440383D01*
X344882Y440370D01*
X344751Y440448D01*
X344686Y440618D01*
X344712Y441348D01*
X344686Y441452D01*
X344699Y442456D01*
X344686Y442573D01*
Y442599D01*
X344712Y442782D01*
X344830Y442899D01*
X345038Y442925D01*
X345116Y442899D01*
D02*
G37*
G36*
X295998Y413725D02*
X296102Y413699D01*
X296194Y413608D01*
X296168Y413112D01*
X296194Y411209D01*
Y411183D01*
X296180Y410414D01*
X296194Y410114D01*
X296168Y410036D01*
X296194Y409045D01*
X296220Y408967D01*
X296246Y408837D01*
X296220Y408759D01*
X296180Y408589D01*
X296168Y407194D01*
X296194Y407116D01*
X296207Y406138D01*
X296168Y405786D01*
X296180Y404131D01*
X296141Y404040D01*
X296102Y404001D01*
X295920Y403948D01*
X293808Y403974D01*
X293691Y404066D01*
X293665Y404170D01*
X293652Y406634D01*
X293691Y408237D01*
X293665Y408576D01*
X293638Y408759D01*
X293626Y408902D01*
X293652Y409215D01*
X293678Y409710D01*
X293691Y409932D01*
X293665Y410010D01*
X293678Y412943D01*
X293665Y413608D01*
X293756Y413699D01*
X293938Y413725D01*
X294277Y413751D01*
X295125Y413738D01*
X295920Y413751D01*
X295998Y413725D01*
D02*
G37*
G36*
X310494Y401576D02*
X310598Y401550D01*
X310689Y401459D01*
X310676Y400142D01*
X310702Y384916D01*
X310715Y384877D01*
X310689Y384799D01*
X310663Y384695D01*
X310598Y384603D01*
X310468Y384551D01*
X294212Y384564D01*
X293808Y384551D01*
X293691Y384642D01*
X293665Y384747D01*
Y400468D01*
Y400494D01*
X293691Y400624D01*
X293665Y400702D01*
X293691Y401459D01*
X293730Y401524D01*
X293782Y401550D01*
X293860Y401576D01*
X293990Y401602D01*
X294069Y401576D01*
X310011Y401563D01*
X310350Y401589D01*
X310415Y401602D01*
X310494Y401576D01*
D02*
G37*
%LPC*%
G36*
X327961Y479295D02*
X327818Y479177D01*
X327792Y478995D01*
X327818Y477091D01*
X327909Y476948D01*
X328040Y476896D01*
X328379Y476922D01*
X329917Y476896D01*
X329943D01*
X329995Y476922D01*
X330060Y476961D01*
X330112Y477091D01*
X330125Y478929D01*
X330099Y479190D01*
X330034Y479282D01*
X327961Y479295D01*
D02*
G37*
G36*
X368763Y476844D02*
X368085Y476818D01*
X368007Y476844D01*
X365530D01*
X364761Y476831D01*
X364487Y476844D01*
X364409Y476818D01*
X364279Y476766D01*
X364214Y476700D01*
X364188Y476518D01*
X364214Y476414D01*
X364227Y474184D01*
X364201Y472333D01*
X364188Y472268D01*
X364214Y472190D01*
X364240Y472138D01*
X364279Y472099D01*
X364383Y472073D01*
X364722Y472047D01*
X364800Y472073D01*
X365126Y472060D01*
X365426Y472073D01*
X365504Y472047D01*
X366469Y472073D01*
X366586Y472138D01*
X366612Y472242D01*
X366638Y474432D01*
X366703Y474497D01*
X366808Y474523D01*
X367160Y474510D01*
X367851Y474523D01*
X367929Y474497D01*
X368828Y474537D01*
X368959Y474615D01*
X369011Y474745D01*
X368985Y476674D01*
X368893Y476792D01*
X368763Y476844D01*
D02*
G37*
G36*
X339589Y474419D02*
X338377Y474406D01*
X338208Y474419D01*
X338129Y474393D01*
X337738Y474419D01*
X337608Y474341D01*
X337595Y474328D01*
X337517Y474250D01*
X337491Y474067D01*
X337517Y472034D01*
X337543Y471955D01*
X337504Y471604D01*
X337491Y470939D01*
X337517Y470860D01*
X337491Y470600D01*
X337517Y469739D01*
X337608Y469648D01*
X337790Y469622D01*
X338351Y469609D01*
X338964Y469622D01*
X339016Y469596D01*
X339094Y469622D01*
X339511Y469596D01*
X339694Y469622D01*
X339811Y469713D01*
X339863Y469896D01*
X339837Y474302D01*
X339772Y474393D01*
X339589Y474419D01*
D02*
G37*
G36*
X334662D02*
X332980Y474406D01*
X332759Y474419D01*
X332667Y474328D01*
X332641Y474224D01*
X332615Y473989D01*
X332641Y473911D01*
X332628Y472464D01*
X332641Y472190D01*
X332563Y472060D01*
X332524Y472021D01*
X332263Y471995D01*
X332185Y472021D01*
X331950Y471995D01*
X331872Y472021D01*
X331286Y472007D01*
X331038Y472021D01*
X330960Y471995D01*
X330438Y472021D01*
X330360Y471995D01*
X330243Y471929D01*
X330217Y471825D01*
X330191Y471486D01*
X330204Y469413D01*
X330191Y468853D01*
X330217Y468775D01*
X330191Y468670D01*
X330217Y467315D01*
X330243Y467237D01*
X330217Y466663D01*
X330191Y466324D01*
X330177Y465242D01*
X330204Y465033D01*
X330217Y464890D01*
X330138Y464760D01*
X330099Y464721D01*
X329995Y464695D01*
X329109Y464721D01*
X328665Y464695D01*
X328587Y464721D01*
X327896Y464682D01*
X327544Y464669D01*
X327466Y464695D01*
X326971Y464721D01*
X325784Y464708D01*
X325485Y464721D01*
X325420Y464682D01*
X325367Y464551D01*
X325341Y464134D01*
X325367Y464082D01*
X325341Y464004D01*
X325354Y462948D01*
X325341Y462778D01*
X325367Y462726D01*
X325341Y462648D01*
X325367Y462439D01*
X325459Y462322D01*
X330008Y462335D01*
X330099Y462296D01*
X330191Y462205D01*
X330217Y462022D01*
X330191Y461944D01*
X330217Y460093D01*
X330282Y460028D01*
X330334Y460002D01*
X330569Y459897D01*
X331077Y459911D01*
X331403Y459897D01*
X331481Y459924D01*
X331898Y459897D01*
X332394Y459924D01*
X332537Y460041D01*
X332589Y460171D01*
X332576Y462140D01*
X332602Y462244D01*
X332654Y462322D01*
X332759Y462348D01*
X333254Y462322D01*
X337595Y462335D01*
X337973Y462322D01*
X337999D01*
X340150Y462335D01*
X341597Y462322D01*
X341675Y462348D01*
X341936Y462322D01*
X342144Y462348D01*
X342288Y462465D01*
X342314Y462648D01*
X342288Y462987D01*
X342314Y463326D01*
X342288Y464186D01*
X342314Y464264D01*
X342288Y464525D01*
X342144Y464669D01*
X341962Y464721D01*
X341584Y464708D01*
X341362Y464721D01*
X341284Y464695D01*
X340450Y464721D01*
X340371Y464695D01*
X338559Y464708D01*
X338129Y464695D01*
X338051Y464721D01*
X337712Y464695D01*
X337582Y464642D01*
X337373Y464669D01*
X337295Y464695D01*
X337191Y464721D01*
X335209Y464695D01*
X335131Y464669D01*
X334414Y464708D01*
X334088Y464721D01*
X334010Y464695D01*
X333358Y464721D01*
X332719Y464708D01*
X332628Y464773D01*
X332589Y464890D01*
X332576Y465007D01*
X332589Y466924D01*
X332563Y467002D01*
X332589Y468045D01*
X332576Y469440D01*
X332628Y469570D01*
X332759Y469622D01*
X332863Y469648D01*
X332941Y469622D01*
X333189Y469609D01*
X333671Y469622D01*
X333749Y469596D01*
X334245Y469622D01*
X334766Y469596D01*
X334896Y469674D01*
X334935Y469713D01*
X335014Y469974D01*
X334988Y470313D01*
X334975Y471995D01*
X335014Y472346D01*
X334988Y472425D01*
X335001Y474132D01*
X334975Y474237D01*
X334844Y474367D01*
X334662Y474419D01*
D02*
G37*
G36*
X324937D02*
X324429Y474406D01*
X323973Y474419D01*
X323894Y474393D01*
X323634Y474419D01*
X322591Y474393D01*
X322486Y474419D01*
X321066Y474406D01*
X320766Y474419D01*
X320544Y474302D01*
X320518Y474250D01*
X320492Y474171D01*
X320466Y474067D01*
X320492Y473989D01*
X320466Y472112D01*
X320401Y472047D01*
X320088Y471995D01*
X319905Y472021D01*
X319123Y471995D01*
X319045Y472021D01*
X318472Y471995D01*
X318393Y472021D01*
X318159Y471995D01*
X318120Y471955D01*
X318067Y471590D01*
X318093Y469765D01*
X318159Y469648D01*
X318341Y469596D01*
X319149Y469622D01*
X320375Y469596D01*
X320492Y469479D01*
X320518Y469270D01*
X320492Y469192D01*
X320518Y467419D01*
X320635Y467249D01*
X320818Y467197D01*
X321079Y467223D01*
X322708Y467210D01*
X322799Y467276D01*
X322838Y467393D01*
X322851Y467641D01*
X322838Y471408D01*
Y471434D01*
X322864Y471642D01*
X322838Y471721D01*
X322864Y471982D01*
X322930Y472047D01*
X323034Y472073D01*
X323425Y472047D01*
X323503Y472073D01*
X324976Y472060D01*
X325198Y472099D01*
X325263Y472138D01*
X325315Y472320D01*
X325289Y472399D01*
X325263Y474250D01*
X325224Y474315D01*
X325172Y474341D01*
X325042Y474393D01*
X324937Y474419D01*
D02*
G37*
G36*
X329917D02*
X329343Y474393D01*
X329239Y474419D01*
X328978Y474393D01*
X328796D01*
X327975Y474406D01*
X327883Y474341D01*
X327844Y474302D01*
X327792Y474093D01*
X327818Y472138D01*
X327857Y472099D01*
X328040Y472047D01*
X328366Y472060D01*
X328665Y472047D01*
X328744Y472073D01*
X329343Y472047D01*
X329421Y472073D01*
X329969Y472047D01*
X330099Y472125D01*
X330138Y472268D01*
X330112Y472529D01*
X330125Y474184D01*
X330099Y474289D01*
X330034Y474380D01*
X329917Y474419D01*
D02*
G37*
G36*
X371214Y472021D02*
X370862Y472007D01*
X369493Y472021D01*
X369415Y471995D01*
X368359Y472007D01*
X367955Y471995D01*
X367877Y472021D01*
X367342Y472007D01*
X367199Y472021D01*
X367121Y471995D01*
X366860Y472021D01*
X366730Y471995D01*
X366690Y471955D01*
X366664Y471773D01*
X366651Y470847D01*
X366664Y470078D01*
X366638Y470000D01*
X366664Y469922D01*
X366690Y469687D01*
X366756Y469622D01*
X366938Y469596D01*
X367434Y469622D01*
X368255Y469609D01*
X368946Y469622D01*
X369089Y469505D01*
X369115Y469400D01*
Y467602D01*
X369102Y467588D01*
X369089Y467445D01*
X369180Y467276D01*
X369311Y467223D01*
X369441Y467197D01*
X369519Y467223D01*
X371253Y467210D01*
X371344Y467249D01*
X371383Y467289D01*
X371435Y467497D01*
X371409Y471903D01*
X371318Y471995D01*
X371214Y472021D01*
D02*
G37*
G36*
X365348Y469570D02*
X364696Y469544D01*
X364592Y469570D01*
X364344Y469531D01*
X364240Y469479D01*
X364214Y469374D01*
X364240Y467263D01*
X364266Y467184D01*
X364227Y466963D01*
X364214Y466819D01*
X364240Y466741D01*
X364214Y466324D01*
X364201Y465972D01*
X364227Y464903D01*
X364305Y464825D01*
X364448Y464786D01*
X364722Y464773D01*
X364800Y464799D01*
X365713Y464773D01*
X365739D01*
X366156Y464799D01*
X366260Y464773D01*
X366339Y464799D01*
X366573Y464773D01*
X366638Y464708D01*
X366664Y464603D01*
X366638Y459911D01*
X366573Y459819D01*
X366417Y459793D01*
X366339Y459819D01*
X361932Y459793D01*
X361841Y459728D01*
X361789Y459519D01*
X361841Y459154D01*
X361815Y458972D01*
X361802Y457733D01*
X361828Y457629D01*
X361932Y457525D01*
X362115Y457499D01*
X364122Y457473D01*
X364188Y457408D01*
X364214Y457303D01*
X364240Y455139D01*
X364279Y455100D01*
X364461Y455048D01*
X368946Y455074D01*
X369011Y455139D01*
X369037Y455244D01*
X369011Y455583D01*
X369037Y457434D01*
X369180Y457499D01*
X371344Y457525D01*
X371383Y457564D01*
X371435Y457747D01*
X371409Y459728D01*
X371318Y459819D01*
X369128Y459845D01*
X369037Y459936D01*
X369011Y460041D01*
X368998Y462452D01*
X369011Y464343D01*
X368985Y464421D01*
X369011Y466089D01*
X368985Y466950D01*
X368919Y467041D01*
X368789Y467093D01*
X368685Y467119D01*
X367394Y467106D01*
X366990Y467119D01*
X366912Y467093D01*
X366730Y467119D01*
X366612Y467237D01*
X366586Y467497D01*
X366612Y467680D01*
X366599Y468709D01*
X366612Y469400D01*
X366521Y469518D01*
X366339Y469544D01*
X365752Y469557D01*
X365426Y469544D01*
X365348Y469570D01*
D02*
G37*
G36*
X361463D02*
X360968Y469544D01*
X359521Y469557D01*
X359430Y469518D01*
X359390Y469479D01*
X359364Y469244D01*
X359390Y469166D01*
X359377Y467015D01*
X359390Y464708D01*
X359364Y464629D01*
X359390Y464551D01*
X359377Y460184D01*
X359403Y460080D01*
X359456Y459949D01*
X359469Y459936D01*
X359508Y459897D01*
X361541Y459924D01*
X361633Y459989D01*
X361659Y460041D01*
X361711Y460171D01*
X361737Y462231D01*
X361802Y462296D01*
X361906Y462322D01*
X363744Y462335D01*
X364018Y462322D01*
X364109Y462387D01*
X364161Y462596D01*
X364148Y463521D01*
X364161Y464421D01*
X364135Y464499D01*
X364083Y464629D01*
X364018Y464695D01*
X363314Y464721D01*
X363236Y464695D01*
X362232Y464708D01*
X361932Y464695D01*
X361750Y464799D01*
X361711Y464916D01*
X361685Y467158D01*
X361659Y467184D01*
X361685Y467263D01*
X361711Y467836D01*
X361698Y468736D01*
X361711Y469009D01*
X361685Y469088D01*
X361724Y469283D01*
X361737Y469453D01*
X361672Y469518D01*
X361463Y469570D01*
D02*
G37*
G36*
X351608D02*
X351530Y469544D01*
X351191Y469570D01*
X351008Y469544D01*
X350331Y469570D01*
X350252Y469544D01*
X349822Y469557D01*
X349718Y469531D01*
X349666Y469479D01*
X349640Y469374D01*
Y468253D01*
Y468227D01*
X349666Y467341D01*
X349731Y467249D01*
X349835Y467223D01*
X350422Y467210D01*
X351139Y467223D01*
X351217Y467197D01*
X351634Y467223D01*
X351843Y467249D01*
X351895Y467302D01*
X351947Y467328D01*
X352012Y467471D01*
X351999Y468006D01*
X352012Y468384D01*
X351986Y468462D01*
X352012Y468723D01*
X351999Y469127D01*
X352012Y469426D01*
X351921Y469518D01*
X351817Y469544D01*
X351608Y469570D01*
D02*
G37*
G36*
X341884D02*
X341545Y469544D01*
X340332Y469557D01*
X340046Y469531D01*
X339954Y469492D01*
X339915Y469453D01*
X339889Y469192D01*
X339915Y469088D01*
X339902Y468136D01*
X339928Y467406D01*
X340006Y467276D01*
X340137Y467223D01*
X340319Y467197D01*
X340580Y467223D01*
X341493D01*
X342027Y467210D01*
X342235Y467341D01*
X342288Y467471D01*
X342314Y467549D01*
X342288Y467628D01*
X342314Y468097D01*
X342288Y468175D01*
X342301Y468449D01*
X342288Y469218D01*
X342314Y469296D01*
X342288Y469453D01*
X342248Y469492D01*
X342066Y469544D01*
X341884Y469570D01*
D02*
G37*
G36*
X337060D02*
X336956Y469544D01*
X335275Y469557D01*
X335170Y469531D01*
X335092Y469479D01*
X335066Y469374D01*
X335092Y469035D01*
X335079Y467458D01*
X335105Y467354D01*
X335170Y467263D01*
X335314Y467197D01*
X335731Y467223D01*
X336174D01*
X337230Y467210D01*
X337360Y467289D01*
X337386Y467393D01*
X337412Y467654D01*
X337386Y469453D01*
X337321Y469544D01*
X337060Y469570D01*
D02*
G37*
G36*
X327362D02*
X327023Y469544D01*
X325498Y469557D01*
X325406Y469518D01*
X325367Y469479D01*
X325341Y469296D01*
X325367Y468957D01*
X325341Y468697D01*
X325354Y467667D01*
X325341Y467445D01*
X325393Y467289D01*
X325459Y467223D01*
X325563Y467197D01*
X325980Y467223D01*
X326866D01*
X327427Y467210D01*
X327531Y467237D01*
X327570Y467276D01*
X327622Y467302D01*
X327688Y467445D01*
X327675Y469127D01*
X327701Y469257D01*
X327714Y469453D01*
X327649Y469518D01*
X327544Y469544D01*
X327362Y469570D01*
D02*
G37*
G36*
X317611D02*
X317429Y469544D01*
X317168Y469570D01*
X317064Y469544D01*
X316308Y469570D01*
X316229Y469544D01*
X315799Y469557D01*
X315695Y469531D01*
X315617Y469453D01*
X315591Y469244D01*
X315617Y469166D01*
Y462491D01*
X315630Y462478D01*
X315682Y462348D01*
X315864Y462322D01*
X316321Y462335D01*
X317742Y462322D01*
X317924Y462426D01*
X317963Y462465D01*
X317989Y462648D01*
X317976Y463000D01*
X317989Y464447D01*
X317963Y464525D01*
X317937Y464786D01*
X317963Y464864D01*
X317989Y465281D01*
X318002Y465633D01*
X317976Y465842D01*
X317963Y465959D01*
X317989Y466037D01*
X318015Y466246D01*
X317989Y466324D01*
X317963Y466950D01*
X317937Y467028D01*
X317963Y467445D01*
X317989Y467523D01*
X318015Y467706D01*
X318002Y468032D01*
X318015Y468253D01*
X317989Y468331D01*
X317963Y469453D01*
X317898Y469518D01*
X317794Y469544D01*
X317611Y469570D01*
D02*
G37*
G36*
X354033Y467119D02*
X353772Y467093D01*
X353381Y467119D01*
X353355D01*
X352716Y467106D01*
X352260Y467119D01*
X352117Y467002D01*
X352090Y466819D01*
X352104Y466598D01*
X352090Y466272D01*
X352117Y466194D01*
X352090Y465855D01*
X352104Y464538D01*
X352090Y463899D01*
X352117Y463821D01*
X352090Y463560D01*
X352104Y462948D01*
X352090Y462830D01*
X352117Y462752D01*
X352104Y462531D01*
X352130Y462426D01*
X352208Y462348D01*
X352312Y462322D01*
X353055Y462335D01*
X354215Y462322D01*
X354346Y462400D01*
X354385Y462439D01*
X354411Y462622D01*
X354424Y463547D01*
X354411Y466194D01*
X354437Y466272D01*
X354411Y466533D01*
X354385Y467002D01*
X354294Y467093D01*
X354033Y467119D01*
D02*
G37*
G36*
X356588Y462296D02*
X356405Y462270D01*
X355871Y462283D01*
X355415Y462270D01*
X355336Y462296D01*
X355232Y462270D01*
X354724Y462283D01*
X354619Y462257D01*
X354541Y462205D01*
X354515Y462100D01*
X354541Y460067D01*
X354632Y459976D01*
X354763Y459924D01*
X354867Y459897D01*
X355050Y459871D01*
X355128Y459897D01*
X355388Y459924D01*
X355467Y459897D01*
X356066Y459924D01*
X356145Y459897D01*
X356770Y459924D01*
X356836Y459989D01*
X356861Y460093D01*
X356888Y460275D01*
X356875Y460523D01*
X356888Y461970D01*
Y461996D01*
X356836Y462205D01*
X356796Y462244D01*
X356588Y462296D01*
D02*
G37*
G36*
X376089Y459819D02*
X374056Y459793D01*
X373964Y459728D01*
X373912Y459546D01*
X373938Y459207D01*
X373912Y458815D01*
X373938Y458737D01*
X373964Y457590D01*
X374030Y457525D01*
X374134Y457499D01*
X375698D01*
X376193Y457525D01*
X376311Y457616D01*
X376337Y457720D01*
X376311Y457981D01*
X376324Y458959D01*
X376298Y459324D01*
X376285Y459363D01*
X376311Y459441D01*
X376324Y459611D01*
X376285Y459702D01*
X376219Y459767D01*
X376089Y459819D01*
D02*
G37*
G36*
X358986Y459845D02*
X358726Y459819D01*
X357031Y459793D01*
X356940Y459728D01*
X356914Y459546D01*
X356927Y458724D01*
X356914Y457694D01*
X356992Y457564D01*
X357161Y457499D01*
X359143Y457525D01*
X359312Y457616D01*
X359338Y457668D01*
Y457694D01*
X359312Y458111D01*
X359299Y459428D01*
X359325Y459532D01*
X359338Y459650D01*
X359247Y459767D01*
X358986Y459845D01*
D02*
G37*
G36*
X375985Y454996D02*
X374082Y454970D01*
X373990Y454879D01*
X373938Y454696D01*
X373964Y452715D01*
X374056Y452623D01*
X374238Y452597D01*
X376141Y452623D01*
X376285Y452741D01*
X376337Y452949D01*
X376311Y453523D01*
Y453601D01*
Y453627D01*
X376337Y454044D01*
X376311Y454123D01*
X376285Y454827D01*
X376193Y454944D01*
X375985Y454996D01*
D02*
G37*
G36*
X385788Y452545D02*
X383728Y452519D01*
X383663Y452350D01*
Y451620D01*
Y451594D01*
X383689Y450316D01*
X383780Y450199D01*
X384184Y450212D01*
X385762Y450199D01*
X385944Y450303D01*
X386009Y450368D01*
X386035Y450473D01*
X386009Y451046D01*
X386035Y451750D01*
X386009Y451828D01*
X386022Y452415D01*
X385970Y452493D01*
X385788Y452545D01*
D02*
G37*
G36*
X373534D02*
X369180Y452519D01*
X369089Y452428D01*
X369115Y451776D01*
X369089Y445389D01*
X369050Y445323D01*
X368919Y445271D01*
X368685Y445245D01*
X368607Y445271D01*
X366730Y445245D01*
X366690Y445206D01*
X366664Y445102D01*
X366638Y444763D01*
X366664Y444580D01*
X366651Y444046D01*
X366664Y443459D01*
X366638Y443381D01*
X366664Y443068D01*
X366756Y442925D01*
X366938Y442899D01*
X368646Y442912D01*
X368763Y442899D01*
X368841Y442925D01*
X369024Y442951D01*
X369311Y442925D01*
X369389Y442899D01*
X371474Y442873D01*
X371514Y442834D01*
X371540Y442729D01*
X371514Y442234D01*
Y442182D01*
Y442156D01*
X371527Y440891D01*
X371488Y440748D01*
X371514Y440592D01*
X371657Y440526D01*
X371761Y440500D01*
X372022Y440474D01*
X372413Y440500D01*
X372491Y440474D01*
X373404Y440500D01*
X373482Y440474D01*
X373560Y440500D01*
X373847Y440474D01*
X373912Y440409D01*
X373938Y440227D01*
X373964Y438089D01*
X374003Y438050D01*
X374342Y438024D01*
X376219Y438050D01*
X376311Y438141D01*
X376337Y438323D01*
X376311Y438402D01*
X376285Y440253D01*
X376259Y440331D01*
X376298Y440683D01*
X376324Y441882D01*
X376311Y442338D01*
X376337Y442417D01*
X376311Y442703D01*
X376089Y442795D01*
X375907Y442821D01*
X375724Y442795D01*
X375190Y442808D01*
X374368Y442795D01*
X374316Y442821D01*
X374238Y442795D01*
X373977Y442821D01*
X373938Y442860D01*
X373886Y443042D01*
X373912Y445232D01*
X373977Y445298D01*
X374082Y445323D01*
X374577Y445298D01*
X375724Y445323D01*
X375802Y445298D01*
X376115Y445323D01*
X376285Y445415D01*
X376337Y445597D01*
X376311Y446327D01*
X376337Y446405D01*
X376311Y447214D01*
X376337Y447292D01*
X376311Y447527D01*
X376219Y447618D01*
X376089Y447670D01*
X375907Y447696D01*
X373756Y447683D01*
X371566Y447709D01*
X371474Y447774D01*
X371435Y447813D01*
X371409Y448074D01*
X371435Y448152D01*
X371461Y450160D01*
X371501Y450199D01*
X371605Y450225D01*
X372022Y450199D01*
X373743Y450225D01*
X373834Y450290D01*
X373886Y450473D01*
X373899Y452232D01*
X373860Y452454D01*
X373821Y452493D01*
X373717Y452519D01*
X373534Y452545D01*
D02*
G37*
G36*
X310441D02*
X308408Y452519D01*
X308343Y452454D01*
X308330Y452311D01*
X308356Y450329D01*
X308434Y450199D01*
X308551Y450186D01*
X308903Y450225D01*
X309086Y450199D01*
X309855Y450212D01*
X310468Y450199D01*
X310611Y450290D01*
Y450316D01*
X310624Y450329D01*
X310663Y450368D01*
X310689Y450629D01*
X310663Y450890D01*
X310689Y451229D01*
X310663Y451333D01*
X310676Y451998D01*
X310663Y452167D01*
X310689Y452245D01*
X310702Y452363D01*
X310663Y452454D01*
X310624Y452493D01*
X310441Y452545D01*
D02*
G37*
G36*
X305644D02*
X303585Y452519D01*
X303467Y452428D01*
X303454Y452311D01*
X303480Y452206D01*
X303493Y451880D01*
X303467Y451802D01*
X303493Y451307D01*
X303467Y451072D01*
X303493Y450994D01*
Y450785D01*
Y450759D01*
X303467Y450551D01*
X303441Y450473D01*
X303520Y450342D01*
X303663Y450199D01*
X303767Y450173D01*
X303924Y450199D01*
X304002Y450225D01*
X304341Y450199D01*
X305749Y450225D01*
X305788Y450264D01*
X305840Y450394D01*
X305814Y452454D01*
X305749Y452519D01*
X305644Y452545D01*
D02*
G37*
G36*
X300769D02*
X298683Y452519D01*
X298618Y452454D01*
X298592Y452350D01*
Y451646D01*
Y451620D01*
X298618Y451516D01*
X298592Y450864D01*
X298605Y450069D01*
X298592Y447918D01*
X298657Y447800D01*
X298762Y447774D01*
X300847Y447800D01*
X300938Y447865D01*
X300991Y448074D01*
X300965Y448283D01*
X300991Y448361D01*
X300965Y448465D01*
X300978Y449912D01*
X300912Y450134D01*
X300938Y450473D01*
X300965Y450551D01*
X300991Y450890D01*
X300978Y451920D01*
X300991Y452376D01*
X300899Y452493D01*
X300769Y452545D01*
D02*
G37*
G36*
X378488D02*
X376480Y452519D01*
X376415Y452454D01*
X376389Y452350D01*
Y450812D01*
Y450785D01*
X376415Y447839D01*
X376480Y447774D01*
X376663Y447748D01*
X376741Y447774D01*
X378553Y447761D01*
X378683Y447839D01*
X378735Y448048D01*
X378709Y448152D01*
X378722Y449860D01*
X378683Y450212D01*
X378709Y450707D01*
X378722Y451711D01*
X378696Y452415D01*
X378631Y452506D01*
X378488Y452545D01*
D02*
G37*
G36*
X383128Y447722D02*
X383050Y447696D01*
X381603Y447709D01*
X381290Y447657D01*
X381225Y447644D01*
X381147Y447670D01*
X380886Y447696D01*
X379048Y447709D01*
X378918Y447631D01*
X378892Y447579D01*
X378840Y447448D01*
X378814Y447266D01*
X378827Y446027D01*
X378814Y445571D01*
X378840Y445493D01*
X378918Y445363D01*
X378957Y445323D01*
X379218Y445298D01*
X380534Y445311D01*
X380782Y445298D01*
X380860Y445323D01*
X381121Y445298D01*
X381212Y445232D01*
X381238Y445128D01*
X381212Y444633D01*
X381238Y444268D01*
X381212Y444189D01*
X381225Y443655D01*
X381212Y443251D01*
X381238Y443173D01*
X381343Y442990D01*
X381382Y442951D01*
X381512Y442899D01*
X383506Y442912D01*
X383598Y442847D01*
X383663Y442703D01*
X383689Y440565D01*
X383754Y440500D01*
X383937Y440474D01*
X384197Y440500D01*
X385162Y440474D01*
X385514Y440487D01*
X385762Y440474D01*
X385944Y440578D01*
X385983Y440618D01*
X386035Y440826D01*
X386009Y441374D01*
X386035Y441452D01*
X386009Y441556D01*
X386022Y442299D01*
X385996Y442716D01*
X385983Y443068D01*
X386009Y443147D01*
X386022Y443864D01*
X386009Y444111D01*
X386035Y444189D01*
X386009Y444268D01*
X386035Y444607D01*
X386009Y445128D01*
X385944Y445219D01*
X385762Y445271D01*
X385501D01*
X383819Y445258D01*
X383689Y445311D01*
X383637Y445363D01*
X383611Y445467D01*
X383624Y446080D01*
X383611Y446927D01*
X383637Y447005D01*
X383598Y447409D01*
X383572Y447514D01*
X383532Y447553D01*
X383506Y447605D01*
X383467Y447644D01*
X383337Y447696D01*
X383128Y447722D01*
D02*
G37*
G36*
X307730Y450121D02*
X307652Y450095D01*
X306035Y450069D01*
X305918Y450003D01*
X305892Y449899D01*
X305866Y447787D01*
X305775Y447696D01*
X305644Y447670D01*
X305566Y447696D01*
X305227Y447722D01*
X305045Y447696D01*
X304119Y447709D01*
X303754Y447683D01*
X303650Y447657D01*
X303402Y447644D01*
X303272Y447696D01*
X303063Y447722D01*
X302985Y447696D01*
X301160Y447670D01*
X301121Y447631D01*
X301069Y447500D01*
X301043Y447292D01*
X301069Y447214D01*
X301056Y443186D01*
X301082Y443055D01*
X301147Y442964D01*
X301186Y442925D01*
X301290Y442899D01*
X303181Y442886D01*
X303272Y442951D01*
X303311Y442990D01*
X303363Y443120D01*
X303389Y443303D01*
X303376Y445193D01*
X303402Y445245D01*
X303454Y445271D01*
X303533Y445298D01*
X304080Y445323D01*
X304158Y445298D01*
X305749Y445323D01*
X306752Y445311D01*
X307313Y445323D01*
X307391Y445298D01*
X308043Y445323D01*
X308890Y445311D01*
X309477Y445323D01*
X309555Y445298D01*
X310011Y445311D01*
X310233Y445298D01*
X310311Y445323D01*
X310676Y445298D01*
X310767Y445206D01*
X310793Y445102D01*
X310780Y444828D01*
X310793Y442912D01*
X310702Y442821D01*
X310520Y442795D01*
X309412Y442808D01*
X308643Y442795D01*
X308564Y442821D01*
X308434Y442795D01*
X308343Y442703D01*
X308369Y440565D01*
X308434Y440500D01*
X308538Y440474D01*
X308877Y440500D01*
X308955Y440474D01*
X311367Y440487D01*
X311954Y440474D01*
X312032Y440500D01*
X312997Y440474D01*
X313114Y440592D01*
X313101Y441491D01*
X313127Y442743D01*
X313166Y442834D01*
X313205Y442899D01*
X313309Y442925D01*
X313570Y442899D01*
X315395Y442925D01*
X315512Y443016D01*
X315564Y443147D01*
X315578Y443420D01*
X315551Y445167D01*
X315539Y445441D01*
X315564Y445519D01*
X315578Y446914D01*
X315564Y447318D01*
X315591Y447396D01*
X315539Y447553D01*
X315499Y447618D01*
X315369Y447670D01*
X315265Y447696D01*
X315082Y447722D01*
X315004Y447696D01*
X313505Y447709D01*
X313231Y447696D01*
X313140Y447787D01*
X313114Y447892D01*
X313088Y450003D01*
X313023Y450069D01*
X312918Y450095D01*
X310911Y450069D01*
X310819Y450003D01*
X310767Y449795D01*
X310793Y449691D01*
X310767Y447813D01*
X310676Y447722D01*
X310572Y447696D01*
X308760Y447709D01*
X308408Y447696D01*
X308317Y447761D01*
X308265Y447892D01*
Y447944D01*
Y447970D01*
X308291Y448465D01*
X308265Y449977D01*
X308199Y450042D01*
X307991Y450095D01*
X307730Y450121D01*
D02*
G37*
G36*
X378488Y445271D02*
X376480Y445245D01*
X376415Y445180D01*
X376389Y444763D01*
X376415Y443068D01*
X376493Y442938D01*
X376532Y442899D01*
X378566Y442925D01*
X378657Y443016D01*
X378709Y443147D01*
X378735Y443642D01*
X378709Y444372D01*
Y444398D01*
X378722Y444985D01*
X378696Y445141D01*
X378631Y445232D01*
X378488Y445271D01*
D02*
G37*
G36*
X329943D02*
X325406Y445245D01*
X325367Y445128D01*
X325341Y444867D01*
X325367Y443042D01*
X325459Y442899D01*
X325641Y442873D01*
X325719Y442899D01*
X327570Y442925D01*
X327649Y442951D01*
X327961Y442925D01*
X328040Y442899D01*
X328300Y442925D01*
X328561Y442899D01*
X329982Y442886D01*
X330060Y442938D01*
X330112Y443068D01*
X330125Y443316D01*
X330112Y444554D01*
X330138Y444633D01*
X330112Y444919D01*
Y444945D01*
X330086Y445206D01*
X330047Y445245D01*
X329943Y445271D01*
D02*
G37*
G36*
X322695D02*
X320609Y445245D01*
X320518Y445180D01*
X320492Y445076D01*
X320505Y444776D01*
X320492Y444294D01*
X320518Y444216D01*
X320492Y444007D01*
Y443981D01*
X320518Y443068D01*
X320662Y442925D01*
X320844Y442899D01*
X321157Y442925D01*
X321235Y442899D01*
X321796Y442912D01*
X322069Y442873D01*
X322147Y442899D01*
X322747Y442925D01*
X322812Y442990D01*
X322838Y443094D01*
X322864Y443277D01*
X322838Y443459D01*
X322864Y443772D01*
X322838Y443851D01*
X322864Y444502D01*
X322838Y445180D01*
X322799Y445245D01*
X322695Y445271D01*
D02*
G37*
G36*
X324729Y442821D02*
X323803Y442808D01*
X323373Y442821D01*
X323295Y442795D01*
X322982Y442769D01*
X322917Y442703D01*
X322891Y442599D01*
X322904Y440578D01*
X322864Y440487D01*
X322773Y440396D01*
X322591Y440370D01*
X322408Y440396D01*
X320635Y440370D01*
X320557Y440344D01*
X319918Y440383D01*
X318263Y440396D01*
X318185Y440370D01*
X317911Y440357D01*
X317598Y440383D01*
X316021Y440396D01*
X315943Y440370D01*
X314118Y440396D01*
X313388Y440370D01*
X313335Y440318D01*
X313283Y440292D01*
X313192Y440201D01*
X313166Y440018D01*
X313192Y439836D01*
X313166Y438063D01*
X313101Y437998D01*
X312840Y437971D01*
X308421Y437985D01*
X308369Y437932D01*
X308343Y437750D01*
X308369Y435742D01*
X308434Y435625D01*
X308643Y435573D01*
X309399Y435599D01*
X309477Y435573D01*
X309555Y435599D01*
X310676Y435573D01*
X310741Y435508D01*
X310793Y435325D01*
X310780Y434243D01*
X310793Y433187D01*
X310728Y433096D01*
X310624Y433070D01*
X309659Y433096D01*
X309034Y433070D01*
X308955Y433096D01*
X308434Y433070D01*
X308369Y433005D01*
X308343Y432901D01*
X308369Y430815D01*
X308434Y430750D01*
X308812Y430763D01*
X310663Y430737D01*
X310793Y430658D01*
X310819Y430528D01*
X310793Y430450D01*
X310780Y429863D01*
X310793Y429120D01*
X310767Y429042D01*
X310780Y428377D01*
X310676Y428273D01*
X310337Y428247D01*
X308499Y428260D01*
X308408Y428221D01*
X308369Y428182D01*
X308343Y428077D01*
X308369Y425992D01*
X308460Y425900D01*
X308564Y425874D01*
X309086Y425900D01*
X309164Y425874D01*
X309946Y425900D01*
X310024Y425874D01*
X310468Y425900D01*
X310546Y425927D01*
X310702Y425900D01*
X310767Y425835D01*
X310793Y425653D01*
X310767Y423463D01*
X310676Y423372D01*
X309725Y423385D01*
X309294Y423372D01*
X309216Y423398D01*
X308460Y423372D01*
X308395Y423306D01*
X308343Y423124D01*
X308369Y421090D01*
X308434Y421025D01*
X308695Y420999D01*
X308773Y421025D01*
X309307Y421012D01*
X309920Y421025D01*
X309998Y420999D01*
X310429Y421012D01*
X310663Y420986D01*
X310767Y420908D01*
X310793Y420803D01*
X310780Y420530D01*
X310793Y419787D01*
X310767Y419709D01*
X310793Y419370D01*
X310819Y418770D01*
X310911Y418627D01*
X311041Y418574D01*
X311576Y418587D01*
X312762Y418574D01*
X312840Y418600D01*
X313127Y418574D01*
X313166Y418535D01*
X313218Y418353D01*
X313192Y418274D01*
X313166Y417962D01*
X313192Y417883D01*
X313179Y417166D01*
X313192Y416658D01*
X313166Y416580D01*
Y416554D01*
X313192Y416371D01*
X313244Y416319D01*
X313257Y416280D01*
X313309Y416254D01*
X313492Y416176D01*
X315982Y416189D01*
X317689Y416176D01*
X317768Y416202D01*
X317898Y416280D01*
X317963Y416345D01*
X317989Y416450D01*
X317963Y418405D01*
X317898Y418470D01*
X317728Y418509D01*
X317533Y418522D01*
X317455Y418496D01*
X316829Y418522D01*
X316751Y418496D01*
X316282Y418522D01*
X316203Y418496D01*
X316008Y418509D01*
X315760Y418496D01*
X315630Y418574D01*
X315591Y418614D01*
X315564Y418718D01*
X315578Y419461D01*
X315551Y420816D01*
X315539Y421168D01*
X315564Y421247D01*
X315578Y422433D01*
X315564Y425288D01*
X315591Y425366D01*
X315564Y425470D01*
X315591Y425809D01*
X315682Y425900D01*
X315786Y425927D01*
X315864Y425900D01*
X315969Y425874D01*
X316594Y425900D01*
X316673Y425874D01*
X317168Y425900D01*
X317350Y425874D01*
X317715Y425900D01*
X317898Y426005D01*
X317963Y426070D01*
X317989Y426174D01*
X318002Y428090D01*
X317937Y428182D01*
X317820Y428221D01*
X317715Y428247D01*
X313205Y428273D01*
X313140Y428312D01*
X313088Y428494D01*
X313114Y428755D01*
X313101Y430672D01*
X313179Y430750D01*
X313349Y430763D01*
X315369Y430750D01*
X315447Y430776D01*
X315499Y430802D01*
X315564Y430867D01*
X315591Y430971D01*
X315564Y431154D01*
X315578Y431427D01*
X315551Y432966D01*
X315499Y433044D01*
X315395Y433070D01*
X315056Y433096D01*
X313218Y433083D01*
X313140Y433161D01*
X313114Y433344D01*
X313140Y435508D01*
X313205Y435599D01*
X313309Y435625D01*
X313414Y435599D01*
X313596Y435573D01*
X313674Y435599D01*
X315473Y435625D01*
X315539Y435690D01*
X315564Y435794D01*
X315591Y437958D01*
X315630Y437998D01*
X315734Y438024D01*
X315851Y438037D01*
X317963Y438010D01*
X318054Y437945D01*
X318093Y437802D01*
X318067Y437541D01*
X318093Y435742D01*
X318159Y435625D01*
X318289Y435573D01*
X319175Y435599D01*
X319593Y435573D01*
X319853Y435599D01*
X320662Y435625D01*
X320740Y435599D01*
X321313Y435573D01*
X322043Y435599D01*
X323151Y435612D01*
X324220Y435586D01*
X324285Y435573D01*
X324364Y435599D01*
X325002Y435586D01*
X325133Y435612D01*
X325224Y435651D01*
X325263Y435690D01*
X325289Y435873D01*
X325276Y438050D01*
X325289Y440174D01*
X325263Y440253D01*
X325289Y440826D01*
X325315Y440905D01*
X325289Y441165D01*
X325302Y442664D01*
X325250Y442743D01*
X325067Y442795D01*
X324729Y442821D01*
D02*
G37*
G36*
X305644D02*
X305149Y442795D01*
X304967Y442821D01*
X304549Y442795D01*
X304106Y442821D01*
X304028Y442795D01*
X303754Y442808D01*
X303624Y442782D01*
X303480Y442690D01*
X303441Y442573D01*
X303493Y442443D01*
X303480Y441986D01*
X303493Y441843D01*
X303467Y441765D01*
X303493Y441191D01*
X303467Y440930D01*
X303493Y440513D01*
X303467Y440461D01*
X303402Y440396D01*
X301160Y440370D01*
X301121Y440331D01*
X301069Y440201D01*
X301043Y438089D01*
X300978Y438024D01*
X300769Y437971D01*
X300065Y437998D01*
X299987Y437971D01*
X298683Y437945D01*
X298644Y437906D01*
X298618Y437802D01*
X298592Y437150D01*
X298605Y436485D01*
X298592Y435847D01*
X298709Y435625D01*
X298918Y435573D01*
X299387Y435599D01*
X299466Y435573D01*
X300352Y435599D01*
X301199Y435612D01*
X303024Y435586D01*
X303168Y435573D01*
X303246Y435599D01*
X303350Y435625D01*
X303428Y435651D01*
X303715Y435625D01*
X303793Y435599D01*
X304367Y435573D01*
X305097Y435599D01*
X305644Y435573D01*
X305775Y435651D01*
X305814Y435768D01*
X305840Y435873D01*
X305827Y437841D01*
X305853Y437945D01*
X305931Y438024D01*
X306101Y438037D01*
X307235Y438024D01*
X307261D01*
X308147Y438050D01*
X308265Y438115D01*
X308291Y438219D01*
X308265Y440227D01*
X308147Y440344D01*
X307939Y440396D01*
X305996Y440383D01*
X305905Y440448D01*
X305866Y440487D01*
X305840Y440592D01*
X305814Y442729D01*
X305749Y442795D01*
X305644Y442821D01*
D02*
G37*
G36*
X300639D02*
X300352Y442795D01*
X300326D01*
X299870Y442808D01*
X298722Y442782D01*
X298631Y442716D01*
X298592Y442573D01*
X298605Y441335D01*
X298592Y440670D01*
X298670Y440540D01*
X298709Y440500D01*
X298814Y440474D01*
X299426Y440487D01*
X300117Y440474D01*
X300196Y440500D01*
X300730Y440487D01*
X300860Y440540D01*
X300938Y440592D01*
X300991Y440722D01*
X301004Y440891D01*
X300965Y441921D01*
X300991Y441999D01*
X300965Y442651D01*
X300847Y442769D01*
X300639Y442821D01*
D02*
G37*
G36*
X380886Y440422D02*
X380808Y440396D01*
X379726Y440383D01*
X379035Y440396D01*
X378905Y440318D01*
X378840Y440174D01*
X378814Y439992D01*
X378827Y437398D01*
X378814Y437046D01*
Y437020D01*
X378827Y436146D01*
X378814Y435847D01*
X378918Y435664D01*
X379035Y435599D01*
X379218Y435573D01*
X379713Y435599D01*
X380013Y435586D01*
X380860Y435599D01*
X380938Y435573D01*
X381069Y435599D01*
X381134Y435664D01*
X381160Y435768D01*
X381134Y440305D01*
X381069Y440396D01*
X380886Y440422D01*
D02*
G37*
G36*
X334766Y440396D02*
X332511Y440383D01*
X330516Y440396D01*
X330438Y440370D01*
X330334Y440344D01*
X330217Y440227D01*
X330191Y440044D01*
X330204Y438206D01*
X330177Y438102D01*
X330125Y438024D01*
X329943Y437971D01*
X328418Y437985D01*
X328222Y437971D01*
X328144Y437998D01*
X327909Y437971D01*
X327844Y437906D01*
X327818Y437802D01*
X327792Y437541D01*
X327818Y435794D01*
X327909Y435625D01*
X328040Y435573D01*
X329004Y435599D01*
X330399Y435612D01*
X331077Y435586D01*
X331273Y435573D01*
X331351Y435599D01*
X333880Y435573D01*
X333906D01*
X333984Y435599D01*
X334975Y435573D01*
X335066Y435482D01*
X335092Y435299D01*
X335079Y433904D01*
X335105Y433331D01*
X335170Y433240D01*
X335209Y433200D01*
X335392Y433174D01*
X335470Y433200D01*
X337178Y433187D01*
X337282Y433213D01*
X337360Y433266D01*
X337386Y433370D01*
X337412Y433552D01*
X337386Y437854D01*
X337295Y437971D01*
X337060Y437998D01*
X336982Y437971D01*
X335131Y437998D01*
X335014Y438089D01*
X334988Y438193D01*
X335001Y438545D01*
X334975Y440135D01*
X334949Y440240D01*
X334910Y440279D01*
X334883Y440331D01*
X334766Y440396D01*
D02*
G37*
G36*
X342040Y435521D02*
X341779D01*
X340006Y435495D01*
X339941Y435456D01*
X339889Y435325D01*
X339915Y435065D01*
X339941Y433318D01*
X340006Y433252D01*
X340189Y433200D01*
X342144Y433226D01*
X342288Y433344D01*
X342314Y433526D01*
X342288Y433605D01*
X342314Y434022D01*
X342288Y434100D01*
X342301Y434478D01*
X342288Y434700D01*
X342314Y434778D01*
X342288Y435429D01*
X342144Y435495D01*
X342040Y435521D01*
D02*
G37*
G36*
X317689D02*
X316229D01*
X315682Y435495D01*
X315643Y435456D01*
X315617Y435351D01*
X315591Y435065D01*
X315617Y434986D01*
X315643Y433292D01*
X315734Y433200D01*
X317820Y433226D01*
X317963Y433344D01*
X317989Y433448D01*
X318002Y434217D01*
X317976Y435390D01*
X317872Y435495D01*
X317689Y435521D01*
D02*
G37*
G36*
X308017D02*
X306401D01*
X306009Y435495D01*
X305892Y435403D01*
X305866Y435221D01*
X305892Y434804D01*
X305905Y434321D01*
X305879Y434113D01*
X305866Y434074D01*
X305892Y433996D01*
X305879Y433435D01*
X305905Y433331D01*
X305983Y433252D01*
X306166Y433200D01*
X308121Y433226D01*
X308265Y433344D01*
X308291Y433448D01*
X308278Y433774D01*
X308291Y434387D01*
X308265Y434465D01*
X308291Y435403D01*
X308225Y435469D01*
X308017Y435521D01*
D02*
G37*
G36*
X390741D02*
X388629Y435495D01*
X388512Y435403D01*
X388538Y434673D01*
X388512Y434334D01*
X388538Y433370D01*
X388629Y433252D01*
X388760Y433200D01*
X388916Y433174D01*
X388994Y433200D01*
X389633Y433187D01*
X390754Y433213D01*
X390845Y433279D01*
X390859Y433292D01*
X390872Y433305D01*
X390911Y433448D01*
X390924Y435312D01*
X390898Y435443D01*
X390845Y435495D01*
X390741Y435521D01*
D02*
G37*
G36*
X327518D02*
X325406Y435495D01*
X325367Y435456D01*
X325341Y435195D01*
Y434882D01*
Y434856D01*
X325367Y433318D01*
X325459Y433200D01*
X325615Y433174D01*
X325693Y433200D01*
X327427Y433187D01*
X327531Y433213D01*
X327622Y433279D01*
X327688Y433422D01*
X327701Y435364D01*
X327649Y435469D01*
X327518Y435521D01*
D02*
G37*
G36*
X376572Y435534D02*
X376467Y435508D01*
X376415Y435456D01*
X376389Y435351D01*
X376415Y433292D01*
X376506Y433174D01*
X377236Y433200D01*
X378592Y433226D01*
X378683Y433318D01*
X378709Y433422D01*
X378722Y435390D01*
X378657Y435482D01*
X378540Y435521D01*
X377132D01*
X376572Y435534D01*
D02*
G37*
G36*
X380965Y433096D02*
X380221Y433083D01*
X379687Y433096D01*
X379609Y433070D01*
X379022Y433083D01*
X378879Y432992D01*
X378814Y432822D01*
X378840Y432483D01*
X378814Y432066D01*
X378840Y431441D01*
X378814Y431362D01*
X378840Y430867D01*
X378879Y430802D01*
X379009Y430750D01*
X380743Y430763D01*
X381069Y430750D01*
X381134Y430815D01*
X381160Y430919D01*
X381186Y432822D01*
Y432848D01*
X381121Y433018D01*
X381069Y433070D01*
X380965Y433096D01*
D02*
G37*
G36*
X344439D02*
X343943Y433070D01*
X343839Y433096D01*
X343122Y433083D01*
X342509Y433096D01*
X342392Y433005D01*
X342366Y432901D01*
X342379Y428429D01*
X342327Y428299D01*
X342196Y428247D01*
X339954Y428273D01*
X339889Y428312D01*
X339863Y428416D01*
X339837Y430554D01*
X339746Y430672D01*
X339641Y430698D01*
X339394Y430685D01*
X338442Y430698D01*
X338364Y430672D01*
X337869Y430698D01*
X337569Y430632D01*
X337477Y430619D01*
X337399Y430645D01*
X337191Y430698D01*
X335144Y430685D01*
X335053Y430750D01*
X335014Y430789D01*
X334988Y430971D01*
X335001Y432053D01*
X334988Y432431D01*
X335014Y432509D01*
X334988Y432901D01*
X334870Y433044D01*
X334688Y433096D01*
X334010Y433070D01*
X333932Y433096D01*
X333241Y433083D01*
X333097Y433096D01*
X333019Y433070D01*
X330947Y433083D01*
X329734Y433070D01*
X329656Y433096D01*
X328952Y433070D01*
X328874Y433096D01*
X327961Y433070D01*
X327818Y432953D01*
X327792Y432848D01*
X327805Y430932D01*
X327779Y430828D01*
X327714Y430737D01*
X327675Y430698D01*
X327570Y430672D01*
X326762Y430698D01*
X325524Y430685D01*
X325393Y430710D01*
X325315Y430789D01*
X325289Y430893D01*
X325302Y432914D01*
X325237Y433005D01*
X325198Y433044D01*
X324937Y433070D01*
X324755Y433096D01*
X324677Y433070D01*
X324129Y433096D01*
X324051Y433070D01*
X323347Y433096D01*
X323269Y433070D01*
X321483Y433083D01*
X321000Y433070D01*
X320922Y433096D01*
X320544Y433057D01*
X320427Y433044D01*
X320349Y433070D01*
X320153Y433083D01*
X319697Y433070D01*
X319619Y433096D01*
X318719Y433083D01*
X318237Y433096D01*
X318093Y432979D01*
X318067Y432796D01*
X318080Y431167D01*
X318067Y430867D01*
X318185Y430750D01*
X322799Y430724D01*
X322891Y430658D01*
X322917Y430554D01*
X322891Y430137D01*
X322904Y427986D01*
X322891Y426070D01*
X322917Y425992D01*
X322891Y424167D01*
X322917Y423593D01*
X322956Y423528D01*
X323164Y423476D01*
X327570Y423502D01*
X327688Y423593D01*
X327714Y423697D01*
X327688Y423958D01*
X327662Y425783D01*
X327636Y425861D01*
X327662Y425966D01*
X327688Y426226D01*
X327675Y428038D01*
X327701Y428169D01*
X327766Y428260D01*
X327883Y428299D01*
X330047Y428325D01*
X330086Y428364D01*
X330112Y428468D01*
X330125Y430359D01*
X330112Y430632D01*
X330204Y430750D01*
X330373Y430763D01*
X331246Y430750D01*
X331325Y430776D01*
X331507Y430750D01*
X332433Y430763D01*
X332537Y430737D01*
X332615Y430685D01*
X332641Y430580D01*
X332615Y430085D01*
X332641Y429746D01*
X332628Y429029D01*
X332641Y425992D01*
X332615Y425913D01*
X332589Y425861D01*
X332524Y425796D01*
X332420Y425770D01*
X332237Y425796D01*
X330360Y425770D01*
X330243Y425705D01*
X330217Y425653D01*
X330191Y425574D01*
X330217Y423593D01*
X330308Y423502D01*
X330490Y423476D01*
X337178Y423463D01*
X337308Y423489D01*
X337360Y423541D01*
X337412Y423750D01*
X337399Y424414D01*
X337412Y424975D01*
X337386Y425053D01*
X337412Y425314D01*
X337386Y425679D01*
X337321Y425770D01*
X337217Y425796D01*
X335105Y425822D01*
X335014Y425913D01*
X334988Y426018D01*
X335001Y426239D01*
X334988Y427712D01*
X335014Y427791D01*
X334988Y427973D01*
X335014Y428182D01*
X335105Y428273D01*
X335288Y428325D01*
X335548Y428299D01*
X337399Y428273D01*
X337464Y428208D01*
X337491Y428103D01*
X337517Y426044D01*
X337608Y425952D01*
X337790Y425900D01*
X337895Y425874D01*
X338599Y425900D01*
X338677Y425874D01*
X339120Y425900D01*
X339198Y425874D01*
X339811Y425913D01*
X340059Y425927D01*
X340137Y425900D01*
X340815Y425874D01*
X340893Y425900D01*
X341610Y425887D01*
X342105Y425913D01*
X342379Y425927D01*
X342457Y425900D01*
X343148Y425887D01*
X343396Y425900D01*
X343474Y425874D01*
X343969Y425900D01*
X344152Y425874D01*
X344491Y425900D01*
X344569Y425927D01*
X344699Y425900D01*
X344764Y425861D01*
X344817Y425731D01*
X344804Y425170D01*
X344817Y425157D01*
X344790Y425079D01*
X344817Y424427D01*
X344790Y424245D01*
X344817Y424062D01*
X344790Y423463D01*
X344699Y423372D01*
X343695Y423385D01*
X342718Y423372D01*
X342640Y423398D01*
X342483Y423372D01*
X342392Y423280D01*
X342366Y423098D01*
X342392Y418744D01*
X342470Y418614D01*
X342509Y418574D01*
X344582Y418587D01*
X344712Y418535D01*
X344790Y418457D01*
X344817Y418274D01*
X344790Y417388D01*
X344817Y416371D01*
X344843Y416293D01*
X344869Y416111D01*
X344843Y416032D01*
X344804Y415863D01*
X344790Y415667D01*
X344817Y415589D01*
X344804Y411874D01*
X344817Y410792D01*
X344790Y410714D01*
X344817Y410531D01*
X344804Y409319D01*
X344817Y408915D01*
X344725Y408798D01*
X344621Y408772D01*
X340033Y408745D01*
X339941Y408680D01*
X339915Y408576D01*
X339889Y406490D01*
X339798Y406373D01*
X339694Y406347D01*
X338964Y406373D01*
X337960Y406360D01*
X337764Y406373D01*
X337582Y406243D01*
X337543Y406203D01*
X337491Y406073D01*
X337517Y404144D01*
X337608Y404026D01*
X337790Y404001D01*
X342170Y404026D01*
X342288Y404118D01*
X342301Y404287D01*
X342288Y404457D01*
X342314Y404535D01*
X342301Y404913D01*
X342314Y405917D01*
X342288Y405995D01*
X342314Y406360D01*
X342379Y406425D01*
X342483Y406451D01*
X342601Y406464D01*
X343005Y406451D01*
X343083Y406477D01*
X343500Y406451D01*
X343943Y406477D01*
X344021Y406451D01*
X344725Y406425D01*
X344790Y406360D01*
X344817Y406256D01*
X344804Y405121D01*
X344817Y404613D01*
X344790Y404535D01*
X344817Y404431D01*
X344843Y404066D01*
X344882Y404026D01*
X344986Y404001D01*
X346954Y403987D01*
X347059Y404013D01*
X347111Y404066D01*
X347137Y404170D01*
X347163Y408759D01*
X347254Y408876D01*
X347359Y408902D01*
X347619Y408876D01*
X349392Y408902D01*
X349535Y409019D01*
X349588Y409150D01*
X349614Y409332D01*
X349588Y409749D01*
X349614Y410088D01*
X349588Y410166D01*
X349601Y411066D01*
X349575Y411170D01*
X349444Y411222D01*
X349066Y411235D01*
X347671Y411222D01*
X347593Y411248D01*
X347411Y411222D01*
X347202Y411248D01*
X347137Y411314D01*
X347111Y411418D01*
X347150Y411639D01*
X347163Y411679D01*
X347137Y411757D01*
X347124Y413569D01*
X347176Y413699D01*
X347306Y413751D01*
X347684Y413738D01*
X349027Y413751D01*
X349105Y413725D01*
X349444Y413751D01*
X349562Y413790D01*
X349614Y413921D01*
X349588Y414259D01*
X349575Y416332D01*
X349601Y416593D01*
X349614Y416788D01*
X349588Y416867D01*
X349601Y418079D01*
X349588Y418405D01*
X349653Y418548D01*
X349705Y418574D01*
X349783Y418600D01*
X350279Y418574D01*
X351386Y418587D01*
X351739Y418574D01*
X351869Y418653D01*
X351960Y418744D01*
X352012Y418926D01*
X351986Y419265D01*
X352012Y419343D01*
X351986Y420699D01*
X352012Y420908D01*
X352077Y420973D01*
X352390Y421025D01*
X352573Y420999D01*
X353681Y421012D01*
X354267Y420999D01*
X354411Y421116D01*
Y421273D01*
Y421299D01*
X354424Y423137D01*
X354372Y423267D01*
X354294Y423345D01*
X354111Y423398D01*
X352860Y423372D01*
X352781Y423398D01*
X352442Y423372D01*
X352051Y423398D01*
X351986Y423463D01*
X351973Y423606D01*
X351999Y423815D01*
X352012Y424245D01*
X351986Y424323D01*
X351999Y425275D01*
X351986Y425340D01*
X352012Y425418D01*
X351986Y425653D01*
X351895Y425744D01*
X351712Y425796D01*
X349874Y425783D01*
X349744Y425809D01*
X349614Y425887D01*
X349588Y425992D01*
X349575Y428560D01*
X349601Y430228D01*
X349614Y430345D01*
X349588Y430424D01*
X349483Y430606D01*
X349444Y430645D01*
X349236Y430698D01*
X347411Y430672D01*
X347293Y430554D01*
X347267Y430502D01*
X347215Y430372D01*
X347189Y430189D01*
X347215Y429407D01*
X347189Y429329D01*
X347202Y428794D01*
X347189Y428599D01*
X347215Y428521D01*
X347228Y428429D01*
X347189Y428338D01*
X347124Y428273D01*
X346941Y428247D01*
X344804Y428273D01*
X344751Y428325D01*
X344712Y428338D01*
X344686Y428442D01*
X344699Y428742D01*
X344686Y428964D01*
X344712Y429042D01*
X344686Y429590D01*
X344712Y429668D01*
X344686Y430632D01*
X344699Y431558D01*
X344686Y432092D01*
X344712Y432171D01*
X344686Y432901D01*
X344569Y433044D01*
X344439Y433096D01*
D02*
G37*
G36*
X356666Y430698D02*
X356197Y430672D01*
X356119Y430698D01*
X355688Y430685D01*
X354815Y430698D01*
X354737Y430672D01*
X354606Y430593D01*
X354567Y430554D01*
X354515Y430345D01*
X354502Y428872D01*
X354528Y428586D01*
X354541Y428416D01*
X354450Y428299D01*
X354267Y428247D01*
X352299Y428260D01*
X352195Y428234D01*
X352117Y428156D01*
X352090Y428051D01*
X352117Y426044D01*
X352234Y425900D01*
X352338Y425874D01*
X352599Y425900D01*
X352781Y425874D01*
X352964Y425900D01*
X353381Y425874D01*
X353459Y425900D01*
X353955Y425874D01*
X354489Y425887D01*
X354541Y425835D01*
X354554Y425718D01*
X354528Y425561D01*
X354489Y425236D01*
X354515Y425157D01*
X354489Y424792D01*
X354515Y424714D01*
Y424506D01*
Y424479D01*
X354502Y423684D01*
X354541Y423593D01*
X354606Y423528D01*
X354789Y423476D01*
X356848Y423450D01*
X356888Y423411D01*
X356914Y423306D01*
X356940Y421116D01*
X357005Y421051D01*
X357109Y421025D01*
X361476Y421012D01*
X361606Y421038D01*
X361659Y421064D01*
X361685Y421116D01*
X361711Y421194D01*
X361737Y423411D01*
X361880Y423476D01*
X364031Y423463D01*
X364109Y423515D01*
X364161Y423723D01*
X364148Y424492D01*
X364161Y425262D01*
X364135Y425340D01*
X364161Y425574D01*
X364109Y425731D01*
X364044Y425796D01*
X361919Y425783D01*
X361815Y425809D01*
X361737Y425861D01*
X361711Y425966D01*
X361685Y428156D01*
X361619Y428221D01*
X361515Y428247D01*
X356953Y428273D01*
X356888Y428338D01*
X356861Y428442D01*
X356888Y428703D01*
X356875Y429003D01*
X356888Y430320D01*
X356861Y430398D01*
X356836Y430606D01*
X356770Y430672D01*
X356666Y430698D01*
D02*
G37*
G36*
X339668Y423398D02*
X339289Y423385D01*
X339250Y423398D01*
X339172Y423372D01*
X337829Y423385D01*
X337699Y423358D01*
X337556Y423267D01*
X337517Y423228D01*
X337491Y423046D01*
X337504Y422276D01*
X337491Y421925D01*
X337517Y421846D01*
X337491Y421664D01*
X337517Y421273D01*
X337491Y421194D01*
X337464Y421090D01*
X337399Y420999D01*
X337217Y420973D01*
X335183Y420947D01*
X335118Y420882D01*
X335092Y420699D01*
X335079Y419591D01*
X335105Y418757D01*
X335196Y418614D01*
X335314Y418574D01*
X337347Y418600D01*
X337425Y418627D01*
X337530Y418653D01*
X337725Y418614D01*
X338077Y418574D01*
X339315Y418587D01*
X339720Y418574D01*
X339785Y418614D01*
X339837Y418744D01*
X339863Y418926D01*
Y422811D01*
Y422837D01*
X339837Y423280D01*
X339772Y423372D01*
X339668Y423398D01*
D02*
G37*
G36*
X322721Y420973D02*
X320753Y420960D01*
X319697Y420973D01*
X319671D01*
X318159Y420947D01*
X318093Y420803D01*
X318067Y420465D01*
X318093Y418770D01*
X318172Y418639D01*
X318211Y418600D01*
X318315Y418574D01*
X319188Y418587D01*
X320010Y418574D01*
X320088Y418600D01*
X320349Y418574D01*
X320466Y418457D01*
X320492Y418353D01*
X320479Y416775D01*
X320505Y416515D01*
X320531Y416358D01*
X320557Y416228D01*
X320570Y416111D01*
X320544Y416032D01*
X320492Y415850D01*
X320479Y413908D01*
X320518Y413816D01*
X320557Y413777D01*
X320766Y413725D01*
X321261Y413751D01*
X324272Y413738D01*
X324650Y413751D01*
X324729Y413725D01*
X325146Y413751D01*
X325276Y413829D01*
X325315Y413947D01*
X325289Y414286D01*
X325263Y415980D01*
X325224Y416019D01*
X325120Y416045D01*
X324859Y416072D01*
X323256Y416085D01*
X323151Y416059D01*
X322982Y416045D01*
X322891Y416111D01*
X322851Y416280D01*
X322838Y416606D01*
X322864Y416684D01*
X322838Y417258D01*
X322864Y417336D01*
X322851Y417714D01*
X322864Y418014D01*
X322838Y418092D01*
X322851Y418835D01*
X322838Y419969D01*
X322864Y420047D01*
X322838Y420308D01*
X322812Y420882D01*
X322721Y420973D01*
D02*
G37*
G36*
X380912Y420999D02*
X380834Y420973D01*
X380417Y420947D01*
X380339Y420973D01*
X376480Y420947D01*
X376441Y420908D01*
X376415Y420803D01*
X376389Y420543D01*
X376402Y418653D01*
X376324Y418522D01*
X376219Y418496D01*
X375828Y418522D01*
X375750Y418496D01*
X375177Y418522D01*
X374251Y418509D01*
X374134Y418522D01*
X374056Y418496D01*
X374003Y418470D01*
X373938Y418405D01*
X373925Y418235D01*
X373938Y417675D01*
Y417649D01*
X373925Y416541D01*
X373951Y416332D01*
X374016Y416241D01*
X374056Y416202D01*
X374238Y416176D01*
X374616Y416189D01*
X374968Y416176D01*
X375046Y416202D01*
X375125Y416176D01*
X376285Y416189D01*
X376363Y416111D01*
X376389Y415928D01*
X376402Y413908D01*
X376376Y413777D01*
X376311Y413686D01*
X376167Y413647D01*
X376063Y413673D01*
X374564Y413686D01*
X374147Y413660D01*
X374016Y413608D01*
X373964Y413556D01*
X373925Y413386D01*
X373912Y413243D01*
X373938Y413165D01*
X373964Y411418D01*
X374030Y411326D01*
X374199Y411287D01*
X374447Y411274D01*
X374525Y411300D01*
X375594Y411274D01*
X375672Y411300D01*
X376050Y411287D01*
X376428Y411300D01*
X376506Y411274D01*
X376976Y411300D01*
X377054Y411274D01*
X377601Y411300D01*
X377679Y411274D01*
X378566Y411300D01*
X378657Y411366D01*
X378709Y411496D01*
X378735Y411835D01*
X378709Y412017D01*
X378735Y412435D01*
X378709Y412513D01*
X378722Y413360D01*
X378709Y413608D01*
X378748Y413673D01*
X378879Y413725D01*
X379218Y413751D01*
X381343Y413738D01*
X383076Y413751D01*
X383154Y413725D01*
X383259Y413751D01*
X383545Y413777D01*
X383611Y413842D01*
X383637Y413947D01*
X383611Y414286D01*
X383598Y416332D01*
X383637Y416684D01*
X383611Y417023D01*
X383624Y417453D01*
X383598Y418418D01*
X383545Y418470D01*
X383441Y418496D01*
X383024Y418522D01*
X381290Y418509D01*
X381199Y418574D01*
X381160Y418614D01*
X381134Y420882D01*
X381095Y420947D01*
X380912Y420999D01*
D02*
G37*
G36*
X364044Y420973D02*
X361932Y420947D01*
X361867Y420882D01*
X361815Y420699D01*
X361828Y419748D01*
X361802Y419018D01*
X361789Y418848D01*
X361906Y418653D01*
X361959Y418627D01*
X362089Y418574D01*
X362715D01*
X363692Y418587D01*
X364018Y418574D01*
X364083Y418614D01*
X364135Y418796D01*
X364161Y418900D01*
X364135Y419865D01*
X364161Y419943D01*
X364135Y420856D01*
X364044Y420973D01*
D02*
G37*
G36*
X341910Y418522D02*
X341453Y418509D01*
X341023Y418522D01*
X340945Y418496D01*
X340267Y418522D01*
X340189Y418496D01*
X339980Y418470D01*
X339915Y418405D01*
X339889Y418222D01*
X339915Y418118D01*
X339928Y416072D01*
X339902Y411848D01*
X339889Y411783D01*
X339915Y411705D01*
Y411600D01*
Y411574D01*
X339941Y411470D01*
X340059Y411326D01*
X340319Y411300D01*
X340424Y411274D01*
X341766Y411287D01*
X341910Y411274D01*
X341988Y411300D01*
X342170Y411326D01*
X342235Y411392D01*
X342288Y411522D01*
X342314Y411939D01*
X342301Y413021D01*
X342314Y413191D01*
X342288Y413269D01*
X342262Y413686D01*
X342288Y414025D01*
X342314Y414286D01*
X342288Y414546D01*
X342314Y414624D01*
X342301Y415628D01*
X342314Y415850D01*
X342288Y415928D01*
X342235Y416111D01*
X342262Y416397D01*
X342288Y416476D01*
X342314Y416814D01*
X342301Y417896D01*
X342314Y418353D01*
X342223Y418444D01*
X342092Y418496D01*
X341910Y418522D01*
D02*
G37*
G36*
X361463D02*
X361176Y418496D01*
X361150D01*
X361046Y418522D01*
X358139Y418509D01*
X357422Y418522D01*
X357344Y418496D01*
X357174Y418509D01*
X357018Y418483D01*
X356940Y418405D01*
X356914Y418222D01*
X356927Y415941D01*
X356914Y413842D01*
X356979Y413777D01*
X357083Y413751D01*
X357852Y413738D01*
X358335Y413751D01*
X358413Y413725D01*
X359130Y413738D01*
X359456Y413725D01*
X359534Y413751D01*
X361528Y413738D01*
X361659Y413790D01*
X361711Y413921D01*
X361685Y416059D01*
X361659Y416137D01*
X361685Y416476D01*
X361711Y416580D01*
X361698Y418079D01*
X361711Y418379D01*
X361646Y418470D01*
X361463Y418522D01*
D02*
G37*
G36*
X354215D02*
X353642Y418496D01*
X353225Y418522D01*
X352977Y418509D01*
X352599Y418522D01*
X352547Y418496D01*
X352468Y418522D01*
X352208Y418496D01*
X352117Y418431D01*
X352090Y418327D01*
X352117Y416319D01*
X352234Y416176D01*
X352351Y416163D01*
X352481Y416189D01*
X352651Y416202D01*
X352729Y416176D01*
X354020Y416189D01*
X354150Y416163D01*
X354241Y416150D01*
X354385Y416267D01*
X354437Y416528D01*
X354411Y416606D01*
Y417101D01*
Y417127D01*
X354424Y418340D01*
X354385Y418431D01*
X354320Y418496D01*
X354215Y418522D01*
D02*
G37*
G36*
X307991Y420973D02*
X306035Y420947D01*
X305918Y420830D01*
X305892Y420334D01*
Y418744D01*
Y418718D01*
X305879Y417818D01*
X305892Y416658D01*
X305866Y416580D01*
X305892Y416345D01*
X306009Y416228D01*
X306179Y416189D01*
X306557Y416176D01*
X306635Y416202D01*
X306974Y416176D01*
X308682Y416189D01*
X310468Y416176D01*
X310611Y416293D01*
X310663Y416345D01*
X310689Y416450D01*
X310663Y416867D01*
X310689Y417127D01*
X310676Y417453D01*
X310689Y417779D01*
X310663Y417857D01*
X310689Y418353D01*
X310598Y418470D01*
X310389Y418522D01*
X310207Y418496D01*
X309477Y418522D01*
X309412Y418509D01*
X309138Y418522D01*
X309060Y418496D01*
X308408Y418522D01*
X308356Y418574D01*
X308317Y418587D01*
X308265Y418770D01*
X308291Y418874D01*
X308278Y419930D01*
X308291Y420282D01*
X308265Y420360D01*
X308239Y420882D01*
X308199Y420921D01*
X307991Y420973D01*
D02*
G37*
G36*
X373534Y416072D02*
X371709Y416045D01*
X371540Y415928D01*
X371488Y415746D01*
X371514Y415667D01*
X371501Y413881D01*
X371553Y413803D01*
X371813Y413725D01*
X372205Y413751D01*
X372231D01*
X372661Y413738D01*
X372908Y413751D01*
X372987Y413725D01*
X373534Y413751D01*
X373612Y413725D01*
X373717Y413751D01*
X373847Y413777D01*
X373886Y413895D01*
X373860Y415980D01*
X373795Y416045D01*
X373534Y416072D01*
D02*
G37*
G36*
X333984Y416098D02*
X333723Y416072D01*
X332733Y416045D01*
X332641Y415954D01*
X332615Y415694D01*
X332641Y415589D01*
X332628Y413855D01*
X332693Y413764D01*
X332798Y413738D01*
X333071Y413725D01*
X333150Y413751D01*
X333554Y413738D01*
X333723Y413751D01*
X333801Y413725D01*
X334531Y413751D01*
X334610Y413725D01*
X334857Y413764D01*
X334949Y413829D01*
X334988Y413868D01*
X335014Y413973D01*
X334988Y414312D01*
Y414937D01*
Y414963D01*
X335001Y415863D01*
X334935Y415954D01*
X334870Y416019D01*
X334688Y416072D01*
X334544Y416085D01*
X334062Y416072D01*
X333984Y416098D01*
D02*
G37*
G36*
X366156Y413699D02*
X366078Y413673D01*
X364083Y413660D01*
X362154Y413686D01*
X362037Y413699D01*
X361906Y413621D01*
X361841Y413477D01*
X361815Y413295D01*
X361841Y411444D01*
X361906Y411353D01*
X362037Y411300D01*
X362297Y411274D01*
X364057Y411287D01*
X364201Y411196D01*
X364240Y411053D01*
X364214Y410792D01*
X364227Y409006D01*
X364201Y408902D01*
X364096Y408798D01*
X363914Y408772D01*
X361932Y408745D01*
X361867Y408706D01*
X361841Y408654D01*
X361815Y408576D01*
X361789Y408472D01*
X361815Y408133D01*
X361828Y406008D01*
X361815Y404144D01*
X361906Y404026D01*
X362011Y404001D01*
X363979Y403987D01*
X364109Y404040D01*
X364161Y404222D01*
X364148Y404965D01*
X364161Y406047D01*
X364135Y406125D01*
X364161Y406360D01*
X364201Y406425D01*
X364331Y406477D01*
X364905Y406451D01*
X366482Y406464D01*
X366573Y406425D01*
X366638Y406360D01*
X366664Y406177D01*
X366651Y401550D01*
X366664Y399660D01*
X366638Y399581D01*
X366664Y399295D01*
X366756Y399177D01*
X366860Y399151D01*
X367355Y399177D01*
X368893Y399203D01*
X369011Y399321D01*
X369037Y399425D01*
X369011Y399686D01*
X369037Y401485D01*
X369102Y401576D01*
X369206Y401602D01*
X369780Y401576D01*
X371253Y401563D01*
X371344Y401602D01*
X371409Y401745D01*
X371435Y402084D01*
X371409Y403857D01*
X371370Y403922D01*
X371162Y403974D01*
X370979Y403948D01*
X369154Y403974D01*
X369011Y404092D01*
X368998Y404261D01*
X369011Y405969D01*
X368985Y406047D01*
X369024Y407650D01*
X369037Y407872D01*
X369011Y407950D01*
X369024Y408485D01*
X368998Y408615D01*
X368933Y408706D01*
X368893Y408745D01*
X368789Y408772D01*
X366730Y408798D01*
X366638Y408863D01*
X366612Y408967D01*
X366599Y409058D01*
X366612Y410036D01*
X366586Y410114D01*
Y410166D01*
Y410192D01*
X366612Y410453D01*
X366586Y411679D01*
X366612Y411757D01*
X366599Y412187D01*
X366612Y413425D01*
X366508Y413608D01*
X366339Y413673D01*
X366156Y413699D01*
D02*
G37*
G36*
X355832D02*
X355754Y413673D01*
X354306Y413660D01*
X352925Y413686D01*
X352599Y413699D01*
X352521Y413673D01*
X351791Y413647D01*
X351712Y413673D01*
X350083Y413686D01*
X349822Y413660D01*
X349731Y413621D01*
X349692Y413582D01*
X349640Y413399D01*
X349653Y412891D01*
X349640Y411522D01*
X349666Y411444D01*
X349744Y411314D01*
X349887Y411274D01*
X350891Y411287D01*
X351582Y411274D01*
X351660Y411300D01*
X353055Y411287D01*
X353537Y411300D01*
X353616Y411274D01*
X354281Y411287D01*
X354385Y411261D01*
X354476Y411196D01*
X354515Y411157D01*
X354541Y411053D01*
X354515Y410714D01*
X354489Y408889D01*
X354424Y408824D01*
X354241Y408772D01*
X352273Y408785D01*
X352182Y408745D01*
X352117Y408680D01*
X352090Y408576D01*
Y408498D01*
Y408472D01*
X352117Y408237D01*
X352090Y408159D01*
X352104Y406816D01*
X352090Y406595D01*
X352182Y406477D01*
X352364Y406451D01*
X354281Y406464D01*
X354385Y406438D01*
X354489Y406386D01*
X354515Y406282D01*
X354489Y404066D01*
X354398Y403974D01*
X354137Y403948D01*
X349822Y403961D01*
X349718Y403935D01*
X349666Y403883D01*
X349640Y403701D01*
X349614Y401563D01*
X349548Y401498D01*
X349379Y401485D01*
X347437Y401498D01*
X347254Y401393D01*
X347215Y401354D01*
X347189Y401250D01*
X347215Y400755D01*
X347189Y400676D01*
X347215Y400181D01*
X347189Y400103D01*
X347215Y399764D01*
X347189Y399686D01*
X347215Y399321D01*
X347267Y399190D01*
X347241Y398956D01*
X347189Y398825D01*
X347215Y398643D01*
X347189Y398173D01*
X347215Y398095D01*
X347202Y396909D01*
X347241Y396818D01*
X347306Y396753D01*
X347489Y396727D01*
X349601Y396701D01*
X349640Y396661D01*
X349666Y396557D01*
X349640Y396218D01*
X349666Y394393D01*
X349731Y394302D01*
X349835Y394276D01*
X351999Y394250D01*
X352090Y394159D01*
X352117Y393976D01*
X352090Y393793D01*
X352117Y392021D01*
X352208Y391903D01*
X352390Y391851D01*
X352495Y391877D01*
X353368Y391864D01*
X353772Y391877D01*
X353850Y391851D01*
X354267Y391877D01*
X354385Y391995D01*
X354437Y392203D01*
X354411Y392308D01*
X354385Y396557D01*
X354320Y396648D01*
X354137Y396674D01*
X353955Y396648D01*
X353772Y396674D01*
X352195Y396661D01*
X352104Y396701D01*
X352012Y396792D01*
X351986Y396974D01*
X352012Y397157D01*
X351986Y397470D01*
X352012Y397548D01*
X351999Y399047D01*
X352051Y399125D01*
X352234Y399177D01*
X352716Y399164D01*
X354033Y399177D01*
X354111Y399151D01*
X354320Y399177D01*
X354385Y399243D01*
X354411Y399425D01*
X354424Y400637D01*
X354411Y401406D01*
X354476Y401524D01*
X354528Y401550D01*
X354606Y401576D01*
X355610Y401563D01*
X358022Y401576D01*
X358100Y401550D01*
X358282Y401576D01*
X359065Y401602D01*
X359143Y401628D01*
X359403Y401602D01*
X359482Y401576D01*
X361476Y401563D01*
X361567Y401602D01*
X361659Y401693D01*
X361698Y401863D01*
X361711Y403727D01*
X361659Y403883D01*
X361594Y403948D01*
X361372Y403961D01*
X359482Y403948D01*
X359351Y404026D01*
X359312Y404066D01*
X359286Y404274D01*
X359312Y404352D01*
X359286Y406177D01*
X359221Y406269D01*
X359169Y406295D01*
X359039Y406347D01*
X358934Y406373D01*
X358439Y406347D01*
X358361Y406373D01*
X357018Y406360D01*
X356927Y406425D01*
X356888Y406568D01*
X356875Y407677D01*
X356888Y408185D01*
X356861Y408263D01*
X356888Y409071D01*
X356861Y409150D01*
X356888Y409906D01*
X356861Y409984D01*
X356888Y410870D01*
X356861Y410948D01*
X356888Y412904D01*
X356861Y412982D01*
X356888Y413425D01*
X356783Y413608D01*
X356744Y413647D01*
X356640Y413673D01*
X355832Y413699D01*
D02*
G37*
G36*
X371162D02*
X371083Y413673D01*
X369232Y413647D01*
X369193Y413608D01*
X369167Y413556D01*
X369115Y413425D01*
X369089Y413243D01*
X369115Y413165D01*
X369141Y411444D01*
X369258Y411300D01*
X369519Y411274D01*
X370327D01*
X371318Y411300D01*
X371357Y411339D01*
X371409Y411470D01*
X371435Y411652D01*
X371422Y413099D01*
X371435Y413451D01*
X371331Y413634D01*
X371292Y413673D01*
X371162Y413699D01*
D02*
G37*
G36*
X337126Y413686D02*
X335222Y413660D01*
X335144Y413582D01*
X335092Y413399D01*
X335079Y413282D01*
X335092Y412461D01*
X335066Y412382D01*
X335092Y412043D01*
X335118Y411366D01*
X335209Y411274D01*
X335587Y411287D01*
X336878Y411274D01*
X336930Y411300D01*
X337008Y411274D01*
X337295Y411300D01*
X337360Y411366D01*
X337386Y411470D01*
X337412Y411965D01*
Y412226D01*
Y412252D01*
X337386Y413530D01*
X337269Y413673D01*
X337126Y413686D01*
D02*
G37*
G36*
X306687Y413699D02*
X306609Y413673D01*
X306061Y413647D01*
X305944Y413530D01*
X305918Y413425D01*
X305892Y413243D01*
X305879Y409163D01*
X305905Y409058D01*
X305957Y408980D01*
X306009Y408954D01*
X306140Y408902D01*
X306322Y408876D01*
X308147Y408902D01*
X308265Y408993D01*
X308291Y409097D01*
X308265Y409436D01*
Y409462D01*
X308291Y410271D01*
X308278Y410623D01*
X308291Y410896D01*
X308265Y410975D01*
X308291Y411183D01*
X308382Y411274D01*
X308486Y411300D01*
X309216Y411274D01*
X310220Y411287D01*
X310415Y411274D01*
X310494Y411300D01*
X310546Y411326D01*
X310637Y411418D01*
X310663Y411522D01*
X310676Y411796D01*
X310663Y412252D01*
X310689Y412330D01*
X310663Y413477D01*
X310585Y413608D01*
X310546Y413647D01*
X310363Y413673D01*
X308030Y413660D01*
X306857Y413686D01*
X306687Y413699D01*
D02*
G37*
G36*
X303246Y413673D02*
X302020D01*
X301160Y413647D01*
X301121Y413608D01*
X301069Y413477D01*
X301043Y413295D01*
X301069Y413112D01*
X301056Y411587D01*
X301082Y411431D01*
X301121Y411339D01*
X301160Y411300D01*
X301264Y411274D01*
X303272Y411300D01*
X303337Y411366D01*
X303363Y411548D01*
X303389Y412122D01*
X303363Y413530D01*
X303246Y413673D01*
D02*
G37*
G36*
X380965Y411248D02*
X380639Y411235D01*
X380104Y411248D01*
X380026Y411222D01*
X379426Y411248D01*
X379348Y411222D01*
X378905Y411196D01*
X378840Y411131D01*
X378814Y411027D01*
X378827Y410440D01*
X378814Y410244D01*
X378840Y410166D01*
X378814Y409515D01*
X378840Y409436D01*
X378827Y409163D01*
X378853Y409058D01*
X378918Y408967D01*
X378983Y408902D01*
X379087Y408876D01*
X379192D01*
X381030Y408863D01*
X381108Y408915D01*
X381160Y409045D01*
X381134Y411157D01*
X381069Y411222D01*
X380965Y411248D01*
D02*
G37*
G36*
X373482D02*
X373404Y411222D01*
X372843Y411235D01*
X372700Y411222D01*
X372622Y411248D01*
X372283Y411222D01*
X371748Y411235D01*
X371644Y411209D01*
X371514Y411157D01*
X371488Y411053D01*
X371527Y410909D01*
X371540Y410714D01*
X371514Y410636D01*
X371527Y409945D01*
X371514Y409123D01*
X371631Y408954D01*
X371683Y408928D01*
X371813Y408876D01*
X373743Y408902D01*
X373834Y408967D01*
X373860Y409045D01*
X373873Y409058D01*
X373899Y409997D01*
X373912Y410140D01*
X373886Y410219D01*
X373899Y410883D01*
X373873Y411118D01*
X373808Y411209D01*
X373652Y411235D01*
X373482Y411248D01*
D02*
G37*
G36*
X344439Y403974D02*
X344178Y403948D01*
X342496Y403961D01*
X342418Y403935D01*
X342366Y403753D01*
X342379Y401732D01*
X342353Y401602D01*
X342301Y401524D01*
X342196Y401498D01*
X337634Y401472D01*
X337491Y401406D01*
X337464Y401302D01*
X337491Y401146D01*
X337517Y401067D01*
X337491Y400650D01*
X337504Y399777D01*
X337491Y399477D01*
X337517Y399399D01*
X337491Y399164D01*
X337399Y399073D01*
X335275Y399086D01*
X335183Y399047D01*
X335118Y398982D01*
X335066Y398773D01*
X335092Y398434D01*
X335079Y395527D01*
X335092Y394367D01*
X335001Y394250D01*
X334896Y394224D01*
X332680Y394198D01*
X332667Y394185D01*
X332615Y394054D01*
X332641Y393481D01*
X332628Y392112D01*
X332654Y391982D01*
X332733Y391877D01*
X333580Y391864D01*
X334427Y391877D01*
X334505Y391851D01*
X334792Y391877D01*
X334870Y391903D01*
X335757Y391877D01*
X337230Y391864D01*
X337334Y391890D01*
X337477Y391929D01*
X337712Y391903D01*
X337790Y391877D01*
X337973Y391851D01*
X338468Y391877D01*
X339133Y391864D01*
X339198Y391877D01*
X339276Y391851D01*
X339537Y391877D01*
X339993Y391890D01*
X340463Y391864D01*
X340919Y391851D01*
X340997Y391877D01*
X341975Y391864D01*
X342079Y391890D01*
X342210Y391942D01*
X342288Y392021D01*
X342314Y392203D01*
X342288Y392542D01*
X342314Y392620D01*
X342301Y393598D01*
X342314Y393846D01*
X342288Y393924D01*
X342262Y394080D01*
X342340Y394211D01*
X342379Y394250D01*
X342483Y394276D01*
X342939Y394263D01*
X344530Y394289D01*
X344660Y394393D01*
X344686Y394576D01*
X344712Y395436D01*
X344686Y395514D01*
X344699Y395918D01*
X344673Y396492D01*
X344595Y396622D01*
X344412Y396674D01*
X343200Y396661D01*
X342822Y396674D01*
X342744Y396648D01*
X342431Y396674D01*
X342314Y396766D01*
X342288Y396870D01*
X342314Y397417D01*
X342288Y397496D01*
X342301Y398187D01*
X342288Y398460D01*
X342314Y398539D01*
X342288Y398721D01*
X342314Y399034D01*
X342379Y399125D01*
X342509Y399177D01*
X343617Y399164D01*
X344386Y399177D01*
X344412Y399151D01*
X344491Y399177D01*
X344595Y399203D01*
X344660Y399268D01*
X344712Y399451D01*
X344686Y399764D01*
X344712Y399842D01*
X344686Y400807D01*
X344699Y402410D01*
X344686Y403362D01*
X344712Y403440D01*
X344673Y403844D01*
X344621Y403922D01*
X344439Y403974D01*
D02*
G37*
G36*
X383845Y406386D02*
X383754Y406347D01*
X383715Y406308D01*
X383663Y406125D01*
X383689Y401667D01*
X383780Y401576D01*
X383924Y401563D01*
X385266Y401576D01*
X385345Y401550D01*
X385605Y401576D01*
X385905Y401615D01*
X386179Y401628D01*
X386257Y401602D01*
X386518Y401576D01*
X386857Y401550D01*
X387196Y401576D01*
X387300Y401602D01*
X387561Y401576D01*
X387900Y401550D01*
X388265Y401576D01*
X388382Y401667D01*
X388434Y401797D01*
X388460Y401980D01*
X388434Y402241D01*
X388408Y403909D01*
X388265Y403974D01*
X387769Y403948D01*
X387508D01*
X386153Y403974D01*
X386035Y404066D01*
X386009Y404170D01*
X386022Y404496D01*
X386009Y405865D01*
X386035Y405943D01*
X386009Y406151D01*
X385892Y406295D01*
X385840Y406347D01*
X385736Y406373D01*
X383845Y406386D01*
D02*
G37*
G36*
X337243Y403948D02*
X334531D01*
X332706Y403922D01*
X332667Y403883D01*
X332641Y403779D01*
X332628Y403166D01*
X332641Y402945D01*
X332615Y402866D01*
X332641Y402110D01*
X332615Y402032D01*
X332641Y401771D01*
X332667Y401667D01*
X332759Y401576D01*
X334896Y401602D01*
X334975Y401628D01*
X335248Y401589D01*
X337047Y401563D01*
X337217Y401550D01*
X337334Y401641D01*
X337386Y401771D01*
X337412Y401876D01*
X337386Y403883D01*
X337347Y403922D01*
X337243Y403948D01*
D02*
G37*
G36*
X363927Y401511D02*
X361972Y401485D01*
X361828Y401393D01*
X361802Y401289D01*
X361789Y401172D01*
X361815Y401093D01*
X361841Y399295D01*
X361959Y399177D01*
X362141Y399151D01*
X362245Y399177D01*
X363405Y399164D01*
X363731Y399177D01*
X363810Y399151D01*
X364044Y399177D01*
X364135Y399268D01*
X364161Y399451D01*
Y399686D01*
Y399712D01*
X364148Y400768D01*
X364161Y400885D01*
X364135Y400963D01*
X364161Y401328D01*
X364083Y401459D01*
X364044Y401498D01*
X363927Y401511D01*
D02*
G37*
G36*
X358752Y399073D02*
X358100Y399047D01*
X358022Y399073D01*
X357448Y399047D01*
X357057Y399021D01*
X356940Y398930D01*
X356914Y398747D01*
X356927Y397822D01*
X356914Y397365D01*
X356940Y397339D01*
X356914Y397261D01*
X356940Y396818D01*
X357005Y396753D01*
X357109Y396727D01*
X358700D01*
X359247Y396753D01*
X359338Y396844D01*
X359312Y397105D01*
X359286Y397183D01*
X359312Y397522D01*
X359325Y398838D01*
X359286Y398930D01*
X359247Y398969D01*
X359117Y399021D01*
X359012Y399047D01*
X358752Y399073D01*
D02*
G37*
G36*
X380991Y403974D02*
X380573Y403948D01*
X374030Y403922D01*
X373964Y403857D01*
X373938Y403675D01*
X373925Y396909D01*
X373977Y396779D01*
X374108Y396727D01*
X378840Y396713D01*
X380886Y396727D01*
X380965Y396701D01*
X381095Y396753D01*
X381134Y396792D01*
X381160Y396896D01*
Y398565D01*
Y398591D01*
X381134Y403909D01*
X381095Y403948D01*
X380991Y403974D01*
D02*
G37*
G36*
X371292Y396674D02*
X368489Y396661D01*
X368163Y396674D01*
X368085Y396648D01*
X367068Y396674D01*
X366990Y396648D01*
X365543Y396661D01*
X365165Y396648D01*
X365087Y396674D01*
X364670Y396648D01*
X364214Y396635D01*
X363614Y396661D01*
X362115Y396674D01*
X362037Y396648D01*
X361906Y396570D01*
X361841Y396505D01*
X361815Y396322D01*
X361828Y394823D01*
X361815Y394524D01*
X361867Y394393D01*
X361893Y394341D01*
X361959Y394276D01*
X362141Y394250D01*
X362323Y394276D01*
X363327Y394263D01*
X363627Y394276D01*
X363705Y394250D01*
X364044Y394276D01*
X364148Y394250D01*
X364214Y394185D01*
X364240Y394002D01*
X364214Y393820D01*
X364240Y392021D01*
X364305Y391955D01*
X364435Y391903D01*
X364879Y391851D01*
X365426Y391877D01*
X365504Y391851D01*
X365765Y391877D01*
X366312Y391851D01*
X366391Y391877D01*
X366560Y391969D01*
X366612Y392099D01*
X366599Y394067D01*
X366625Y394172D01*
X366677Y394250D01*
X366782Y394276D01*
X367212Y394263D01*
X368919Y394276D01*
X369050Y394198D01*
X369089Y394159D01*
X369115Y394054D01*
X369102Y392138D01*
X369128Y392034D01*
X369193Y391942D01*
X369258Y391877D01*
X369467Y391851D01*
X369545Y391877D01*
X369988D01*
X371279Y391864D01*
X371383Y391969D01*
X371435Y392099D01*
X371409Y396531D01*
X371292Y396674D01*
D02*
G37*
G36*
X385736D02*
X385318Y396648D01*
X384745Y396674D01*
X384484Y396648D01*
X383819Y396661D01*
X383689Y396557D01*
X383663Y396218D01*
X383689Y394367D01*
X383780Y394276D01*
X384654Y394263D01*
X385788Y394276D01*
X385814D01*
X385944Y394354D01*
X386009Y394524D01*
X386022Y395136D01*
X386009Y395697D01*
X386035Y395775D01*
X386022Y396075D01*
X386035Y396375D01*
X385905Y396609D01*
X385736Y396674D01*
D02*
G37*
G36*
X383285Y394224D02*
X381356Y394198D01*
X381238Y394106D01*
X381212Y394002D01*
X381238Y392047D01*
X381329Y391955D01*
X381512Y391877D01*
X381616Y391851D01*
X382033Y391877D01*
X382346D01*
X383246Y391864D01*
X383493Y391903D01*
X383585Y391969D01*
X383611Y392073D01*
X383624Y392242D01*
X383598Y394146D01*
X383467Y394198D01*
X383285Y394224D01*
D02*
G37*
G36*
X361515D02*
X358491D01*
X357005Y394198D01*
X356940Y394132D01*
X356914Y394028D01*
X356940Y391995D01*
X357005Y391929D01*
X357187Y391877D01*
X357513Y391864D01*
X357579Y391877D01*
X357657Y391851D01*
X358308Y391877D01*
X358739Y391864D01*
X359025Y391890D01*
X359403Y391903D01*
X359482Y391877D01*
X359664Y391851D01*
X359768Y391877D01*
X361424Y391864D01*
X361528Y391890D01*
X361619Y391955D01*
X361685Y392021D01*
X361711Y392125D01*
X361685Y394132D01*
X361619Y394198D01*
X361515Y394224D01*
D02*
G37*
G36*
X349262D02*
X347332Y394198D01*
X347241Y394132D01*
X347215Y394028D01*
X347202Y394015D01*
X347189Y393898D01*
X347215Y393820D01*
X347202Y392112D01*
X347241Y392021D01*
X347280Y391982D01*
X347332Y391955D01*
X347567Y391851D01*
X348062Y391877D01*
X349249Y391864D01*
X349353Y391890D01*
X349562Y392021D01*
X349588Y392099D01*
X349614Y392203D01*
X349588Y392386D01*
X349562Y394159D01*
X349444Y394198D01*
X349262Y394224D01*
D02*
G37*
G36*
X378540D02*
X376480Y394198D01*
X376415Y394132D01*
X376389Y394028D01*
X376415Y391969D01*
X376506Y391877D01*
X376532D01*
X376611Y391851D01*
X376871Y391877D01*
X377132Y391851D01*
X377236Y391877D01*
X377588Y391864D01*
X378357Y391877D01*
X378436Y391851D01*
X378605Y391916D01*
X378683Y391995D01*
X378735Y392177D01*
X378709Y392516D01*
X378722Y394093D01*
X378670Y394172D01*
X378540Y394224D01*
D02*
G37*
G36*
X385762Y391773D02*
X384706Y391760D01*
X384536Y391773D01*
X384510D01*
X383754Y391747D01*
X383715Y391708D01*
X383663Y391525D01*
X383689Y389518D01*
X383754Y389453D01*
X383858Y389427D01*
X384197Y389453D01*
X385201Y389440D01*
X385631Y389453D01*
X385709Y389427D01*
X385879Y389466D01*
X385970Y389531D01*
X386009Y389570D01*
X386035Y389674D01*
X386009Y389935D01*
X386022Y390600D01*
X386009Y391291D01*
X386035Y391369D01*
X386009Y391630D01*
X385944Y391695D01*
X385892Y391721D01*
X385762Y391773D01*
D02*
G37*
G36*
X373560D02*
X372009Y391760D01*
X371735Y391773D01*
X371514Y391656D01*
X371488Y391551D01*
X371514Y391395D01*
X371540Y391317D01*
X371514Y390900D01*
X371527Y389870D01*
X371501Y389766D01*
X371488Y389570D01*
X371527Y389531D01*
X371657Y389479D01*
X371761Y389453D01*
X373013D01*
X373795Y389479D01*
X373860Y389544D01*
X373886Y389648D01*
X373860Y391682D01*
X373743Y391747D01*
X373560Y391773D01*
D02*
G37*
G36*
X356692D02*
X356510D01*
X354958Y391760D01*
X354737Y391773D01*
X354554Y391643D01*
X354515Y391604D01*
X354489Y391421D01*
X354515Y391291D01*
X354489Y391213D01*
X354515Y390665D01*
X354541Y390587D01*
X354515Y390508D01*
X354489Y390170D01*
X354515Y390065D01*
X354502Y389609D01*
X354567Y389518D01*
X354711Y389453D01*
X355871Y389440D01*
X356757Y389466D01*
X356848Y389531D01*
X356888Y389648D01*
X356861Y391656D01*
X356822Y391721D01*
X356692Y391773D01*
D02*
G37*
G36*
X381043Y389375D02*
X380639Y389361D01*
X380130Y389375D01*
X380052Y389348D01*
X379465Y389361D01*
X379218Y389348D01*
X379205Y389361D01*
X379087Y389375D01*
X378905Y389270D01*
X378840Y389127D01*
X378814Y387954D01*
X378840Y387875D01*
X378866Y387093D01*
X378957Y387002D01*
X379061Y386976D01*
X381069Y387002D01*
X381134Y387067D01*
X381160Y387250D01*
X381134Y389283D01*
X381043Y389375D01*
D02*
G37*
G36*
X375854D02*
X375516Y389348D01*
X375411Y389375D01*
X374877Y389361D01*
X374603Y389375D01*
X374525Y389348D01*
X374056Y389322D01*
X373990Y389283D01*
X373938Y389153D01*
X373912Y388996D01*
X373938Y388918D01*
X373964Y387067D01*
X374003Y387028D01*
X374108Y387002D01*
X374290Y386976D01*
X374642Y386989D01*
X376037Y386976D01*
X376115Y387002D01*
X376219Y387028D01*
X376285Y387093D01*
X376311Y387197D01*
Y387875D01*
Y387901D01*
X376337Y388319D01*
X376311Y388814D01*
X376285Y389179D01*
X376141Y389322D01*
X376037Y389348D01*
X375854Y389375D01*
D02*
G37*
G36*
X349131D02*
X348792Y389348D01*
X348714Y389375D01*
X348584D01*
X347763Y389361D01*
X347515Y389375D01*
X347332Y389270D01*
X347293Y389231D01*
X347241Y389101D01*
X347189Y388892D01*
X347215Y388162D01*
X347189Y387771D01*
X347215Y387693D01*
X347189Y387354D01*
X347215Y387276D01*
X347254Y387132D01*
X347319Y387041D01*
X347489Y386976D01*
X349418Y387002D01*
X349535Y387093D01*
X349588Y387276D01*
X349601Y387445D01*
X349588Y388840D01*
X349614Y388918D01*
X349588Y388996D01*
X349562Y389179D01*
X349444Y389322D01*
X349131Y389375D01*
D02*
G37*
%LPD*%
G36*
X378722Y401550D02*
X378787Y401485D01*
X378814Y401380D01*
X378840Y401198D01*
X378814Y400937D01*
X378840Y400442D01*
X378814Y400364D01*
X378840Y400103D01*
X378814Y399555D01*
X378840Y399477D01*
X378814Y399138D01*
X378748Y399073D01*
X378566Y399047D01*
X377992Y399073D01*
X376650Y399060D01*
X376441Y399086D01*
X376337Y399138D01*
X376285Y399295D01*
X376298Y399308D01*
X376324Y399594D01*
X376337Y399868D01*
X376311Y399946D01*
X376337Y401067D01*
X376311Y401172D01*
X376285Y401380D01*
X376363Y401511D01*
X376402Y401550D01*
X376506Y401576D01*
X377836Y401550D01*
X377914Y401576D01*
X378722Y401550D01*
D02*
G37*
%LPC*%
G36*
X308017Y481797D02*
X296154Y481771D01*
X296089Y481706D01*
X296115Y469713D01*
X296207Y469622D01*
X296363Y469596D01*
X296441Y469622D01*
X308160Y469609D01*
X308291Y469713D01*
Y471199D01*
Y471225D01*
X308278Y480572D01*
X308291Y481654D01*
X308199Y481771D01*
X308017Y481797D01*
D02*
G37*
%LPD*%
G36*
X305749Y479321D02*
X305840Y479229D01*
X305814Y472138D01*
X305749Y472073D01*
X305644Y472047D01*
X304993Y472073D01*
X299114Y472060D01*
X298970Y472073D01*
X298892Y472047D01*
X298631Y472073D01*
X298566Y472138D01*
X298540Y472320D01*
X298566Y472503D01*
Y477821D01*
Y477848D01*
X298553Y479138D01*
X298579Y479268D01*
X298657Y479347D01*
X299087Y479334D01*
X305331Y479347D01*
X305410Y479321D01*
X305514Y479347D01*
X305749Y479321D01*
D02*
G37*
%LPC*%
G36*
X390572Y481810D02*
X378814Y481784D01*
X378735Y481732D01*
X378709Y481628D01*
X378735Y481289D01*
X378709Y481211D01*
X378722Y480989D01*
X378709Y480533D01*
X378735Y480455D01*
X378709Y480037D01*
X378735Y469687D01*
X378801Y469622D01*
X379061Y469596D01*
X379948Y469622D01*
X390415Y469609D01*
X390559Y469622D01*
X390637Y469596D01*
X390793Y469622D01*
X390859Y469687D01*
X390911Y469870D01*
Y473207D01*
Y473233D01*
X390885Y481732D01*
X390845Y481771D01*
X390741Y481797D01*
X390572Y481810D01*
D02*
G37*
%LPD*%
G36*
X388369Y479321D02*
X388434Y479255D01*
X388460Y479073D01*
X388434Y478890D01*
X388460Y478447D01*
X388434Y478369D01*
X388447Y472203D01*
X388395Y472099D01*
X388265Y472047D01*
X387691Y472073D01*
X387613Y472047D01*
X386883Y472073D01*
X381290Y472060D01*
X381199Y472125D01*
X381160Y472164D01*
X381186Y479255D01*
X381225Y479321D01*
X381329Y479347D01*
X387665D01*
X388004Y479321D01*
X388108Y479347D01*
X388369Y479321D01*
D02*
G37*
%LPC*%
G36*
X308121Y399177D02*
X296532Y399164D01*
X296233Y399177D01*
X296141Y399112D01*
X296089Y398904D01*
X296102Y398473D01*
X296089Y387093D01*
X296154Y387002D01*
X296259Y386976D01*
X307626D01*
X308199Y387002D01*
X308291Y387093D01*
X308278Y388019D01*
X308291Y398173D01*
X308265Y398252D01*
X308291Y399060D01*
X308225Y399151D01*
X308121Y399177D01*
D02*
G37*
%LPD*%
G36*
X305775Y396701D02*
X305814Y396661D01*
X305840Y396557D01*
X305814Y389518D01*
X305749Y389453D01*
X305644Y389427D01*
X305306Y389453D01*
X298722Y389440D01*
X298631Y389479D01*
X298566Y389544D01*
X298540Y389648D01*
X298566Y390065D01*
Y390404D01*
Y390430D01*
X298553Y396544D01*
X298605Y396674D01*
X298657Y396701D01*
X298736Y396727D01*
X305775Y396701D01*
D02*
G37*
D10*
X136055Y504444D02*
G03*
X136055Y504444I-2540J0D01*
G01*
X532893Y76708D02*
G03*
X532893Y76708I-55373J0D01*
G01*
X967458Y433070D02*
G03*
X967458Y433070I-1000J0D01*
G01*
X81010Y179081D02*
G03*
X81010Y179081I-1000J0D01*
G01*
X768080Y619748D02*
G03*
X768080Y619748I-1000J0D01*
G01*
X781350Y233426D02*
G03*
X781350Y233426I-2840J0D01*
G01*
X86340Y280791D02*
Y283734D01*
Y225334D02*
Y230822D01*
X41656Y294132D02*
X56388D01*
X3113Y267900D02*
Y293808D01*
Y267900D02*
X5652Y265360D01*
X16829D01*
X19115Y263074D01*
Y244278D02*
Y263074D01*
X15559Y240722D02*
X19115Y244278D01*
X6161Y240722D02*
X15559D01*
X3875Y238436D02*
X6161Y240722D01*
X3875Y215950D02*
Y238436D01*
X-9334Y251898D02*
X-2984D01*
X-1460Y253422D01*
Y257994D01*
X-443Y259010D01*
X7939D01*
X8954Y257994D01*
Y254438D02*
Y257994D01*
Y254438D02*
X10986Y252406D01*
X11748D01*
X19115D01*
X-10885Y294196D02*
X8890D01*
X41656Y216154D02*
X55372D01*
X-10885Y215950D02*
X9398D01*
X-10885D02*
Y294196D01*
X86340Y283734D02*
Y285206D01*
Y279319D02*
Y280791D01*
X201549Y583692D02*
X212979D01*
X207264D02*
Y586300D01*
X204089Y579882D02*
X210439D01*
X206052Y576072D02*
X207899D01*
X226949Y583692D02*
X238379D01*
X232664D02*
Y586300D01*
X229489Y579882D02*
X235839D01*
X231452Y576072D02*
X233299D01*
X252349Y583692D02*
X263779D01*
X258064D02*
Y586300D01*
X254889Y579882D02*
X261239D01*
X256852Y576072D02*
X258699D01*
X343408Y550545D02*
Y561975D01*
Y556260D02*
X346016D01*
X339598Y553085D02*
Y559435D01*
X335788Y555625D02*
Y557472D01*
X343408Y525145D02*
Y536575D01*
Y530860D02*
X346016D01*
X339598Y527685D02*
Y534035D01*
X335788Y530225D02*
Y532072D01*
X343408Y499745D02*
Y511175D01*
Y505460D02*
X346016D01*
X339598Y502285D02*
Y508635D01*
X335788Y504825D02*
Y506672D01*
X417830Y525145D02*
Y536575D01*
X415222Y530860D02*
X417830D01*
X421640Y527685D02*
Y534035D01*
X425450Y529648D02*
Y531495D01*
X417830Y550545D02*
Y561975D01*
X415222Y556260D02*
X417830D01*
X421640Y553085D02*
Y559435D01*
X425450Y555048D02*
Y556895D01*
X417830Y575945D02*
Y587375D01*
X415222Y581660D02*
X417830D01*
X421640Y578485D02*
Y584835D01*
X425450Y580448D02*
Y582295D01*
X471170Y525145D02*
Y536575D01*
X468562Y530860D02*
X471170D01*
X474980Y527685D02*
Y534035D01*
X478790Y529648D02*
Y531495D01*
X471170Y550545D02*
Y561975D01*
X468562Y556260D02*
X471170D01*
X474980Y553085D02*
Y559435D01*
X478790Y555048D02*
Y556895D01*
X471170Y575945D02*
Y587375D01*
X468562Y581660D02*
X471170D01*
X474980Y578485D02*
Y584835D01*
X478790Y580448D02*
Y582295D01*
X530098Y525145D02*
Y536575D01*
X527490Y530860D02*
X530098D01*
X533908Y527685D02*
Y534035D01*
X537718Y529648D02*
Y531495D01*
X530098Y550545D02*
Y561975D01*
X527490Y556260D02*
X530098D01*
X533908Y553085D02*
Y559435D01*
X537718Y555048D02*
Y556895D01*
X530098Y575945D02*
Y587375D01*
X527490Y581660D02*
X530098D01*
X533908Y578485D02*
Y584835D01*
X537718Y580448D02*
Y582295D01*
X73279Y583692D02*
X84709D01*
X78994D02*
Y586300D01*
X75819Y579882D02*
X82169D01*
X77782Y576072D02*
X79629D01*
X98679Y583692D02*
X110109D01*
X104394D02*
Y586300D01*
X101219Y579882D02*
X107569D01*
X103182Y576072D02*
X105029D01*
X124079Y583692D02*
X135509D01*
X129794D02*
Y586300D01*
X126619Y579882D02*
X132969D01*
X128582Y576072D02*
X130429D01*
X52715Y82724D02*
Y82804D01*
X317500Y79375D02*
Y90805D01*
Y85090D02*
X320108D01*
X313690Y81915D02*
Y88265D01*
X309880Y84455D02*
Y86302D01*
X317500Y53975D02*
Y65405D01*
Y59690D02*
X320108D01*
X313690Y56515D02*
Y62865D01*
X309880Y59055D02*
Y60902D01*
X317500Y28575D02*
Y40005D01*
Y34290D02*
X320108D01*
X313690Y31115D02*
Y37465D01*
X309880Y33655D02*
Y35502D01*
X454025Y455930D02*
X455872D01*
X451485Y452120D02*
X457835D01*
X454660Y445702D02*
Y448310D01*
X448945D02*
X460375D01*
X479425Y455930D02*
X481272D01*
X476885Y452120D02*
X483235D01*
X480060Y445702D02*
Y448310D01*
X474345D02*
X485775D01*
X504825Y455930D02*
X506672D01*
X502285Y452120D02*
X508635D01*
X505460Y445702D02*
Y448310D01*
X499745D02*
X511175D01*
X795020Y52070D02*
Y66294D01*
X170180Y130868D02*
Y132715D01*
X166370Y128905D02*
Y135255D01*
X159952Y132080D02*
X162560D01*
Y126365D02*
Y137795D01*
X170180Y105468D02*
Y107315D01*
X166370Y103505D02*
Y109855D01*
X159952Y106680D02*
X162560D01*
Y100965D02*
Y112395D01*
X170180Y80068D02*
Y81915D01*
X166370Y78105D02*
Y84455D01*
X159952Y81280D02*
X162560D01*
Y75565D02*
Y86995D01*
X953828Y21590D02*
X955675D01*
X951865Y25400D02*
X958215D01*
X955040Y29210D02*
Y31818D01*
X949325Y29210D02*
X960755D01*
X928428Y21590D02*
X930275D01*
X926465Y25400D02*
X932815D01*
X929640Y29210D02*
Y31818D01*
X923925Y29210D02*
X935355D01*
X903028Y21590D02*
X904875D01*
X901065Y25400D02*
X907415D01*
X904240Y29210D02*
Y31818D01*
X898525Y29210D02*
X909955D01*
X942340Y439420D02*
Y518160D01*
X969010D01*
X942340Y439420D02*
X969010D01*
Y518160D01*
X86360Y203200D02*
X165100D01*
Y176530D02*
Y203200D01*
X86360Y176530D02*
Y203200D01*
Y176530D02*
X165100D01*
X955098Y234950D02*
X956945D01*
X953135Y238760D02*
X959485D01*
X956310Y242570D02*
Y245178D01*
X950595Y242570D02*
X962025D01*
X929698Y234950D02*
X931545D01*
X927735Y238760D02*
X934085D01*
X930910Y242570D02*
Y245178D01*
X925195Y242570D02*
X936625D01*
X904298Y234950D02*
X906145D01*
X902335Y238760D02*
X908685D01*
X905510Y242570D02*
Y245178D01*
X899795Y242570D02*
X911225D01*
X681990Y595630D02*
X760730D01*
X681990D02*
Y622300D01*
X760730Y595630D02*
Y622300D01*
X681990D02*
X760730D01*
X895040Y576580D02*
X895120D01*
X593344Y29972D02*
Y75692D01*
Y29972D02*
X600710Y22606D01*
X670560D01*
X593344Y75692D02*
X670560D01*
Y22606D02*
Y75692D01*
X953828Y90170D02*
X955675D01*
X951865Y93980D02*
X958215D01*
X955040Y97790D02*
Y100398D01*
X949325Y97790D02*
X960755D01*
X928428Y90170D02*
X930275D01*
X926465Y93980D02*
X932815D01*
X929640Y97790D02*
Y100398D01*
X923925Y97790D02*
X935355D01*
X903028Y90170D02*
X904875D01*
X901065Y93980D02*
X907415D01*
X904240Y97790D02*
Y100398D01*
X898525Y97790D02*
X909955D01*
X953828Y160020D02*
X955675D01*
X951865Y163830D02*
X958215D01*
X955040Y167640D02*
Y170248D01*
X949325Y167640D02*
X960755D01*
X928428Y160020D02*
X930275D01*
X926465Y163830D02*
X932815D01*
X929640Y167640D02*
Y170248D01*
X923925Y167640D02*
X935355D01*
X903028Y160020D02*
X904875D01*
X901065Y163830D02*
X907415D01*
X904240Y167640D02*
Y170248D01*
X898525Y167640D02*
X909955D01*
X900990Y421083D02*
X969991D01*
X969991Y351081D02*
Y421081D01*
X955097Y359276D02*
X969992D01*
X950791Y363582D02*
X955097Y359276D01*
X950791Y363582D02*
Y373482D01*
X955254Y377944D01*
X969992D01*
X955097Y394274D02*
X969991D01*
X950791Y398580D02*
X955097Y394274D01*
X950791Y398580D02*
Y408480D01*
X955254Y412943D01*
X969991D01*
X917303Y351080D02*
Y421081D01*
X900990Y351080D02*
Y421081D01*
Y351080D02*
X969990D01*
Y346580D02*
Y351080D01*
X961990Y346580D02*
X969990D01*
X961990D02*
Y351080D01*
X900990Y421081D02*
Y425581D01*
X908990D01*
Y421081D02*
Y425581D01*
X850900Y517652D02*
X865124D01*
X182880Y75692D02*
X197104D01*
X63754Y510032D02*
Y524256D01*
X61976Y447548D02*
Y461772D01*
X353060Y347975D02*
Y337818D01*
X358138Y332740D01*
X363217Y337818D01*
Y347975D01*
X370834Y342897D02*
X375913D01*
X378452Y340358D01*
Y332740D01*
X370834D01*
X368295Y335279D01*
X370834Y337818D01*
X378452D01*
X383530Y332740D02*
X388609D01*
X386069D01*
Y342897D01*
X383530D01*
X396226Y332740D02*
X403844D01*
X406383Y335279D01*
X403844Y337818D01*
X398765D01*
X396226Y340358D01*
X398765Y342897D01*
X406383D01*
X411461Y347975D02*
Y332740D01*
Y340358D01*
X414000Y342897D01*
X419079D01*
X421618Y340358D01*
Y332740D01*
X426696D02*
Y342897D01*
X434314D01*
X436853Y340358D01*
Y332740D01*
X444470Y342897D02*
X449549D01*
X452088Y340358D01*
Y332740D01*
X444470D01*
X441931Y335279D01*
X444470Y337818D01*
X452088D01*
X457166Y342897D02*
X462245Y332740D01*
X467323Y342897D01*
X472401Y332740D02*
X477480D01*
X474941D01*
Y342897D01*
X472401D01*
X500332Y332740D02*
Y347975D01*
X507950D01*
X510489Y345436D01*
Y340358D01*
X507950Y337818D01*
X500332D01*
X518107Y342897D02*
X523185D01*
X525724Y340358D01*
Y332740D01*
X518107D01*
X515567Y335279D01*
X518107Y337818D01*
X525724D01*
X533342Y345436D02*
Y342897D01*
X530802D01*
X535881D01*
X533342D01*
Y335279D01*
X535881Y332740D01*
X551116D02*
X546038D01*
X543498Y335279D01*
Y340358D01*
X546038Y342897D01*
X551116D01*
X553655Y340358D01*
Y337818D01*
X543498D01*
X558733Y332740D02*
Y347975D01*
Y337818D02*
X566351Y342897D01*
X558733Y337818D02*
X566351Y332740D01*
X576508Y342897D02*
X581586D01*
X584125Y340358D01*
Y332740D01*
X576508D01*
X573969Y335279D01*
X576508Y337818D01*
X584125D01*
X589204Y342897D02*
Y332740D01*
Y337818D01*
X591743Y340358D01*
X594282Y342897D01*
X596821D01*
X353060Y377186D02*
Y356870D01*
X357317Y370414D02*
Y356870D01*
Y366544D02*
X360219Y369446D01*
X362154Y370414D01*
X365056D01*
X366991Y369446D01*
X367958Y366544D01*
Y356870D01*
X383920Y367511D02*
X382953Y369446D01*
X380051Y370414D01*
X377149D01*
X374246Y369446D01*
X373279Y367511D01*
X374246Y365577D01*
X376181Y364609D01*
X381018Y363642D01*
X382953Y362674D01*
X383920Y360740D01*
Y359772D01*
X382953Y357837D01*
X380051Y356870D01*
X377149D01*
X374246Y357837D01*
X373279Y359772D01*
X391079Y377186D02*
Y360740D01*
X392047Y357837D01*
X393982Y356870D01*
X395916D01*
X388177Y370414D02*
X394949D01*
X398819D02*
Y356870D01*
Y364609D02*
X399786Y367511D01*
X401721Y369446D01*
X403656Y370414D01*
X406558D01*
X408396D02*
Y360740D01*
X409363Y357837D01*
X411298Y356870D01*
X414200D01*
X416135Y357837D01*
X419038Y360740D01*
Y370414D02*
Y356870D01*
X424358Y370414D02*
Y356870D01*
Y366544D02*
X427261Y369446D01*
X429195Y370414D01*
X432098D01*
X434032Y369446D01*
X435000Y366544D01*
Y356870D01*
Y366544D02*
X437902Y369446D01*
X439837Y370414D01*
X442739D01*
X444674Y369446D01*
X445641Y366544D01*
Y356870D01*
X452026Y364609D02*
X463635D01*
Y366544D01*
X462668Y368479D01*
X461700Y369446D01*
X459766Y370414D01*
X456863D01*
X454929Y369446D01*
X452994Y367511D01*
X452026Y364609D01*
Y362674D01*
X452994Y359772D01*
X454929Y357837D01*
X456863Y356870D01*
X459766D01*
X461700Y357837D01*
X463635Y359772D01*
X467989Y370414D02*
Y356870D01*
Y366544D02*
X470891Y369446D01*
X472826Y370414D01*
X475728D01*
X477663Y369446D01*
X478630Y366544D01*
Y356870D01*
X486853Y377186D02*
Y360740D01*
X487821Y357837D01*
X489755Y356870D01*
X491690D01*
X483951Y370414D02*
X490723D01*
X510555Y377186D02*
Y356870D01*
Y377186D02*
X517327D01*
X520229Y376218D01*
X522164Y374283D01*
X523131Y372349D01*
X524098Y369446D01*
Y364609D01*
X523131Y361707D01*
X522164Y359772D01*
X520229Y357837D01*
X517327Y356870D01*
X510555D01*
X528645Y370414D02*
Y356870D01*
Y364609D02*
X529613Y367511D01*
X531548Y369446D01*
X533482Y370414D01*
X536385D01*
X543060D02*
X541125Y369446D01*
X539190Y367511D01*
X538223Y364609D01*
Y362674D01*
X539190Y359772D01*
X541125Y357837D01*
X543060Y356870D01*
X545962D01*
X547897Y357837D01*
X549832Y359772D01*
X550799Y362674D01*
Y364609D01*
X549832Y367511D01*
X547897Y369446D01*
X545962Y370414D01*
X543060D01*
X557184Y377186D02*
X558151Y376218D01*
X559119Y377186D01*
X558151Y378153D01*
X557184Y377186D01*
X558151Y370414D02*
Y356870D01*
X574307Y377186D02*
Y356870D01*
Y367511D02*
X572372Y369446D01*
X570438Y370414D01*
X567535D01*
X565600Y369446D01*
X563666Y367511D01*
X562698Y364609D01*
Y362674D01*
X563666Y359772D01*
X565600Y357837D01*
X567535Y356870D01*
X570438D01*
X572372Y357837D01*
X574307Y359772D01*
X175261Y261618D02*
X172722Y264158D01*
X167643D01*
X165104Y261618D01*
Y251462D01*
X167643Y248923D01*
X172722D01*
X175261Y251462D01*
X190496Y248923D02*
X180339D01*
X190496Y259079D01*
Y261618D01*
X187957Y264158D01*
X182878D01*
X180339Y261618D01*
X12078Y159966D02*
Y175201D01*
X19696D01*
X22235Y172662D01*
Y167584D01*
X19696Y165045D01*
X12078D01*
X27313Y159966D02*
X32391D01*
X29852D01*
Y175201D01*
X27313Y172662D01*
X661670Y305557D02*
Y303018D01*
X666748Y297939D01*
X671827Y303018D01*
Y305557D01*
X666748Y297939D02*
Y290322D01*
X687062D02*
X676905D01*
X687062Y300479D01*
Y303018D01*
X684523Y305557D01*
X679444D01*
X676905Y303018D01*
X44072Y411050D02*
Y408511D01*
X49151Y403432D01*
X54229Y408511D01*
Y411050D01*
X49151Y403432D02*
Y395815D01*
X59308D02*
X64386D01*
X61847D01*
Y411050D01*
X59308Y408511D01*
X609346Y610611D02*
Y597915D01*
X611885Y595376D01*
X616964D01*
X619503Y597915D01*
Y610611D01*
X634738D02*
X624581D01*
Y602994D01*
X629659Y605533D01*
X632199D01*
X634738Y602994D01*
Y597915D01*
X632199Y595376D01*
X627120D01*
X624581Y597915D01*
X693674Y440431D02*
Y427735D01*
X696213Y425196D01*
X701292D01*
X703831Y427735D01*
Y440431D01*
X716527Y425196D02*
Y440431D01*
X708909Y432813D01*
X719066D01*
X120654Y524762D02*
Y512066D01*
X123193Y509526D01*
X128272D01*
X130811Y512066D01*
Y524762D01*
X135889Y522222D02*
X138428Y524762D01*
X143507D01*
X146046Y522222D01*
Y519683D01*
X143507Y517144D01*
X140968D01*
X143507D01*
X146046Y514605D01*
Y512066D01*
X143507Y509526D01*
X138428D01*
X135889Y512066D01*
X787404Y243838D02*
Y231142D01*
X789943Y228603D01*
X795022D01*
X797561Y231142D01*
Y243838D01*
X812796Y228603D02*
X802639D01*
X812796Y238759D01*
Y241298D01*
X810257Y243838D01*
X805178D01*
X802639Y241298D01*
X760730Y441701D02*
Y429005D01*
X763269Y426466D01*
X768347D01*
X770887Y429005D01*
Y441701D01*
X775965Y426466D02*
X781043D01*
X778504D01*
Y441701D01*
X775965Y439162D01*
X414022Y414029D02*
Y424185D01*
Y419107D01*
X429258D01*
Y429264D02*
X414022D01*
Y436881D01*
X416562Y439420D01*
X421640D01*
X424179Y436881D01*
Y429264D01*
X429258Y444499D02*
Y449577D01*
Y447038D01*
X414022D01*
X416562Y444499D01*
X429258Y464812D02*
X414022D01*
X421640Y457195D01*
Y467351D01*
X379739Y621027D02*
X389895D01*
X384817D01*
Y605793D01*
X394974D02*
Y621027D01*
X402591D01*
X405130Y618488D01*
Y613410D01*
X402591Y610871D01*
X394974D01*
X410209Y605793D02*
X415287D01*
X412748D01*
Y621027D01*
X410209Y618488D01*
X422905D02*
X425444Y621027D01*
X430522D01*
X433061Y618488D01*
Y615949D01*
X430522Y613410D01*
X427983D01*
X430522D01*
X433061Y610871D01*
Y608332D01*
X430522Y605793D01*
X425444D01*
X422905Y608332D01*
X865378Y297683D02*
X875535D01*
X870456D01*
Y282448D01*
X880613D02*
Y297683D01*
X888231D01*
X890770Y295144D01*
Y290065D01*
X888231Y287526D01*
X880613D01*
X895848Y282448D02*
X900927D01*
X898387D01*
Y297683D01*
X895848Y295144D01*
X918701Y282448D02*
X908544D01*
X918701Y292605D01*
Y295144D01*
X916162Y297683D01*
X911083D01*
X908544Y295144D01*
X864362Y152903D02*
X874519D01*
X869440D01*
Y137668D01*
X879597D02*
Y152903D01*
X887215D01*
X889754Y150364D01*
Y145286D01*
X887215Y142746D01*
X879597D01*
X894832Y137668D02*
X899911D01*
X897371D01*
Y152903D01*
X894832Y150364D01*
X907528Y137668D02*
X912606D01*
X910067D01*
Y152903D01*
X907528Y150364D01*
X311150Y150363D02*
X321307D01*
X316228D01*
Y135128D01*
X326385D02*
Y150363D01*
X334003D01*
X336542Y147824D01*
Y142746D01*
X334003Y140206D01*
X326385D01*
X341620Y135128D02*
X346698D01*
X344159D01*
Y150363D01*
X341620Y147824D01*
X354316D02*
X356855Y150363D01*
X361934D01*
X364473Y147824D01*
Y137667D01*
X361934Y135128D01*
X356855D01*
X354316Y137667D01*
Y147824D01*
X864362Y223007D02*
X874519D01*
X869440D01*
Y207772D01*
X879597D02*
Y223007D01*
X887215D01*
X889754Y220468D01*
Y215389D01*
X887215Y212850D01*
X879597D01*
X894832Y210311D02*
X897371Y207772D01*
X902450D01*
X904989Y210311D01*
Y220468D01*
X902450Y223007D01*
X897371D01*
X894832Y220468D01*
Y217929D01*
X897371Y215389D01*
X904989D01*
X864362Y84323D02*
X874519D01*
X869440D01*
Y69088D01*
X879597D02*
Y84323D01*
X887215D01*
X889754Y81784D01*
Y76705D01*
X887215Y74166D01*
X879597D01*
X894832Y81784D02*
X897371Y84323D01*
X902450D01*
X904989Y81784D01*
Y79245D01*
X902450Y76705D01*
X904989Y74166D01*
Y71627D01*
X902450Y69088D01*
X897371D01*
X894832Y71627D01*
Y74166D01*
X897371Y76705D01*
X894832Y79245D01*
Y81784D01*
X897371Y76705D02*
X902450D01*
X441452Y621787D02*
X451609D01*
X446530D01*
Y606552D01*
X456687D02*
Y621787D01*
X464305D01*
X466844Y619248D01*
Y614170D01*
X464305Y611630D01*
X456687D01*
X471922Y621787D02*
X482079D01*
Y619248D01*
X471922Y609091D01*
Y606552D01*
X325127Y621027D02*
X335283D01*
X330205D01*
Y605793D01*
X340362D02*
Y621027D01*
X347979D01*
X350518Y618488D01*
Y613410D01*
X347979Y610871D01*
X340362D01*
X365753Y621027D02*
X360675Y618488D01*
X355597Y613410D01*
Y608332D01*
X358136Y605793D01*
X363214D01*
X365753Y608332D01*
Y610871D01*
X363214Y613410D01*
X355597D01*
X297432Y622801D02*
Y612645D01*
Y617723D01*
X282197D01*
Y607566D02*
X297432D01*
Y599949D01*
X294892Y597410D01*
X289814D01*
X287275Y599949D01*
Y607566D01*
X297432Y582175D02*
Y592331D01*
X289814D01*
X292353Y587253D01*
Y584714D01*
X289814Y582175D01*
X284736D01*
X282197Y584714D01*
Y589792D01*
X284736Y592331D01*
X500380Y621787D02*
X510537D01*
X505458D01*
Y606552D01*
X515615D02*
Y621787D01*
X523233D01*
X525772Y619248D01*
Y614170D01*
X523233Y611630D01*
X515615D01*
X538468Y606552D02*
Y621787D01*
X530850Y614170D01*
X541007D01*
X246377Y361922D02*
Y351766D01*
Y356844D01*
X231142D01*
Y346687D02*
X246377D01*
Y339070D01*
X243838Y336531D01*
X238760D01*
X236220Y339070D01*
Y346687D01*
X228603Y331452D02*
Y321296D01*
X246377Y316217D02*
Y311139D01*
Y313678D01*
X231142D01*
Y316217D01*
Y311139D01*
Y303521D02*
X241299D01*
Y295904D01*
X238760Y293365D01*
X231142D01*
X238760Y288286D02*
Y278130D01*
X241299Y273051D02*
X231142D01*
X236220D01*
X238760Y270512D01*
X241299Y267973D01*
Y265434D01*
Y257816D02*
X233681D01*
X231142Y255277D01*
Y247659D01*
X241299D01*
X231142Y242581D02*
Y234963D01*
X233681Y232424D01*
X236220Y234963D01*
Y240042D01*
X238760Y242581D01*
X241299Y240042D01*
Y232424D01*
X246377Y227346D02*
X231142D01*
X238760D01*
X241299Y224807D01*
Y219729D01*
X238760Y217189D01*
X231142D01*
X228603Y212111D02*
Y201954D01*
X246377Y196876D02*
Y191798D01*
Y194337D01*
X231142D01*
Y196876D01*
Y191798D01*
X127261Y154943D02*
Y170177D01*
X134878D01*
X137417Y167638D01*
Y162560D01*
X134878Y160021D01*
X127261D01*
X142496Y170177D02*
Y154943D01*
X147574Y160021D01*
X152652Y154943D01*
Y170177D01*
X157731Y154943D02*
Y170177D01*
X165348D01*
X167887Y167638D01*
Y162560D01*
X165348Y160021D01*
X157731D01*
X162809D02*
X167887Y154943D01*
X13464Y583190D02*
Y593346D01*
Y588268D01*
X28700D01*
Y598425D02*
X13464D01*
Y606042D01*
X16004Y608582D01*
X21082D01*
X23621Y606042D01*
Y598425D01*
X28700Y613660D02*
Y618738D01*
Y616199D01*
X13464D01*
X16004Y613660D01*
X268734Y24382D02*
X266195Y26922D01*
X261117D01*
X258578Y24382D01*
Y21843D01*
X261117Y19304D01*
X266195D01*
X268734Y16765D01*
Y14226D01*
X266195Y11687D01*
X261117D01*
X258578Y14226D01*
X273813Y26922D02*
Y11687D01*
X278891Y16765D01*
X283970Y11687D01*
Y26922D01*
X289048Y11687D02*
X294126D01*
X291587D01*
Y26922D01*
X289048Y24382D01*
X603256Y450853D02*
Y466087D01*
X610874D01*
X613413Y463548D01*
Y458470D01*
X610874Y455931D01*
X603256D01*
X608335D02*
X613413Y450853D01*
X618491D02*
X623570D01*
X621030D01*
Y466087D01*
X618491Y463548D01*
X641344Y466087D02*
X636265Y463548D01*
X631187Y458470D01*
Y453392D01*
X633726Y450853D01*
X638805D01*
X641344Y453392D01*
Y455931D01*
X638805Y458470D01*
X631187D01*
X650246Y450598D02*
Y465834D01*
X657864D01*
X660403Y463294D01*
Y458216D01*
X657864Y455677D01*
X650246D01*
X655324D02*
X660403Y450598D01*
X665481D02*
X670560D01*
X668020D01*
Y465834D01*
X665481Y463294D01*
X688334Y465834D02*
X678177D01*
Y458216D01*
X683255Y460755D01*
X685795D01*
X688334Y458216D01*
Y453138D01*
X685795Y450598D01*
X680716D01*
X678177Y453138D01*
X698754Y561594D02*
Y576829D01*
X706372D01*
X708911Y574290D01*
Y569212D01*
X706372Y566672D01*
X698754D01*
X703832D02*
X708911Y561594D01*
X713989D02*
X719067D01*
X716528D01*
Y576829D01*
X713989Y574290D01*
X734303Y561594D02*
Y576829D01*
X726685Y569212D01*
X736842D01*
X754634Y560832D02*
Y576067D01*
X762252D01*
X764791Y573528D01*
Y568450D01*
X762252Y565910D01*
X754634D01*
X759712D02*
X764791Y560832D01*
X769869D02*
X774947D01*
X772408D01*
Y576067D01*
X769869Y573528D01*
X782565D02*
X785104Y576067D01*
X790182D01*
X792722Y573528D01*
Y570989D01*
X790182Y568450D01*
X787643D01*
X790182D01*
X792722Y565910D01*
Y563371D01*
X790182Y560832D01*
X785104D01*
X782565Y563371D01*
X707396Y451614D02*
Y466850D01*
X715014D01*
X717553Y464310D01*
Y459232D01*
X715014Y456693D01*
X707396D01*
X712475D02*
X717553Y451614D01*
X722631D02*
X727710D01*
X725170D01*
Y466850D01*
X722631Y464310D01*
X745484Y451614D02*
X735327D01*
X745484Y461771D01*
Y464310D01*
X742945Y466850D01*
X737866D01*
X735327Y464310D01*
X754385Y452122D02*
Y467357D01*
X762003D01*
X764542Y464818D01*
Y459740D01*
X762003Y457201D01*
X754385D01*
X759464D02*
X764542Y452122D01*
X769620D02*
X774699D01*
X772160D01*
Y467357D01*
X769620Y464818D01*
X782316Y452122D02*
X787395D01*
X784855D01*
Y467357D01*
X782316Y464818D01*
X792486Y450853D02*
Y466087D01*
X800104D01*
X802643Y463548D01*
Y458470D01*
X800104Y455931D01*
X792486D01*
X797564D02*
X802643Y450853D01*
X807721D02*
X812800D01*
X810260D01*
Y466087D01*
X807721Y463548D01*
X820417D02*
X822956Y466087D01*
X828035D01*
X830574Y463548D01*
Y453392D01*
X828035Y450853D01*
X822956D01*
X820417Y453392D01*
Y463548D01*
X897894Y450853D02*
Y466087D01*
X905512D01*
X908051Y463548D01*
Y458470D01*
X905512Y455931D01*
X897894D01*
X902972D02*
X908051Y450853D01*
X913129Y453392D02*
X915668Y450853D01*
X920747D01*
X923286Y453392D01*
Y463548D01*
X920747Y466087D01*
X915668D01*
X913129Y463548D01*
Y461009D01*
X915668Y458470D01*
X923286D01*
X64266Y495048D02*
Y510284D01*
X71884D01*
X74423Y507744D01*
Y502666D01*
X71884Y500127D01*
X64266D01*
X69345D02*
X74423Y495048D01*
X79501Y507744D02*
X82040Y510284D01*
X87119D01*
X89658Y507744D01*
Y505205D01*
X87119Y502666D01*
X89658Y500127D01*
Y497588D01*
X87119Y495048D01*
X82040D01*
X79501Y497588D01*
Y500127D01*
X82040Y502666D01*
X79501Y505205D01*
Y507744D01*
X82040Y502666D02*
X87119D01*
X82042Y536702D02*
Y551937D01*
X89660D01*
X92199Y549398D01*
Y544319D01*
X89660Y541780D01*
X82042D01*
X87120D02*
X92199Y536702D01*
X97277Y551937D02*
X107434D01*
Y549398D01*
X97277Y539241D01*
Y536702D01*
X617728Y288036D02*
Y303271D01*
X625345D01*
X627885Y300732D01*
Y295653D01*
X625345Y293114D01*
X617728D01*
X622806D02*
X627885Y288036D01*
X643120Y303271D02*
X638041Y300732D01*
X632963Y295653D01*
Y290575D01*
X635502Y288036D01*
X640581D01*
X643120Y290575D01*
Y293114D01*
X640581Y295653D01*
X632963D01*
X142244Y322583D02*
Y337817D01*
X149862D01*
X152401Y335278D01*
Y330200D01*
X149862Y327661D01*
X142244D01*
X147323D02*
X152401Y322583D01*
X167636Y337817D02*
X157479D01*
Y330200D01*
X162558Y332739D01*
X165097D01*
X167636Y330200D01*
Y325122D01*
X165097Y322583D01*
X160018D01*
X157479Y325122D01*
X800354Y120142D02*
Y135377D01*
X807971D01*
X810511Y132838D01*
Y127760D01*
X807971Y125220D01*
X800354D01*
X805432D02*
X810511Y120142D01*
X823207D02*
Y135377D01*
X815589Y127760D01*
X825746D01*
X182118Y147320D02*
Y162555D01*
X189736D01*
X192275Y160016D01*
Y154937D01*
X189736Y152398D01*
X182118D01*
X187196D02*
X192275Y147320D01*
X197353Y160016D02*
X199892Y162555D01*
X204971D01*
X207510Y160016D01*
Y157477D01*
X204971Y154937D01*
X202431D01*
X204971D01*
X207510Y152398D01*
Y149859D01*
X204971Y147320D01*
X199892D01*
X197353Y149859D01*
X168914Y218442D02*
Y233678D01*
X176532D01*
X179071Y231138D01*
Y226060D01*
X176532Y223521D01*
X168914D01*
X173993D02*
X179071Y218442D01*
X194306D02*
X184149D01*
X194306Y228599D01*
Y231138D01*
X191767Y233678D01*
X186688D01*
X184149Y231138D01*
X273558Y147066D02*
Y162301D01*
X281175D01*
X283715Y159762D01*
Y154684D01*
X281175Y152144D01*
X273558D01*
X278636D02*
X283715Y147066D01*
X288793D02*
X293871D01*
X291332D01*
Y162301D01*
X288793Y159762D01*
X565147Y528827D02*
Y538984D01*
X562607Y541523D01*
X557529D01*
X554990Y538984D01*
Y528827D01*
X557529Y526288D01*
X562607D01*
X560068Y531366D02*
X565147Y526288D01*
X562607D02*
X565147Y528827D01*
X570225Y526288D02*
X575303D01*
X572764D01*
Y541523D01*
X570225Y538984D01*
X795024Y610872D02*
Y626107D01*
X802642D01*
X805181Y623568D01*
Y618490D01*
X802642Y615951D01*
X795024D01*
X810259Y623568D02*
X812798Y626107D01*
X817877D01*
X820416Y623568D01*
Y621029D01*
X817877Y618490D01*
X815338D01*
X817877D01*
X820416Y615951D01*
Y613412D01*
X817877Y610872D01*
X812798D01*
X810259Y613412D01*
X960116Y342897D02*
Y327662D01*
X952498D01*
X949959Y330202D01*
Y335280D01*
X952498Y337819D01*
X960116D01*
X934724Y342897D02*
X944881D01*
X934724Y332741D01*
Y330202D01*
X937263Y327662D01*
X942342D01*
X944881Y330202D01*
X835669Y467357D02*
Y452122D01*
X845826D01*
X861061Y467357D02*
X850904D01*
Y452122D01*
X861061D01*
X850904Y459740D02*
X855983D01*
X866139Y467357D02*
Y452122D01*
X873757D01*
X876296Y454662D01*
Y464818D01*
X873757Y467357D01*
X866139D01*
X891531D02*
X881374D01*
Y459740D01*
X886453Y462279D01*
X888992D01*
X891531Y459740D01*
Y454662D01*
X888992Y452122D01*
X883913D01*
X881374Y454662D01*
X10169Y490218D02*
Y474982D01*
X20326D01*
X35561Y490218D02*
X25404D01*
Y474982D01*
X35561D01*
X25404Y482600D02*
X30482D01*
X40639Y490218D02*
Y474982D01*
X48257D01*
X50796Y477522D01*
Y487678D01*
X48257Y490218D01*
X40639D01*
X63492Y474982D02*
Y490218D01*
X55874Y482600D01*
X66031D01*
X19558Y553207D02*
Y537972D01*
X29715D01*
X44950Y553207D02*
X34793D01*
Y537972D01*
X44950D01*
X34793Y545589D02*
X39871D01*
X50028Y553207D02*
Y537972D01*
X57646D01*
X60185Y540511D01*
Y550668D01*
X57646Y553207D01*
X50028D01*
X65263Y550668D02*
X67802Y553207D01*
X72881D01*
X75420Y550668D01*
Y548129D01*
X72881Y545589D01*
X70342D01*
X72881D01*
X75420Y543050D01*
Y540511D01*
X72881Y537972D01*
X67802D01*
X65263Y540511D01*
X789949Y40637D02*
Y25403D01*
X800106D01*
X815341Y40637D02*
X805184D01*
Y25403D01*
X815341D01*
X805184Y33020D02*
X810263D01*
X820419Y40637D02*
Y25403D01*
X828037D01*
X830576Y27942D01*
Y38098D01*
X828037Y40637D01*
X820419D01*
X845811Y25403D02*
X835654D01*
X845811Y35559D01*
Y38098D01*
X843272Y40637D01*
X838193D01*
X835654Y38098D01*
X194064Y25398D02*
Y10163D01*
X204221D01*
X219456Y25398D02*
X209299D01*
Y10163D01*
X219456D01*
X209299Y17780D02*
X214378D01*
X224534Y25398D02*
Y10163D01*
X232152D01*
X234691Y12702D01*
Y22858D01*
X232152Y25398D01*
X224534D01*
X239769Y10163D02*
X244848D01*
X242309D01*
Y25398D01*
X239769Y22858D01*
X717553Y64767D02*
Y49532D01*
X727710D01*
X732788D02*
X737867D01*
X735328D01*
Y64767D01*
X732788Y62228D01*
X604771Y99817D02*
X599692D01*
X602231D01*
Y87121D01*
X599692Y84582D01*
X597153D01*
X594614Y87121D01*
X620006Y84582D02*
X609849D01*
X620006Y94739D01*
Y97278D01*
X617467Y99817D01*
X612388D01*
X609849Y97278D01*
X17780Y327658D02*
X12702D01*
X15241D01*
Y314962D01*
X12702Y312423D01*
X10163D01*
X7623Y314962D01*
X22858Y312423D02*
X27937D01*
X25398D01*
Y327658D01*
X22858Y325118D01*
X541020Y271521D02*
Y256286D01*
X548638D01*
X551177Y258825D01*
Y268982D01*
X548638Y271521D01*
X541020D01*
X566412D02*
X556255D01*
Y263904D01*
X561333Y266443D01*
X563873D01*
X566412Y263904D01*
Y258825D01*
X563873Y256286D01*
X558794D01*
X556255Y258825D01*
X309372Y272791D02*
Y257556D01*
X316989D01*
X319529Y260095D01*
Y270252D01*
X316989Y272791D01*
X309372D01*
X332225Y257556D02*
Y272791D01*
X324607Y265173D01*
X334764D01*
X461264Y272283D02*
Y257048D01*
X468881D01*
X471421Y259587D01*
Y269744D01*
X468881Y272283D01*
X461264D01*
X476499Y269744D02*
X479038Y272283D01*
X484117D01*
X486656Y269744D01*
Y267205D01*
X484117Y264666D01*
X481577D01*
X484117D01*
X486656Y262126D01*
Y259587D01*
X484117Y257048D01*
X479038D01*
X476499Y259587D01*
X386588Y273299D02*
Y258064D01*
X394206D01*
X396745Y260603D01*
Y270760D01*
X394206Y273299D01*
X386588D01*
X411980Y258064D02*
X401823D01*
X411980Y268221D01*
Y270760D01*
X409441Y273299D01*
X404362D01*
X401823Y270760D01*
X197280Y558005D02*
Y542770D01*
X204898D01*
X207437Y545309D01*
Y555466D01*
X204898Y558005D01*
X197280D01*
X212515Y542770D02*
X217593D01*
X215054D01*
Y558005D01*
X212515Y555466D01*
X570233Y596898D02*
X567694Y599437D01*
X562616D01*
X560077Y596898D01*
Y586742D01*
X562616Y584202D01*
X567694D01*
X570233Y586742D01*
X585468Y584202D02*
X575312D01*
X585468Y594359D01*
Y596898D01*
X582929Y599437D01*
X577851D01*
X575312Y596898D01*
X590547D02*
X593086Y599437D01*
X598164D01*
X600703Y596898D01*
Y586742D01*
X598164Y584202D01*
X593086D01*
X590547Y586742D01*
Y596898D01*
X523243Y321308D02*
X520704Y323848D01*
X515625D01*
X513086Y321308D01*
Y311152D01*
X515625Y308612D01*
X520704D01*
X523243Y311152D01*
X528321Y308612D02*
X533400D01*
X530860D01*
Y323848D01*
X528321Y321308D01*
X541017Y311152D02*
X543556Y308612D01*
X548635D01*
X551174Y311152D01*
Y321308D01*
X548635Y323848D01*
X543556D01*
X541017Y321308D01*
Y318769D01*
X543556Y316230D01*
X551174D01*
X307343Y325118D02*
X304804Y327658D01*
X299725D01*
X297186Y325118D01*
Y314962D01*
X299725Y312423D01*
X304804D01*
X307343Y314962D01*
X312421Y312423D02*
X317500D01*
X314960D01*
Y327658D01*
X312421Y325118D01*
X325117D02*
X327656Y327658D01*
X332735D01*
X335274Y325118D01*
Y322579D01*
X332735Y320040D01*
X335274Y317501D01*
Y314962D01*
X332735Y312423D01*
X327656D01*
X325117Y314962D01*
Y317501D01*
X327656Y320040D01*
X325117Y322579D01*
Y325118D01*
X327656Y320040D02*
X332735D01*
X444503Y321308D02*
X441964Y323848D01*
X436885D01*
X434346Y321308D01*
Y311152D01*
X436885Y308612D01*
X441964D01*
X444503Y311152D01*
X449581Y308612D02*
X454660D01*
X452120D01*
Y323848D01*
X449581Y321308D01*
X462277Y323848D02*
X472434D01*
Y321308D01*
X462277Y311152D01*
Y308612D01*
X375923Y322578D02*
X373384Y325117D01*
X368305D01*
X365766Y322578D01*
Y312422D01*
X368305Y309883D01*
X373384D01*
X375923Y312422D01*
X381001Y309883D02*
X386080D01*
X383540D01*
Y325117D01*
X381001Y322578D01*
X403854Y325117D02*
X398775Y322578D01*
X393697Y317500D01*
Y312422D01*
X396236Y309883D01*
X401315D01*
X403854Y312422D01*
Y314961D01*
X401315Y317500D01*
X393697D01*
X622044Y399539D02*
X624584Y402078D01*
Y407157D01*
X622044Y409696D01*
X611888D01*
X609348Y407157D01*
Y402078D01*
X611888Y399539D01*
X609348Y394461D02*
Y389382D01*
Y391922D01*
X624584D01*
X622044Y394461D01*
X624584Y371608D02*
Y381765D01*
X616966D01*
X619505Y376687D01*
Y374147D01*
X616966Y371608D01*
X611888D01*
X609348Y374147D01*
Y379226D01*
X611888Y381765D01*
X83823Y436116D02*
X81284Y438656D01*
X76205D01*
X73666Y436116D01*
Y425960D01*
X76205Y423420D01*
X81284D01*
X83823Y425960D01*
X88901Y423420D02*
X93980D01*
X91440D01*
Y438656D01*
X88901Y436116D01*
X109215Y423420D02*
Y438656D01*
X101597Y431038D01*
X111754D01*
X711203Y300480D02*
X708664Y303020D01*
X703585D01*
X701046Y300480D01*
Y290324D01*
X703585Y287785D01*
X708664D01*
X711203Y290324D01*
X716281Y287785D02*
X721360D01*
X718820D01*
Y303020D01*
X716281Y300480D01*
X728977D02*
X731516Y303020D01*
X736595D01*
X739134Y300480D01*
Y297941D01*
X736595Y295402D01*
X734055D01*
X736595D01*
X739134Y292863D01*
Y290324D01*
X736595Y287785D01*
X731516D01*
X728977Y290324D01*
X232413Y484122D02*
X229874Y486661D01*
X224795D01*
X222256Y484122D01*
Y473966D01*
X224795Y471427D01*
X229874D01*
X232413Y473966D01*
X237491Y471427D02*
X242570D01*
X240030D01*
Y486661D01*
X237491Y484122D01*
X260344Y471427D02*
X250187D01*
X260344Y481583D01*
Y484122D01*
X257805Y486661D01*
X252726D01*
X250187Y484122D01*
X757171Y302002D02*
X754632Y304541D01*
X749553D01*
X747014Y302002D01*
Y291845D01*
X749553Y289306D01*
X754632D01*
X757171Y291845D01*
X762249Y289306D02*
X767327D01*
X764788D01*
Y304541D01*
X762249Y302002D01*
X774945Y289306D02*
X780023D01*
X777484D01*
Y304541D01*
X774945Y302002D01*
X231391Y534920D02*
X228852Y537459D01*
X223773D01*
X221234Y534920D01*
Y524763D01*
X223773Y522224D01*
X228852D01*
X231391Y524763D01*
X236469Y522224D02*
X241547D01*
X239008D01*
Y537459D01*
X236469Y534920D01*
X249165D02*
X251704Y537459D01*
X256782D01*
X259322Y534920D01*
Y524763D01*
X256782Y522224D01*
X251704D01*
X249165Y524763D01*
Y534920D01*
X765811Y61974D02*
X763272Y64514D01*
X758193D01*
X755654Y61974D01*
Y51818D01*
X758193Y49278D01*
X763272D01*
X765811Y51818D01*
X770889D02*
X773428Y49278D01*
X778507D01*
X781046Y51818D01*
Y61974D01*
X778507Y64514D01*
X773428D01*
X770889Y61974D01*
Y59435D01*
X773428Y56896D01*
X781046D01*
X861565Y433320D02*
X859025Y435859D01*
X853947D01*
X851408Y433320D01*
Y423163D01*
X853947Y420624D01*
X859025D01*
X861565Y423163D01*
X866643Y433320D02*
X869182Y435859D01*
X874261D01*
X876800Y433320D01*
Y430781D01*
X874261Y428242D01*
X876800Y425702D01*
Y423163D01*
X874261Y420624D01*
X869182D01*
X866643Y423163D01*
Y425702D01*
X869182Y428242D01*
X866643Y430781D01*
Y433320D01*
X869182Y428242D02*
X874261D01*
X672843Y350516D02*
X670303Y353055D01*
X665225D01*
X662686Y350516D01*
Y340359D01*
X665225Y337820D01*
X670303D01*
X672843Y340359D01*
X677921Y353055D02*
X688078D01*
Y350516D01*
X677921Y340359D01*
Y337820D01*
X171451Y299718D02*
X168912Y302257D01*
X163833D01*
X161294Y299718D01*
Y289562D01*
X163833Y287022D01*
X168912D01*
X171451Y289562D01*
X186686Y302257D02*
X181607Y299718D01*
X176529Y294640D01*
Y289562D01*
X179068Y287022D01*
X184147D01*
X186686Y289562D01*
Y292101D01*
X184147Y294640D01*
X176529D01*
X658623Y202436D02*
X656084Y204975D01*
X651005D01*
X648466Y202436D01*
Y192280D01*
X651005Y189741D01*
X656084D01*
X658623Y192280D01*
X673858Y204975D02*
X663701D01*
Y197358D01*
X668780Y199897D01*
X671319D01*
X673858Y197358D01*
Y192280D01*
X671319Y189741D01*
X666240D01*
X663701Y192280D01*
X156211Y386078D02*
X153672Y388618D01*
X148593D01*
X146054Y386078D01*
Y375922D01*
X148593Y373382D01*
X153672D01*
X156211Y375922D01*
X168907Y373382D02*
Y388618D01*
X161289Y381000D01*
X171446D01*
X169419Y23874D02*
X166880Y26414D01*
X161801D01*
X159262Y23874D01*
Y13718D01*
X161801Y11178D01*
X166880D01*
X169419Y13718D01*
X174497Y23874D02*
X177036Y26414D01*
X182115D01*
X184654Y23874D01*
Y21335D01*
X182115Y18796D01*
X179576D01*
X182115D01*
X184654Y16257D01*
Y13718D01*
X182115Y11178D01*
X177036D01*
X174497Y13718D01*
X240027Y159762D02*
X237488Y162301D01*
X232409D01*
X229870Y159762D01*
Y149605D01*
X232409Y147066D01*
X237488D01*
X240027Y149605D01*
X245105Y147066D02*
X250183D01*
X247644D01*
Y162301D01*
X245105Y159762D01*
X405644Y160779D02*
Y145545D01*
X413261D01*
X415801Y148084D01*
Y150623D01*
X413261Y153162D01*
X405644D01*
X413261D01*
X415801Y155701D01*
Y158240D01*
X413261Y160779D01*
X405644D01*
X420879D02*
X431036D01*
Y158240D01*
X420879Y148084D01*
Y145545D01*
X431036D01*
X436114D02*
X441192D01*
X438653D01*
Y160779D01*
X436114Y158240D01*
X662940Y618486D02*
X665479Y621025D01*
X670557D01*
X673097Y618486D01*
Y615947D01*
X670557Y613408D01*
X668018D01*
X670557D01*
X673097Y610868D01*
Y608329D01*
X670557Y605790D01*
X665479D01*
X662940Y608329D01*
X938528Y511813D02*
X928372D01*
X938528Y521969D01*
Y524508D01*
X935989Y527048D01*
X930911D01*
X928372Y524508D01*
X65024Y186690D02*
X70102D01*
X67563D01*
Y201925D01*
X65024Y199386D01*
D11*
X71620Y351790D02*
G03*
X71620Y351790I-500J0D01*
G01*
X684921Y242139D02*
G03*
X684921Y242139I-500J0D01*
G01*
D12*
X54969Y168402D02*
G03*
X54969Y168402I-2000J0D01*
G01*
X811442Y576834D02*
G03*
X811442Y576834I-2000J0D01*
G01*
D13*
X160741Y555904D02*
G03*
X160741Y555904I-1796J0D01*
G01*
X220742Y82804D02*
G03*
X220742Y82804I-2048J0D01*
G01*
X731012Y120650D02*
G03*
X731012Y120650I-762J0D01*
G01*
X594752Y242570D02*
G03*
X594752Y242570I-2170J0D01*
G01*
X363104Y243840D02*
G03*
X363104Y243840I-2170J0D01*
G01*
X514996Y243332D02*
G03*
X514996Y243332I-2170J0D01*
G01*
X440320Y244348D02*
G03*
X440320Y244348I-2170J0D01*
G01*
X558546Y305054D02*
X568198D01*
X558546Y287274D02*
X568198D01*
X478282Y304800D02*
X487934D01*
X478282Y287020D02*
X487934D01*
X409194Y305562D02*
X418846D01*
X409194Y287782D02*
X418846D01*
X328422Y288798D02*
X338074D01*
X328422Y306578D02*
X338074D01*
X129794Y8890D02*
X139446D01*
X129794Y26670D02*
X139446D01*
X136144Y265430D02*
X145796D01*
X136144Y247650D02*
X145796D01*
X133604Y214660D02*
X143256D01*
X133604Y237460D02*
X143256D01*
X109728Y336012D02*
X119380D01*
X109728Y313212D02*
X119380D01*
X129286Y285242D02*
X138938D01*
X129286Y303022D02*
X138938D01*
X114554Y392430D02*
X124206D01*
X114554Y374650D02*
X124206D01*
X663702Y211836D02*
X673354D01*
X663702Y229616D02*
X673354D01*
X593598Y550672D02*
Y560324D01*
X575818Y550672D02*
Y560324D01*
X676910Y328930D02*
X686562D01*
X676910Y311150D02*
X686562D01*
X615980Y254000D02*
Y263652D01*
X638780Y254000D02*
Y263652D01*
X646176Y407162D02*
X655828D01*
X646176Y389382D02*
X655828D01*
X618520Y487680D02*
Y497332D01*
X641320Y487680D02*
Y497332D01*
X805942Y46690D02*
X833882D01*
X805688Y72690D02*
X833628D01*
X814578Y111730D02*
X824230D01*
X814578Y88930D02*
X824230D01*
X788670Y138430D02*
Y143510D01*
X783590Y138430D02*
X788670D01*
X783475Y215197D02*
X788555D01*
Y210117D02*
Y215197D01*
X712213Y210550D02*
Y215630D01*
X717293D01*
X711200Y137160D02*
Y142240D01*
Y137160D02*
X716280D01*
X745490Y255270D02*
Y264922D01*
X763270Y255270D02*
Y264922D01*
X718820Y255270D02*
Y264922D01*
X736600Y255270D02*
Y264922D01*
X845520Y478790D02*
Y506730D01*
X871520Y479044D02*
Y506984D01*
X763300Y487680D02*
Y497332D01*
X786100Y487680D02*
Y497332D01*
X826740Y487680D02*
Y497332D01*
X803940Y487680D02*
Y497332D01*
X865632Y394208D02*
X875284D01*
X865632Y411988D02*
X875284D01*
X712978Y530382D02*
X722630D01*
X712978Y553182D02*
X722630D01*
X683230Y487680D02*
Y497332D01*
X660430Y487680D02*
Y497332D01*
X768858Y529620D02*
X778510D01*
X768858Y552420D02*
X778510D01*
X713770Y487680D02*
Y497332D01*
X736570Y487680D02*
Y497332D01*
X177500Y36830D02*
Y64770D01*
X203500Y37084D02*
Y65024D01*
X296418Y45974D02*
Y63754D01*
X207518Y45974D02*
Y63754D01*
X234188Y46482D02*
Y49784D01*
X269748Y46482D02*
Y49784D01*
Y61722D02*
Y65278D01*
X234188Y61722D02*
Y65278D01*
X247650Y54102D02*
Y58166D01*
X243586Y56134D02*
X247650D01*
X226568Y29464D02*
X277368D01*
X226568Y80264D02*
X277368D01*
X234188Y49784D02*
X269748D01*
X234188Y61722D02*
X269748D01*
X251973Y58060D02*
Y61616D01*
X251846Y49932D02*
Y53996D01*
X203170Y113284D02*
Y122936D01*
X180370Y113284D02*
Y122936D01*
X271810Y113030D02*
Y122682D01*
X294610Y113030D02*
Y122682D01*
X246380Y113030D02*
Y122682D01*
X228600Y113030D02*
Y122682D01*
X774700Y85344D02*
Y94996D01*
X756920Y85344D02*
Y94996D01*
X88900Y461518D02*
X98552D01*
X88900Y443738D02*
X98552D01*
X88138Y472470D02*
X97790D01*
X88138Y495270D02*
X97790D01*
X96266Y505490D02*
X105918D01*
X96266Y528290D02*
X105918D01*
X24892Y529636D02*
X52832D01*
X25146Y503636D02*
X53086D01*
X914370Y487680D02*
Y497332D01*
X891570Y487680D02*
Y497332D01*
X23114Y467152D02*
X51054D01*
X23368Y441152D02*
X51308D01*
X235458Y467360D02*
X245110D01*
X235458Y449580D02*
X245110D01*
X235458Y513588D02*
X245110D01*
X235458Y495808D02*
X245110D01*
X740537Y84194D02*
Y95384D01*
X719963Y84194D02*
Y95384D01*
X541909Y212852D02*
X565531Y189230D01*
X555862Y237495D02*
X571101D01*
X541401Y199644D02*
Y227584D01*
X555705Y189171D02*
X571008D01*
X585851Y199644D02*
Y227584D01*
X310261Y214122D02*
X333883Y190500D01*
X324213Y238765D02*
X339454D01*
X309753Y200914D02*
Y228854D01*
X324057Y190441D02*
X339360D01*
X354203Y200914D02*
Y228854D01*
X462153Y213614D02*
X485775Y189992D01*
X476105Y238257D02*
X491345D01*
X461645Y200406D02*
Y228346D01*
X475949Y189933D02*
X491252D01*
X506095Y200406D02*
Y228346D01*
X387477Y214630D02*
X411099Y191008D01*
X401429Y239273D02*
X416670D01*
X386969Y201422D02*
Y229362D01*
X401273Y190949D02*
X416576D01*
X431419Y201422D02*
Y229362D01*
D14*
X652390Y546078D02*
G03*
X652390Y546078I-3000J0D01*
G01*
D15*
X672140Y533028D02*
G03*
X672140Y533028I-1250J0D01*
G01*
D16*
X694062Y410820D02*
G03*
X694062Y410820I-1000J0D01*
G01*
X594852Y485140D02*
G03*
X594852Y485140I-1000J0D01*
G01*
X765258Y416558D02*
G03*
X765258Y416558I-810J0D01*
G01*
X785648Y410558D02*
G03*
X785648Y410558I-1200J0D01*
G01*
X628390Y585078D02*
X659390D01*
X628390Y536078D02*
X659390D01*
X628390D02*
Y585078D01*
X659390Y536078D02*
Y585078D01*
X778948Y385558D02*
Y415558D01*
Y385558D02*
X801948D01*
Y415558D01*
X778948D02*
X801948D01*
D17*
X166624Y586232D02*
X193294D01*
X166624D02*
Y614172D01*
X269494Y586232D02*
X273304D01*
Y614172D01*
X166624D02*
X273304D01*
X345948Y570230D02*
Y596900D01*
X373888D01*
X345948Y490220D02*
Y494030D01*
Y490220D02*
X373888D01*
Y596900D01*
X415290Y490220D02*
Y516890D01*
X387350Y490220D02*
X415290D01*
Y593090D02*
Y596900D01*
X387350D02*
X415290D01*
X387350Y490220D02*
Y596900D01*
X468630Y490220D02*
Y516890D01*
X440690Y490220D02*
X468630D01*
Y593090D02*
Y596900D01*
X440690D02*
X468630D01*
X440690Y490220D02*
Y596900D01*
X527558Y490220D02*
Y516890D01*
X499618Y490220D02*
X527558D01*
Y593090D02*
Y596900D01*
X499618D02*
X527558D01*
X499618Y490220D02*
Y596900D01*
X38354Y586232D02*
X65024D01*
X38354D02*
Y614172D01*
X141224Y586232D02*
X145034D01*
Y614172D01*
X38354D02*
X145034D01*
X320040Y99060D02*
Y125730D01*
X347980D01*
X320040Y19050D02*
Y22860D01*
Y19050D02*
X347980D01*
Y125730D01*
X439420Y417830D02*
X546100D01*
X439420D02*
Y445770D01*
X443230D01*
X546100Y417830D02*
Y445770D01*
X519430D02*
X546100D01*
X132080Y40640D02*
Y147320D01*
X160020D01*
Y143510D02*
Y147320D01*
X132080Y40640D02*
X160020D01*
Y67310D01*
X863600Y59690D02*
X970280D01*
Y31750D02*
Y59690D01*
X966470Y31750D02*
X970280D01*
X863600D02*
Y59690D01*
Y31750D02*
X890270D01*
X864870Y273050D02*
X971550D01*
Y245110D02*
Y273050D01*
X967740Y245110D02*
X971550D01*
X864870D02*
Y273050D01*
Y245110D02*
X891540D01*
X195580D02*
Y347980D01*
X223520D01*
X195580Y241300D02*
Y245110D01*
Y241300D02*
X223520D01*
Y347980D01*
X863600Y128270D02*
X970280D01*
Y100330D02*
Y128270D01*
X966470Y100330D02*
X970280D01*
X863600D02*
Y128270D01*
Y100330D02*
X890270D01*
X863600Y198120D02*
X970280D01*
Y170180D02*
Y198120D01*
X966470Y170180D02*
X970280D01*
X863600D02*
Y198120D01*
Y170180D02*
X890270D01*
D18*
X148501Y397352D02*
Y499252D01*
Y397352D02*
X176187D01*
Y499252D01*
X148501D02*
X176187D01*
D19*
X97715Y137668D02*
Y149724D01*
X74813D02*
X97715D01*
X7715Y5724D02*
X97715D01*
X7715D02*
Y149724D01*
X28585D01*
X97715Y5724D02*
Y95224D01*
X708062Y416910D02*
X726062D01*
X708062Y385730D02*
X726062D01*
X563118Y517906D02*
X581118D01*
X563118Y484378D02*
X581118D01*
X882620Y621580D02*
X972120D01*
X828120Y531580D02*
Y552450D01*
Y531580D02*
X972120D01*
Y621580D01*
X828120Y598678D02*
Y621580D01*
X840176D01*
X593852Y48514D02*
X619252D01*
Y23114D02*
Y48514D01*
D20*
X166297Y521106D02*
X181297D01*
X166057Y553618D02*
X181057D01*
M02*
