G04*
G04 #@! TF.GenerationSoftware,Altium Limited,Altium Designer,23.1.1 (15)*
G04*
G04 Layer_Color=8421504*
%FSLAX44Y44*%
%MOMM*%
G71*
G04*
G04 #@! TF.SameCoordinates,32E53F4C-9CDF-4151-867A-B185B0D7BA91*
G04*
G04*
G04 #@! TF.FilePolarity,Positive*
G04*
G01*
G75*
%ADD21R,1.1176X1.8034*%
%ADD22O,2.2000X0.6096*%
%ADD23R,1.1999X1.3998*%
%ADD24R,1.0000X0.7000*%
%ADD25R,1.8034X1.1176*%
%ADD26R,1.5500X0.6000*%
G04:AMPARAMS|DCode=27|XSize=1.61mm|YSize=0.59mm|CornerRadius=0.0738mm|HoleSize=0mm|Usage=FLASHONLY|Rotation=0.000|XOffset=0mm|YOffset=0mm|HoleType=Round|Shape=RoundedRectangle|*
%AMROUNDEDRECTD27*
21,1,1.6100,0.4425,0,0,0.0*
21,1,1.4625,0.5900,0,0,0.0*
1,1,0.1475,0.7313,-0.2213*
1,1,0.1475,-0.7313,-0.2213*
1,1,0.1475,-0.7313,0.2213*
1,1,0.1475,0.7313,0.2213*
%
%ADD27ROUNDEDRECTD27*%
G04:AMPARAMS|DCode=28|XSize=1.21mm|YSize=0.59mm|CornerRadius=0.1475mm|HoleSize=0mm|Usage=FLASHONLY|Rotation=180.000|XOffset=0mm|YOffset=0mm|HoleType=Round|Shape=RoundedRectangle|*
%AMROUNDEDRECTD28*
21,1,1.2100,0.2950,0,0,180.0*
21,1,0.9150,0.5900,0,0,180.0*
1,1,0.2950,-0.4575,0.1475*
1,1,0.2950,0.4575,0.1475*
1,1,0.2950,0.4575,-0.1475*
1,1,0.2950,-0.4575,-0.1475*
%
%ADD28ROUNDEDRECTD28*%
%ADD29R,1.5500X0.5080*%
%ADD30R,0.5080X1.5500*%
%ADD31R,1.4700X0.3000*%
%ADD32R,1.4500X0.3000*%
%ADD33R,1.5000X1.2000*%
%ADD34R,1.8542X1.3716*%
%ADD35R,1.2065X1.6500*%
D21*
X578358Y296164D02*
D03*
X548386D02*
D03*
X498094Y295910D02*
D03*
X468122D02*
D03*
X429006Y296672D02*
D03*
X399034D02*
D03*
X318262Y297688D02*
D03*
X348234D02*
D03*
X119634Y17780D02*
D03*
X149606D02*
D03*
X155956Y256540D02*
D03*
X125984D02*
D03*
X123444Y226060D02*
D03*
X153416D02*
D03*
X129540Y324612D02*
D03*
X99568D02*
D03*
X119126Y294132D02*
D03*
X149098D02*
D03*
X134366Y383540D02*
D03*
X104394D02*
D03*
X653542Y220726D02*
D03*
X683514D02*
D03*
X696722Y320040D02*
D03*
X666750D02*
D03*
X665988Y398272D02*
D03*
X636016D02*
D03*
X805180Y59690D02*
D03*
X835152D02*
D03*
X834390Y100330D02*
D03*
X804418D02*
D03*
X855472Y403098D02*
D03*
X885444D02*
D03*
X702818Y541782D02*
D03*
X732790D02*
D03*
X758698Y541020D02*
D03*
X788670D02*
D03*
X108712Y452628D02*
D03*
X78740D02*
D03*
X77978Y483870D02*
D03*
X107950D02*
D03*
X86106Y516890D02*
D03*
X116078D02*
D03*
X53594Y516636D02*
D03*
X23622D02*
D03*
X51816Y454152D02*
D03*
X21844D02*
D03*
X255270Y458470D02*
D03*
X225298D02*
D03*
X255270Y504698D02*
D03*
X225298D02*
D03*
D22*
X132334Y492760D02*
D03*
Y480060D02*
D03*
Y467360D02*
D03*
Y454660D02*
D03*
Y441960D02*
D03*
Y429260D02*
D03*
Y416560D02*
D03*
Y403860D02*
D03*
X191770D02*
D03*
Y416560D02*
D03*
Y429260D02*
D03*
Y441960D02*
D03*
Y454660D02*
D03*
Y467360D02*
D03*
Y480060D02*
D03*
Y492760D02*
D03*
D23*
X69959Y362381D02*
D03*
Y384381D02*
D03*
X52959Y362381D02*
D03*
Y384382D02*
D03*
X666260Y274732D02*
D03*
Y252730D02*
D03*
X683260Y274730D02*
D03*
Y252730D02*
D03*
D24*
X162052Y546862D02*
D03*
Y537362D02*
D03*
Y527862D02*
D03*
X185677D02*
D03*
Y537362D02*
D03*
Y546862D02*
D03*
D25*
X584708Y540512D02*
D03*
Y570484D02*
D03*
X627380Y273812D02*
D03*
Y243840D02*
D03*
X629920Y507492D02*
D03*
Y477520D02*
D03*
X754380Y275082D02*
D03*
Y245110D02*
D03*
X727710Y275082D02*
D03*
Y245110D02*
D03*
X858520Y507492D02*
D03*
Y477520D02*
D03*
X774700Y507492D02*
D03*
Y477520D02*
D03*
X815340D02*
D03*
Y507492D02*
D03*
X671830Y477520D02*
D03*
Y507492D02*
D03*
X725170D02*
D03*
Y477520D02*
D03*
X190500Y65532D02*
D03*
Y35560D02*
D03*
X191770Y103124D02*
D03*
Y133096D02*
D03*
X283210Y132842D02*
D03*
Y102870D02*
D03*
X237490D02*
D03*
Y132842D02*
D03*
X765810Y75184D02*
D03*
Y105156D02*
D03*
X902970Y477520D02*
D03*
Y507492D02*
D03*
D26*
X616890Y579628D02*
D03*
Y566928D02*
D03*
Y554228D02*
D03*
Y541528D02*
D03*
X670890Y579628D02*
D03*
Y566928D02*
D03*
Y554228D02*
D03*
Y541528D02*
D03*
D27*
X705612Y410820D02*
D03*
Y401320D02*
D03*
Y391820D02*
D03*
X728512D02*
D03*
Y401320D02*
D03*
Y410820D02*
D03*
D28*
X584558Y491642D02*
D03*
X559458Y501142D02*
D03*
X584558Y510642D02*
D03*
D29*
X792570Y204960D02*
D03*
Y197086D02*
D03*
Y188958D02*
D03*
Y181084D02*
D03*
Y172956D02*
D03*
Y165082D02*
D03*
Y156954D02*
D03*
Y149080D02*
D03*
X708570D02*
D03*
Y156954D02*
D03*
Y165082D02*
D03*
Y172956D02*
D03*
Y181084D02*
D03*
Y188958D02*
D03*
Y197086D02*
D03*
Y204960D02*
D03*
D30*
X778510Y134530D02*
D03*
X770636D02*
D03*
X762508D02*
D03*
X754634D02*
D03*
X746506D02*
D03*
X738632D02*
D03*
X730504D02*
D03*
X722630D02*
D03*
Y218530D02*
D03*
X730504D02*
D03*
X738632D02*
D03*
X746506D02*
D03*
X754634D02*
D03*
X762508D02*
D03*
X770636D02*
D03*
X778510D02*
D03*
D31*
X812448Y410558D02*
D03*
Y405558D02*
D03*
Y400558D02*
D03*
Y395558D02*
D03*
Y390558D02*
D03*
X768448D02*
D03*
Y395558D02*
D03*
Y400558D02*
D03*
Y405558D02*
D03*
D32*
Y410558D02*
D03*
D33*
X218968Y39864D02*
D03*
X284968Y69864D02*
D03*
Y39864D02*
D03*
X218968Y69864D02*
D03*
D34*
X730250Y74168D02*
D03*
Y105410D02*
D03*
D35*
X547243Y239360D02*
D03*
Y187360D02*
D03*
X579501Y239360D02*
D03*
Y187360D02*
D03*
X315595Y240630D02*
D03*
Y188630D02*
D03*
X347853Y240630D02*
D03*
Y188630D02*
D03*
X467487Y240122D02*
D03*
Y188122D02*
D03*
X499745Y240122D02*
D03*
Y188122D02*
D03*
X392811Y241138D02*
D03*
Y189138D02*
D03*
X425069Y241138D02*
D03*
Y189138D02*
D03*
M02*
