G04*
G04 #@! TF.GenerationSoftware,Altium Limited,Altium Designer,23.1.1 (15)*
G04*
G04 Layer_Physical_Order=3*
G04 Layer_Color=16440176*
%FSLAX44Y44*%
%MOMM*%
G71*
G04*
G04 #@! TF.SameCoordinates,32E53F4C-9CDF-4151-867A-B185B0D7BA91*
G04*
G04*
G04 #@! TF.FilePolarity,Positive*
G04*
G01*
G75*
%ADD62O,2.4000X1.2000*%
%ADD63C,1.2000*%
%ADD64C,1.7780*%
%ADD65O,1.8000X3.3000*%
%ADD66O,3.8000X2.0000*%
%ADD67C,1.6000*%
%ADD68C,1.6500*%
%ADD69O,2.0000X3.8000*%
%ADD70O,3.3000X1.8000*%
%ADD71C,2.0000*%
%ADD72C,0.6350*%
G36*
X973990Y5179D02*
X5179D01*
Y632360D01*
X844092D01*
X844451Y631091D01*
X842770Y628900D01*
X841607Y626093D01*
X841378Y624350D01*
X860350D01*
X879322D01*
X879093Y626093D01*
X877930Y628900D01*
X876249Y631091D01*
X876608Y632360D01*
X973990D01*
Y5179D01*
D02*
G37*
%LPC*%
G36*
X879322Y621810D02*
X861620D01*
Y611441D01*
X867850D01*
X870863Y611837D01*
X873670Y613000D01*
X876080Y614850D01*
X877930Y617260D01*
X879093Y620067D01*
X879322Y621810D01*
D02*
G37*
G36*
X859080D02*
X841378D01*
X841607Y620067D01*
X842770Y617260D01*
X844620Y614850D01*
X847030Y613000D01*
X849837Y611837D01*
X852850Y611441D01*
X859080D01*
Y621810D01*
D02*
G37*
G36*
X259569Y611632D02*
X259334D01*
Y601472D01*
X269494D01*
Y601707D01*
X268715Y604614D01*
X267210Y607220D01*
X265082Y609348D01*
X262476Y610853D01*
X259569Y611632D01*
D02*
G37*
G36*
X256794D02*
X256559D01*
X253652Y610853D01*
X251046Y609348D01*
X248918Y607220D01*
X247413Y604614D01*
X246634Y601707D01*
Y601472D01*
X256794D01*
Y611632D01*
D02*
G37*
G36*
X234169D02*
X233934D01*
Y601472D01*
X244094D01*
Y601707D01*
X243315Y604614D01*
X241810Y607220D01*
X239682Y609348D01*
X237076Y610853D01*
X234169Y611632D01*
D02*
G37*
G36*
X231394D02*
X231159D01*
X228252Y610853D01*
X225646Y609348D01*
X223518Y607220D01*
X222013Y604614D01*
X221234Y601707D01*
Y601472D01*
X231394D01*
Y611632D01*
D02*
G37*
G36*
X208769D02*
X208534D01*
Y601472D01*
X218694D01*
Y601707D01*
X217915Y604614D01*
X216410Y607220D01*
X214282Y609348D01*
X211676Y610853D01*
X208769Y611632D01*
D02*
G37*
G36*
X205994D02*
X205759D01*
X202852Y610853D01*
X200246Y609348D01*
X198118Y607220D01*
X196613Y604614D01*
X195834Y601707D01*
Y601472D01*
X205994D01*
Y611632D01*
D02*
G37*
G36*
X131299D02*
X131064D01*
Y601472D01*
X141224D01*
Y601707D01*
X140445Y604614D01*
X138940Y607220D01*
X136812Y609348D01*
X134206Y610853D01*
X131299Y611632D01*
D02*
G37*
G36*
X128524D02*
X128289D01*
X125382Y610853D01*
X122776Y609348D01*
X120648Y607220D01*
X119143Y604614D01*
X118364Y601707D01*
Y601472D01*
X128524D01*
Y611632D01*
D02*
G37*
G36*
X105899D02*
X105664D01*
Y601472D01*
X115824D01*
Y601707D01*
X115045Y604614D01*
X113540Y607220D01*
X111412Y609348D01*
X108806Y610853D01*
X105899Y611632D01*
D02*
G37*
G36*
X103124D02*
X102889D01*
X99982Y610853D01*
X97376Y609348D01*
X95248Y607220D01*
X93743Y604614D01*
X92964Y601707D01*
Y601472D01*
X103124D01*
Y611632D01*
D02*
G37*
G36*
X80499D02*
X80264D01*
Y601472D01*
X90424D01*
Y601707D01*
X89645Y604614D01*
X88140Y607220D01*
X86012Y609348D01*
X83406Y610853D01*
X80499Y611632D01*
D02*
G37*
G36*
X77724D02*
X77489D01*
X74582Y610853D01*
X71976Y609348D01*
X69848Y607220D01*
X68343Y604614D01*
X67564Y601707D01*
Y601472D01*
X77724D01*
Y611632D01*
D02*
G37*
G36*
X749451Y619120D02*
X746609D01*
X743865Y618385D01*
X741405Y616964D01*
X739396Y614955D01*
X737975Y612495D01*
X737240Y609751D01*
Y606909D01*
X737975Y604165D01*
X739396Y601705D01*
X741405Y599696D01*
X743865Y598275D01*
X746609Y597540D01*
X749451D01*
X752195Y598275D01*
X754655Y599696D01*
X756664Y601705D01*
X758085Y604165D01*
X758820Y606909D01*
Y609751D01*
X758085Y612495D01*
X756664Y614955D01*
X754655Y616964D01*
X752195Y618385D01*
X749451Y619120D01*
D02*
G37*
G36*
X724051D02*
X721209D01*
X718465Y618385D01*
X716005Y616964D01*
X713996Y614955D01*
X712575Y612495D01*
X711840Y609751D01*
Y606909D01*
X712575Y604165D01*
X713996Y601705D01*
X716005Y599696D01*
X718465Y598275D01*
X721209Y597540D01*
X724051D01*
X726795Y598275D01*
X729255Y599696D01*
X731264Y601705D01*
X732685Y604165D01*
X733420Y606909D01*
Y609751D01*
X732685Y612495D01*
X731264Y614955D01*
X729255Y616964D01*
X726795Y618385D01*
X724051Y619120D01*
D02*
G37*
G36*
X698651D02*
X695809D01*
X693065Y618385D01*
X690605Y616964D01*
X688596Y614955D01*
X687175Y612495D01*
X686440Y609751D01*
Y606909D01*
X687175Y604165D01*
X688596Y601705D01*
X690605Y599696D01*
X693065Y598275D01*
X695809Y597540D01*
X698651D01*
X701395Y598275D01*
X703855Y599696D01*
X705864Y601705D01*
X707285Y604165D01*
X708020Y606909D01*
Y609751D01*
X707285Y612495D01*
X705864Y614955D01*
X703855Y616964D01*
X701395Y618385D01*
X698651Y619120D01*
D02*
G37*
G36*
X269494Y598932D02*
X259334D01*
Y588772D01*
X259569D01*
X262476Y589551D01*
X265082Y591056D01*
X267210Y593184D01*
X268715Y595790D01*
X269494Y598697D01*
Y598932D01*
D02*
G37*
G36*
X256794D02*
X246634D01*
Y598697D01*
X247413Y595790D01*
X248918Y593184D01*
X251046Y591056D01*
X253652Y589551D01*
X256559Y588772D01*
X256794D01*
Y598932D01*
D02*
G37*
G36*
X244094D02*
X233934D01*
Y588772D01*
X234169D01*
X237076Y589551D01*
X239682Y591056D01*
X241810Y593184D01*
X243315Y595790D01*
X244094Y598697D01*
Y598932D01*
D02*
G37*
G36*
X231394D02*
X221234D01*
Y598697D01*
X222013Y595790D01*
X223518Y593184D01*
X225646Y591056D01*
X228252Y589551D01*
X231159Y588772D01*
X231394D01*
Y598932D01*
D02*
G37*
G36*
X218694D02*
X208534D01*
Y588772D01*
X208769D01*
X211676Y589551D01*
X214282Y591056D01*
X216410Y593184D01*
X217915Y595790D01*
X218694Y598697D01*
Y598932D01*
D02*
G37*
G36*
X205994D02*
X195834D01*
Y598697D01*
X196613Y595790D01*
X198118Y593184D01*
X200246Y591056D01*
X202852Y589551D01*
X205759Y588772D01*
X205994D01*
Y598932D01*
D02*
G37*
G36*
X183369Y611632D02*
X180359D01*
X177452Y610853D01*
X174846Y609348D01*
X172718Y607220D01*
X171213Y604614D01*
X170434Y601707D01*
Y598697D01*
X171213Y595790D01*
X172718Y593184D01*
X174846Y591056D01*
X177452Y589551D01*
X180359Y588772D01*
X183369D01*
X186276Y589551D01*
X188882Y591056D01*
X191010Y593184D01*
X192515Y595790D01*
X193294Y598697D01*
Y601707D01*
X192515Y604614D01*
X191010Y607220D01*
X188882Y609348D01*
X186276Y610853D01*
X183369Y611632D01*
D02*
G37*
G36*
X141224Y598932D02*
X131064D01*
Y588772D01*
X131299D01*
X134206Y589551D01*
X136812Y591056D01*
X138940Y593184D01*
X140445Y595790D01*
X141224Y598697D01*
Y598932D01*
D02*
G37*
G36*
X128524D02*
X118364D01*
Y598697D01*
X119143Y595790D01*
X120648Y593184D01*
X122776Y591056D01*
X125382Y589551D01*
X128289Y588772D01*
X128524D01*
Y598932D01*
D02*
G37*
G36*
X115824D02*
X105664D01*
Y588772D01*
X105899D01*
X108806Y589551D01*
X111412Y591056D01*
X113540Y593184D01*
X115045Y595790D01*
X115824Y598697D01*
Y598932D01*
D02*
G37*
G36*
X103124D02*
X92964D01*
Y598697D01*
X93743Y595790D01*
X95248Y593184D01*
X97376Y591056D01*
X99982Y589551D01*
X102889Y588772D01*
X103124D01*
Y598932D01*
D02*
G37*
G36*
X90424D02*
X80264D01*
Y588772D01*
X80499D01*
X83406Y589551D01*
X86012Y591056D01*
X88140Y593184D01*
X89645Y595790D01*
X90424Y598697D01*
Y598932D01*
D02*
G37*
G36*
X77724D02*
X67564D01*
Y598697D01*
X68343Y595790D01*
X69848Y593184D01*
X71976Y591056D01*
X74582Y589551D01*
X77489Y588772D01*
X77724D01*
Y598932D01*
D02*
G37*
G36*
X55099Y611632D02*
X52089D01*
X49182Y610853D01*
X46576Y609348D01*
X44448Y607220D01*
X42943Y604614D01*
X42164Y601707D01*
Y598697D01*
X42943Y595790D01*
X44448Y593184D01*
X46576Y591056D01*
X49182Y589551D01*
X52089Y588772D01*
X55099D01*
X58006Y589551D01*
X60612Y591056D01*
X62740Y593184D01*
X64245Y595790D01*
X65024Y598697D01*
Y601707D01*
X64245Y604614D01*
X62740Y607220D01*
X60612Y609348D01*
X58006Y610853D01*
X55099Y611632D01*
D02*
G37*
G36*
X669665Y598043D02*
X667391D01*
X665291Y597173D01*
X663683Y595565D01*
X662813Y593465D01*
Y591191D01*
X663683Y589091D01*
X665291Y587483D01*
X667391Y586613D01*
X669665D01*
X671765Y587483D01*
X673373Y589091D01*
X674243Y591191D01*
Y593465D01*
X673373Y595565D01*
X671765Y597173D01*
X669665Y598043D01*
D02*
G37*
G36*
X515093Y593090D02*
X514858D01*
Y582930D01*
X525018D01*
Y583165D01*
X524239Y586072D01*
X522734Y588678D01*
X520606Y590806D01*
X518000Y592311D01*
X515093Y593090D01*
D02*
G37*
G36*
X456165D02*
X455930D01*
Y582930D01*
X466090D01*
Y583165D01*
X465311Y586072D01*
X463806Y588678D01*
X461678Y590806D01*
X459072Y592311D01*
X456165Y593090D01*
D02*
G37*
G36*
X402825D02*
X402590D01*
Y582930D01*
X412750D01*
Y583165D01*
X411971Y586072D01*
X410466Y588678D01*
X408338Y590806D01*
X405732Y592311D01*
X402825Y593090D01*
D02*
G37*
G36*
X512318D02*
X512083D01*
X509176Y592311D01*
X506570Y590806D01*
X504442Y588678D01*
X502937Y586072D01*
X502158Y583165D01*
Y582930D01*
X512318D01*
Y593090D01*
D02*
G37*
G36*
X453390D02*
X453155D01*
X450248Y592311D01*
X447642Y590806D01*
X445514Y588678D01*
X444009Y586072D01*
X443230Y583165D01*
Y582930D01*
X453390D01*
Y593090D01*
D02*
G37*
G36*
X400050D02*
X399815D01*
X396908Y592311D01*
X394302Y590806D01*
X392174Y588678D01*
X390669Y586072D01*
X389890Y583165D01*
Y582930D01*
X400050D01*
Y593090D01*
D02*
G37*
G36*
X896620Y598061D02*
Y577850D01*
X907998D01*
Y585580D01*
X907567Y588854D01*
X906304Y591904D01*
X904294Y594524D01*
X901674Y596534D01*
X898624Y597797D01*
X896620Y598061D01*
D02*
G37*
G36*
X894080D02*
X892076Y597797D01*
X889026Y596534D01*
X886406Y594524D01*
X884396Y591904D01*
X883133Y588854D01*
X882702Y585580D01*
Y577850D01*
X894080D01*
Y598061D01*
D02*
G37*
G36*
X525018Y580390D02*
X514858D01*
Y570230D01*
X515093D01*
X518000Y571009D01*
X520606Y572514D01*
X522734Y574642D01*
X524239Y577248D01*
X525018Y580155D01*
Y580390D01*
D02*
G37*
G36*
X512318D02*
X502158D01*
Y580155D01*
X502937Y577248D01*
X504442Y574642D01*
X506570Y572514D01*
X509176Y571009D01*
X512083Y570230D01*
X512318D01*
Y580390D01*
D02*
G37*
G36*
X466090D02*
X455930D01*
Y570230D01*
X456165D01*
X459072Y571009D01*
X461678Y572514D01*
X463806Y574642D01*
X465311Y577248D01*
X466090Y580155D01*
Y580390D01*
D02*
G37*
G36*
X453390D02*
X443230D01*
Y580155D01*
X444009Y577248D01*
X445514Y574642D01*
X447642Y572514D01*
X450248Y571009D01*
X453155Y570230D01*
X453390D01*
Y580390D01*
D02*
G37*
G36*
X412750D02*
X402590D01*
Y570230D01*
X402825D01*
X405732Y571009D01*
X408338Y572514D01*
X410466Y574642D01*
X411971Y577248D01*
X412750Y580155D01*
Y580390D01*
D02*
G37*
G36*
X400050D02*
X389890D01*
Y580155D01*
X390669Y577248D01*
X392174Y574642D01*
X394302Y572514D01*
X396908Y571009D01*
X399815Y570230D01*
X400050D01*
Y580390D01*
D02*
G37*
G36*
X361423Y593090D02*
X358413D01*
X355506Y592311D01*
X352900Y590806D01*
X350772Y588678D01*
X349267Y586072D01*
X348488Y583165D01*
Y580155D01*
X349267Y577248D01*
X350772Y574642D01*
X352900Y572514D01*
X355506Y571009D01*
X358413Y570230D01*
X361423D01*
X364330Y571009D01*
X366936Y572514D01*
X369064Y574642D01*
X370569Y577248D01*
X371348Y580155D01*
Y583165D01*
X370569Y586072D01*
X369064Y588678D01*
X366936Y590806D01*
X364330Y592311D01*
X361423Y593090D01*
D02*
G37*
G36*
X515093Y567690D02*
X514858D01*
Y557530D01*
X525018D01*
Y557765D01*
X524239Y560672D01*
X522734Y563278D01*
X520606Y565406D01*
X518000Y566911D01*
X515093Y567690D01*
D02*
G37*
G36*
X456165D02*
X455930D01*
Y557530D01*
X466090D01*
Y557765D01*
X465311Y560672D01*
X463806Y563278D01*
X461678Y565406D01*
X459072Y566911D01*
X456165Y567690D01*
D02*
G37*
G36*
X402825D02*
X402590D01*
Y557530D01*
X412750D01*
Y557765D01*
X411971Y560672D01*
X410466Y563278D01*
X408338Y565406D01*
X405732Y566911D01*
X402825Y567690D01*
D02*
G37*
G36*
X361423D02*
X361188D01*
Y557530D01*
X371348D01*
Y557765D01*
X370569Y560672D01*
X369064Y563278D01*
X366936Y565406D01*
X364330Y566911D01*
X361423Y567690D01*
D02*
G37*
G36*
X358648D02*
X358413D01*
X355506Y566911D01*
X352900Y565406D01*
X350772Y563278D01*
X349267Y560672D01*
X348488Y557765D01*
Y557530D01*
X358648D01*
Y567690D01*
D02*
G37*
G36*
X512318D02*
X512083D01*
X509176Y566911D01*
X506570Y565406D01*
X504442Y563278D01*
X502937Y560672D01*
X502158Y557765D01*
Y557530D01*
X512318D01*
Y567690D01*
D02*
G37*
G36*
X453390D02*
X453155D01*
X450248Y566911D01*
X447642Y565406D01*
X445514Y563278D01*
X444009Y560672D01*
X443230Y557765D01*
Y557530D01*
X453390D01*
Y567690D01*
D02*
G37*
G36*
X400050D02*
X399815D01*
X396908Y566911D01*
X394302Y565406D01*
X392174Y563278D01*
X390669Y560672D01*
X389890Y557765D01*
Y557530D01*
X400050D01*
Y567690D01*
D02*
G37*
G36*
X907998Y575310D02*
X896620D01*
Y555099D01*
X898624Y555363D01*
X901674Y556626D01*
X904294Y558636D01*
X906304Y561256D01*
X907567Y564306D01*
X907998Y567580D01*
Y575310D01*
D02*
G37*
G36*
X894080D02*
X882702D01*
Y567580D01*
X883133Y564306D01*
X884396Y561256D01*
X886406Y558636D01*
X889026Y556626D01*
X892076Y555363D01*
X894080Y555099D01*
Y575310D01*
D02*
G37*
G36*
X835350Y598228D02*
X832076Y597797D01*
X829026Y596534D01*
X826406Y594524D01*
X824396Y591904D01*
X823133Y588854D01*
X822702Y585580D01*
Y567580D01*
X823133Y564306D01*
X824396Y561256D01*
X826406Y558636D01*
X829026Y556626D01*
X832076Y555363D01*
X835350Y554932D01*
X838624Y555363D01*
X841674Y556626D01*
X844294Y558636D01*
X846304Y561256D01*
X847567Y564306D01*
X847998Y567580D01*
Y585580D01*
X847567Y588854D01*
X846304Y591904D01*
X844294Y594524D01*
X841674Y596534D01*
X838624Y597797D01*
X835350Y598228D01*
D02*
G37*
G36*
X560953Y562737D02*
X558679D01*
X556579Y561867D01*
X554971Y560259D01*
X554101Y558159D01*
Y555885D01*
X554971Y553785D01*
X556579Y552177D01*
X558679Y551307D01*
X560953D01*
X563053Y552177D01*
X564661Y553785D01*
X565531Y555885D01*
Y558159D01*
X564661Y560259D01*
X563053Y561867D01*
X560953Y562737D01*
D02*
G37*
G36*
X525018Y554990D02*
X514858D01*
Y544830D01*
X515093D01*
X518000Y545609D01*
X520606Y547114D01*
X522734Y549242D01*
X524239Y551848D01*
X525018Y554755D01*
Y554990D01*
D02*
G37*
G36*
X512318D02*
X502158D01*
Y554755D01*
X502937Y551848D01*
X504442Y549242D01*
X506570Y547114D01*
X509176Y545609D01*
X512083Y544830D01*
X512318D01*
Y554990D01*
D02*
G37*
G36*
X466090D02*
X455930D01*
Y544830D01*
X456165D01*
X459072Y545609D01*
X461678Y547114D01*
X463806Y549242D01*
X465311Y551848D01*
X466090Y554755D01*
Y554990D01*
D02*
G37*
G36*
X453390D02*
X443230D01*
Y554755D01*
X444009Y551848D01*
X445514Y549242D01*
X447642Y547114D01*
X450248Y545609D01*
X453155Y544830D01*
X453390D01*
Y554990D01*
D02*
G37*
G36*
X412750D02*
X402590D01*
Y544830D01*
X402825D01*
X405732Y545609D01*
X408338Y547114D01*
X410466Y549242D01*
X411971Y551848D01*
X412750Y554755D01*
Y554990D01*
D02*
G37*
G36*
X400050D02*
X389890D01*
Y554755D01*
X390669Y551848D01*
X392174Y549242D01*
X394302Y547114D01*
X396908Y545609D01*
X399815Y544830D01*
X400050D01*
Y554990D01*
D02*
G37*
G36*
X371348D02*
X361188D01*
Y544830D01*
X361423D01*
X364330Y545609D01*
X366936Y547114D01*
X369064Y549242D01*
X370569Y551848D01*
X371348Y554755D01*
Y554990D01*
D02*
G37*
G36*
X358648D02*
X348488D01*
Y554755D01*
X349267Y551848D01*
X350772Y549242D01*
X352900Y547114D01*
X355506Y545609D01*
X358413Y544830D01*
X358648D01*
Y554990D01*
D02*
G37*
G36*
X134487Y545465D02*
X132213D01*
X130113Y544595D01*
X128505Y542987D01*
X127635Y540887D01*
Y538613D01*
X128505Y536513D01*
X130113Y534905D01*
X132213Y534035D01*
X134487D01*
X136587Y534905D01*
X138195Y536513D01*
X139065Y538613D01*
Y540887D01*
X138195Y542987D01*
X136587Y544595D01*
X134487Y545465D01*
D02*
G37*
G36*
X515093Y542290D02*
X514858D01*
Y532130D01*
X525018D01*
Y532365D01*
X524239Y535272D01*
X522734Y537878D01*
X520606Y540006D01*
X518000Y541511D01*
X515093Y542290D01*
D02*
G37*
G36*
X456165D02*
X455930D01*
Y532130D01*
X466090D01*
Y532365D01*
X465311Y535272D01*
X463806Y537878D01*
X461678Y540006D01*
X459072Y541511D01*
X456165Y542290D01*
D02*
G37*
G36*
X402825D02*
X402590D01*
Y532130D01*
X412750D01*
Y532365D01*
X411971Y535272D01*
X410466Y537878D01*
X408338Y540006D01*
X405732Y541511D01*
X402825Y542290D01*
D02*
G37*
G36*
X361423D02*
X361188D01*
Y532130D01*
X371348D01*
Y532365D01*
X370569Y535272D01*
X369064Y537878D01*
X366936Y540006D01*
X364330Y541511D01*
X361423Y542290D01*
D02*
G37*
G36*
X358648D02*
X358413D01*
X355506Y541511D01*
X352900Y540006D01*
X350772Y537878D01*
X349267Y535272D01*
X348488Y532365D01*
Y532130D01*
X358648D01*
Y542290D01*
D02*
G37*
G36*
X512318D02*
X512083D01*
X509176Y541511D01*
X506570Y540006D01*
X504442Y537878D01*
X502937Y535272D01*
X502158Y532365D01*
Y532130D01*
X512318D01*
Y542290D01*
D02*
G37*
G36*
X453390D02*
X453155D01*
X450248Y541511D01*
X447642Y540006D01*
X445514Y537878D01*
X444009Y535272D01*
X443230Y532365D01*
Y532130D01*
X453390D01*
Y542290D01*
D02*
G37*
G36*
X400050D02*
X399815D01*
X396908Y541511D01*
X394302Y540006D01*
X392174Y537878D01*
X390669Y535272D01*
X389890Y532365D01*
Y532130D01*
X400050D01*
Y542290D01*
D02*
G37*
G36*
X525018Y529590D02*
X514858D01*
Y519430D01*
X515093D01*
X518000Y520209D01*
X520606Y521714D01*
X522734Y523842D01*
X524239Y526448D01*
X525018Y529355D01*
Y529590D01*
D02*
G37*
G36*
X512318D02*
X502158D01*
Y529355D01*
X502937Y526448D01*
X504442Y523842D01*
X506570Y521714D01*
X509176Y520209D01*
X512083Y519430D01*
X512318D01*
Y529590D01*
D02*
G37*
G36*
X466090D02*
X455930D01*
Y519430D01*
X456165D01*
X459072Y520209D01*
X461678Y521714D01*
X463806Y523842D01*
X465311Y526448D01*
X466090Y529355D01*
Y529590D01*
D02*
G37*
G36*
X453390D02*
X443230D01*
Y529355D01*
X444009Y526448D01*
X445514Y523842D01*
X447642Y521714D01*
X450248Y520209D01*
X453155Y519430D01*
X453390D01*
Y529590D01*
D02*
G37*
G36*
X412750D02*
X402590D01*
Y519430D01*
X402825D01*
X405732Y520209D01*
X408338Y521714D01*
X410466Y523842D01*
X411971Y526448D01*
X412750Y529355D01*
Y529590D01*
D02*
G37*
G36*
X400050D02*
X389890D01*
Y529355D01*
X390669Y526448D01*
X392174Y523842D01*
X394302Y521714D01*
X396908Y520209D01*
X399815Y519430D01*
X400050D01*
Y529590D01*
D02*
G37*
G36*
X371348D02*
X361188D01*
Y519430D01*
X361423D01*
X364330Y520209D01*
X366936Y521714D01*
X369064Y523842D01*
X370569Y526448D01*
X371348Y529355D01*
Y529590D01*
D02*
G37*
G36*
X358648D02*
X348488D01*
Y529355D01*
X349267Y526448D01*
X350772Y523842D01*
X352900Y521714D01*
X355506Y520209D01*
X358413Y519430D01*
X358648D01*
Y529590D01*
D02*
G37*
G36*
X758565Y526669D02*
X756291D01*
X754191Y525799D01*
X752583Y524191D01*
X751713Y522091D01*
Y519817D01*
X752583Y517717D01*
X754191Y516109D01*
X756291Y515239D01*
X758565D01*
X760665Y516109D01*
X762273Y517717D01*
X763143Y519817D01*
Y522091D01*
X762273Y524191D01*
X760665Y525799D01*
X758565Y526669D01*
D02*
G37*
G36*
X543681Y521081D02*
X541407D01*
X539307Y520211D01*
X537699Y518603D01*
X536829Y516503D01*
Y514229D01*
X537699Y512129D01*
X539307Y510521D01*
X541407Y509651D01*
X543681D01*
X545781Y510521D01*
X547389Y512129D01*
X548259Y514229D01*
Y516503D01*
X547389Y518603D01*
X545781Y520211D01*
X543681Y521081D01*
D02*
G37*
G36*
X361423Y516890D02*
X361188D01*
Y506730D01*
X371348D01*
Y506965D01*
X370569Y509872D01*
X369064Y512478D01*
X366936Y514606D01*
X364330Y516111D01*
X361423Y516890D01*
D02*
G37*
G36*
X358648D02*
X358413D01*
X355506Y516111D01*
X352900Y514606D01*
X350772Y512478D01*
X349267Y509872D01*
X348488Y506965D01*
Y506730D01*
X358648D01*
Y516890D01*
D02*
G37*
G36*
X515093D02*
X512083D01*
X509176Y516111D01*
X506570Y514606D01*
X504442Y512478D01*
X502937Y509872D01*
X502158Y506965D01*
Y503955D01*
X502937Y501048D01*
X504442Y498442D01*
X506570Y496314D01*
X509176Y494809D01*
X512083Y494030D01*
X515093D01*
X518000Y494809D01*
X520606Y496314D01*
X522734Y498442D01*
X524239Y501048D01*
X525018Y503955D01*
Y506965D01*
X524239Y509872D01*
X522734Y512478D01*
X520606Y514606D01*
X518000Y516111D01*
X515093Y516890D01*
D02*
G37*
G36*
X456165D02*
X453155D01*
X450248Y516111D01*
X447642Y514606D01*
X445514Y512478D01*
X444009Y509872D01*
X443230Y506965D01*
Y503955D01*
X444009Y501048D01*
X445514Y498442D01*
X447642Y496314D01*
X450248Y494809D01*
X453155Y494030D01*
X456165D01*
X459072Y494809D01*
X461678Y496314D01*
X463806Y498442D01*
X465311Y501048D01*
X466090Y503955D01*
Y506965D01*
X465311Y509872D01*
X463806Y512478D01*
X461678Y514606D01*
X459072Y516111D01*
X456165Y516890D01*
D02*
G37*
G36*
X402825D02*
X399815D01*
X396908Y516111D01*
X394302Y514606D01*
X392174Y512478D01*
X390669Y509872D01*
X389890Y506965D01*
Y503955D01*
X390669Y501048D01*
X392174Y498442D01*
X394302Y496314D01*
X396908Y494809D01*
X399815Y494030D01*
X402825D01*
X405732Y494809D01*
X408338Y496314D01*
X410466Y498442D01*
X411971Y501048D01*
X412750Y503955D01*
Y506965D01*
X411971Y509872D01*
X410466Y512478D01*
X408338Y514606D01*
X405732Y516111D01*
X402825Y516890D01*
D02*
G37*
G36*
X371348Y504190D02*
X361188D01*
Y494030D01*
X361423D01*
X364330Y494809D01*
X366936Y496314D01*
X369064Y498442D01*
X370569Y501048D01*
X371348Y503955D01*
Y504190D01*
D02*
G37*
G36*
X358648D02*
X348488D01*
Y503955D01*
X349267Y501048D01*
X350772Y498442D01*
X352900Y496314D01*
X355506Y494809D01*
X358413Y494030D01*
X358648D01*
Y504190D01*
D02*
G37*
G36*
X956460Y513710D02*
X953620D01*
X950875Y512975D01*
X948415Y511554D01*
X946406Y509545D01*
X944985Y507085D01*
X944250Y504341D01*
Y501499D01*
X944985Y498755D01*
X946406Y496295D01*
X948415Y494286D01*
X950875Y492865D01*
X953620Y492130D01*
X956460D01*
X959205Y492865D01*
X961665Y494286D01*
X963674Y496295D01*
X965095Y498755D01*
X965830Y501499D01*
Y504341D01*
X965095Y507085D01*
X963674Y509545D01*
X961665Y511554D01*
X959205Y512975D01*
X956460Y513710D01*
D02*
G37*
G36*
X726307Y499237D02*
X724033D01*
X721933Y498367D01*
X720325Y496759D01*
X719455Y494659D01*
Y492385D01*
X720325Y490285D01*
X721933Y488677D01*
X724033Y487807D01*
X726307D01*
X728407Y488677D01*
X730015Y490285D01*
X730885Y492385D01*
Y494659D01*
X730015Y496759D01*
X728407Y498367D01*
X726307Y499237D01*
D02*
G37*
G36*
X816223Y496951D02*
X813949D01*
X811849Y496081D01*
X810241Y494473D01*
X809371Y492373D01*
Y490099D01*
X810241Y487999D01*
X811849Y486391D01*
X813949Y485521D01*
X816223D01*
X818323Y486391D01*
X819931Y487999D01*
X820801Y490099D01*
Y492373D01*
X819931Y494473D01*
X818323Y496081D01*
X816223Y496951D01*
D02*
G37*
G36*
X94482Y489712D02*
X92208D01*
X90108Y488842D01*
X88500Y487234D01*
X87630Y485134D01*
Y482860D01*
X88500Y480760D01*
X90108Y479152D01*
X92208Y478282D01*
X94482D01*
X96582Y479152D01*
X98190Y480760D01*
X99060Y482860D01*
Y485134D01*
X98190Y487234D01*
X96582Y488842D01*
X94482Y489712D01*
D02*
G37*
G36*
X169285Y487553D02*
X167011D01*
X164911Y486683D01*
X163303Y485075D01*
X162433Y482975D01*
Y480701D01*
X163303Y478601D01*
X164911Y476993D01*
X167011Y476123D01*
X169285D01*
X171385Y476993D01*
X172993Y478601D01*
X173863Y480701D01*
Y482975D01*
X172993Y485075D01*
X171385Y486683D01*
X169285Y487553D01*
D02*
G37*
G36*
X585337Y485775D02*
X583063D01*
X580963Y484905D01*
X579355Y483297D01*
X578485Y481197D01*
Y478923D01*
X579355Y476823D01*
X580963Y475215D01*
X583063Y474345D01*
X585337D01*
X587437Y475215D01*
X589045Y476823D01*
X589915Y478923D01*
Y481197D01*
X589045Y483297D01*
X587437Y484905D01*
X585337Y485775D01*
D02*
G37*
G36*
X956460Y488310D02*
X953620D01*
X950875Y487575D01*
X948415Y486154D01*
X946406Y484145D01*
X944985Y481685D01*
X944250Y478941D01*
Y476100D01*
X944985Y473355D01*
X946406Y470895D01*
X948415Y468886D01*
X950875Y467465D01*
X953620Y466730D01*
X956460D01*
X959205Y467465D01*
X961665Y468886D01*
X963674Y470895D01*
X965095Y473355D01*
X965830Y476100D01*
Y478941D01*
X965095Y481685D01*
X963674Y484145D01*
X961665Y486154D01*
X959205Y487575D01*
X956460Y488310D01*
D02*
G37*
G36*
X776091Y471043D02*
X773817D01*
X771717Y470173D01*
X770109Y468565D01*
X769239Y466465D01*
Y464191D01*
X770109Y462091D01*
X771717Y460483D01*
X773817Y459613D01*
X776091D01*
X778191Y460483D01*
X779799Y462091D01*
X780669Y464191D01*
Y466465D01*
X779799Y468565D01*
X778191Y470173D01*
X776091Y471043D01*
D02*
G37*
G36*
X956460Y462910D02*
X953620D01*
X950875Y462175D01*
X948415Y460754D01*
X946406Y458745D01*
X944985Y456285D01*
X944250Y453540D01*
Y450700D01*
X944985Y447955D01*
X946406Y445495D01*
X948415Y443486D01*
X950875Y442065D01*
X953620Y441330D01*
X956460D01*
X959205Y442065D01*
X961665Y443486D01*
X963674Y445495D01*
X965095Y447955D01*
X965830Y450700D01*
Y453540D01*
X965095Y456285D01*
X963674Y458745D01*
X961665Y460754D01*
X959205Y462175D01*
X956460Y462910D01*
D02*
G37*
G36*
X456165Y443230D02*
X455930D01*
Y433070D01*
X466090D01*
Y433305D01*
X465311Y436212D01*
X463806Y438818D01*
X461678Y440946D01*
X459072Y442451D01*
X456165Y443230D01*
D02*
G37*
G36*
X481565D02*
X481330D01*
Y433070D01*
X491490D01*
Y433305D01*
X490711Y436212D01*
X489206Y438818D01*
X487078Y440946D01*
X484472Y442451D01*
X481565Y443230D01*
D02*
G37*
G36*
X506965D02*
X506730D01*
Y433070D01*
X516890D01*
Y433305D01*
X516111Y436212D01*
X514606Y438818D01*
X512478Y440946D01*
X509872Y442451D01*
X506965Y443230D01*
D02*
G37*
G36*
X453390D02*
X453155D01*
X450248Y442451D01*
X447642Y440946D01*
X445514Y438818D01*
X444009Y436212D01*
X443230Y433305D01*
Y433070D01*
X453390D01*
Y443230D01*
D02*
G37*
G36*
X478790D02*
X478555D01*
X475648Y442451D01*
X473042Y440946D01*
X470914Y438818D01*
X469409Y436212D01*
X468630Y433305D01*
Y433070D01*
X478790D01*
Y443230D01*
D02*
G37*
G36*
X504190D02*
X503955D01*
X501048Y442451D01*
X498442Y440946D01*
X496314Y438818D01*
X494809Y436212D01*
X494030Y433305D01*
Y433070D01*
X504190D01*
Y443230D01*
D02*
G37*
G36*
X254883Y443357D02*
X252609D01*
X250509Y442487D01*
X248901Y440879D01*
X248031Y438779D01*
Y436505D01*
X248901Y434405D01*
X250509Y432797D01*
X252609Y431927D01*
X254883D01*
X256983Y432797D01*
X258591Y434405D01*
X259461Y436505D01*
Y438779D01*
X258591Y440879D01*
X256983Y442487D01*
X254883Y443357D01*
D02*
G37*
G36*
X162173Y441833D02*
X159899D01*
X157799Y440963D01*
X156191Y439355D01*
X155321Y437255D01*
Y434981D01*
X156191Y432881D01*
X157799Y431273D01*
X159899Y430403D01*
X162173D01*
X164273Y431273D01*
X165881Y432881D01*
X166751Y434981D01*
Y437255D01*
X165881Y439355D01*
X164273Y440963D01*
X162173Y441833D01*
D02*
G37*
G36*
X557397Y437515D02*
X555123D01*
X553023Y436645D01*
X551415Y435037D01*
X550545Y432937D01*
Y430663D01*
X551415Y428563D01*
X553023Y426955D01*
X555123Y426085D01*
X557397D01*
X559497Y426955D01*
X561105Y428563D01*
X561975Y430663D01*
Y432937D01*
X561105Y435037D01*
X559497Y436645D01*
X557397Y437515D01*
D02*
G37*
G36*
X30347D02*
X28073D01*
X25973Y436645D01*
X24365Y435037D01*
X23495Y432937D01*
Y430663D01*
X24365Y428563D01*
X25973Y426955D01*
X28073Y426085D01*
X30347D01*
X32447Y426955D01*
X34055Y428563D01*
X34925Y430663D01*
Y432937D01*
X34055Y435037D01*
X32447Y436645D01*
X30347Y437515D01*
D02*
G37*
G36*
X532365Y443230D02*
X529355D01*
X526448Y442451D01*
X523842Y440946D01*
X521714Y438818D01*
X520209Y436212D01*
X519430Y433305D01*
Y430295D01*
X520209Y427388D01*
X521714Y424782D01*
X523842Y422654D01*
X526448Y421149D01*
X529355Y420370D01*
X532365D01*
X535272Y421149D01*
X537878Y422654D01*
X540006Y424782D01*
X541511Y427388D01*
X542290Y430295D01*
Y433305D01*
X541511Y436212D01*
X540006Y438818D01*
X537878Y440946D01*
X535272Y442451D01*
X532365Y443230D01*
D02*
G37*
G36*
X516890Y430530D02*
X506730D01*
Y420370D01*
X506965D01*
X509872Y421149D01*
X512478Y422654D01*
X514606Y424782D01*
X516111Y427388D01*
X516890Y430295D01*
Y430530D01*
D02*
G37*
G36*
X504190D02*
X494030D01*
Y430295D01*
X494809Y427388D01*
X496314Y424782D01*
X498442Y422654D01*
X501048Y421149D01*
X503955Y420370D01*
X504190D01*
Y430530D01*
D02*
G37*
G36*
X491490D02*
X481330D01*
Y420370D01*
X481565D01*
X484472Y421149D01*
X487078Y422654D01*
X489206Y424782D01*
X490711Y427388D01*
X491490Y430295D01*
Y430530D01*
D02*
G37*
G36*
X478790D02*
X468630D01*
Y430295D01*
X469409Y427388D01*
X470914Y424782D01*
X473042Y422654D01*
X475648Y421149D01*
X478555Y420370D01*
X478790D01*
Y430530D01*
D02*
G37*
G36*
X466090D02*
X455930D01*
Y420370D01*
X456165D01*
X459072Y421149D01*
X461678Y422654D01*
X463806Y424782D01*
X465311Y427388D01*
X466090Y430295D01*
Y430530D01*
D02*
G37*
G36*
X453390D02*
X443230D01*
Y430295D01*
X444009Y427388D01*
X445514Y424782D01*
X447642Y422654D01*
X450248Y421149D01*
X453155Y420370D01*
X453390D01*
Y430530D01*
D02*
G37*
G36*
X706241Y427101D02*
X703967D01*
X701867Y426231D01*
X700259Y424623D01*
X699389Y422523D01*
Y420249D01*
X700259Y418149D01*
X701867Y416541D01*
X703967Y415671D01*
X706241D01*
X708341Y416541D01*
X709949Y418149D01*
X710819Y420249D01*
Y422523D01*
X709949Y424623D01*
X708341Y426231D01*
X706241Y427101D01*
D02*
G37*
G36*
X825113Y426085D02*
X822839D01*
X820739Y425215D01*
X819131Y423607D01*
X818261Y421507D01*
Y419233D01*
X819131Y417133D01*
X820739Y415525D01*
X822839Y414655D01*
X825113D01*
X827213Y415525D01*
X828821Y417133D01*
X829691Y419233D01*
Y421507D01*
X828821Y423607D01*
X827213Y425215D01*
X825113Y426085D01*
D02*
G37*
G36*
X937641Y416120D02*
X937260D01*
Y404850D01*
X948530D01*
Y405231D01*
X947675Y408420D01*
X946024Y411280D01*
X943690Y413614D01*
X940830Y415265D01*
X937641Y416120D01*
D02*
G37*
G36*
X934720D02*
X934339D01*
X931150Y415265D01*
X928290Y413614D01*
X925956Y411280D01*
X924305Y408420D01*
X923450Y405231D01*
Y404850D01*
X934720D01*
Y416120D01*
D02*
G37*
G36*
X790569Y411607D02*
X788295D01*
X786195Y410737D01*
X784587Y409129D01*
X783717Y407029D01*
Y404755D01*
X784587Y402655D01*
X786195Y401047D01*
X788295Y400177D01*
X790569D01*
X792669Y401047D01*
X794277Y402655D01*
X795147Y404755D01*
Y407029D01*
X794277Y409129D01*
X792669Y410737D01*
X790569Y411607D01*
D02*
G37*
G36*
X948530Y402310D02*
X937260D01*
Y391040D01*
X937641D01*
X940830Y391895D01*
X943690Y393545D01*
X946024Y395880D01*
X947675Y398740D01*
X948530Y401929D01*
Y402310D01*
D02*
G37*
G36*
X934720D02*
X923450D01*
Y401929D01*
X924305Y398740D01*
X925956Y395880D01*
X928290Y393545D01*
X931150Y391895D01*
X934339Y391040D01*
X934720D01*
Y402310D01*
D02*
G37*
G36*
X789664Y397494D02*
X787390D01*
X785290Y396624D01*
X783682Y395016D01*
X782812Y392916D01*
Y390642D01*
X783682Y388542D01*
X785290Y386934D01*
X787390Y386064D01*
X789664D01*
X791764Y386934D01*
X793372Y388542D01*
X794242Y390642D01*
Y392916D01*
X793372Y395016D01*
X791764Y396624D01*
X789664Y397494D01*
D02*
G37*
G36*
X757919Y396027D02*
X755645D01*
X753545Y395157D01*
X751937Y393549D01*
X751067Y391449D01*
Y389175D01*
X751937Y387075D01*
X753545Y385467D01*
X755645Y384597D01*
X757919D01*
X760019Y385467D01*
X761627Y387075D01*
X762497Y389175D01*
Y391449D01*
X761627Y393549D01*
X760019Y395157D01*
X757919Y396027D01*
D02*
G37*
G36*
X769741Y387731D02*
X767467D01*
X765367Y386861D01*
X763759Y385253D01*
X762889Y383153D01*
Y380879D01*
X763759Y378779D01*
X765367Y377171D01*
X767467Y376301D01*
X769741D01*
X771841Y377171D01*
X773449Y378779D01*
X774319Y380879D01*
Y383153D01*
X773449Y385253D01*
X771841Y386861D01*
X769741Y387731D01*
D02*
G37*
G36*
X937641Y381120D02*
X934339D01*
X931150Y380265D01*
X928290Y378615D01*
X925956Y376280D01*
X924305Y373420D01*
X923450Y370231D01*
Y366929D01*
X924305Y363740D01*
X925956Y360880D01*
X928290Y358546D01*
X931150Y356895D01*
X934339Y356040D01*
X937641D01*
X940830Y356895D01*
X943690Y358546D01*
X946024Y360880D01*
X947675Y363740D01*
X948530Y366929D01*
Y370231D01*
X947675Y373420D01*
X946024Y376280D01*
X943690Y378615D01*
X940830Y380265D01*
X937641Y381120D01*
D02*
G37*
G36*
X728593Y362839D02*
X726319D01*
X724219Y361969D01*
X722611Y360361D01*
X721741Y358261D01*
Y355987D01*
X722611Y353887D01*
X724219Y352279D01*
X726319Y351409D01*
X728593D01*
X730693Y352279D01*
X732301Y353887D01*
X733171Y355987D01*
Y358261D01*
X732301Y360361D01*
X730693Y361969D01*
X728593Y362839D01*
D02*
G37*
G36*
X211055Y344170D02*
X208045D01*
X205138Y343391D01*
X202532Y341886D01*
X200404Y339758D01*
X198899Y337152D01*
X198120Y334245D01*
Y331235D01*
X198899Y328328D01*
X200404Y325722D01*
X202532Y323594D01*
X205138Y322089D01*
X208045Y321310D01*
X211055D01*
X213962Y322089D01*
X216568Y323594D01*
X218696Y325722D01*
X220201Y328328D01*
X220980Y331235D01*
Y334245D01*
X220201Y337152D01*
X218696Y339758D01*
X216568Y341886D01*
X213962Y343391D01*
X211055Y344170D01*
D02*
G37*
G36*
Y318770D02*
X208045D01*
X205138Y317991D01*
X202532Y316486D01*
X200404Y314358D01*
X198899Y311752D01*
X198120Y308845D01*
Y305835D01*
X198899Y302928D01*
X200404Y300322D01*
X202532Y298194D01*
X205138Y296689D01*
X208045Y295910D01*
X211055D01*
X213962Y296689D01*
X216568Y298194D01*
X218696Y300322D01*
X220201Y302928D01*
X220980Y305835D01*
Y308845D01*
X220201Y311752D01*
X218696Y314358D01*
X216568Y316486D01*
X213962Y317991D01*
X211055Y318770D01*
D02*
G37*
G36*
X31082Y301083D02*
X26351D01*
Y293740D01*
X39528D01*
X39402Y294699D01*
X38541Y296776D01*
X37172Y298560D01*
X35388Y299929D01*
X33311Y300790D01*
X31082Y301083D01*
D02*
G37*
G36*
X78582D02*
X73851D01*
Y293740D01*
X87028D01*
X86902Y294699D01*
X86041Y296776D01*
X84672Y298560D01*
X82888Y299929D01*
X80811Y300790D01*
X78582Y301083D01*
D02*
G37*
G36*
X23812D02*
X19081D01*
X16852Y300790D01*
X14775Y299929D01*
X12991Y298560D01*
X11622Y296776D01*
X10761Y294699D01*
X10635Y293740D01*
X23812D01*
Y301083D01*
D02*
G37*
G36*
X71311D02*
X66582D01*
X64352Y300790D01*
X62275Y299929D01*
X60491Y298560D01*
X59122Y296776D01*
X58261Y294699D01*
X58135Y293740D01*
X71311D01*
Y301083D01*
D02*
G37*
G36*
X87028Y291200D02*
X73851D01*
Y283856D01*
X78582D01*
X80811Y284149D01*
X82888Y285010D01*
X84672Y286379D01*
X86041Y288163D01*
X86902Y290240D01*
X87028Y291200D01*
D02*
G37*
G36*
X71311D02*
X58135D01*
X58261Y290240D01*
X59122Y288163D01*
X60491Y286379D01*
X62275Y285010D01*
X64352Y284149D01*
X66582Y283856D01*
X71311D01*
Y291200D01*
D02*
G37*
G36*
X39528D02*
X26351D01*
Y283856D01*
X31082D01*
X33311Y284149D01*
X35388Y285010D01*
X37172Y286379D01*
X38541Y288163D01*
X39402Y290240D01*
X39528Y291200D01*
D02*
G37*
G36*
X23812D02*
X10635D01*
X10761Y290240D01*
X11622Y288163D01*
X12991Y286379D01*
X14775Y285010D01*
X16852Y284149D01*
X19081Y283856D01*
X23812D01*
Y291200D01*
D02*
G37*
G36*
X82723Y279610D02*
X80474D01*
X78302Y279028D01*
X76355Y277904D01*
X74765Y276314D01*
X73640Y274366D01*
X73059Y272194D01*
X71789Y271316D01*
X70686Y271612D01*
X68437D01*
X66265Y271030D01*
X64318Y269905D01*
X62728Y268315D01*
X61603Y266368D01*
X61021Y264196D01*
Y261947D01*
X61603Y259775D01*
X62728Y257828D01*
X64318Y256238D01*
X65067Y255805D01*
Y254339D01*
X64318Y253906D01*
X62728Y252316D01*
X61603Y250368D01*
X61021Y248197D01*
Y245948D01*
X61603Y243776D01*
X62728Y241828D01*
X64318Y240238D01*
X66265Y239114D01*
X68437Y238532D01*
X70686D01*
X71789Y238828D01*
X73059Y237947D01*
X73640Y235775D01*
X74765Y233827D01*
X76355Y232237D01*
X78302Y231113D01*
X80329Y230570D01*
Y239071D01*
X81599D01*
Y240341D01*
X90099D01*
X89557Y242367D01*
X88432Y244315D01*
X86842Y245905D01*
X86093Y246338D01*
Y247804D01*
X86842Y248237D01*
X88432Y249827D01*
X89557Y251774D01*
X90139Y253946D01*
Y256195D01*
X89557Y258367D01*
X88432Y260314D01*
X86842Y261904D01*
X86093Y262337D01*
Y263804D01*
X86842Y264236D01*
X88432Y265826D01*
X89557Y267774D01*
X90139Y269946D01*
Y272194D01*
X89557Y274366D01*
X88432Y276314D01*
X86842Y277904D01*
X84895Y279028D01*
X82723Y279610D01*
D02*
G37*
G36*
X211055Y293370D02*
X208045D01*
X205138Y292591D01*
X202532Y291086D01*
X200404Y288958D01*
X198899Y286352D01*
X198120Y283445D01*
Y280435D01*
X198899Y277528D01*
X200404Y274922D01*
X202532Y272794D01*
X205138Y271289D01*
X208045Y270510D01*
X211055D01*
X213962Y271289D01*
X216568Y272794D01*
X218696Y274922D01*
X220201Y277528D01*
X220980Y280435D01*
Y283445D01*
X220201Y286352D01*
X218696Y288958D01*
X216568Y291086D01*
X213962Y292591D01*
X211055Y293370D01*
D02*
G37*
G36*
X957815Y270510D02*
X957580D01*
Y260350D01*
X967740D01*
Y260585D01*
X966961Y263492D01*
X965456Y266098D01*
X963328Y268226D01*
X960722Y269731D01*
X957815Y270510D01*
D02*
G37*
G36*
X955040D02*
X954805D01*
X951898Y269731D01*
X949292Y268226D01*
X947164Y266098D01*
X945659Y263492D01*
X944880Y260585D01*
Y260350D01*
X955040D01*
Y270510D01*
D02*
G37*
G36*
X932415D02*
X932180D01*
Y260350D01*
X942340D01*
Y260585D01*
X941561Y263492D01*
X940056Y266098D01*
X937928Y268226D01*
X935322Y269731D01*
X932415Y270510D01*
D02*
G37*
G36*
X929640D02*
X929405D01*
X926498Y269731D01*
X923892Y268226D01*
X921764Y266098D01*
X920259Y263492D01*
X919480Y260585D01*
Y260350D01*
X929640D01*
Y270510D01*
D02*
G37*
G36*
X907015D02*
X906780D01*
Y260350D01*
X916940D01*
Y260585D01*
X916161Y263492D01*
X914656Y266098D01*
X912528Y268226D01*
X909922Y269731D01*
X907015Y270510D01*
D02*
G37*
G36*
X904240D02*
X904005D01*
X901098Y269731D01*
X898492Y268226D01*
X896364Y266098D01*
X894859Y263492D01*
X894080Y260585D01*
Y260350D01*
X904240D01*
Y270510D01*
D02*
G37*
G36*
X714369Y265811D02*
X712095D01*
X709995Y264941D01*
X708387Y263333D01*
X707517Y261233D01*
Y258959D01*
X708387Y256859D01*
X709995Y255251D01*
X712095Y254381D01*
X714369D01*
X716469Y255251D01*
X718077Y256859D01*
X718947Y258959D01*
Y261233D01*
X718077Y263333D01*
X716469Y264941D01*
X714369Y265811D01*
D02*
G37*
G36*
X967740Y257810D02*
X957580D01*
Y247650D01*
X957815D01*
X960722Y248429D01*
X963328Y249934D01*
X965456Y252062D01*
X966961Y254668D01*
X967740Y257575D01*
Y257810D01*
D02*
G37*
G36*
X955040D02*
X944880D01*
Y257575D01*
X945659Y254668D01*
X947164Y252062D01*
X949292Y249934D01*
X951898Y248429D01*
X954805Y247650D01*
X955040D01*
Y257810D01*
D02*
G37*
G36*
X942340D02*
X932180D01*
Y247650D01*
X932415D01*
X935322Y248429D01*
X937928Y249934D01*
X940056Y252062D01*
X941561Y254668D01*
X942340Y257575D01*
Y257810D01*
D02*
G37*
G36*
X929640D02*
X919480D01*
Y257575D01*
X920259Y254668D01*
X921764Y252062D01*
X923892Y249934D01*
X926498Y248429D01*
X929405Y247650D01*
X929640D01*
Y257810D01*
D02*
G37*
G36*
X916940D02*
X906780D01*
Y247650D01*
X907015D01*
X909922Y248429D01*
X912528Y249934D01*
X914656Y252062D01*
X916161Y254668D01*
X916940Y257575D01*
Y257810D01*
D02*
G37*
G36*
X904240D02*
X894080D01*
Y257575D01*
X894859Y254668D01*
X896364Y252062D01*
X898492Y249934D01*
X901098Y248429D01*
X904005Y247650D01*
X904240D01*
Y257810D01*
D02*
G37*
G36*
X881615Y270510D02*
X878605D01*
X875698Y269731D01*
X873092Y268226D01*
X870964Y266098D01*
X869459Y263492D01*
X868680Y260585D01*
Y257575D01*
X869459Y254668D01*
X870964Y252062D01*
X873092Y249934D01*
X875698Y248429D01*
X878605Y247650D01*
X881615D01*
X884522Y248429D01*
X887128Y249934D01*
X889256Y252062D01*
X890761Y254668D01*
X891540Y257575D01*
Y260585D01*
X890761Y263492D01*
X889256Y266098D01*
X887128Y268226D01*
X884522Y269731D01*
X881615Y270510D01*
D02*
G37*
G36*
X697097Y257175D02*
X694823D01*
X692723Y256305D01*
X691115Y254697D01*
X690245Y252597D01*
Y250323D01*
X691115Y248223D01*
X692723Y246615D01*
X694823Y245745D01*
X697097D01*
X699197Y246615D01*
X700805Y248223D01*
X701675Y250323D01*
Y252597D01*
X700805Y254697D01*
X699197Y256305D01*
X697097Y257175D01*
D02*
G37*
G36*
X211055Y267970D02*
X208045D01*
X205138Y267191D01*
X202532Y265686D01*
X200404Y263558D01*
X198899Y260952D01*
X198120Y258045D01*
Y255035D01*
X198899Y252128D01*
X200404Y249522D01*
X202532Y247394D01*
X205138Y245889D01*
X208045Y245110D01*
X211055D01*
X213962Y245889D01*
X216568Y247394D01*
X218696Y249522D01*
X220201Y252128D01*
X220980Y255035D01*
Y258045D01*
X220201Y260952D01*
X218696Y263558D01*
X216568Y265686D01*
X213962Y267191D01*
X211055Y267970D01*
D02*
G37*
G36*
X90099Y237801D02*
X82868D01*
Y230570D01*
X84895Y231113D01*
X86842Y232237D01*
X88432Y233827D01*
X89557Y235775D01*
X90099Y237801D01*
D02*
G37*
G36*
X31082Y226684D02*
X26351D01*
Y219340D01*
X39528D01*
X39402Y220300D01*
X38541Y222377D01*
X37172Y224161D01*
X35388Y225530D01*
X33311Y226391D01*
X31082Y226684D01*
D02*
G37*
G36*
X78582D02*
X73851D01*
Y219340D01*
X87028D01*
X86902Y220300D01*
X86041Y222377D01*
X84672Y224161D01*
X82888Y225530D01*
X80811Y226391D01*
X78582Y226684D01*
D02*
G37*
G36*
X23812D02*
X19081D01*
X16852Y226391D01*
X14775Y225530D01*
X12991Y224161D01*
X11622Y222377D01*
X10761Y220300D01*
X10635Y219340D01*
X23812D01*
Y226684D01*
D02*
G37*
G36*
X71311D02*
X66582D01*
X64352Y226391D01*
X62275Y225530D01*
X60491Y224161D01*
X59122Y222377D01*
X58261Y220300D01*
X58135Y219340D01*
X71311D01*
Y226684D01*
D02*
G37*
G36*
X815969Y226949D02*
X813695D01*
X811595Y226079D01*
X809987Y224471D01*
X809117Y222371D01*
Y220097D01*
X809987Y217997D01*
X811595Y216389D01*
X813695Y215519D01*
X815969D01*
X818069Y216389D01*
X819677Y217997D01*
X820547Y220097D01*
Y222371D01*
X819677Y224471D01*
X818069Y226079D01*
X815969Y226949D01*
D02*
G37*
G36*
X87028Y216800D02*
X73851D01*
Y209457D01*
X78582D01*
X80811Y209750D01*
X82888Y210611D01*
X84672Y211980D01*
X86041Y213764D01*
X86902Y215841D01*
X87028Y216800D01*
D02*
G37*
G36*
X71311D02*
X58135D01*
X58261Y215841D01*
X59122Y213764D01*
X60491Y211980D01*
X62275Y210611D01*
X64352Y209750D01*
X66582Y209457D01*
X71311D01*
Y216800D01*
D02*
G37*
G36*
X39528D02*
X26351D01*
Y209457D01*
X31082D01*
X33311Y209750D01*
X35388Y210611D01*
X37172Y211980D01*
X38541Y213764D01*
X39402Y215841D01*
X39528Y216800D01*
D02*
G37*
G36*
X23812D02*
X10635D01*
X10761Y215841D01*
X11622Y213764D01*
X12991Y211980D01*
X14775Y210611D01*
X16852Y209750D01*
X19081Y209457D01*
X23812D01*
Y216800D01*
D02*
G37*
G36*
X842131Y215265D02*
X839857D01*
X837757Y214395D01*
X836149Y212787D01*
X835279Y210687D01*
Y208413D01*
X836149Y206313D01*
X837757Y204705D01*
X839857Y203835D01*
X842131D01*
X844231Y204705D01*
X845839Y206313D01*
X846709Y208413D01*
Y210687D01*
X845839Y212787D01*
X844231Y214395D01*
X842131Y215265D01*
D02*
G37*
G36*
X729355Y200533D02*
X727081D01*
X724981Y199663D01*
X723373Y198055D01*
X722503Y195955D01*
Y193681D01*
X723373Y191581D01*
X724981Y189973D01*
X727081Y189103D01*
X729355D01*
X731455Y189973D01*
X733063Y191581D01*
X733933Y193681D01*
Y195955D01*
X733063Y198055D01*
X731455Y199663D01*
X729355Y200533D01*
D02*
G37*
G36*
X772355Y197739D02*
X770082D01*
X767981Y196869D01*
X766374Y195261D01*
X765504Y193161D01*
Y190887D01*
X766374Y188787D01*
X767981Y187179D01*
X770082Y186309D01*
X772355D01*
X774456Y187179D01*
X776064Y188787D01*
X776934Y190887D01*
Y193161D01*
X776064Y195261D01*
X774456Y196869D01*
X772355Y197739D01*
D02*
G37*
G36*
X956545Y195580D02*
X956310D01*
Y185420D01*
X966470D01*
Y185655D01*
X965691Y188562D01*
X964186Y191168D01*
X962058Y193296D01*
X959452Y194801D01*
X956545Y195580D01*
D02*
G37*
G36*
X953770D02*
X953535D01*
X950628Y194801D01*
X948022Y193296D01*
X945894Y191168D01*
X944389Y188562D01*
X943610Y185655D01*
Y185420D01*
X953770D01*
Y195580D01*
D02*
G37*
G36*
X931145D02*
X930910D01*
Y185420D01*
X941070D01*
Y185655D01*
X940291Y188562D01*
X938786Y191168D01*
X936658Y193296D01*
X934052Y194801D01*
X931145Y195580D01*
D02*
G37*
G36*
X928370D02*
X928135D01*
X925228Y194801D01*
X922622Y193296D01*
X920494Y191168D01*
X918989Y188562D01*
X918210Y185655D01*
Y185420D01*
X928370D01*
Y195580D01*
D02*
G37*
G36*
X905745D02*
X905510D01*
Y185420D01*
X915670D01*
Y185655D01*
X914891Y188562D01*
X913386Y191168D01*
X911258Y193296D01*
X908652Y194801D01*
X905745Y195580D01*
D02*
G37*
G36*
X902970D02*
X902735D01*
X899828Y194801D01*
X897222Y193296D01*
X895094Y191168D01*
X893589Y188562D01*
X892810Y185655D01*
Y185420D01*
X902970D01*
Y195580D01*
D02*
G37*
G36*
X603371Y193421D02*
X601097D01*
X598997Y192551D01*
X597389Y190943D01*
X596519Y188843D01*
Y186569D01*
X597389Y184469D01*
X598997Y182861D01*
X601097Y181991D01*
X603371D01*
X605471Y182861D01*
X607079Y184469D01*
X607949Y186569D01*
Y188843D01*
X607079Y190943D01*
X605471Y192551D01*
X603371Y193421D01*
D02*
G37*
G36*
X151280Y201290D02*
X148440D01*
X145695Y200555D01*
X143235Y199134D01*
X141226Y197125D01*
X139805Y194665D01*
X139070Y191921D01*
Y189079D01*
X139805Y186335D01*
X141226Y183875D01*
X143235Y181866D01*
X145695Y180445D01*
X148440Y179710D01*
X151280D01*
X154025Y180445D01*
X156485Y181866D01*
X158494Y183875D01*
X159915Y186335D01*
X160650Y189079D01*
Y191921D01*
X159915Y194665D01*
X158494Y197125D01*
X156485Y199134D01*
X154025Y200555D01*
X151280Y201290D01*
D02*
G37*
G36*
X125880D02*
X123040D01*
X120295Y200555D01*
X117835Y199134D01*
X115826Y197125D01*
X114405Y194665D01*
X113670Y191921D01*
Y189079D01*
X114405Y186335D01*
X115826Y183875D01*
X117835Y181866D01*
X120295Y180445D01*
X123040Y179710D01*
X125880D01*
X128625Y180445D01*
X131085Y181866D01*
X133094Y183875D01*
X134515Y186335D01*
X135250Y189079D01*
Y191921D01*
X134515Y194665D01*
X133094Y197125D01*
X131085Y199134D01*
X128625Y200555D01*
X125880Y201290D01*
D02*
G37*
G36*
X100480D02*
X97640D01*
X94895Y200555D01*
X92435Y199134D01*
X90426Y197125D01*
X89005Y194665D01*
X88270Y191921D01*
Y189079D01*
X89005Y186335D01*
X90426Y183875D01*
X92435Y181866D01*
X94895Y180445D01*
X97640Y179710D01*
X100480D01*
X103225Y180445D01*
X105685Y181866D01*
X107694Y183875D01*
X109115Y186335D01*
X109850Y189079D01*
Y191921D01*
X109115Y194665D01*
X107694Y197125D01*
X105685Y199134D01*
X103225Y200555D01*
X100480Y201290D01*
D02*
G37*
G36*
X749167Y184785D02*
X746893D01*
X744793Y183915D01*
X743185Y182307D01*
X742315Y180207D01*
Y177933D01*
X743185Y175833D01*
X744793Y174225D01*
X746893Y173355D01*
X749167D01*
X751267Y174225D01*
X752875Y175833D01*
X753745Y177933D01*
Y180207D01*
X752875Y182307D01*
X751267Y183915D01*
X749167Y184785D01*
D02*
G37*
G36*
X966470Y182880D02*
X956310D01*
Y172720D01*
X956545D01*
X959452Y173499D01*
X962058Y175004D01*
X964186Y177132D01*
X965691Y179738D01*
X966470Y182645D01*
Y182880D01*
D02*
G37*
G36*
X953770D02*
X943610D01*
Y182645D01*
X944389Y179738D01*
X945894Y177132D01*
X948022Y175004D01*
X950628Y173499D01*
X953535Y172720D01*
X953770D01*
Y182880D01*
D02*
G37*
G36*
X941070D02*
X930910D01*
Y172720D01*
X931145D01*
X934052Y173499D01*
X936658Y175004D01*
X938786Y177132D01*
X940291Y179738D01*
X941070Y182645D01*
Y182880D01*
D02*
G37*
G36*
X928370D02*
X918210D01*
Y182645D01*
X918989Y179738D01*
X920494Y177132D01*
X922622Y175004D01*
X925228Y173499D01*
X928135Y172720D01*
X928370D01*
Y182880D01*
D02*
G37*
G36*
X915670D02*
X905510D01*
Y172720D01*
X905745D01*
X908652Y173499D01*
X911258Y175004D01*
X913386Y177132D01*
X914891Y179738D01*
X915670Y182645D01*
Y182880D01*
D02*
G37*
G36*
X902970D02*
X892810D01*
Y182645D01*
X893589Y179738D01*
X895094Y177132D01*
X897222Y175004D01*
X899828Y173499D01*
X902735Y172720D01*
X902970D01*
Y182880D01*
D02*
G37*
G36*
X880345Y195580D02*
X877335D01*
X874428Y194801D01*
X871822Y193296D01*
X869694Y191168D01*
X868189Y188562D01*
X867410Y185655D01*
Y182645D01*
X868189Y179738D01*
X869694Y177132D01*
X871822Y175004D01*
X874428Y173499D01*
X877335Y172720D01*
X880345D01*
X883252Y173499D01*
X885858Y175004D01*
X887986Y177132D01*
X889491Y179738D01*
X890270Y182645D01*
Y185655D01*
X889491Y188562D01*
X887986Y191168D01*
X885858Y193296D01*
X883252Y194801D01*
X880345Y195580D01*
D02*
G37*
G36*
X772535Y179705D02*
X770261D01*
X768161Y178835D01*
X766553Y177227D01*
X765683Y175127D01*
Y172853D01*
X766553Y170753D01*
X768161Y169145D01*
X770261Y168275D01*
X772535D01*
X774635Y169145D01*
X776243Y170753D01*
X777113Y172853D01*
Y175127D01*
X776243Y177227D01*
X774635Y178835D01*
X772535Y179705D01*
D02*
G37*
G36*
X840099Y175133D02*
X837825D01*
X835725Y174263D01*
X834117Y172655D01*
X833247Y170555D01*
Y168281D01*
X834117Y166181D01*
X835725Y164573D01*
X837825Y163703D01*
X840099D01*
X842199Y164573D01*
X843807Y166181D01*
X844677Y168281D01*
Y170555D01*
X843807Y172655D01*
X842199Y174263D01*
X840099Y175133D01*
D02*
G37*
G36*
X724021Y161417D02*
X721747D01*
X719647Y160547D01*
X718039Y158939D01*
X717169Y156839D01*
Y154565D01*
X718039Y152465D01*
X719647Y150857D01*
X721747Y149987D01*
X724021D01*
X726121Y150857D01*
X727729Y152465D01*
X728599Y154565D01*
Y156839D01*
X727729Y158939D01*
X726121Y160547D01*
X724021Y161417D01*
D02*
G37*
G36*
X147555Y143510D02*
X147320D01*
Y133350D01*
X157480D01*
Y133585D01*
X156701Y136492D01*
X155196Y139098D01*
X153068Y141226D01*
X150462Y142731D01*
X147555Y143510D01*
D02*
G37*
G36*
X144780D02*
X144545D01*
X141638Y142731D01*
X139032Y141226D01*
X136904Y139098D01*
X135399Y136492D01*
X134620Y133585D01*
Y133350D01*
X144780D01*
Y143510D01*
D02*
G37*
G36*
X61715Y155142D02*
X43715D01*
X40441Y154711D01*
X37391Y153448D01*
X34771Y151438D01*
X32761Y148818D01*
X31497Y145768D01*
X31067Y142494D01*
X31497Y139220D01*
X32761Y136170D01*
X34771Y133550D01*
X37391Y131540D01*
X40441Y130277D01*
X43715Y129846D01*
X61715D01*
X64988Y130277D01*
X68039Y131540D01*
X70658Y133550D01*
X72668Y136170D01*
X73932Y139220D01*
X74363Y142494D01*
X73932Y145768D01*
X72668Y148818D01*
X70658Y151438D01*
X68039Y153448D01*
X64988Y154711D01*
X61715Y155142D01*
D02*
G37*
G36*
X157480Y130810D02*
X147320D01*
Y120650D01*
X147555D01*
X150462Y121429D01*
X153068Y122934D01*
X155196Y125062D01*
X156701Y127668D01*
X157480Y130575D01*
Y130810D01*
D02*
G37*
G36*
X144780D02*
X134620D01*
Y130575D01*
X135399Y127668D01*
X136904Y125062D01*
X139032Y122934D01*
X141638Y121429D01*
X144545Y120650D01*
X144780D01*
Y130810D01*
D02*
G37*
G36*
X100485Y136466D02*
Y118764D01*
X110854D01*
Y124994D01*
X110458Y128007D01*
X109295Y130814D01*
X107445Y133224D01*
X105035Y135074D01*
X102227Y136237D01*
X100485Y136466D01*
D02*
G37*
G36*
X97945D02*
X96202Y136237D01*
X93395Y135074D01*
X90984Y133224D01*
X89135Y130814D01*
X87972Y128007D01*
X87575Y124994D01*
Y118764D01*
X97945D01*
Y136466D01*
D02*
G37*
G36*
X956545Y125730D02*
X956310D01*
Y115570D01*
X966470D01*
Y115805D01*
X965691Y118712D01*
X964186Y121318D01*
X962058Y123446D01*
X959452Y124951D01*
X956545Y125730D01*
D02*
G37*
G36*
X953770D02*
X953535D01*
X950628Y124951D01*
X948022Y123446D01*
X945894Y121318D01*
X944389Y118712D01*
X943610Y115805D01*
Y115570D01*
X953770D01*
Y125730D01*
D02*
G37*
G36*
X931145D02*
X930910D01*
Y115570D01*
X941070D01*
Y115805D01*
X940291Y118712D01*
X938786Y121318D01*
X936658Y123446D01*
X934052Y124951D01*
X931145Y125730D01*
D02*
G37*
G36*
X928370D02*
X928135D01*
X925228Y124951D01*
X922622Y123446D01*
X920494Y121318D01*
X918989Y118712D01*
X918210Y115805D01*
Y115570D01*
X928370D01*
Y125730D01*
D02*
G37*
G36*
X905745D02*
X905510D01*
Y115570D01*
X915670D01*
Y115805D01*
X914891Y118712D01*
X913386Y121318D01*
X911258Y123446D01*
X908652Y124951D01*
X905745Y125730D01*
D02*
G37*
G36*
X902970D02*
X902735D01*
X899828Y124951D01*
X897222Y123446D01*
X895094Y121318D01*
X893589Y118712D01*
X892810Y115805D01*
Y115570D01*
X902970D01*
Y125730D01*
D02*
G37*
G36*
X819017Y123571D02*
X816743D01*
X814643Y122701D01*
X813035Y121093D01*
X812165Y118993D01*
Y116719D01*
X813035Y114619D01*
X814643Y113011D01*
X816743Y112141D01*
X819017D01*
X821117Y113011D01*
X822725Y114619D01*
X823595Y116719D01*
Y118993D01*
X822725Y121093D01*
X821117Y122701D01*
X819017Y123571D01*
D02*
G37*
G36*
X283331D02*
X281057D01*
X278957Y122701D01*
X277349Y121093D01*
X276479Y118993D01*
Y116719D01*
X277349Y114619D01*
X278957Y113011D01*
X281057Y112141D01*
X283331D01*
X285431Y113011D01*
X287039Y114619D01*
X287909Y116719D01*
Y118993D01*
X287039Y121093D01*
X285431Y122701D01*
X283331Y123571D01*
D02*
G37*
G36*
X465449Y119507D02*
X463175D01*
X461075Y118637D01*
X459467Y117029D01*
X458597Y114929D01*
Y112655D01*
X459467Y110555D01*
X461075Y108947D01*
X463175Y108077D01*
X465449D01*
X467549Y108947D01*
X469157Y110555D01*
X470027Y112655D01*
Y114929D01*
X469157Y117029D01*
X467549Y118637D01*
X465449Y119507D01*
D02*
G37*
G36*
X147555Y118110D02*
X147320D01*
Y107950D01*
X157480D01*
Y108185D01*
X156701Y111092D01*
X155196Y113698D01*
X153068Y115826D01*
X150462Y117331D01*
X147555Y118110D01*
D02*
G37*
G36*
X144780D02*
X144545D01*
X141638Y117331D01*
X139032Y115826D01*
X136904Y113698D01*
X135399Y111092D01*
X134620Y108185D01*
Y107950D01*
X144780D01*
Y118110D01*
D02*
G37*
G36*
X966470Y113030D02*
X956310D01*
Y102870D01*
X956545D01*
X959452Y103649D01*
X962058Y105154D01*
X964186Y107282D01*
X965691Y109888D01*
X966470Y112795D01*
Y113030D01*
D02*
G37*
G36*
X953770D02*
X943610D01*
Y112795D01*
X944389Y109888D01*
X945894Y107282D01*
X948022Y105154D01*
X950628Y103649D01*
X953535Y102870D01*
X953770D01*
Y113030D01*
D02*
G37*
G36*
X941070D02*
X930910D01*
Y102870D01*
X931145D01*
X934052Y103649D01*
X936658Y105154D01*
X938786Y107282D01*
X940291Y109888D01*
X941070Y112795D01*
Y113030D01*
D02*
G37*
G36*
X928370D02*
X918210D01*
Y112795D01*
X918989Y109888D01*
X920494Y107282D01*
X922622Y105154D01*
X925228Y103649D01*
X928135Y102870D01*
X928370D01*
Y113030D01*
D02*
G37*
G36*
X915670D02*
X905510D01*
Y102870D01*
X905745D01*
X908652Y103649D01*
X911258Y105154D01*
X913386Y107282D01*
X914891Y109888D01*
X915670Y112795D01*
Y113030D01*
D02*
G37*
G36*
X902970D02*
X892810D01*
Y112795D01*
X893589Y109888D01*
X895094Y107282D01*
X897222Y105154D01*
X899828Y103649D01*
X902735Y102870D01*
X902970D01*
Y113030D01*
D02*
G37*
G36*
X880345Y125730D02*
X877335D01*
X874428Y124951D01*
X871822Y123446D01*
X869694Y121318D01*
X868189Y118712D01*
X867410Y115805D01*
Y112795D01*
X868189Y109888D01*
X869694Y107282D01*
X871822Y105154D01*
X874428Y103649D01*
X877335Y102870D01*
X880345D01*
X883252Y103649D01*
X885858Y105154D01*
X887986Y107282D01*
X889491Y109888D01*
X890270Y112795D01*
Y115805D01*
X889491Y118712D01*
X887986Y121318D01*
X885858Y123446D01*
X883252Y124951D01*
X880345Y125730D01*
D02*
G37*
G36*
X335515Y121920D02*
X332505D01*
X329598Y121141D01*
X326992Y119636D01*
X324864Y117508D01*
X323359Y114902D01*
X322580Y111995D01*
Y108985D01*
X323359Y106078D01*
X324864Y103472D01*
X326992Y101344D01*
X329598Y99839D01*
X332505Y99060D01*
X335515D01*
X338422Y99839D01*
X341028Y101344D01*
X343156Y103472D01*
X344661Y106078D01*
X345440Y108985D01*
Y111995D01*
X344661Y114902D01*
X343156Y117508D01*
X341028Y119636D01*
X338422Y121141D01*
X335515Y121920D01*
D02*
G37*
G36*
X110854Y116224D02*
X100485D01*
Y98522D01*
X102227Y98751D01*
X105035Y99914D01*
X107445Y101764D01*
X109295Y104174D01*
X110458Y106981D01*
X110854Y109994D01*
Y116224D01*
D02*
G37*
G36*
X97945D02*
X87575D01*
Y109994D01*
X87972Y106981D01*
X89135Y104174D01*
X90984Y101764D01*
X93395Y99914D01*
X96202Y98751D01*
X97945Y98522D01*
Y116224D01*
D02*
G37*
G36*
X157480Y105410D02*
X147320D01*
Y95250D01*
X147555D01*
X150462Y96029D01*
X153068Y97534D01*
X155196Y99662D01*
X156701Y102268D01*
X157480Y105175D01*
Y105410D01*
D02*
G37*
G36*
X144780D02*
X134620D01*
Y105175D01*
X135399Y102268D01*
X136904Y99662D01*
X139032Y97534D01*
X141638Y96029D01*
X144545Y95250D01*
X144780D01*
Y105410D01*
D02*
G37*
G36*
X335515Y96520D02*
X335280D01*
Y86360D01*
X345440D01*
Y86595D01*
X344661Y89502D01*
X343156Y92108D01*
X341028Y94236D01*
X338422Y95741D01*
X335515Y96520D01*
D02*
G37*
G36*
X332740D02*
X332505D01*
X329598Y95741D01*
X326992Y94236D01*
X324864Y92108D01*
X323359Y89502D01*
X322580Y86595D01*
Y86360D01*
X332740D01*
Y96520D01*
D02*
G37*
G36*
X61715Y95142D02*
X53985D01*
Y83764D01*
X74196D01*
X73932Y85768D01*
X72668Y88818D01*
X70658Y91438D01*
X68039Y93448D01*
X64988Y94711D01*
X61715Y95142D01*
D02*
G37*
G36*
X51445D02*
X43715D01*
X40441Y94711D01*
X37391Y93448D01*
X34771Y91438D01*
X32761Y88818D01*
X31497Y85768D01*
X31234Y83764D01*
X51445D01*
Y95142D01*
D02*
G37*
G36*
X147555Y92710D02*
X147320D01*
Y82550D01*
X157480D01*
Y82785D01*
X156701Y85692D01*
X155196Y88298D01*
X153068Y90426D01*
X150462Y91931D01*
X147555Y92710D01*
D02*
G37*
G36*
X144780D02*
X144545D01*
X141638Y91931D01*
X139032Y90426D01*
X136904Y88298D01*
X135399Y85692D01*
X134620Y82785D01*
Y82550D01*
X144780D01*
Y92710D01*
D02*
G37*
G36*
X511408Y87248D02*
X511290D01*
Y77978D01*
X520560D01*
Y78096D01*
X519842Y80776D01*
X518454Y83180D01*
X516492Y85142D01*
X514088Y86530D01*
X511408Y87248D01*
D02*
G37*
G36*
X508750D02*
X508632D01*
X505952Y86530D01*
X503548Y85142D01*
X501586Y83180D01*
X500198Y80776D01*
X499480Y78096D01*
Y77978D01*
X508750D01*
Y87248D01*
D02*
G37*
G36*
X345440Y83820D02*
X335280D01*
Y73660D01*
X335515D01*
X338422Y74439D01*
X341028Y75944D01*
X343156Y78072D01*
X344661Y80678D01*
X345440Y83585D01*
Y83820D01*
D02*
G37*
G36*
X332740D02*
X322580D01*
Y83585D01*
X323359Y80678D01*
X324864Y78072D01*
X326992Y75944D01*
X329598Y74439D01*
X332505Y73660D01*
X332740D01*
Y83820D01*
D02*
G37*
G36*
X157480Y80010D02*
X147320D01*
Y69850D01*
X147555D01*
X150462Y70629D01*
X153068Y72134D01*
X155196Y74262D01*
X156701Y76868D01*
X157480Y79775D01*
Y80010D01*
D02*
G37*
G36*
X144780D02*
X134620D01*
Y79775D01*
X135399Y76868D01*
X136904Y74262D01*
X139032Y72134D01*
X141638Y70629D01*
X144545Y69850D01*
X144780D01*
Y80010D01*
D02*
G37*
G36*
X74196Y81224D02*
X53985D01*
Y69846D01*
X61715D01*
X64988Y70277D01*
X68039Y71540D01*
X70658Y73550D01*
X72668Y76170D01*
X73932Y79220D01*
X74196Y81224D01*
D02*
G37*
G36*
X51445D02*
X31234D01*
X31497Y79220D01*
X32761Y76170D01*
X34771Y73550D01*
X37391Y71540D01*
X40441Y70277D01*
X43715Y69846D01*
X51445D01*
Y81224D01*
D02*
G37*
G36*
X520560Y75438D02*
X511290D01*
Y66168D01*
X511408D01*
X514088Y66886D01*
X516492Y68274D01*
X518454Y70236D01*
X519842Y72640D01*
X520560Y75320D01*
Y75438D01*
D02*
G37*
G36*
X508750D02*
X499480D01*
Y75320D01*
X500198Y72640D01*
X501586Y70236D01*
X503548Y68274D01*
X505952Y66886D01*
X508632Y66168D01*
X508750D01*
Y75438D01*
D02*
G37*
G36*
X446408Y87248D02*
X443632D01*
X440952Y86530D01*
X438548Y85142D01*
X436586Y83180D01*
X435198Y80776D01*
X434480Y78096D01*
Y75320D01*
X435198Y72640D01*
X436586Y70236D01*
X438548Y68274D01*
X440952Y66886D01*
X443632Y66168D01*
X446408D01*
X449088Y66886D01*
X451492Y68274D01*
X453454Y70236D01*
X454842Y72640D01*
X455560Y75320D01*
Y78096D01*
X454842Y80776D01*
X453454Y83180D01*
X451492Y85142D01*
X449088Y86530D01*
X446408Y87248D01*
D02*
G37*
G36*
X658857Y72644D02*
X658622D01*
Y62484D01*
X668782D01*
Y62719D01*
X668003Y65626D01*
X666498Y68232D01*
X664370Y70360D01*
X661764Y71865D01*
X658857Y72644D01*
D02*
G37*
G36*
X656082D02*
X655847D01*
X652940Y71865D01*
X650334Y70360D01*
X648206Y68232D01*
X646701Y65626D01*
X645922Y62719D01*
Y62484D01*
X656082D01*
Y72644D01*
D02*
G37*
G36*
X335515Y71120D02*
X335280D01*
Y60960D01*
X345440D01*
Y61195D01*
X344661Y64102D01*
X343156Y66708D01*
X341028Y68836D01*
X338422Y70341D01*
X335515Y71120D01*
D02*
G37*
G36*
X332740D02*
X332505D01*
X329598Y70341D01*
X326992Y68836D01*
X324864Y66708D01*
X323359Y64102D01*
X322580Y61195D01*
Y60960D01*
X332740D01*
Y71120D01*
D02*
G37*
G36*
X572637Y66675D02*
X570363D01*
X568263Y65805D01*
X566655Y64197D01*
X565785Y62097D01*
Y59823D01*
X566655Y57723D01*
X568263Y56115D01*
X570363Y55245D01*
X572637D01*
X574737Y56115D01*
X576345Y57723D01*
X577215Y59823D01*
Y62097D01*
X576345Y64197D01*
X574737Y65805D01*
X572637Y66675D01*
D02*
G37*
G36*
X668782Y59944D02*
X658622D01*
Y49784D01*
X658857D01*
X661764Y50563D01*
X664370Y52068D01*
X666498Y54196D01*
X668003Y56802D01*
X668782Y59709D01*
Y59944D01*
D02*
G37*
G36*
X656082D02*
X645922D01*
Y59709D01*
X646701Y56802D01*
X648206Y54196D01*
X650334Y52068D01*
X652940Y50563D01*
X655847Y49784D01*
X656082D01*
Y59944D01*
D02*
G37*
G36*
X633457Y72644D02*
X630447D01*
X627540Y71865D01*
X624934Y70360D01*
X622806Y68232D01*
X621301Y65626D01*
X620522Y62719D01*
Y59709D01*
X621301Y56802D01*
X622806Y54196D01*
X624934Y52068D01*
X627540Y50563D01*
X630447Y49784D01*
X633457D01*
X636364Y50563D01*
X638970Y52068D01*
X641098Y54196D01*
X642603Y56802D01*
X643382Y59709D01*
Y62719D01*
X642603Y65626D01*
X641098Y68232D01*
X638970Y70360D01*
X636364Y71865D01*
X633457Y72644D01*
D02*
G37*
G36*
X608057D02*
X605047D01*
X602140Y71865D01*
X599534Y70360D01*
X597406Y68232D01*
X595901Y65626D01*
X595122Y62719D01*
Y59709D01*
X595901Y56802D01*
X597406Y54196D01*
X599534Y52068D01*
X602140Y50563D01*
X605047Y49784D01*
X608057D01*
X610964Y50563D01*
X613570Y52068D01*
X615698Y54196D01*
X617203Y56802D01*
X617982Y59709D01*
Y62719D01*
X617203Y65626D01*
X615698Y68232D01*
X613570Y70360D01*
X610964Y71865D01*
X608057Y72644D01*
D02*
G37*
G36*
X345440Y58420D02*
X335280D01*
Y48260D01*
X335515D01*
X338422Y49039D01*
X341028Y50544D01*
X343156Y52672D01*
X344661Y55278D01*
X345440Y58185D01*
Y58420D01*
D02*
G37*
G36*
X332740D02*
X322580D01*
Y58185D01*
X323359Y55278D01*
X324864Y52672D01*
X326992Y50544D01*
X329598Y49039D01*
X332505Y48260D01*
X332740D01*
Y58420D01*
D02*
G37*
G36*
X956545Y57150D02*
X956310D01*
Y46990D01*
X966470D01*
Y47225D01*
X965691Y50132D01*
X964186Y52738D01*
X962058Y54866D01*
X959452Y56371D01*
X956545Y57150D01*
D02*
G37*
G36*
X953770D02*
X953535D01*
X950628Y56371D01*
X948022Y54866D01*
X945894Y52738D01*
X944389Y50132D01*
X943610Y47225D01*
Y46990D01*
X953770D01*
Y57150D01*
D02*
G37*
G36*
X931145D02*
X930910D01*
Y46990D01*
X941070D01*
Y47225D01*
X940291Y50132D01*
X938786Y52738D01*
X936658Y54866D01*
X934052Y56371D01*
X931145Y57150D01*
D02*
G37*
G36*
X928370D02*
X928135D01*
X925228Y56371D01*
X922622Y54866D01*
X920494Y52738D01*
X918989Y50132D01*
X918210Y47225D01*
Y46990D01*
X928370D01*
Y57150D01*
D02*
G37*
G36*
X905745D02*
X905510D01*
Y46990D01*
X915670D01*
Y47225D01*
X914891Y50132D01*
X913386Y52738D01*
X911258Y54866D01*
X908652Y56371D01*
X905745Y57150D01*
D02*
G37*
G36*
X902970D02*
X902735D01*
X899828Y56371D01*
X897222Y54866D01*
X895094Y52738D01*
X893589Y50132D01*
X892810Y47225D01*
Y46990D01*
X902970D01*
Y57150D01*
D02*
G37*
G36*
X147555Y67310D02*
X144545D01*
X141638Y66531D01*
X139032Y65026D01*
X136904Y62898D01*
X135399Y60292D01*
X134620Y57385D01*
Y54375D01*
X135399Y51468D01*
X136904Y48862D01*
X139032Y46734D01*
X141638Y45229D01*
X144545Y44450D01*
X147555D01*
X150462Y45229D01*
X153068Y46734D01*
X155196Y48862D01*
X156701Y51468D01*
X157480Y54375D01*
Y57385D01*
X156701Y60292D01*
X155196Y62898D01*
X153068Y65026D01*
X150462Y66531D01*
X147555Y67310D01*
D02*
G37*
G36*
X335515Y45720D02*
X335280D01*
Y35560D01*
X345440D01*
Y35795D01*
X344661Y38702D01*
X343156Y41308D01*
X341028Y43436D01*
X338422Y44941D01*
X335515Y45720D01*
D02*
G37*
G36*
X332740D02*
X332505D01*
X329598Y44941D01*
X326992Y43436D01*
X324864Y41308D01*
X323359Y38702D01*
X322580Y35795D01*
Y35560D01*
X332740D01*
Y45720D01*
D02*
G37*
G36*
X966470Y44450D02*
X956310D01*
Y34290D01*
X956545D01*
X959452Y35069D01*
X962058Y36574D01*
X964186Y38702D01*
X965691Y41308D01*
X966470Y44215D01*
Y44450D01*
D02*
G37*
G36*
X953770D02*
X943610D01*
Y44215D01*
X944389Y41308D01*
X945894Y38702D01*
X948022Y36574D01*
X950628Y35069D01*
X953535Y34290D01*
X953770D01*
Y44450D01*
D02*
G37*
G36*
X941070D02*
X930910D01*
Y34290D01*
X931145D01*
X934052Y35069D01*
X936658Y36574D01*
X938786Y38702D01*
X940291Y41308D01*
X941070Y44215D01*
Y44450D01*
D02*
G37*
G36*
X928370D02*
X918210D01*
Y44215D01*
X918989Y41308D01*
X920494Y38702D01*
X922622Y36574D01*
X925228Y35069D01*
X928135Y34290D01*
X928370D01*
Y44450D01*
D02*
G37*
G36*
X915670D02*
X905510D01*
Y34290D01*
X905745D01*
X908652Y35069D01*
X911258Y36574D01*
X913386Y38702D01*
X914891Y41308D01*
X915670Y44215D01*
Y44450D01*
D02*
G37*
G36*
X902970D02*
X892810D01*
Y44215D01*
X893589Y41308D01*
X895094Y38702D01*
X897222Y36574D01*
X899828Y35069D01*
X902735Y34290D01*
X902970D01*
Y44450D01*
D02*
G37*
G36*
X880345Y57150D02*
X877335D01*
X874428Y56371D01*
X871822Y54866D01*
X869694Y52738D01*
X868189Y50132D01*
X867410Y47225D01*
Y44215D01*
X868189Y41308D01*
X869694Y38702D01*
X871822Y36574D01*
X874428Y35069D01*
X877335Y34290D01*
X880345D01*
X883252Y35069D01*
X885858Y36574D01*
X887986Y38702D01*
X889491Y41308D01*
X890270Y44215D01*
Y47225D01*
X889491Y50132D01*
X887986Y52738D01*
X885858Y54866D01*
X883252Y56371D01*
X880345Y57150D01*
D02*
G37*
G36*
X688461Y40767D02*
X686187D01*
X684087Y39897D01*
X682479Y38289D01*
X681609Y36189D01*
Y33915D01*
X682479Y31815D01*
X684087Y30207D01*
X686187Y29337D01*
X688461D01*
X690561Y30207D01*
X692169Y31815D01*
X693039Y33915D01*
Y36189D01*
X692169Y38289D01*
X690561Y39897D01*
X688461Y40767D01*
D02*
G37*
G36*
X706749Y39751D02*
X704475D01*
X702375Y38881D01*
X700767Y37273D01*
X699897Y35173D01*
Y32899D01*
X700767Y30799D01*
X702375Y29191D01*
X704475Y28321D01*
X706749D01*
X708849Y29191D01*
X710457Y30799D01*
X711327Y32899D01*
Y35173D01*
X710457Y37273D01*
X708849Y38881D01*
X706749Y39751D01*
D02*
G37*
G36*
X658857Y47244D02*
X655847D01*
X652940Y46465D01*
X650334Y44960D01*
X648206Y42832D01*
X646701Y40226D01*
X645922Y37319D01*
Y34309D01*
X646701Y31402D01*
X648206Y28796D01*
X650334Y26668D01*
X652940Y25163D01*
X655847Y24384D01*
X658857D01*
X661764Y25163D01*
X664370Y26668D01*
X666498Y28796D01*
X668003Y31402D01*
X668782Y34309D01*
Y37319D01*
X668003Y40226D01*
X666498Y42832D01*
X664370Y44960D01*
X661764Y46465D01*
X658857Y47244D01*
D02*
G37*
G36*
X633457D02*
X630447D01*
X627540Y46465D01*
X624934Y44960D01*
X622806Y42832D01*
X621301Y40226D01*
X620522Y37319D01*
Y34309D01*
X621301Y31402D01*
X622806Y28796D01*
X624934Y26668D01*
X627540Y25163D01*
X630447Y24384D01*
X633457D01*
X636364Y25163D01*
X638970Y26668D01*
X641098Y28796D01*
X642603Y31402D01*
X643382Y34309D01*
Y37319D01*
X642603Y40226D01*
X641098Y42832D01*
X638970Y44960D01*
X636364Y46465D01*
X633457Y47244D01*
D02*
G37*
G36*
X608057D02*
X605047D01*
X602140Y46465D01*
X599534Y44960D01*
X597406Y42832D01*
X595901Y40226D01*
X595122Y37319D01*
Y34309D01*
X595901Y31402D01*
X597406Y28796D01*
X599534Y26668D01*
X602140Y25163D01*
X605047Y24384D01*
X608057D01*
X610964Y25163D01*
X613570Y26668D01*
X615698Y28796D01*
X617203Y31402D01*
X617982Y34309D01*
Y37319D01*
X617203Y40226D01*
X615698Y42832D01*
X613570Y44960D01*
X610964Y46465D01*
X608057Y47244D01*
D02*
G37*
G36*
X345440Y33020D02*
X335280D01*
Y22860D01*
X335515D01*
X338422Y23639D01*
X341028Y25144D01*
X343156Y27272D01*
X344661Y29878D01*
X345440Y32785D01*
Y33020D01*
D02*
G37*
G36*
X332740D02*
X322580D01*
Y32785D01*
X323359Y29878D01*
X324864Y27272D01*
X326992Y25144D01*
X329598Y23639D01*
X332505Y22860D01*
X332740D01*
Y33020D01*
D02*
G37*
%LPD*%
D62*
X25082Y292470D02*
D03*
X72582D02*
D03*
Y218070D02*
D03*
X25082D02*
D03*
D63*
X81599Y239071D02*
D03*
Y255071D02*
D03*
X69562Y247072D02*
D03*
Y263072D02*
D03*
X81599Y271070D02*
D03*
D64*
X232664Y600202D02*
D03*
X258064D02*
D03*
X181864D02*
D03*
X207264D02*
D03*
X359918Y530860D02*
D03*
Y505460D02*
D03*
Y581660D02*
D03*
Y556260D02*
D03*
X401320D02*
D03*
Y581660D02*
D03*
Y505460D02*
D03*
Y530860D02*
D03*
X454660Y556260D02*
D03*
Y581660D02*
D03*
Y505460D02*
D03*
Y530860D02*
D03*
X513588Y556260D02*
D03*
Y581660D02*
D03*
Y505460D02*
D03*
Y530860D02*
D03*
X104394Y600202D02*
D03*
X129794D02*
D03*
X53594D02*
D03*
X78994D02*
D03*
X334010Y59690D02*
D03*
Y34290D02*
D03*
Y110490D02*
D03*
Y85090D02*
D03*
X505460Y431800D02*
D03*
X530860D02*
D03*
X454660D02*
D03*
X480060D02*
D03*
X146050Y81280D02*
D03*
Y55880D02*
D03*
Y132080D02*
D03*
Y106680D02*
D03*
X904240Y45720D02*
D03*
X878840D02*
D03*
X955040D02*
D03*
X929640D02*
D03*
X905510Y259080D02*
D03*
X880110D02*
D03*
X956310D02*
D03*
X930910D02*
D03*
X209550Y281940D02*
D03*
Y256540D02*
D03*
Y332740D02*
D03*
Y307340D02*
D03*
X657352Y61214D02*
D03*
Y35814D02*
D03*
X631952Y61214D02*
D03*
Y35814D02*
D03*
X606552Y61214D02*
D03*
Y35814D02*
D03*
X904240Y114300D02*
D03*
X878840D02*
D03*
X955040D02*
D03*
X929640D02*
D03*
X904240Y184150D02*
D03*
X878840D02*
D03*
X955040D02*
D03*
X929640D02*
D03*
D65*
X99215Y117494D02*
D03*
D66*
X52715Y82494D02*
D03*
Y142494D02*
D03*
D67*
X510020Y76708D02*
D03*
X445020D02*
D03*
D68*
X955040Y452120D02*
D03*
Y477520D02*
D03*
Y502920D02*
D03*
X99060Y190500D02*
D03*
X124460D02*
D03*
X149860D02*
D03*
X748030Y608330D02*
D03*
X722630D02*
D03*
X697230D02*
D03*
D69*
X835350Y576580D02*
D03*
X895350D02*
D03*
D70*
X860350Y623080D02*
D03*
D71*
X935990Y368580D02*
D03*
Y403580D02*
D03*
D72*
X840740Y154940D02*
D03*
X937260Y429260D02*
D03*
X829310Y209550D02*
D03*
X819150Y232410D02*
D03*
X778410Y201752D02*
D03*
X773430Y163830D02*
D03*
X755650Y189230D02*
D03*
X772160Y241300D02*
D03*
X754380Y295910D02*
D03*
X748030Y179070D02*
D03*
X753988Y155163D02*
D03*
X562610Y568960D02*
D03*
X654050Y604520D02*
D03*
X542290Y500380D02*
D03*
X598170Y477520D02*
D03*
X571500Y430530D02*
D03*
X689610Y426720D02*
D03*
X741680Y492760D02*
D03*
X744220Y520700D02*
D03*
X833120Y491490D02*
D03*
X834390Y429260D02*
D03*
X740410Y356870D02*
D03*
X617220Y187960D02*
D03*
X728980Y182880D02*
D03*
Y165100D02*
D03*
X829310Y125730D02*
D03*
X678180Y46990D02*
D03*
X718820Y34290D02*
D03*
X572770Y78740D02*
D03*
X447040Y115570D02*
D03*
X300990Y116840D02*
D03*
X237490Y436880D02*
D03*
X161290Y421640D02*
D03*
X25400Y416560D02*
D03*
X92710Y467360D02*
D03*
X168148Y481838D02*
D03*
X163830Y468630D02*
D03*
X123190Y547370D02*
D03*
X560578Y206248D02*
D03*
X414782Y296672D02*
D03*
X325374Y206756D02*
D03*
X282194Y117856D02*
D03*
X133350Y539750D02*
D03*
X151337Y544867D02*
D03*
X111760Y499110D02*
D03*
X93345Y483997D02*
D03*
X141351Y256540D02*
D03*
X119380Y383540D02*
D03*
X29210Y431800D02*
D03*
X69850Y402590D02*
D03*
X133350Y294640D02*
D03*
X556260Y431800D02*
D03*
X53340Y342900D02*
D03*
X134366Y18034D02*
D03*
X788527Y391779D02*
D03*
X823976Y420370D02*
D03*
X789432Y405892D02*
D03*
X815086Y491236D02*
D03*
X774954Y465328D02*
D03*
X584708Y555752D02*
D03*
X559816Y557022D02*
D03*
X750570Y398272D02*
D03*
X725170Y493522D02*
D03*
X630428Y493268D02*
D03*
X542544Y515366D02*
D03*
X584200Y480060D02*
D03*
X240284Y504190D02*
D03*
X771398Y173990D02*
D03*
X771219Y192024D02*
D03*
X814832Y221234D02*
D03*
X713232Y260096D02*
D03*
X695960Y251460D02*
D03*
X735422Y263779D02*
D03*
X727456Y357124D02*
D03*
X683324Y401511D02*
D03*
X874395Y403098D02*
D03*
X697738Y274652D02*
D03*
X766064Y90170D02*
D03*
X668782Y219710D02*
D03*
X728218Y194818D02*
D03*
X840994Y209550D02*
D03*
X602234Y187706D02*
D03*
X571500Y60960D02*
D03*
X705612Y34036D02*
D03*
X687324Y35052D02*
D03*
X838962Y169418D02*
D03*
X817880Y117856D02*
D03*
X722884Y155702D02*
D03*
X464312Y113792D02*
D03*
X161036Y436118D02*
D03*
X757428Y520954D02*
D03*
X768604Y382016D02*
D03*
X756782Y390312D02*
D03*
X705104Y421386D02*
D03*
X668528Y592328D02*
D03*
X253746Y437642D02*
D03*
X644144Y576326D02*
D03*
X241300Y35052D02*
D03*
X563118Y296672D02*
D03*
X509778Y102870D02*
D03*
X93726Y452120D02*
D03*
X657860Y84836D02*
D03*
X334010Y298196D02*
D03*
X285496Y55372D02*
D03*
X238252Y118618D02*
D03*
X192278Y118364D02*
D03*
X902970Y492506D02*
D03*
X671576Y492760D02*
D03*
X651256Y398526D02*
D03*
X681990Y320548D02*
D03*
X819658Y58928D02*
D03*
X651002Y252730D02*
D03*
X482346Y204978D02*
D03*
X407416Y207264D02*
D03*
X482600Y295402D02*
D03*
M02*
