M48
;Layer_Color=9474304
;FILE_FORMAT=4:4
METRIC,LZ
;TYPE=PLATED
T1F00S00C0.3302
T2F00S00C0.8000
T4F00S00C0.9000
T5F00S00C1.0000
T7F00S00C1.0160
T8F00S00C1.1000
%
T01
X0011811Y00054356
X00198374Y00118364
X00309118
X00355092Y00118618
X00399034Y00117856
X00402336Y00055372
X0035814Y00035052
X00581152Y00113792
X00626618Y0010287
X0068834Y0006096
X007747Y00084836
X00804164Y00035052
X00822452Y00034036
X00882904Y0009017
X0093472Y00117856
X00936498Y00058928
X00955802Y00169418
X00957834Y0020955
X01053084Y00336042
X00991235Y00403098
X00940816Y0042037
X0101981Y00492506
X00931926Y00491236
X00891794Y00465328
X00874268Y00520954
X0084201Y00493522
X00788416Y0049276
X00747268Y00493268
X0070104Y0048006
X00659384Y00515366
X00768096Y00398526
X00800163Y00401511
X00821944Y00421386
X0086741Y00398272
X00873622Y00390312
X00885444Y00382016
X00905367Y00391779
X00906272Y00405892
X00844296Y00357124
X0079883Y00320548
X00814578Y00274652
X008128Y0025146
X00830072Y00260096
X00852262Y00263779
X00871728Y00260096
X00871474Y00205065
X00888059Y00192024
X00888238Y0017399
X00889761Y00156454
X00871474Y00155956
X00839724Y00155702
X00845058Y00194818
X00785622Y0021971
X00767842Y0025273
X00719074Y00187706
X00677418Y00206248
X00599186Y00204978
X0059944Y00295402
X00679958Y00296672
X00931672Y00221234
X00524256Y00207264
X00442214Y00206756
X0045085Y00298196
X00531622Y00296672
X00490728Y00505968
X00357124Y0050419
X00284734Y00498094
X00284988Y00481838
X00277876Y00436118
X00237616Y00445373
X00210566Y0045212
Y00480568
X00263774Y00536062
X00287738Y00536691
X00370586Y00437642
X0019812Y0036957
X00183388Y00379984
X00140716Y003556
X00087376Y00365252
X0007874Y00460502
X00049784Y00462534
X00072644Y00531368
X00096012Y00546862
X00259334Y00546608
X00676656Y00557022
X00701548Y00555752
X00760984Y00576326
X00785368Y00592328
X01015746Y00611886
T02
X00087341Y00474402
Y00490402
X00099378Y004984
Y00482401
Y00466401
T04
X0056186Y00076708
X0062686
T05
X0105283Y0036858
Y0040358
T07
X002032Y0003556
X002286
X00254
X002794
X0045085Y0003429
Y0005969
Y0008509
Y0011049
X0099568Y001143
X0102108
X0104648
X0107188
Y0004572
X0104648
X0102108
X0099568
Y0018415
X0102108
X0104648
X0107188
X0107315Y0025908
X0104775
X0102235
X0099695
X00630428Y00503428
Y00528828
X005715Y0053086
Y0050546
X0051816
Y0053086
X0046355
Y0050546
X004064
Y0053086
X0004445Y0035306
Y0032766
Y0030226
Y0027686
X0004953Y0059436
X0002413
X0007493
X0010033
X00150876Y00591312
X00176276
X00201676
X00227076
X00274828
X00300228
X00325628
X00351028
X004064Y0058166
Y0055626
X0046355
Y0058166
X0051816
Y0055626
X005715
Y0058166
X00630428Y00579628
Y00554228
T08
X00723392Y00035814
X00748792
X00774192
Y00061214
X00748792
X00723392
X0107188Y0045212
Y0047752
Y0050292
X0004318Y0022606
Y0020066
Y0017526
X0081407Y0060833
X0083947
X0086487
M30
