G04*
G04 #@! TF.GenerationSoftware,Altium Limited,Altium Designer,23.1.1 (15)*
G04*
G04 Layer_Color=8421504*
%FSLAX44Y44*%
%MOMM*%
G71*
G04*
G04 #@! TF.SameCoordinates,F8FEC074-9B5C-4FA2-A9AA-F0323AAD1731*
G04*
G04*
G04 #@! TF.FilePolarity,Positive*
G04*
G01*
G75*
%ADD18R,1.8034X1.1176*%
%ADD19R,1.0000X0.7000*%
%ADD20R,1.1176X1.8034*%
%ADD21O,0.6096X2.2000*%
%ADD22R,1.5000X1.2000*%
%ADD23R,1.1999X1.3998*%
%ADD24R,1.5500X0.5080*%
%ADD25R,0.5080X1.5500*%
%ADD26R,1.8542X1.3716*%
%ADD27R,1.6002X3.0988*%
%ADD28R,1.6002X0.8382*%
D18*
X378460Y181610D02*
D03*
Y211582D02*
D03*
X173990Y453898D02*
D03*
Y483870D02*
D03*
X158750Y391922D02*
D03*
Y361950D02*
D03*
X647700Y137160D02*
D03*
Y167132D02*
D03*
X674370Y332486D02*
D03*
Y302514D02*
D03*
X210820Y390652D02*
D03*
Y360680D02*
D03*
X144780Y453898D02*
D03*
Y483870D02*
D03*
X204470Y483362D02*
D03*
Y453390D02*
D03*
X123190Y539750D02*
D03*
Y569722D02*
D03*
X281940Y486664D02*
D03*
Y516636D02*
D03*
X170180Y185420D02*
D03*
Y215392D02*
D03*
X224790Y185420D02*
D03*
Y215392D02*
D03*
X316230Y459232D02*
D03*
Y429260D02*
D03*
X29210Y167640D02*
D03*
Y197612D02*
D03*
X588010Y239268D02*
D03*
Y269240D02*
D03*
X406400Y127000D02*
D03*
Y97028D02*
D03*
X341630D02*
D03*
Y127000D02*
D03*
X328930Y181610D02*
D03*
Y211582D02*
D03*
X541020Y290068D02*
D03*
Y320040D02*
D03*
X645160Y332232D02*
D03*
Y302260D02*
D03*
X563880Y337820D02*
D03*
Y367792D02*
D03*
X316230Y412242D02*
D03*
Y382270D02*
D03*
D19*
X358140Y553060D02*
D03*
Y543560D02*
D03*
Y534060D02*
D03*
X334515D02*
D03*
Y543560D02*
D03*
Y553060D02*
D03*
D20*
X285242Y109220D02*
D03*
X255270D02*
D03*
X191770D02*
D03*
X221742D02*
D03*
X79248Y595630D02*
D03*
X109220D02*
D03*
X206502Y599440D02*
D03*
X176530D02*
D03*
X120904Y140970D02*
D03*
X150876D02*
D03*
X108712Y299720D02*
D03*
X78740D02*
D03*
D21*
X152400Y569468D02*
D03*
X165100D02*
D03*
X177800D02*
D03*
X190500D02*
D03*
X203200D02*
D03*
X215900D02*
D03*
X228600D02*
D03*
X241300D02*
D03*
Y510032D02*
D03*
X228600D02*
D03*
X215900D02*
D03*
X203200D02*
D03*
X190500D02*
D03*
X177800D02*
D03*
X165100D02*
D03*
X152400D02*
D03*
D22*
X341670Y36830D02*
D03*
X407670Y66830D02*
D03*
Y36830D02*
D03*
X341670Y66830D02*
D03*
D23*
X590931Y297608D02*
D03*
Y319609D02*
D03*
X573931Y297609D02*
D03*
Y319609D02*
D03*
X265430Y443230D02*
D03*
Y421228D02*
D03*
X282430Y443228D02*
D03*
Y421228D02*
D03*
D24*
X708750Y264650D02*
D03*
Y256776D02*
D03*
Y248648D02*
D03*
Y240774D02*
D03*
Y232646D02*
D03*
Y224772D02*
D03*
Y216644D02*
D03*
Y208770D02*
D03*
X624750D02*
D03*
Y216644D02*
D03*
Y224772D02*
D03*
Y232646D02*
D03*
Y240774D02*
D03*
Y248648D02*
D03*
Y256776D02*
D03*
Y264650D02*
D03*
D25*
X694690Y194220D02*
D03*
X686816D02*
D03*
X678688D02*
D03*
X670814D02*
D03*
X662686D02*
D03*
X654812D02*
D03*
X646684D02*
D03*
X638810D02*
D03*
Y278220D02*
D03*
X646684D02*
D03*
X654812D02*
D03*
X662686D02*
D03*
X670814D02*
D03*
X678688D02*
D03*
X686816D02*
D03*
X694690D02*
D03*
D26*
X679450Y135890D02*
D03*
Y167132D02*
D03*
D27*
X69342Y216154D02*
D03*
D28*
X133350Y193040D02*
D03*
Y216154D02*
D03*
Y239268D02*
D03*
M02*
