M48
;Layer_Color=9474304
;FILE_FORMAT=4:4
METRIC,LZ
;TYPE=PLATED
T1F00S00C0.7112
T2F00S00C0.8000
T5F00S00C1.0160
T6F00S00C1.1000
%
T01
X0037338Y0003683
X006477Y001524
X0061722Y0018288
X0064516Y0021717
X0067056Y0021209
X0066421Y0022987
X0066167Y0026035
X0067945
X0064389Y0025781
X00647025Y00317215
X00672612Y00321056
X0070993Y0030734
X0072898Y0030607
X0072517Y0033655
X0074168Y0024638
X0074422Y0021717
X0075946Y0026289
X0062484Y0030861
X0061087Y0029464
X0060452Y0033147
X0058801Y0033782
X0057404Y0038227
X0059436Y0040386
X0062738Y0041275
X0053975Y0043053
X0056007Y0045847
Y0029337
X0058801Y00246634
X0050546Y0023114
X0050927Y0020574
X0044831Y0026416
X0039751Y0017653
X00381Y001397
X0037973Y0011303
X0034163Y0011176
X0031496Y0011684
X0030861Y0014351
X0029972Y0017272
X0032893Y0019685
X0028448Y0022606
X0026924Y00254
X0022479Y00212176
X00270256Y0010922
X0025781Y0035179
X0028702Y0036703
X0028194Y003937
X0033782Y0037338
X0020574Y0043307
X0012446Y0045339
X0010922Y0021971
X0006858Y0024638
X0002921Y00182626
X00136144Y0014097
X0012319Y004826
X00127Y0050292
X0012319Y0055499
X00094488Y0059563
X0022987Y0060071
X0028829Y0060706
X0032258Y0058039
X0034671Y0057785
X0036703Y0051181
X0039243
X0028194Y0050165
X0026289Y0048895
X0026035Y0052197
X0023368Y0047752
X0056007Y0048006
X0056261Y0050165
X0062357
Y0048006
X0062611Y0045974
X0080137Y0061341
X0083439Y0061595
T02
X00065752Y00536632
Y00552632
X00077789Y0056063
Y00544631
Y00528631
T05
X0021336Y0004572
X0023876
X0026416
X0028956
X0078994Y0017653
X0081534
X0084074
X0086614
Y0024384
X0084074
X0081534
X0078994
Y0031496
X0081534
X0084074
X0086614
Y0038481
X0084074
X0081534
X0078994
X0009017
Y0041021
Y0043561
Y0035941
X0003429Y0033528
Y0030988
Y0028448
Y0025908
X0003302Y0063246
X0005842
X0008382
X0010922
X001524Y0063373
X001778
X002032
X002286
X0027178Y00635
X0029718
X0032258
X0034798
T06
X00500634Y0002032
X00526034
X00551434
X00576834
X00602234
X00627634
X00653034
X00678434
X0072898
X0075438
X0077978
X0080518
X0083058
X0085598
X00856234Y0009652
X00830834
X00805434
X00780034
X00754634
X00729234
X00678434
X00653034
X00627634
X00602234
X00576834
X00551434
X00526034
X00500634
X0047244Y0018288
X0044704
X0042164
Y0020828
X0044704
X0047244
X0003429Y0040386
Y0042926
Y0045466
X0040894Y0057912
X0043434
X0045974
X0048514
X0051054
X0053594
Y0065532
X0051054
X0048514
X0045974
X0043434
X0040894
X0056134
X0058674
X0061214
X0063754
X0067818
X0070358
X0072898
X0075438
X0077978
X0080518
X0083058
X0085598
Y0057912
X0083058
X0080518
X0077978
X0075438
X0072898
X0070358
X0067818
X0063754
X0061214
X0058674
X0056134
M30
